G04 #@! TF.GenerationSoftware,KiCad,Pcbnew,(5.1.4-0-10_14)*
G04 #@! TF.CreationDate,2021-06-12T19:38:40+03:00*
G04 #@! TF.ProjectId,corne-top-plate,636f726e-652d-4746-9f70-2d706c617465,2.1*
G04 #@! TF.SameCoordinates,Original*
G04 #@! TF.FileFunction,Copper,L2,Bot*
G04 #@! TF.FilePolarity,Positive*
%FSLAX46Y46*%
G04 Gerber Fmt 4.6, Leading zero omitted, Abs format (unit mm)*
G04 Created by KiCad (PCBNEW (5.1.4-0-10_14)) date 2021-06-12 19:38:40*
%MOMM*%
%LPD*%
G04 APERTURE LIST*
%ADD10C,4.200000*%
%ADD11C,0.254000*%
G04 APERTURE END LIST*
D10*
X169250000Y-130500000D03*
X79500000Y-105500000D03*
X155500000Y-83000000D03*
X79500000Y-86750000D03*
X122750000Y-122750000D03*
D11*
G36*
X135290000Y-62784876D02*
G01*
X135292955Y-62814876D01*
X135292934Y-62817839D01*
X135293901Y-62827705D01*
X135298941Y-62875660D01*
X135300273Y-62889183D01*
X135300410Y-62889634D01*
X135304101Y-62924754D01*
X135317045Y-62987811D01*
X135329099Y-63051001D01*
X135331964Y-63060491D01*
X135360820Y-63153710D01*
X135385752Y-63213021D01*
X135409865Y-63272702D01*
X135414519Y-63281454D01*
X135460932Y-63367292D01*
X135496898Y-63420612D01*
X135532152Y-63474486D01*
X135538417Y-63482168D01*
X135600619Y-63557357D01*
X135646269Y-63602689D01*
X135691299Y-63648673D01*
X135698938Y-63654992D01*
X135774559Y-63716668D01*
X135828147Y-63752272D01*
X135881262Y-63788641D01*
X135889983Y-63793356D01*
X135976144Y-63839168D01*
X136035612Y-63863679D01*
X136094780Y-63889038D01*
X136104249Y-63891969D01*
X136197667Y-63920174D01*
X136260787Y-63932672D01*
X136323743Y-63946054D01*
X136333602Y-63947090D01*
X136430719Y-63956612D01*
X136430723Y-63956612D01*
X136465123Y-63960000D01*
X154290001Y-63960000D01*
X154290000Y-65284876D01*
X154292955Y-65314876D01*
X154292934Y-65317839D01*
X154293901Y-65327705D01*
X154298941Y-65375660D01*
X154300273Y-65389183D01*
X154300410Y-65389634D01*
X154304101Y-65424754D01*
X154317045Y-65487811D01*
X154329099Y-65551001D01*
X154331964Y-65560491D01*
X154360820Y-65653710D01*
X154385752Y-65713021D01*
X154409865Y-65772702D01*
X154414519Y-65781454D01*
X154460932Y-65867292D01*
X154496898Y-65920612D01*
X154532152Y-65974486D01*
X154538417Y-65982168D01*
X154600619Y-66057357D01*
X154646269Y-66102689D01*
X154691299Y-66148673D01*
X154698938Y-66154992D01*
X154774559Y-66216668D01*
X154828147Y-66252272D01*
X154881262Y-66288641D01*
X154889983Y-66293356D01*
X154976144Y-66339168D01*
X155035612Y-66363679D01*
X155094780Y-66389038D01*
X155104249Y-66391969D01*
X155197667Y-66420174D01*
X155260787Y-66432672D01*
X155323743Y-66446054D01*
X155333602Y-66447090D01*
X155430719Y-66456612D01*
X155430723Y-66456612D01*
X155465123Y-66460000D01*
X173289989Y-66460000D01*
X173287281Y-116845030D01*
X173290608Y-116878830D01*
X173290609Y-116878842D01*
X173301690Y-116992908D01*
X173312058Y-117045518D01*
X173320093Y-117098572D01*
X173322594Y-117108164D01*
X173365582Y-117268462D01*
X173388239Y-117328700D01*
X173410049Y-117389239D01*
X173414366Y-117398163D01*
X173487671Y-117547059D01*
X173521570Y-117601706D01*
X173554746Y-117656893D01*
X173560714Y-117664808D01*
X173661543Y-117796630D01*
X173705431Y-117843674D01*
X173748676Y-117891346D01*
X173756067Y-117897951D01*
X173855081Y-117985206D01*
X173879638Y-118011422D01*
X173964838Y-118072466D01*
X192865230Y-128982842D01*
X192975751Y-129073473D01*
X193059245Y-129174952D01*
X193121444Y-129290724D01*
X193159969Y-129416366D01*
X193173357Y-129547101D01*
X193161097Y-129677939D01*
X193123655Y-129803913D01*
X193048378Y-129946974D01*
X180711149Y-151376503D01*
X180620779Y-151486705D01*
X180519299Y-151570201D01*
X180403527Y-151632400D01*
X180277885Y-151670925D01*
X180147150Y-151684313D01*
X180016312Y-151672053D01*
X179890338Y-151634611D01*
X179746290Y-151558814D01*
X165400066Y-143267823D01*
X165304615Y-143224525D01*
X165168424Y-143192709D01*
X165156734Y-143192321D01*
X164569638Y-143076079D01*
X164546731Y-143070775D01*
X127871366Y-138299807D01*
X117406664Y-123949923D01*
X117336904Y-123871699D01*
X117295505Y-123840476D01*
X117225441Y-123783332D01*
X117171853Y-123747728D01*
X117118738Y-123711359D01*
X117110017Y-123706644D01*
X117023856Y-123660832D01*
X116964388Y-123636321D01*
X116905220Y-123610962D01*
X116895751Y-123608031D01*
X116802333Y-123579826D01*
X116739213Y-123567328D01*
X116676257Y-123553946D01*
X116666398Y-123552910D01*
X116569281Y-123543388D01*
X116569277Y-123543388D01*
X116534877Y-123540000D01*
X61710000Y-123540000D01*
X61710000Y-108125000D01*
X62311638Y-108125000D01*
X62315000Y-108159135D01*
X62315001Y-122090855D01*
X62311638Y-122125000D01*
X62325057Y-122261244D01*
X62364798Y-122392252D01*
X62429333Y-122512989D01*
X62516183Y-122618817D01*
X62622011Y-122705667D01*
X62742748Y-122770202D01*
X62873756Y-122809943D01*
X62975865Y-122820000D01*
X62975866Y-122820000D01*
X63010000Y-122823362D01*
X63044135Y-122820000D01*
X76975865Y-122820000D01*
X77010000Y-122823362D01*
X77044134Y-122820000D01*
X77044135Y-122820000D01*
X77146244Y-122809943D01*
X77277252Y-122770202D01*
X77397989Y-122705667D01*
X77503817Y-122618817D01*
X77590667Y-122512989D01*
X77655202Y-122392252D01*
X77694943Y-122261244D01*
X77708362Y-122125000D01*
X77705000Y-122090865D01*
X77705000Y-108159135D01*
X77708362Y-108125000D01*
X77694943Y-107988756D01*
X77655202Y-107857748D01*
X77590667Y-107737011D01*
X77503817Y-107631183D01*
X77397989Y-107544333D01*
X77277252Y-107479798D01*
X77146244Y-107440057D01*
X77044135Y-107430000D01*
X77010000Y-107426638D01*
X76975866Y-107430000D01*
X63044134Y-107430000D01*
X63010000Y-107426638D01*
X62975865Y-107430000D01*
X62873756Y-107440057D01*
X62742748Y-107479798D01*
X62622011Y-107544333D01*
X62516183Y-107631183D01*
X62429333Y-107737011D01*
X62364798Y-107857748D01*
X62325057Y-107988756D01*
X62311638Y-108125000D01*
X61710000Y-108125000D01*
X61710000Y-105230626D01*
X76765000Y-105230626D01*
X76765000Y-105769374D01*
X76870105Y-106297770D01*
X77076275Y-106795508D01*
X77375587Y-107243461D01*
X77756539Y-107624413D01*
X78204492Y-107923725D01*
X78702230Y-108129895D01*
X79230626Y-108235000D01*
X79769374Y-108235000D01*
X80297770Y-108129895D01*
X80309587Y-108125000D01*
X81311638Y-108125000D01*
X81315000Y-108159135D01*
X81315001Y-122090855D01*
X81311638Y-122125000D01*
X81325057Y-122261244D01*
X81364798Y-122392252D01*
X81429333Y-122512989D01*
X81516183Y-122618817D01*
X81622011Y-122705667D01*
X81742748Y-122770202D01*
X81873756Y-122809943D01*
X81975865Y-122820000D01*
X81975866Y-122820000D01*
X82010000Y-122823362D01*
X82044135Y-122820000D01*
X95975865Y-122820000D01*
X96010000Y-122823362D01*
X96044134Y-122820000D01*
X96044135Y-122820000D01*
X96146244Y-122809943D01*
X96277252Y-122770202D01*
X96397989Y-122705667D01*
X96503817Y-122618817D01*
X96590667Y-122512989D01*
X96607965Y-122480626D01*
X120015000Y-122480626D01*
X120015000Y-123019374D01*
X120120105Y-123547770D01*
X120326275Y-124045508D01*
X120625587Y-124493461D01*
X121006539Y-124874413D01*
X121454492Y-125173725D01*
X121952230Y-125379895D01*
X122480626Y-125485000D01*
X123019374Y-125485000D01*
X123547770Y-125379895D01*
X124045508Y-125173725D01*
X124493461Y-124874413D01*
X124874413Y-124493461D01*
X125173725Y-124045508D01*
X125379895Y-123547770D01*
X125481891Y-123035000D01*
X128831638Y-123035000D01*
X128835000Y-123069135D01*
X128835001Y-137000855D01*
X128831638Y-137035000D01*
X128845057Y-137171244D01*
X128884798Y-137302252D01*
X128949333Y-137422989D01*
X129036183Y-137528817D01*
X129142011Y-137615667D01*
X129262748Y-137680202D01*
X129393756Y-137719943D01*
X129495865Y-137730000D01*
X129495866Y-137730000D01*
X129530000Y-137733362D01*
X129564135Y-137730000D01*
X143495865Y-137730000D01*
X143530000Y-137733362D01*
X143564134Y-137730000D01*
X143564135Y-137730000D01*
X143666244Y-137719943D01*
X143797252Y-137680202D01*
X143857361Y-137648073D01*
X148221920Y-137648073D01*
X148226399Y-137784902D01*
X148257486Y-137918227D01*
X148313987Y-138042928D01*
X148393730Y-138154209D01*
X148493650Y-138247794D01*
X148609909Y-138320088D01*
X148705935Y-138356230D01*
X148705938Y-138356231D01*
X148738037Y-138368312D01*
X148771876Y-138373899D01*
X162228902Y-141979699D01*
X162260998Y-141991779D01*
X162294834Y-141997365D01*
X162294840Y-141997367D01*
X162396072Y-142014080D01*
X162396073Y-142014080D01*
X162532902Y-142009601D01*
X162585371Y-141997367D01*
X162666228Y-141978514D01*
X162790928Y-141922013D01*
X162902209Y-141842270D01*
X162995794Y-141742350D01*
X163068089Y-141626092D01*
X163116313Y-141497963D01*
X163121901Y-141464114D01*
X163757278Y-139092852D01*
X169490956Y-139092852D01*
X169513256Y-139227927D01*
X169561481Y-139356055D01*
X169633774Y-139472313D01*
X169727360Y-139572234D01*
X169767819Y-139601226D01*
X169838642Y-139651977D01*
X169869883Y-139666132D01*
X181935124Y-146632003D01*
X181962998Y-146651977D01*
X181994232Y-146666129D01*
X181994239Y-146666133D01*
X182050994Y-146691848D01*
X182087698Y-146708478D01*
X182170605Y-146727809D01*
X182221023Y-146739565D01*
X182357852Y-146744044D01*
X182492927Y-146721744D01*
X182621055Y-146673519D01*
X182632933Y-146666133D01*
X182737313Y-146601226D01*
X182837234Y-146507640D01*
X182896998Y-146424239D01*
X182897003Y-146424231D01*
X182916976Y-146396358D01*
X182931128Y-146365125D01*
X189897007Y-134299869D01*
X189916976Y-134272002D01*
X189931124Y-134240776D01*
X189931133Y-134240761D01*
X189973477Y-134147303D01*
X190004565Y-134013977D01*
X190009044Y-133877148D01*
X189986744Y-133742073D01*
X189986744Y-133742072D01*
X189938519Y-133613943D01*
X189866225Y-133497686D01*
X189772639Y-133397765D01*
X189689239Y-133338001D01*
X189689224Y-133337992D01*
X189661358Y-133318024D01*
X189630133Y-133303876D01*
X177564873Y-126337996D01*
X177537002Y-126318024D01*
X177505771Y-126303873D01*
X177505760Y-126303867D01*
X177412302Y-126261522D01*
X177278975Y-126230435D01*
X177142148Y-126225956D01*
X177142147Y-126225956D01*
X177007072Y-126248256D01*
X176878943Y-126296481D01*
X176789794Y-126351918D01*
X176762687Y-126368774D01*
X176762686Y-126368775D01*
X176662765Y-126462361D01*
X176603001Y-126545761D01*
X176602996Y-126545769D01*
X176583023Y-126573642D01*
X176568871Y-126604875D01*
X169603000Y-138670120D01*
X169583023Y-138697998D01*
X169526522Y-138822698D01*
X169495435Y-138956025D01*
X169490956Y-139092852D01*
X163757278Y-139092852D01*
X166131905Y-130230626D01*
X166515000Y-130230626D01*
X166515000Y-130769374D01*
X166620105Y-131297770D01*
X166826275Y-131795508D01*
X167125587Y-132243461D01*
X167506539Y-132624413D01*
X167954492Y-132923725D01*
X168452230Y-133129895D01*
X168980626Y-133235000D01*
X169519374Y-133235000D01*
X170047770Y-133129895D01*
X170545508Y-132923725D01*
X170993461Y-132624413D01*
X171374413Y-132243461D01*
X171673725Y-131795508D01*
X171879895Y-131297770D01*
X171985000Y-130769374D01*
X171985000Y-130230626D01*
X171879895Y-129702230D01*
X171673725Y-129204492D01*
X171374413Y-128756539D01*
X170993461Y-128375587D01*
X170545508Y-128076275D01*
X170047770Y-127870105D01*
X169519374Y-127765000D01*
X168980626Y-127765000D01*
X168452230Y-127870105D01*
X167954492Y-128076275D01*
X167506539Y-128375587D01*
X167125587Y-128756539D01*
X166826275Y-129204492D01*
X166620105Y-129702230D01*
X166515000Y-130230626D01*
X166131905Y-130230626D01*
X166727696Y-128007108D01*
X166739780Y-127975002D01*
X166762081Y-127839927D01*
X166757601Y-127703098D01*
X166726514Y-127569772D01*
X166670014Y-127445071D01*
X166590270Y-127333790D01*
X166490350Y-127240205D01*
X166374092Y-127167911D01*
X166278065Y-127131769D01*
X166278063Y-127131768D01*
X166245963Y-127119687D01*
X166212124Y-127114100D01*
X152755108Y-123508304D01*
X152723002Y-123496220D01*
X152587927Y-123473919D01*
X152451098Y-123478399D01*
X152317772Y-123509486D01*
X152193071Y-123565986D01*
X152081790Y-123645730D01*
X151988205Y-123745650D01*
X151915911Y-123861908D01*
X151879769Y-123957935D01*
X151879766Y-123957947D01*
X151867688Y-123990037D01*
X151862103Y-124023866D01*
X148256301Y-137480903D01*
X148244221Y-137512998D01*
X148238635Y-137546834D01*
X148238633Y-137546840D01*
X148227270Y-137615667D01*
X148221920Y-137648073D01*
X143857361Y-137648073D01*
X143917989Y-137615667D01*
X144023817Y-137528817D01*
X144110667Y-137422989D01*
X144175202Y-137302252D01*
X144214943Y-137171244D01*
X144228362Y-137035000D01*
X144225000Y-137000865D01*
X144225000Y-123069135D01*
X144228362Y-123035000D01*
X144214943Y-122898756D01*
X144175202Y-122767748D01*
X144110667Y-122647011D01*
X144023817Y-122541183D01*
X143917989Y-122454333D01*
X143797252Y-122389798D01*
X143666244Y-122350057D01*
X143564135Y-122340000D01*
X143530000Y-122336638D01*
X143495866Y-122340000D01*
X129564134Y-122340000D01*
X129530000Y-122336638D01*
X129495865Y-122340000D01*
X129393756Y-122350057D01*
X129262748Y-122389798D01*
X129142011Y-122454333D01*
X129036183Y-122541183D01*
X128949333Y-122647011D01*
X128884798Y-122767748D01*
X128845057Y-122898756D01*
X128831638Y-123035000D01*
X125481891Y-123035000D01*
X125485000Y-123019374D01*
X125485000Y-122480626D01*
X125379895Y-121952230D01*
X125173725Y-121454492D01*
X124874413Y-121006539D01*
X124493461Y-120625587D01*
X124045508Y-120326275D01*
X123547770Y-120120105D01*
X123019374Y-120015000D01*
X122480626Y-120015000D01*
X121952230Y-120120105D01*
X121454492Y-120326275D01*
X121006539Y-120625587D01*
X120625587Y-121006539D01*
X120326275Y-121454492D01*
X120120105Y-121952230D01*
X120015000Y-122480626D01*
X96607965Y-122480626D01*
X96655202Y-122392252D01*
X96694943Y-122261244D01*
X96708362Y-122125000D01*
X96705000Y-122090865D01*
X96705000Y-108159135D01*
X96708362Y-108125000D01*
X96694943Y-107988756D01*
X96655202Y-107857748D01*
X96590667Y-107737011D01*
X96503817Y-107631183D01*
X96397989Y-107544333D01*
X96277252Y-107479798D01*
X96146244Y-107440057D01*
X96044135Y-107430000D01*
X96010000Y-107426638D01*
X95975866Y-107430000D01*
X82044134Y-107430000D01*
X82010000Y-107426638D01*
X81975865Y-107430000D01*
X81873756Y-107440057D01*
X81742748Y-107479798D01*
X81622011Y-107544333D01*
X81516183Y-107631183D01*
X81429333Y-107737011D01*
X81364798Y-107857748D01*
X81325057Y-107988756D01*
X81311638Y-108125000D01*
X80309587Y-108125000D01*
X80795508Y-107923725D01*
X81243461Y-107624413D01*
X81624413Y-107243461D01*
X81923725Y-106795508D01*
X82129895Y-106297770D01*
X82235000Y-105769374D01*
X82235000Y-105230626D01*
X82129895Y-104702230D01*
X81923725Y-104204492D01*
X81624413Y-103756539D01*
X81243461Y-103375587D01*
X80795508Y-103076275D01*
X80297770Y-102870105D01*
X79769374Y-102765000D01*
X79230626Y-102765000D01*
X78702230Y-102870105D01*
X78204492Y-103076275D01*
X77756539Y-103375587D01*
X77375587Y-103756539D01*
X77076275Y-104204492D01*
X76870105Y-104702230D01*
X76765000Y-105230626D01*
X61710000Y-105230626D01*
X61710000Y-89125000D01*
X62311638Y-89125000D01*
X62315000Y-89159135D01*
X62315001Y-103090855D01*
X62311638Y-103125000D01*
X62325057Y-103261244D01*
X62364798Y-103392252D01*
X62429333Y-103512989D01*
X62516183Y-103618817D01*
X62622011Y-103705667D01*
X62742748Y-103770202D01*
X62873756Y-103809943D01*
X62975865Y-103820000D01*
X62975866Y-103820000D01*
X63010000Y-103823362D01*
X63044135Y-103820000D01*
X76975865Y-103820000D01*
X77010000Y-103823362D01*
X77044134Y-103820000D01*
X77044135Y-103820000D01*
X77146244Y-103809943D01*
X77277252Y-103770202D01*
X77397989Y-103705667D01*
X77503817Y-103618817D01*
X77590667Y-103512989D01*
X77655202Y-103392252D01*
X77694943Y-103261244D01*
X77708362Y-103125000D01*
X77705000Y-103090865D01*
X77705000Y-89159135D01*
X77708362Y-89125000D01*
X77694943Y-88988756D01*
X77655202Y-88857748D01*
X77590667Y-88737011D01*
X77503817Y-88631183D01*
X77397989Y-88544333D01*
X77277252Y-88479798D01*
X77146244Y-88440057D01*
X77044135Y-88430000D01*
X77010000Y-88426638D01*
X76975866Y-88430000D01*
X63044134Y-88430000D01*
X63010000Y-88426638D01*
X62975865Y-88430000D01*
X62873756Y-88440057D01*
X62742748Y-88479798D01*
X62622011Y-88544333D01*
X62516183Y-88631183D01*
X62429333Y-88737011D01*
X62364798Y-88857748D01*
X62325057Y-88988756D01*
X62311638Y-89125000D01*
X61710000Y-89125000D01*
X61710000Y-86480626D01*
X76765000Y-86480626D01*
X76765000Y-87019374D01*
X76870105Y-87547770D01*
X77076275Y-88045508D01*
X77375587Y-88493461D01*
X77756539Y-88874413D01*
X78204492Y-89173725D01*
X78702230Y-89379895D01*
X79230626Y-89485000D01*
X79769374Y-89485000D01*
X80297770Y-89379895D01*
X80795508Y-89173725D01*
X80868430Y-89125000D01*
X81311638Y-89125000D01*
X81315000Y-89159135D01*
X81315001Y-103090855D01*
X81311638Y-103125000D01*
X81325057Y-103261244D01*
X81364798Y-103392252D01*
X81429333Y-103512989D01*
X81516183Y-103618817D01*
X81622011Y-103705667D01*
X81742748Y-103770202D01*
X81873756Y-103809943D01*
X81975865Y-103820000D01*
X81975866Y-103820000D01*
X82010000Y-103823362D01*
X82044135Y-103820000D01*
X95975865Y-103820000D01*
X96010000Y-103823362D01*
X96044134Y-103820000D01*
X96044135Y-103820000D01*
X96146244Y-103809943D01*
X96277252Y-103770202D01*
X96397989Y-103705667D01*
X96503817Y-103618817D01*
X96590667Y-103512989D01*
X96655202Y-103392252D01*
X96660435Y-103375000D01*
X100311638Y-103375000D01*
X100315000Y-103409135D01*
X100315001Y-117340855D01*
X100311638Y-117375000D01*
X100325057Y-117511244D01*
X100364798Y-117642252D01*
X100429333Y-117762989D01*
X100516183Y-117868817D01*
X100622011Y-117955667D01*
X100742748Y-118020202D01*
X100873756Y-118059943D01*
X100975865Y-118070000D01*
X100975866Y-118070000D01*
X101010000Y-118073362D01*
X101044135Y-118070000D01*
X114975865Y-118070000D01*
X115010000Y-118073362D01*
X115044134Y-118070000D01*
X115044135Y-118070000D01*
X115146244Y-118059943D01*
X115277252Y-118020202D01*
X115397989Y-117955667D01*
X115503817Y-117868817D01*
X115590667Y-117762989D01*
X115655202Y-117642252D01*
X115694943Y-117511244D01*
X115708362Y-117375000D01*
X115705000Y-117340865D01*
X115705000Y-103409135D01*
X115708362Y-103375000D01*
X115694943Y-103238756D01*
X115655202Y-103107748D01*
X115590667Y-102987011D01*
X115503817Y-102881183D01*
X115397989Y-102794333D01*
X115277252Y-102729798D01*
X115146244Y-102690057D01*
X115044135Y-102680000D01*
X115010000Y-102676638D01*
X114975866Y-102680000D01*
X101044134Y-102680000D01*
X101010000Y-102676638D01*
X100975865Y-102680000D01*
X100873756Y-102690057D01*
X100742748Y-102729798D01*
X100622011Y-102794333D01*
X100516183Y-102881183D01*
X100429333Y-102987011D01*
X100364798Y-103107748D01*
X100325057Y-103238756D01*
X100311638Y-103375000D01*
X96660435Y-103375000D01*
X96694943Y-103261244D01*
X96708362Y-103125000D01*
X96705000Y-103090865D01*
X96705000Y-101000000D01*
X119311638Y-101000000D01*
X119315000Y-101034135D01*
X119315001Y-114965855D01*
X119311638Y-115000000D01*
X119325057Y-115136244D01*
X119364798Y-115267252D01*
X119429333Y-115387989D01*
X119516183Y-115493817D01*
X119622011Y-115580667D01*
X119742748Y-115645202D01*
X119873756Y-115684943D01*
X119975865Y-115695000D01*
X119975866Y-115695000D01*
X120010000Y-115698362D01*
X120044135Y-115695000D01*
X133975865Y-115695000D01*
X134010000Y-115698362D01*
X134044134Y-115695000D01*
X134044135Y-115695000D01*
X134146244Y-115684943D01*
X134277252Y-115645202D01*
X134397989Y-115580667D01*
X134503817Y-115493817D01*
X134590667Y-115387989D01*
X134655202Y-115267252D01*
X134694943Y-115136244D01*
X134708362Y-115000000D01*
X134705000Y-114965865D01*
X134705000Y-103375000D01*
X138311638Y-103375000D01*
X138315000Y-103409135D01*
X138315001Y-117340855D01*
X138311638Y-117375000D01*
X138325057Y-117511244D01*
X138364798Y-117642252D01*
X138429333Y-117762989D01*
X138516183Y-117868817D01*
X138622011Y-117955667D01*
X138742748Y-118020202D01*
X138873756Y-118059943D01*
X138975865Y-118070000D01*
X138975866Y-118070000D01*
X139010000Y-118073362D01*
X139044135Y-118070000D01*
X152975865Y-118070000D01*
X153010000Y-118073362D01*
X153044134Y-118070000D01*
X153044135Y-118070000D01*
X153146244Y-118059943D01*
X153277252Y-118020202D01*
X153397989Y-117955667D01*
X153503817Y-117868817D01*
X153590667Y-117762989D01*
X153655202Y-117642252D01*
X153694943Y-117511244D01*
X153708362Y-117375000D01*
X153705000Y-117340865D01*
X153705000Y-105750000D01*
X157311638Y-105750000D01*
X157315000Y-105784135D01*
X157315001Y-119715855D01*
X157311638Y-119750000D01*
X157325057Y-119886244D01*
X157364798Y-120017252D01*
X157429333Y-120137989D01*
X157516183Y-120243817D01*
X157622011Y-120330667D01*
X157742748Y-120395202D01*
X157873756Y-120434943D01*
X157975865Y-120445000D01*
X157975866Y-120445000D01*
X158010000Y-120448362D01*
X158044135Y-120445000D01*
X171975865Y-120445000D01*
X172010000Y-120448362D01*
X172044134Y-120445000D01*
X172044135Y-120445000D01*
X172146244Y-120434943D01*
X172277252Y-120395202D01*
X172397989Y-120330667D01*
X172503817Y-120243817D01*
X172590667Y-120137989D01*
X172655202Y-120017252D01*
X172694943Y-119886244D01*
X172708362Y-119750000D01*
X172705000Y-119715865D01*
X172705000Y-105784135D01*
X172708362Y-105750000D01*
X172694943Y-105613756D01*
X172655202Y-105482748D01*
X172590667Y-105362011D01*
X172503817Y-105256183D01*
X172397989Y-105169333D01*
X172277252Y-105104798D01*
X172146244Y-105065057D01*
X172044135Y-105055000D01*
X172010000Y-105051638D01*
X171975866Y-105055000D01*
X158044134Y-105055000D01*
X158010000Y-105051638D01*
X157975865Y-105055000D01*
X157873756Y-105065057D01*
X157742748Y-105104798D01*
X157622011Y-105169333D01*
X157516183Y-105256183D01*
X157429333Y-105362011D01*
X157364798Y-105482748D01*
X157325057Y-105613756D01*
X157311638Y-105750000D01*
X153705000Y-105750000D01*
X153705000Y-103409135D01*
X153708362Y-103375000D01*
X153694943Y-103238756D01*
X153655202Y-103107748D01*
X153590667Y-102987011D01*
X153503817Y-102881183D01*
X153397989Y-102794333D01*
X153277252Y-102729798D01*
X153146244Y-102690057D01*
X153044135Y-102680000D01*
X153010000Y-102676638D01*
X152975866Y-102680000D01*
X139044134Y-102680000D01*
X139010000Y-102676638D01*
X138975865Y-102680000D01*
X138873756Y-102690057D01*
X138742748Y-102729798D01*
X138622011Y-102794333D01*
X138516183Y-102881183D01*
X138429333Y-102987011D01*
X138364798Y-103107748D01*
X138325057Y-103238756D01*
X138311638Y-103375000D01*
X134705000Y-103375000D01*
X134705000Y-101034135D01*
X134708362Y-101000000D01*
X134694943Y-100863756D01*
X134655202Y-100732748D01*
X134590667Y-100612011D01*
X134503817Y-100506183D01*
X134397989Y-100419333D01*
X134277252Y-100354798D01*
X134146244Y-100315057D01*
X134044135Y-100305000D01*
X134010000Y-100301638D01*
X133975866Y-100305000D01*
X120044134Y-100305000D01*
X120010000Y-100301638D01*
X119975865Y-100305000D01*
X119873756Y-100315057D01*
X119742748Y-100354798D01*
X119622011Y-100419333D01*
X119516183Y-100506183D01*
X119429333Y-100612011D01*
X119364798Y-100732748D01*
X119325057Y-100863756D01*
X119311638Y-101000000D01*
X96705000Y-101000000D01*
X96705000Y-89159135D01*
X96708362Y-89125000D01*
X96694943Y-88988756D01*
X96655202Y-88857748D01*
X96590667Y-88737011D01*
X96503817Y-88631183D01*
X96397989Y-88544333D01*
X96277252Y-88479798D01*
X96146244Y-88440057D01*
X96044135Y-88430000D01*
X96010000Y-88426638D01*
X95975866Y-88430000D01*
X82044134Y-88430000D01*
X82010000Y-88426638D01*
X81975865Y-88430000D01*
X81873756Y-88440057D01*
X81742748Y-88479798D01*
X81622011Y-88544333D01*
X81516183Y-88631183D01*
X81429333Y-88737011D01*
X81364798Y-88857748D01*
X81325057Y-88988756D01*
X81311638Y-89125000D01*
X80868430Y-89125000D01*
X81243461Y-88874413D01*
X81624413Y-88493461D01*
X81923725Y-88045508D01*
X82129895Y-87547770D01*
X82235000Y-87019374D01*
X82235000Y-86480626D01*
X82129895Y-85952230D01*
X81923725Y-85454492D01*
X81624413Y-85006539D01*
X81243461Y-84625587D01*
X80795508Y-84326275D01*
X80297770Y-84120105D01*
X79769374Y-84015000D01*
X79230626Y-84015000D01*
X78702230Y-84120105D01*
X78204492Y-84326275D01*
X77756539Y-84625587D01*
X77375587Y-85006539D01*
X77076275Y-85454492D01*
X76870105Y-85952230D01*
X76765000Y-86480626D01*
X61710000Y-86480626D01*
X61710000Y-70125000D01*
X62311638Y-70125000D01*
X62315000Y-70159135D01*
X62315001Y-84090855D01*
X62311638Y-84125000D01*
X62325057Y-84261244D01*
X62364798Y-84392252D01*
X62429333Y-84512989D01*
X62516183Y-84618817D01*
X62622011Y-84705667D01*
X62742748Y-84770202D01*
X62873756Y-84809943D01*
X62975865Y-84820000D01*
X62975866Y-84820000D01*
X63010000Y-84823362D01*
X63044135Y-84820000D01*
X76975865Y-84820000D01*
X77010000Y-84823362D01*
X77044134Y-84820000D01*
X77044135Y-84820000D01*
X77146244Y-84809943D01*
X77277252Y-84770202D01*
X77397989Y-84705667D01*
X77503817Y-84618817D01*
X77590667Y-84512989D01*
X77655202Y-84392252D01*
X77694943Y-84261244D01*
X77708362Y-84125000D01*
X77705000Y-84090865D01*
X77705000Y-70159135D01*
X77708362Y-70125000D01*
X81311638Y-70125000D01*
X81315000Y-70159135D01*
X81315001Y-84090855D01*
X81311638Y-84125000D01*
X81325057Y-84261244D01*
X81364798Y-84392252D01*
X81429333Y-84512989D01*
X81516183Y-84618817D01*
X81622011Y-84705667D01*
X81742748Y-84770202D01*
X81873756Y-84809943D01*
X81975865Y-84820000D01*
X81975866Y-84820000D01*
X82010000Y-84823362D01*
X82044135Y-84820000D01*
X95975865Y-84820000D01*
X96010000Y-84823362D01*
X96044134Y-84820000D01*
X96044135Y-84820000D01*
X96146244Y-84809943D01*
X96277252Y-84770202D01*
X96397989Y-84705667D01*
X96503817Y-84618817D01*
X96590667Y-84512989D01*
X96655202Y-84392252D01*
X96660435Y-84375000D01*
X100311638Y-84375000D01*
X100315000Y-84409135D01*
X100315001Y-98340855D01*
X100311638Y-98375000D01*
X100325057Y-98511244D01*
X100364798Y-98642252D01*
X100429333Y-98762989D01*
X100516183Y-98868817D01*
X100622011Y-98955667D01*
X100742748Y-99020202D01*
X100873756Y-99059943D01*
X100975865Y-99070000D01*
X100975866Y-99070000D01*
X101010000Y-99073362D01*
X101044135Y-99070000D01*
X114975865Y-99070000D01*
X115010000Y-99073362D01*
X115044134Y-99070000D01*
X115044135Y-99070000D01*
X115146244Y-99059943D01*
X115277252Y-99020202D01*
X115397989Y-98955667D01*
X115503817Y-98868817D01*
X115590667Y-98762989D01*
X115655202Y-98642252D01*
X115694943Y-98511244D01*
X115708362Y-98375000D01*
X115705000Y-98340865D01*
X115705000Y-84409135D01*
X115708362Y-84375000D01*
X115694943Y-84238756D01*
X115655202Y-84107748D01*
X115590667Y-83987011D01*
X115503817Y-83881183D01*
X115397989Y-83794333D01*
X115277252Y-83729798D01*
X115146244Y-83690057D01*
X115044135Y-83680000D01*
X115010000Y-83676638D01*
X114975866Y-83680000D01*
X101044134Y-83680000D01*
X101010000Y-83676638D01*
X100975865Y-83680000D01*
X100873756Y-83690057D01*
X100742748Y-83729798D01*
X100622011Y-83794333D01*
X100516183Y-83881183D01*
X100429333Y-83987011D01*
X100364798Y-84107748D01*
X100325057Y-84238756D01*
X100311638Y-84375000D01*
X96660435Y-84375000D01*
X96694943Y-84261244D01*
X96708362Y-84125000D01*
X96705000Y-84090865D01*
X96705000Y-82000000D01*
X119311638Y-82000000D01*
X119315000Y-82034135D01*
X119315001Y-95965855D01*
X119311638Y-96000000D01*
X119325057Y-96136244D01*
X119364798Y-96267252D01*
X119429333Y-96387989D01*
X119516183Y-96493817D01*
X119622011Y-96580667D01*
X119742748Y-96645202D01*
X119873756Y-96684943D01*
X119975865Y-96695000D01*
X119975866Y-96695000D01*
X120010000Y-96698362D01*
X120044135Y-96695000D01*
X133975865Y-96695000D01*
X134010000Y-96698362D01*
X134044134Y-96695000D01*
X134044135Y-96695000D01*
X134146244Y-96684943D01*
X134277252Y-96645202D01*
X134397989Y-96580667D01*
X134503817Y-96493817D01*
X134590667Y-96387989D01*
X134655202Y-96267252D01*
X134694943Y-96136244D01*
X134708362Y-96000000D01*
X134705000Y-95965865D01*
X134705000Y-84375000D01*
X138311638Y-84375000D01*
X138315000Y-84409135D01*
X138315001Y-98340855D01*
X138311638Y-98375000D01*
X138325057Y-98511244D01*
X138364798Y-98642252D01*
X138429333Y-98762989D01*
X138516183Y-98868817D01*
X138622011Y-98955667D01*
X138742748Y-99020202D01*
X138873756Y-99059943D01*
X138975865Y-99070000D01*
X138975866Y-99070000D01*
X139010000Y-99073362D01*
X139044135Y-99070000D01*
X152975865Y-99070000D01*
X153010000Y-99073362D01*
X153044134Y-99070000D01*
X153044135Y-99070000D01*
X153146244Y-99059943D01*
X153277252Y-99020202D01*
X153397989Y-98955667D01*
X153503817Y-98868817D01*
X153590667Y-98762989D01*
X153655202Y-98642252D01*
X153694943Y-98511244D01*
X153708362Y-98375000D01*
X153705000Y-98340865D01*
X153705000Y-86750000D01*
X157311638Y-86750000D01*
X157315000Y-86784135D01*
X157315001Y-100715855D01*
X157311638Y-100750000D01*
X157325057Y-100886244D01*
X157364798Y-101017252D01*
X157429333Y-101137989D01*
X157516183Y-101243817D01*
X157622011Y-101330667D01*
X157742748Y-101395202D01*
X157873756Y-101434943D01*
X157975865Y-101445000D01*
X157975866Y-101445000D01*
X158010000Y-101448362D01*
X158044135Y-101445000D01*
X171975865Y-101445000D01*
X172010000Y-101448362D01*
X172044134Y-101445000D01*
X172044135Y-101445000D01*
X172146244Y-101434943D01*
X172277252Y-101395202D01*
X172397989Y-101330667D01*
X172503817Y-101243817D01*
X172590667Y-101137989D01*
X172655202Y-101017252D01*
X172694943Y-100886244D01*
X172708362Y-100750000D01*
X172705000Y-100715865D01*
X172705000Y-86784135D01*
X172708362Y-86750000D01*
X172694943Y-86613756D01*
X172655202Y-86482748D01*
X172590667Y-86362011D01*
X172503817Y-86256183D01*
X172397989Y-86169333D01*
X172277252Y-86104798D01*
X172146244Y-86065057D01*
X172044135Y-86055000D01*
X172010000Y-86051638D01*
X171975866Y-86055000D01*
X158044134Y-86055000D01*
X158010000Y-86051638D01*
X157975865Y-86055000D01*
X157873756Y-86065057D01*
X157742748Y-86104798D01*
X157622011Y-86169333D01*
X157516183Y-86256183D01*
X157429333Y-86362011D01*
X157364798Y-86482748D01*
X157325057Y-86613756D01*
X157311638Y-86750000D01*
X153705000Y-86750000D01*
X153705000Y-85072874D01*
X153756539Y-85124413D01*
X154204492Y-85423725D01*
X154702230Y-85629895D01*
X155230626Y-85735000D01*
X155769374Y-85735000D01*
X156297770Y-85629895D01*
X156795508Y-85423725D01*
X157243461Y-85124413D01*
X157624413Y-84743461D01*
X157923725Y-84295508D01*
X158129895Y-83797770D01*
X158235000Y-83269374D01*
X158235000Y-82730626D01*
X158178185Y-82445000D01*
X171975865Y-82445000D01*
X172010000Y-82448362D01*
X172044134Y-82445000D01*
X172044135Y-82445000D01*
X172146244Y-82434943D01*
X172277252Y-82395202D01*
X172397989Y-82330667D01*
X172503817Y-82243817D01*
X172590667Y-82137989D01*
X172655202Y-82017252D01*
X172694943Y-81886244D01*
X172708362Y-81750000D01*
X172705000Y-81715865D01*
X172705000Y-67784135D01*
X172708362Y-67750000D01*
X172696381Y-67628351D01*
X172694943Y-67613756D01*
X172655202Y-67482748D01*
X172590667Y-67362011D01*
X172503817Y-67256183D01*
X172397989Y-67169333D01*
X172277252Y-67104798D01*
X172146244Y-67065057D01*
X172010000Y-67051638D01*
X171975866Y-67055000D01*
X158044134Y-67055000D01*
X158010000Y-67051638D01*
X157975865Y-67055000D01*
X157873756Y-67065057D01*
X157742748Y-67104798D01*
X157622011Y-67169333D01*
X157516183Y-67256183D01*
X157429333Y-67362011D01*
X157364798Y-67482748D01*
X157325057Y-67613756D01*
X157311638Y-67750000D01*
X157315000Y-67784135D01*
X157315001Y-80947127D01*
X157243461Y-80875587D01*
X156795508Y-80576275D01*
X156297770Y-80370105D01*
X155769374Y-80265000D01*
X155230626Y-80265000D01*
X154702230Y-80370105D01*
X154204492Y-80576275D01*
X153756539Y-80875587D01*
X153375587Y-81256539D01*
X153076275Y-81704492D01*
X152870105Y-82202230D01*
X152765000Y-82730626D01*
X152765000Y-83269374D01*
X152846679Y-83680000D01*
X139044134Y-83680000D01*
X139010000Y-83676638D01*
X138975865Y-83680000D01*
X138873756Y-83690057D01*
X138742748Y-83729798D01*
X138622011Y-83794333D01*
X138516183Y-83881183D01*
X138429333Y-83987011D01*
X138364798Y-84107748D01*
X138325057Y-84238756D01*
X138311638Y-84375000D01*
X134705000Y-84375000D01*
X134705000Y-82034135D01*
X134708362Y-82000000D01*
X134694943Y-81863756D01*
X134655202Y-81732748D01*
X134590667Y-81612011D01*
X134503817Y-81506183D01*
X134397989Y-81419333D01*
X134277252Y-81354798D01*
X134146244Y-81315057D01*
X134044135Y-81305000D01*
X134010000Y-81301638D01*
X133975866Y-81305000D01*
X120044134Y-81305000D01*
X120010000Y-81301638D01*
X119975865Y-81305000D01*
X119873756Y-81315057D01*
X119742748Y-81354798D01*
X119622011Y-81419333D01*
X119516183Y-81506183D01*
X119429333Y-81612011D01*
X119364798Y-81732748D01*
X119325057Y-81863756D01*
X119311638Y-82000000D01*
X96705000Y-82000000D01*
X96705000Y-70159135D01*
X96708362Y-70125000D01*
X96694943Y-69988756D01*
X96655202Y-69857748D01*
X96590667Y-69737011D01*
X96503817Y-69631183D01*
X96397989Y-69544333D01*
X96277252Y-69479798D01*
X96146244Y-69440057D01*
X96044135Y-69430000D01*
X96010000Y-69426638D01*
X95975866Y-69430000D01*
X82044134Y-69430000D01*
X82010000Y-69426638D01*
X81975865Y-69430000D01*
X81873756Y-69440057D01*
X81742748Y-69479798D01*
X81622011Y-69544333D01*
X81516183Y-69631183D01*
X81429333Y-69737011D01*
X81364798Y-69857748D01*
X81325057Y-69988756D01*
X81311638Y-70125000D01*
X77708362Y-70125000D01*
X77694943Y-69988756D01*
X77655202Y-69857748D01*
X77590667Y-69737011D01*
X77503817Y-69631183D01*
X77397989Y-69544333D01*
X77277252Y-69479798D01*
X77146244Y-69440057D01*
X77044135Y-69430000D01*
X77010000Y-69426638D01*
X76975866Y-69430000D01*
X63044134Y-69430000D01*
X63010000Y-69426638D01*
X62975865Y-69430000D01*
X62873756Y-69440057D01*
X62742748Y-69479798D01*
X62622011Y-69544333D01*
X62516183Y-69631183D01*
X62429333Y-69737011D01*
X62364798Y-69857748D01*
X62325057Y-69988756D01*
X62311638Y-70125000D01*
X61710000Y-70125000D01*
X61710000Y-68710000D01*
X98534877Y-68710000D01*
X98564877Y-68707045D01*
X98567839Y-68707066D01*
X98577705Y-68706099D01*
X98625645Y-68701060D01*
X98639184Y-68699727D01*
X98639636Y-68699590D01*
X98674754Y-68695899D01*
X98737811Y-68682955D01*
X98801001Y-68670901D01*
X98810491Y-68668036D01*
X98903710Y-68639180D01*
X98963021Y-68614248D01*
X99022702Y-68590135D01*
X99031454Y-68585481D01*
X99117292Y-68539068D01*
X99170612Y-68503102D01*
X99224486Y-68467848D01*
X99232168Y-68461583D01*
X99307357Y-68399381D01*
X99352689Y-68353731D01*
X99398673Y-68308701D01*
X99404992Y-68301062D01*
X99466668Y-68225441D01*
X99502272Y-68171853D01*
X99538641Y-68118738D01*
X99543356Y-68110017D01*
X99589168Y-68023856D01*
X99613679Y-67964388D01*
X99639038Y-67905220D01*
X99641969Y-67895751D01*
X99670174Y-67802333D01*
X99682672Y-67739213D01*
X99696054Y-67676257D01*
X99697090Y-67666398D01*
X99706612Y-67569281D01*
X99706612Y-67569277D01*
X99710000Y-67534877D01*
X99710000Y-65375000D01*
X100311638Y-65375000D01*
X100315000Y-65409135D01*
X100315001Y-79340855D01*
X100311638Y-79375000D01*
X100325057Y-79511244D01*
X100364798Y-79642252D01*
X100429333Y-79762989D01*
X100516183Y-79868817D01*
X100622011Y-79955667D01*
X100742748Y-80020202D01*
X100873756Y-80059943D01*
X100975865Y-80070000D01*
X100975866Y-80070000D01*
X101010000Y-80073362D01*
X101044135Y-80070000D01*
X114975865Y-80070000D01*
X115010000Y-80073362D01*
X115044134Y-80070000D01*
X115044135Y-80070000D01*
X115146244Y-80059943D01*
X115277252Y-80020202D01*
X115397989Y-79955667D01*
X115503817Y-79868817D01*
X115590667Y-79762989D01*
X115655202Y-79642252D01*
X115694943Y-79511244D01*
X115708362Y-79375000D01*
X115705000Y-79340865D01*
X115705000Y-65409135D01*
X115708362Y-65375000D01*
X115701660Y-65306949D01*
X115694943Y-65238756D01*
X115655202Y-65107748D01*
X115590667Y-64987011D01*
X115503817Y-64881183D01*
X115397989Y-64794333D01*
X115277252Y-64729798D01*
X115146244Y-64690057D01*
X115010000Y-64676638D01*
X114975866Y-64680000D01*
X101044134Y-64680000D01*
X101010000Y-64676638D01*
X100975865Y-64680000D01*
X100873756Y-64690057D01*
X100742748Y-64729798D01*
X100622011Y-64794333D01*
X100516183Y-64881183D01*
X100429333Y-64987011D01*
X100364798Y-65107748D01*
X100325057Y-65238756D01*
X100311638Y-65375000D01*
X99710000Y-65375000D01*
X99710000Y-63960000D01*
X117534877Y-63960000D01*
X117564877Y-63957045D01*
X117567839Y-63957066D01*
X117577705Y-63956099D01*
X117625645Y-63951060D01*
X117639184Y-63949727D01*
X117639636Y-63949590D01*
X117674754Y-63945899D01*
X117737811Y-63932955D01*
X117801001Y-63920901D01*
X117810491Y-63918036D01*
X117903710Y-63889180D01*
X117963021Y-63864248D01*
X118022702Y-63840135D01*
X118031454Y-63835481D01*
X118117292Y-63789068D01*
X118170612Y-63753102D01*
X118224486Y-63717848D01*
X118232168Y-63711583D01*
X118307357Y-63649381D01*
X118352689Y-63603731D01*
X118398673Y-63558701D01*
X118404992Y-63551062D01*
X118466668Y-63475441D01*
X118502272Y-63421853D01*
X118538641Y-63368738D01*
X118543356Y-63360017D01*
X118589168Y-63273856D01*
X118613679Y-63214388D01*
X118639038Y-63155220D01*
X118641969Y-63145751D01*
X118670174Y-63052333D01*
X118680536Y-63000000D01*
X119311638Y-63000000D01*
X119315000Y-63034135D01*
X119315001Y-76965855D01*
X119311638Y-77000000D01*
X119325057Y-77136244D01*
X119364798Y-77267252D01*
X119429333Y-77387989D01*
X119516183Y-77493817D01*
X119622011Y-77580667D01*
X119742748Y-77645202D01*
X119873756Y-77684943D01*
X119975865Y-77695000D01*
X119975866Y-77695000D01*
X120010000Y-77698362D01*
X120044135Y-77695000D01*
X133975865Y-77695000D01*
X134010000Y-77698362D01*
X134044134Y-77695000D01*
X134044135Y-77695000D01*
X134146244Y-77684943D01*
X134277252Y-77645202D01*
X134397989Y-77580667D01*
X134503817Y-77493817D01*
X134590667Y-77387989D01*
X134655202Y-77267252D01*
X134694943Y-77136244D01*
X134708362Y-77000000D01*
X134705000Y-76965865D01*
X134705000Y-65375000D01*
X138311638Y-65375000D01*
X138315000Y-65409135D01*
X138315001Y-79340855D01*
X138311638Y-79375000D01*
X138325057Y-79511244D01*
X138364798Y-79642252D01*
X138429333Y-79762989D01*
X138516183Y-79868817D01*
X138622011Y-79955667D01*
X138742748Y-80020202D01*
X138873756Y-80059943D01*
X138975865Y-80070000D01*
X138975866Y-80070000D01*
X139010000Y-80073362D01*
X139044135Y-80070000D01*
X152975865Y-80070000D01*
X153010000Y-80073362D01*
X153044134Y-80070000D01*
X153044135Y-80070000D01*
X153146244Y-80059943D01*
X153277252Y-80020202D01*
X153397989Y-79955667D01*
X153503817Y-79868817D01*
X153590667Y-79762989D01*
X153655202Y-79642252D01*
X153694943Y-79511244D01*
X153708362Y-79375000D01*
X153705000Y-79340865D01*
X153705000Y-65409135D01*
X153708362Y-65375000D01*
X153701660Y-65306949D01*
X153694943Y-65238756D01*
X153655202Y-65107748D01*
X153590667Y-64987011D01*
X153503817Y-64881183D01*
X153397989Y-64794333D01*
X153277252Y-64729798D01*
X153146244Y-64690057D01*
X153010000Y-64676638D01*
X152975866Y-64680000D01*
X139044134Y-64680000D01*
X139010000Y-64676638D01*
X138975865Y-64680000D01*
X138873756Y-64690057D01*
X138742748Y-64729798D01*
X138622011Y-64794333D01*
X138516183Y-64881183D01*
X138429333Y-64987011D01*
X138364798Y-65107748D01*
X138325057Y-65238756D01*
X138311638Y-65375000D01*
X134705000Y-65375000D01*
X134705000Y-63034135D01*
X134708362Y-63000000D01*
X134703968Y-62955382D01*
X134694943Y-62863756D01*
X134655202Y-62732748D01*
X134590667Y-62612011D01*
X134503817Y-62506183D01*
X134397989Y-62419333D01*
X134277252Y-62354798D01*
X134146244Y-62315057D01*
X134010000Y-62301638D01*
X133975866Y-62305000D01*
X120044134Y-62305000D01*
X120010000Y-62301638D01*
X119975865Y-62305000D01*
X119873756Y-62315057D01*
X119742748Y-62354798D01*
X119622011Y-62419333D01*
X119516183Y-62506183D01*
X119429333Y-62612011D01*
X119364798Y-62732748D01*
X119325057Y-62863756D01*
X119311638Y-63000000D01*
X118680536Y-63000000D01*
X118682672Y-62989213D01*
X118696054Y-62926257D01*
X118697090Y-62916398D01*
X118706612Y-62819281D01*
X118706612Y-62819277D01*
X118710000Y-62784877D01*
X118710000Y-61710000D01*
X135290001Y-61710000D01*
X135290000Y-62784876D01*
X135290000Y-62784876D01*
G37*
X135290000Y-62784876D02*
X135292955Y-62814876D01*
X135292934Y-62817839D01*
X135293901Y-62827705D01*
X135298941Y-62875660D01*
X135300273Y-62889183D01*
X135300410Y-62889634D01*
X135304101Y-62924754D01*
X135317045Y-62987811D01*
X135329099Y-63051001D01*
X135331964Y-63060491D01*
X135360820Y-63153710D01*
X135385752Y-63213021D01*
X135409865Y-63272702D01*
X135414519Y-63281454D01*
X135460932Y-63367292D01*
X135496898Y-63420612D01*
X135532152Y-63474486D01*
X135538417Y-63482168D01*
X135600619Y-63557357D01*
X135646269Y-63602689D01*
X135691299Y-63648673D01*
X135698938Y-63654992D01*
X135774559Y-63716668D01*
X135828147Y-63752272D01*
X135881262Y-63788641D01*
X135889983Y-63793356D01*
X135976144Y-63839168D01*
X136035612Y-63863679D01*
X136094780Y-63889038D01*
X136104249Y-63891969D01*
X136197667Y-63920174D01*
X136260787Y-63932672D01*
X136323743Y-63946054D01*
X136333602Y-63947090D01*
X136430719Y-63956612D01*
X136430723Y-63956612D01*
X136465123Y-63960000D01*
X154290001Y-63960000D01*
X154290000Y-65284876D01*
X154292955Y-65314876D01*
X154292934Y-65317839D01*
X154293901Y-65327705D01*
X154298941Y-65375660D01*
X154300273Y-65389183D01*
X154300410Y-65389634D01*
X154304101Y-65424754D01*
X154317045Y-65487811D01*
X154329099Y-65551001D01*
X154331964Y-65560491D01*
X154360820Y-65653710D01*
X154385752Y-65713021D01*
X154409865Y-65772702D01*
X154414519Y-65781454D01*
X154460932Y-65867292D01*
X154496898Y-65920612D01*
X154532152Y-65974486D01*
X154538417Y-65982168D01*
X154600619Y-66057357D01*
X154646269Y-66102689D01*
X154691299Y-66148673D01*
X154698938Y-66154992D01*
X154774559Y-66216668D01*
X154828147Y-66252272D01*
X154881262Y-66288641D01*
X154889983Y-66293356D01*
X154976144Y-66339168D01*
X155035612Y-66363679D01*
X155094780Y-66389038D01*
X155104249Y-66391969D01*
X155197667Y-66420174D01*
X155260787Y-66432672D01*
X155323743Y-66446054D01*
X155333602Y-66447090D01*
X155430719Y-66456612D01*
X155430723Y-66456612D01*
X155465123Y-66460000D01*
X173289989Y-66460000D01*
X173287281Y-116845030D01*
X173290608Y-116878830D01*
X173290609Y-116878842D01*
X173301690Y-116992908D01*
X173312058Y-117045518D01*
X173320093Y-117098572D01*
X173322594Y-117108164D01*
X173365582Y-117268462D01*
X173388239Y-117328700D01*
X173410049Y-117389239D01*
X173414366Y-117398163D01*
X173487671Y-117547059D01*
X173521570Y-117601706D01*
X173554746Y-117656893D01*
X173560714Y-117664808D01*
X173661543Y-117796630D01*
X173705431Y-117843674D01*
X173748676Y-117891346D01*
X173756067Y-117897951D01*
X173855081Y-117985206D01*
X173879638Y-118011422D01*
X173964838Y-118072466D01*
X192865230Y-128982842D01*
X192975751Y-129073473D01*
X193059245Y-129174952D01*
X193121444Y-129290724D01*
X193159969Y-129416366D01*
X193173357Y-129547101D01*
X193161097Y-129677939D01*
X193123655Y-129803913D01*
X193048378Y-129946974D01*
X180711149Y-151376503D01*
X180620779Y-151486705D01*
X180519299Y-151570201D01*
X180403527Y-151632400D01*
X180277885Y-151670925D01*
X180147150Y-151684313D01*
X180016312Y-151672053D01*
X179890338Y-151634611D01*
X179746290Y-151558814D01*
X165400066Y-143267823D01*
X165304615Y-143224525D01*
X165168424Y-143192709D01*
X165156734Y-143192321D01*
X164569638Y-143076079D01*
X164546731Y-143070775D01*
X127871366Y-138299807D01*
X117406664Y-123949923D01*
X117336904Y-123871699D01*
X117295505Y-123840476D01*
X117225441Y-123783332D01*
X117171853Y-123747728D01*
X117118738Y-123711359D01*
X117110017Y-123706644D01*
X117023856Y-123660832D01*
X116964388Y-123636321D01*
X116905220Y-123610962D01*
X116895751Y-123608031D01*
X116802333Y-123579826D01*
X116739213Y-123567328D01*
X116676257Y-123553946D01*
X116666398Y-123552910D01*
X116569281Y-123543388D01*
X116569277Y-123543388D01*
X116534877Y-123540000D01*
X61710000Y-123540000D01*
X61710000Y-108125000D01*
X62311638Y-108125000D01*
X62315000Y-108159135D01*
X62315001Y-122090855D01*
X62311638Y-122125000D01*
X62325057Y-122261244D01*
X62364798Y-122392252D01*
X62429333Y-122512989D01*
X62516183Y-122618817D01*
X62622011Y-122705667D01*
X62742748Y-122770202D01*
X62873756Y-122809943D01*
X62975865Y-122820000D01*
X62975866Y-122820000D01*
X63010000Y-122823362D01*
X63044135Y-122820000D01*
X76975865Y-122820000D01*
X77010000Y-122823362D01*
X77044134Y-122820000D01*
X77044135Y-122820000D01*
X77146244Y-122809943D01*
X77277252Y-122770202D01*
X77397989Y-122705667D01*
X77503817Y-122618817D01*
X77590667Y-122512989D01*
X77655202Y-122392252D01*
X77694943Y-122261244D01*
X77708362Y-122125000D01*
X77705000Y-122090865D01*
X77705000Y-108159135D01*
X77708362Y-108125000D01*
X77694943Y-107988756D01*
X77655202Y-107857748D01*
X77590667Y-107737011D01*
X77503817Y-107631183D01*
X77397989Y-107544333D01*
X77277252Y-107479798D01*
X77146244Y-107440057D01*
X77044135Y-107430000D01*
X77010000Y-107426638D01*
X76975866Y-107430000D01*
X63044134Y-107430000D01*
X63010000Y-107426638D01*
X62975865Y-107430000D01*
X62873756Y-107440057D01*
X62742748Y-107479798D01*
X62622011Y-107544333D01*
X62516183Y-107631183D01*
X62429333Y-107737011D01*
X62364798Y-107857748D01*
X62325057Y-107988756D01*
X62311638Y-108125000D01*
X61710000Y-108125000D01*
X61710000Y-105230626D01*
X76765000Y-105230626D01*
X76765000Y-105769374D01*
X76870105Y-106297770D01*
X77076275Y-106795508D01*
X77375587Y-107243461D01*
X77756539Y-107624413D01*
X78204492Y-107923725D01*
X78702230Y-108129895D01*
X79230626Y-108235000D01*
X79769374Y-108235000D01*
X80297770Y-108129895D01*
X80309587Y-108125000D01*
X81311638Y-108125000D01*
X81315000Y-108159135D01*
X81315001Y-122090855D01*
X81311638Y-122125000D01*
X81325057Y-122261244D01*
X81364798Y-122392252D01*
X81429333Y-122512989D01*
X81516183Y-122618817D01*
X81622011Y-122705667D01*
X81742748Y-122770202D01*
X81873756Y-122809943D01*
X81975865Y-122820000D01*
X81975866Y-122820000D01*
X82010000Y-122823362D01*
X82044135Y-122820000D01*
X95975865Y-122820000D01*
X96010000Y-122823362D01*
X96044134Y-122820000D01*
X96044135Y-122820000D01*
X96146244Y-122809943D01*
X96277252Y-122770202D01*
X96397989Y-122705667D01*
X96503817Y-122618817D01*
X96590667Y-122512989D01*
X96607965Y-122480626D01*
X120015000Y-122480626D01*
X120015000Y-123019374D01*
X120120105Y-123547770D01*
X120326275Y-124045508D01*
X120625587Y-124493461D01*
X121006539Y-124874413D01*
X121454492Y-125173725D01*
X121952230Y-125379895D01*
X122480626Y-125485000D01*
X123019374Y-125485000D01*
X123547770Y-125379895D01*
X124045508Y-125173725D01*
X124493461Y-124874413D01*
X124874413Y-124493461D01*
X125173725Y-124045508D01*
X125379895Y-123547770D01*
X125481891Y-123035000D01*
X128831638Y-123035000D01*
X128835000Y-123069135D01*
X128835001Y-137000855D01*
X128831638Y-137035000D01*
X128845057Y-137171244D01*
X128884798Y-137302252D01*
X128949333Y-137422989D01*
X129036183Y-137528817D01*
X129142011Y-137615667D01*
X129262748Y-137680202D01*
X129393756Y-137719943D01*
X129495865Y-137730000D01*
X129495866Y-137730000D01*
X129530000Y-137733362D01*
X129564135Y-137730000D01*
X143495865Y-137730000D01*
X143530000Y-137733362D01*
X143564134Y-137730000D01*
X143564135Y-137730000D01*
X143666244Y-137719943D01*
X143797252Y-137680202D01*
X143857361Y-137648073D01*
X148221920Y-137648073D01*
X148226399Y-137784902D01*
X148257486Y-137918227D01*
X148313987Y-138042928D01*
X148393730Y-138154209D01*
X148493650Y-138247794D01*
X148609909Y-138320088D01*
X148705935Y-138356230D01*
X148705938Y-138356231D01*
X148738037Y-138368312D01*
X148771876Y-138373899D01*
X162228902Y-141979699D01*
X162260998Y-141991779D01*
X162294834Y-141997365D01*
X162294840Y-141997367D01*
X162396072Y-142014080D01*
X162396073Y-142014080D01*
X162532902Y-142009601D01*
X162585371Y-141997367D01*
X162666228Y-141978514D01*
X162790928Y-141922013D01*
X162902209Y-141842270D01*
X162995794Y-141742350D01*
X163068089Y-141626092D01*
X163116313Y-141497963D01*
X163121901Y-141464114D01*
X163757278Y-139092852D01*
X169490956Y-139092852D01*
X169513256Y-139227927D01*
X169561481Y-139356055D01*
X169633774Y-139472313D01*
X169727360Y-139572234D01*
X169767819Y-139601226D01*
X169838642Y-139651977D01*
X169869883Y-139666132D01*
X181935124Y-146632003D01*
X181962998Y-146651977D01*
X181994232Y-146666129D01*
X181994239Y-146666133D01*
X182050994Y-146691848D01*
X182087698Y-146708478D01*
X182170605Y-146727809D01*
X182221023Y-146739565D01*
X182357852Y-146744044D01*
X182492927Y-146721744D01*
X182621055Y-146673519D01*
X182632933Y-146666133D01*
X182737313Y-146601226D01*
X182837234Y-146507640D01*
X182896998Y-146424239D01*
X182897003Y-146424231D01*
X182916976Y-146396358D01*
X182931128Y-146365125D01*
X189897007Y-134299869D01*
X189916976Y-134272002D01*
X189931124Y-134240776D01*
X189931133Y-134240761D01*
X189973477Y-134147303D01*
X190004565Y-134013977D01*
X190009044Y-133877148D01*
X189986744Y-133742073D01*
X189986744Y-133742072D01*
X189938519Y-133613943D01*
X189866225Y-133497686D01*
X189772639Y-133397765D01*
X189689239Y-133338001D01*
X189689224Y-133337992D01*
X189661358Y-133318024D01*
X189630133Y-133303876D01*
X177564873Y-126337996D01*
X177537002Y-126318024D01*
X177505771Y-126303873D01*
X177505760Y-126303867D01*
X177412302Y-126261522D01*
X177278975Y-126230435D01*
X177142148Y-126225956D01*
X177142147Y-126225956D01*
X177007072Y-126248256D01*
X176878943Y-126296481D01*
X176789794Y-126351918D01*
X176762687Y-126368774D01*
X176762686Y-126368775D01*
X176662765Y-126462361D01*
X176603001Y-126545761D01*
X176602996Y-126545769D01*
X176583023Y-126573642D01*
X176568871Y-126604875D01*
X169603000Y-138670120D01*
X169583023Y-138697998D01*
X169526522Y-138822698D01*
X169495435Y-138956025D01*
X169490956Y-139092852D01*
X163757278Y-139092852D01*
X166131905Y-130230626D01*
X166515000Y-130230626D01*
X166515000Y-130769374D01*
X166620105Y-131297770D01*
X166826275Y-131795508D01*
X167125587Y-132243461D01*
X167506539Y-132624413D01*
X167954492Y-132923725D01*
X168452230Y-133129895D01*
X168980626Y-133235000D01*
X169519374Y-133235000D01*
X170047770Y-133129895D01*
X170545508Y-132923725D01*
X170993461Y-132624413D01*
X171374413Y-132243461D01*
X171673725Y-131795508D01*
X171879895Y-131297770D01*
X171985000Y-130769374D01*
X171985000Y-130230626D01*
X171879895Y-129702230D01*
X171673725Y-129204492D01*
X171374413Y-128756539D01*
X170993461Y-128375587D01*
X170545508Y-128076275D01*
X170047770Y-127870105D01*
X169519374Y-127765000D01*
X168980626Y-127765000D01*
X168452230Y-127870105D01*
X167954492Y-128076275D01*
X167506539Y-128375587D01*
X167125587Y-128756539D01*
X166826275Y-129204492D01*
X166620105Y-129702230D01*
X166515000Y-130230626D01*
X166131905Y-130230626D01*
X166727696Y-128007108D01*
X166739780Y-127975002D01*
X166762081Y-127839927D01*
X166757601Y-127703098D01*
X166726514Y-127569772D01*
X166670014Y-127445071D01*
X166590270Y-127333790D01*
X166490350Y-127240205D01*
X166374092Y-127167911D01*
X166278065Y-127131769D01*
X166278063Y-127131768D01*
X166245963Y-127119687D01*
X166212124Y-127114100D01*
X152755108Y-123508304D01*
X152723002Y-123496220D01*
X152587927Y-123473919D01*
X152451098Y-123478399D01*
X152317772Y-123509486D01*
X152193071Y-123565986D01*
X152081790Y-123645730D01*
X151988205Y-123745650D01*
X151915911Y-123861908D01*
X151879769Y-123957935D01*
X151879766Y-123957947D01*
X151867688Y-123990037D01*
X151862103Y-124023866D01*
X148256301Y-137480903D01*
X148244221Y-137512998D01*
X148238635Y-137546834D01*
X148238633Y-137546840D01*
X148227270Y-137615667D01*
X148221920Y-137648073D01*
X143857361Y-137648073D01*
X143917989Y-137615667D01*
X144023817Y-137528817D01*
X144110667Y-137422989D01*
X144175202Y-137302252D01*
X144214943Y-137171244D01*
X144228362Y-137035000D01*
X144225000Y-137000865D01*
X144225000Y-123069135D01*
X144228362Y-123035000D01*
X144214943Y-122898756D01*
X144175202Y-122767748D01*
X144110667Y-122647011D01*
X144023817Y-122541183D01*
X143917989Y-122454333D01*
X143797252Y-122389798D01*
X143666244Y-122350057D01*
X143564135Y-122340000D01*
X143530000Y-122336638D01*
X143495866Y-122340000D01*
X129564134Y-122340000D01*
X129530000Y-122336638D01*
X129495865Y-122340000D01*
X129393756Y-122350057D01*
X129262748Y-122389798D01*
X129142011Y-122454333D01*
X129036183Y-122541183D01*
X128949333Y-122647011D01*
X128884798Y-122767748D01*
X128845057Y-122898756D01*
X128831638Y-123035000D01*
X125481891Y-123035000D01*
X125485000Y-123019374D01*
X125485000Y-122480626D01*
X125379895Y-121952230D01*
X125173725Y-121454492D01*
X124874413Y-121006539D01*
X124493461Y-120625587D01*
X124045508Y-120326275D01*
X123547770Y-120120105D01*
X123019374Y-120015000D01*
X122480626Y-120015000D01*
X121952230Y-120120105D01*
X121454492Y-120326275D01*
X121006539Y-120625587D01*
X120625587Y-121006539D01*
X120326275Y-121454492D01*
X120120105Y-121952230D01*
X120015000Y-122480626D01*
X96607965Y-122480626D01*
X96655202Y-122392252D01*
X96694943Y-122261244D01*
X96708362Y-122125000D01*
X96705000Y-122090865D01*
X96705000Y-108159135D01*
X96708362Y-108125000D01*
X96694943Y-107988756D01*
X96655202Y-107857748D01*
X96590667Y-107737011D01*
X96503817Y-107631183D01*
X96397989Y-107544333D01*
X96277252Y-107479798D01*
X96146244Y-107440057D01*
X96044135Y-107430000D01*
X96010000Y-107426638D01*
X95975866Y-107430000D01*
X82044134Y-107430000D01*
X82010000Y-107426638D01*
X81975865Y-107430000D01*
X81873756Y-107440057D01*
X81742748Y-107479798D01*
X81622011Y-107544333D01*
X81516183Y-107631183D01*
X81429333Y-107737011D01*
X81364798Y-107857748D01*
X81325057Y-107988756D01*
X81311638Y-108125000D01*
X80309587Y-108125000D01*
X80795508Y-107923725D01*
X81243461Y-107624413D01*
X81624413Y-107243461D01*
X81923725Y-106795508D01*
X82129895Y-106297770D01*
X82235000Y-105769374D01*
X82235000Y-105230626D01*
X82129895Y-104702230D01*
X81923725Y-104204492D01*
X81624413Y-103756539D01*
X81243461Y-103375587D01*
X80795508Y-103076275D01*
X80297770Y-102870105D01*
X79769374Y-102765000D01*
X79230626Y-102765000D01*
X78702230Y-102870105D01*
X78204492Y-103076275D01*
X77756539Y-103375587D01*
X77375587Y-103756539D01*
X77076275Y-104204492D01*
X76870105Y-104702230D01*
X76765000Y-105230626D01*
X61710000Y-105230626D01*
X61710000Y-89125000D01*
X62311638Y-89125000D01*
X62315000Y-89159135D01*
X62315001Y-103090855D01*
X62311638Y-103125000D01*
X62325057Y-103261244D01*
X62364798Y-103392252D01*
X62429333Y-103512989D01*
X62516183Y-103618817D01*
X62622011Y-103705667D01*
X62742748Y-103770202D01*
X62873756Y-103809943D01*
X62975865Y-103820000D01*
X62975866Y-103820000D01*
X63010000Y-103823362D01*
X63044135Y-103820000D01*
X76975865Y-103820000D01*
X77010000Y-103823362D01*
X77044134Y-103820000D01*
X77044135Y-103820000D01*
X77146244Y-103809943D01*
X77277252Y-103770202D01*
X77397989Y-103705667D01*
X77503817Y-103618817D01*
X77590667Y-103512989D01*
X77655202Y-103392252D01*
X77694943Y-103261244D01*
X77708362Y-103125000D01*
X77705000Y-103090865D01*
X77705000Y-89159135D01*
X77708362Y-89125000D01*
X77694943Y-88988756D01*
X77655202Y-88857748D01*
X77590667Y-88737011D01*
X77503817Y-88631183D01*
X77397989Y-88544333D01*
X77277252Y-88479798D01*
X77146244Y-88440057D01*
X77044135Y-88430000D01*
X77010000Y-88426638D01*
X76975866Y-88430000D01*
X63044134Y-88430000D01*
X63010000Y-88426638D01*
X62975865Y-88430000D01*
X62873756Y-88440057D01*
X62742748Y-88479798D01*
X62622011Y-88544333D01*
X62516183Y-88631183D01*
X62429333Y-88737011D01*
X62364798Y-88857748D01*
X62325057Y-88988756D01*
X62311638Y-89125000D01*
X61710000Y-89125000D01*
X61710000Y-86480626D01*
X76765000Y-86480626D01*
X76765000Y-87019374D01*
X76870105Y-87547770D01*
X77076275Y-88045508D01*
X77375587Y-88493461D01*
X77756539Y-88874413D01*
X78204492Y-89173725D01*
X78702230Y-89379895D01*
X79230626Y-89485000D01*
X79769374Y-89485000D01*
X80297770Y-89379895D01*
X80795508Y-89173725D01*
X80868430Y-89125000D01*
X81311638Y-89125000D01*
X81315000Y-89159135D01*
X81315001Y-103090855D01*
X81311638Y-103125000D01*
X81325057Y-103261244D01*
X81364798Y-103392252D01*
X81429333Y-103512989D01*
X81516183Y-103618817D01*
X81622011Y-103705667D01*
X81742748Y-103770202D01*
X81873756Y-103809943D01*
X81975865Y-103820000D01*
X81975866Y-103820000D01*
X82010000Y-103823362D01*
X82044135Y-103820000D01*
X95975865Y-103820000D01*
X96010000Y-103823362D01*
X96044134Y-103820000D01*
X96044135Y-103820000D01*
X96146244Y-103809943D01*
X96277252Y-103770202D01*
X96397989Y-103705667D01*
X96503817Y-103618817D01*
X96590667Y-103512989D01*
X96655202Y-103392252D01*
X96660435Y-103375000D01*
X100311638Y-103375000D01*
X100315000Y-103409135D01*
X100315001Y-117340855D01*
X100311638Y-117375000D01*
X100325057Y-117511244D01*
X100364798Y-117642252D01*
X100429333Y-117762989D01*
X100516183Y-117868817D01*
X100622011Y-117955667D01*
X100742748Y-118020202D01*
X100873756Y-118059943D01*
X100975865Y-118070000D01*
X100975866Y-118070000D01*
X101010000Y-118073362D01*
X101044135Y-118070000D01*
X114975865Y-118070000D01*
X115010000Y-118073362D01*
X115044134Y-118070000D01*
X115044135Y-118070000D01*
X115146244Y-118059943D01*
X115277252Y-118020202D01*
X115397989Y-117955667D01*
X115503817Y-117868817D01*
X115590667Y-117762989D01*
X115655202Y-117642252D01*
X115694943Y-117511244D01*
X115708362Y-117375000D01*
X115705000Y-117340865D01*
X115705000Y-103409135D01*
X115708362Y-103375000D01*
X115694943Y-103238756D01*
X115655202Y-103107748D01*
X115590667Y-102987011D01*
X115503817Y-102881183D01*
X115397989Y-102794333D01*
X115277252Y-102729798D01*
X115146244Y-102690057D01*
X115044135Y-102680000D01*
X115010000Y-102676638D01*
X114975866Y-102680000D01*
X101044134Y-102680000D01*
X101010000Y-102676638D01*
X100975865Y-102680000D01*
X100873756Y-102690057D01*
X100742748Y-102729798D01*
X100622011Y-102794333D01*
X100516183Y-102881183D01*
X100429333Y-102987011D01*
X100364798Y-103107748D01*
X100325057Y-103238756D01*
X100311638Y-103375000D01*
X96660435Y-103375000D01*
X96694943Y-103261244D01*
X96708362Y-103125000D01*
X96705000Y-103090865D01*
X96705000Y-101000000D01*
X119311638Y-101000000D01*
X119315000Y-101034135D01*
X119315001Y-114965855D01*
X119311638Y-115000000D01*
X119325057Y-115136244D01*
X119364798Y-115267252D01*
X119429333Y-115387989D01*
X119516183Y-115493817D01*
X119622011Y-115580667D01*
X119742748Y-115645202D01*
X119873756Y-115684943D01*
X119975865Y-115695000D01*
X119975866Y-115695000D01*
X120010000Y-115698362D01*
X120044135Y-115695000D01*
X133975865Y-115695000D01*
X134010000Y-115698362D01*
X134044134Y-115695000D01*
X134044135Y-115695000D01*
X134146244Y-115684943D01*
X134277252Y-115645202D01*
X134397989Y-115580667D01*
X134503817Y-115493817D01*
X134590667Y-115387989D01*
X134655202Y-115267252D01*
X134694943Y-115136244D01*
X134708362Y-115000000D01*
X134705000Y-114965865D01*
X134705000Y-103375000D01*
X138311638Y-103375000D01*
X138315000Y-103409135D01*
X138315001Y-117340855D01*
X138311638Y-117375000D01*
X138325057Y-117511244D01*
X138364798Y-117642252D01*
X138429333Y-117762989D01*
X138516183Y-117868817D01*
X138622011Y-117955667D01*
X138742748Y-118020202D01*
X138873756Y-118059943D01*
X138975865Y-118070000D01*
X138975866Y-118070000D01*
X139010000Y-118073362D01*
X139044135Y-118070000D01*
X152975865Y-118070000D01*
X153010000Y-118073362D01*
X153044134Y-118070000D01*
X153044135Y-118070000D01*
X153146244Y-118059943D01*
X153277252Y-118020202D01*
X153397989Y-117955667D01*
X153503817Y-117868817D01*
X153590667Y-117762989D01*
X153655202Y-117642252D01*
X153694943Y-117511244D01*
X153708362Y-117375000D01*
X153705000Y-117340865D01*
X153705000Y-105750000D01*
X157311638Y-105750000D01*
X157315000Y-105784135D01*
X157315001Y-119715855D01*
X157311638Y-119750000D01*
X157325057Y-119886244D01*
X157364798Y-120017252D01*
X157429333Y-120137989D01*
X157516183Y-120243817D01*
X157622011Y-120330667D01*
X157742748Y-120395202D01*
X157873756Y-120434943D01*
X157975865Y-120445000D01*
X157975866Y-120445000D01*
X158010000Y-120448362D01*
X158044135Y-120445000D01*
X171975865Y-120445000D01*
X172010000Y-120448362D01*
X172044134Y-120445000D01*
X172044135Y-120445000D01*
X172146244Y-120434943D01*
X172277252Y-120395202D01*
X172397989Y-120330667D01*
X172503817Y-120243817D01*
X172590667Y-120137989D01*
X172655202Y-120017252D01*
X172694943Y-119886244D01*
X172708362Y-119750000D01*
X172705000Y-119715865D01*
X172705000Y-105784135D01*
X172708362Y-105750000D01*
X172694943Y-105613756D01*
X172655202Y-105482748D01*
X172590667Y-105362011D01*
X172503817Y-105256183D01*
X172397989Y-105169333D01*
X172277252Y-105104798D01*
X172146244Y-105065057D01*
X172044135Y-105055000D01*
X172010000Y-105051638D01*
X171975866Y-105055000D01*
X158044134Y-105055000D01*
X158010000Y-105051638D01*
X157975865Y-105055000D01*
X157873756Y-105065057D01*
X157742748Y-105104798D01*
X157622011Y-105169333D01*
X157516183Y-105256183D01*
X157429333Y-105362011D01*
X157364798Y-105482748D01*
X157325057Y-105613756D01*
X157311638Y-105750000D01*
X153705000Y-105750000D01*
X153705000Y-103409135D01*
X153708362Y-103375000D01*
X153694943Y-103238756D01*
X153655202Y-103107748D01*
X153590667Y-102987011D01*
X153503817Y-102881183D01*
X153397989Y-102794333D01*
X153277252Y-102729798D01*
X153146244Y-102690057D01*
X153044135Y-102680000D01*
X153010000Y-102676638D01*
X152975866Y-102680000D01*
X139044134Y-102680000D01*
X139010000Y-102676638D01*
X138975865Y-102680000D01*
X138873756Y-102690057D01*
X138742748Y-102729798D01*
X138622011Y-102794333D01*
X138516183Y-102881183D01*
X138429333Y-102987011D01*
X138364798Y-103107748D01*
X138325057Y-103238756D01*
X138311638Y-103375000D01*
X134705000Y-103375000D01*
X134705000Y-101034135D01*
X134708362Y-101000000D01*
X134694943Y-100863756D01*
X134655202Y-100732748D01*
X134590667Y-100612011D01*
X134503817Y-100506183D01*
X134397989Y-100419333D01*
X134277252Y-100354798D01*
X134146244Y-100315057D01*
X134044135Y-100305000D01*
X134010000Y-100301638D01*
X133975866Y-100305000D01*
X120044134Y-100305000D01*
X120010000Y-100301638D01*
X119975865Y-100305000D01*
X119873756Y-100315057D01*
X119742748Y-100354798D01*
X119622011Y-100419333D01*
X119516183Y-100506183D01*
X119429333Y-100612011D01*
X119364798Y-100732748D01*
X119325057Y-100863756D01*
X119311638Y-101000000D01*
X96705000Y-101000000D01*
X96705000Y-89159135D01*
X96708362Y-89125000D01*
X96694943Y-88988756D01*
X96655202Y-88857748D01*
X96590667Y-88737011D01*
X96503817Y-88631183D01*
X96397989Y-88544333D01*
X96277252Y-88479798D01*
X96146244Y-88440057D01*
X96044135Y-88430000D01*
X96010000Y-88426638D01*
X95975866Y-88430000D01*
X82044134Y-88430000D01*
X82010000Y-88426638D01*
X81975865Y-88430000D01*
X81873756Y-88440057D01*
X81742748Y-88479798D01*
X81622011Y-88544333D01*
X81516183Y-88631183D01*
X81429333Y-88737011D01*
X81364798Y-88857748D01*
X81325057Y-88988756D01*
X81311638Y-89125000D01*
X80868430Y-89125000D01*
X81243461Y-88874413D01*
X81624413Y-88493461D01*
X81923725Y-88045508D01*
X82129895Y-87547770D01*
X82235000Y-87019374D01*
X82235000Y-86480626D01*
X82129895Y-85952230D01*
X81923725Y-85454492D01*
X81624413Y-85006539D01*
X81243461Y-84625587D01*
X80795508Y-84326275D01*
X80297770Y-84120105D01*
X79769374Y-84015000D01*
X79230626Y-84015000D01*
X78702230Y-84120105D01*
X78204492Y-84326275D01*
X77756539Y-84625587D01*
X77375587Y-85006539D01*
X77076275Y-85454492D01*
X76870105Y-85952230D01*
X76765000Y-86480626D01*
X61710000Y-86480626D01*
X61710000Y-70125000D01*
X62311638Y-70125000D01*
X62315000Y-70159135D01*
X62315001Y-84090855D01*
X62311638Y-84125000D01*
X62325057Y-84261244D01*
X62364798Y-84392252D01*
X62429333Y-84512989D01*
X62516183Y-84618817D01*
X62622011Y-84705667D01*
X62742748Y-84770202D01*
X62873756Y-84809943D01*
X62975865Y-84820000D01*
X62975866Y-84820000D01*
X63010000Y-84823362D01*
X63044135Y-84820000D01*
X76975865Y-84820000D01*
X77010000Y-84823362D01*
X77044134Y-84820000D01*
X77044135Y-84820000D01*
X77146244Y-84809943D01*
X77277252Y-84770202D01*
X77397989Y-84705667D01*
X77503817Y-84618817D01*
X77590667Y-84512989D01*
X77655202Y-84392252D01*
X77694943Y-84261244D01*
X77708362Y-84125000D01*
X77705000Y-84090865D01*
X77705000Y-70159135D01*
X77708362Y-70125000D01*
X81311638Y-70125000D01*
X81315000Y-70159135D01*
X81315001Y-84090855D01*
X81311638Y-84125000D01*
X81325057Y-84261244D01*
X81364798Y-84392252D01*
X81429333Y-84512989D01*
X81516183Y-84618817D01*
X81622011Y-84705667D01*
X81742748Y-84770202D01*
X81873756Y-84809943D01*
X81975865Y-84820000D01*
X81975866Y-84820000D01*
X82010000Y-84823362D01*
X82044135Y-84820000D01*
X95975865Y-84820000D01*
X96010000Y-84823362D01*
X96044134Y-84820000D01*
X96044135Y-84820000D01*
X96146244Y-84809943D01*
X96277252Y-84770202D01*
X96397989Y-84705667D01*
X96503817Y-84618817D01*
X96590667Y-84512989D01*
X96655202Y-84392252D01*
X96660435Y-84375000D01*
X100311638Y-84375000D01*
X100315000Y-84409135D01*
X100315001Y-98340855D01*
X100311638Y-98375000D01*
X100325057Y-98511244D01*
X100364798Y-98642252D01*
X100429333Y-98762989D01*
X100516183Y-98868817D01*
X100622011Y-98955667D01*
X100742748Y-99020202D01*
X100873756Y-99059943D01*
X100975865Y-99070000D01*
X100975866Y-99070000D01*
X101010000Y-99073362D01*
X101044135Y-99070000D01*
X114975865Y-99070000D01*
X115010000Y-99073362D01*
X115044134Y-99070000D01*
X115044135Y-99070000D01*
X115146244Y-99059943D01*
X115277252Y-99020202D01*
X115397989Y-98955667D01*
X115503817Y-98868817D01*
X115590667Y-98762989D01*
X115655202Y-98642252D01*
X115694943Y-98511244D01*
X115708362Y-98375000D01*
X115705000Y-98340865D01*
X115705000Y-84409135D01*
X115708362Y-84375000D01*
X115694943Y-84238756D01*
X115655202Y-84107748D01*
X115590667Y-83987011D01*
X115503817Y-83881183D01*
X115397989Y-83794333D01*
X115277252Y-83729798D01*
X115146244Y-83690057D01*
X115044135Y-83680000D01*
X115010000Y-83676638D01*
X114975866Y-83680000D01*
X101044134Y-83680000D01*
X101010000Y-83676638D01*
X100975865Y-83680000D01*
X100873756Y-83690057D01*
X100742748Y-83729798D01*
X100622011Y-83794333D01*
X100516183Y-83881183D01*
X100429333Y-83987011D01*
X100364798Y-84107748D01*
X100325057Y-84238756D01*
X100311638Y-84375000D01*
X96660435Y-84375000D01*
X96694943Y-84261244D01*
X96708362Y-84125000D01*
X96705000Y-84090865D01*
X96705000Y-82000000D01*
X119311638Y-82000000D01*
X119315000Y-82034135D01*
X119315001Y-95965855D01*
X119311638Y-96000000D01*
X119325057Y-96136244D01*
X119364798Y-96267252D01*
X119429333Y-96387989D01*
X119516183Y-96493817D01*
X119622011Y-96580667D01*
X119742748Y-96645202D01*
X119873756Y-96684943D01*
X119975865Y-96695000D01*
X119975866Y-96695000D01*
X120010000Y-96698362D01*
X120044135Y-96695000D01*
X133975865Y-96695000D01*
X134010000Y-96698362D01*
X134044134Y-96695000D01*
X134044135Y-96695000D01*
X134146244Y-96684943D01*
X134277252Y-96645202D01*
X134397989Y-96580667D01*
X134503817Y-96493817D01*
X134590667Y-96387989D01*
X134655202Y-96267252D01*
X134694943Y-96136244D01*
X134708362Y-96000000D01*
X134705000Y-95965865D01*
X134705000Y-84375000D01*
X138311638Y-84375000D01*
X138315000Y-84409135D01*
X138315001Y-98340855D01*
X138311638Y-98375000D01*
X138325057Y-98511244D01*
X138364798Y-98642252D01*
X138429333Y-98762989D01*
X138516183Y-98868817D01*
X138622011Y-98955667D01*
X138742748Y-99020202D01*
X138873756Y-99059943D01*
X138975865Y-99070000D01*
X138975866Y-99070000D01*
X139010000Y-99073362D01*
X139044135Y-99070000D01*
X152975865Y-99070000D01*
X153010000Y-99073362D01*
X153044134Y-99070000D01*
X153044135Y-99070000D01*
X153146244Y-99059943D01*
X153277252Y-99020202D01*
X153397989Y-98955667D01*
X153503817Y-98868817D01*
X153590667Y-98762989D01*
X153655202Y-98642252D01*
X153694943Y-98511244D01*
X153708362Y-98375000D01*
X153705000Y-98340865D01*
X153705000Y-86750000D01*
X157311638Y-86750000D01*
X157315000Y-86784135D01*
X157315001Y-100715855D01*
X157311638Y-100750000D01*
X157325057Y-100886244D01*
X157364798Y-101017252D01*
X157429333Y-101137989D01*
X157516183Y-101243817D01*
X157622011Y-101330667D01*
X157742748Y-101395202D01*
X157873756Y-101434943D01*
X157975865Y-101445000D01*
X157975866Y-101445000D01*
X158010000Y-101448362D01*
X158044135Y-101445000D01*
X171975865Y-101445000D01*
X172010000Y-101448362D01*
X172044134Y-101445000D01*
X172044135Y-101445000D01*
X172146244Y-101434943D01*
X172277252Y-101395202D01*
X172397989Y-101330667D01*
X172503817Y-101243817D01*
X172590667Y-101137989D01*
X172655202Y-101017252D01*
X172694943Y-100886244D01*
X172708362Y-100750000D01*
X172705000Y-100715865D01*
X172705000Y-86784135D01*
X172708362Y-86750000D01*
X172694943Y-86613756D01*
X172655202Y-86482748D01*
X172590667Y-86362011D01*
X172503817Y-86256183D01*
X172397989Y-86169333D01*
X172277252Y-86104798D01*
X172146244Y-86065057D01*
X172044135Y-86055000D01*
X172010000Y-86051638D01*
X171975866Y-86055000D01*
X158044134Y-86055000D01*
X158010000Y-86051638D01*
X157975865Y-86055000D01*
X157873756Y-86065057D01*
X157742748Y-86104798D01*
X157622011Y-86169333D01*
X157516183Y-86256183D01*
X157429333Y-86362011D01*
X157364798Y-86482748D01*
X157325057Y-86613756D01*
X157311638Y-86750000D01*
X153705000Y-86750000D01*
X153705000Y-85072874D01*
X153756539Y-85124413D01*
X154204492Y-85423725D01*
X154702230Y-85629895D01*
X155230626Y-85735000D01*
X155769374Y-85735000D01*
X156297770Y-85629895D01*
X156795508Y-85423725D01*
X157243461Y-85124413D01*
X157624413Y-84743461D01*
X157923725Y-84295508D01*
X158129895Y-83797770D01*
X158235000Y-83269374D01*
X158235000Y-82730626D01*
X158178185Y-82445000D01*
X171975865Y-82445000D01*
X172010000Y-82448362D01*
X172044134Y-82445000D01*
X172044135Y-82445000D01*
X172146244Y-82434943D01*
X172277252Y-82395202D01*
X172397989Y-82330667D01*
X172503817Y-82243817D01*
X172590667Y-82137989D01*
X172655202Y-82017252D01*
X172694943Y-81886244D01*
X172708362Y-81750000D01*
X172705000Y-81715865D01*
X172705000Y-67784135D01*
X172708362Y-67750000D01*
X172696381Y-67628351D01*
X172694943Y-67613756D01*
X172655202Y-67482748D01*
X172590667Y-67362011D01*
X172503817Y-67256183D01*
X172397989Y-67169333D01*
X172277252Y-67104798D01*
X172146244Y-67065057D01*
X172010000Y-67051638D01*
X171975866Y-67055000D01*
X158044134Y-67055000D01*
X158010000Y-67051638D01*
X157975865Y-67055000D01*
X157873756Y-67065057D01*
X157742748Y-67104798D01*
X157622011Y-67169333D01*
X157516183Y-67256183D01*
X157429333Y-67362011D01*
X157364798Y-67482748D01*
X157325057Y-67613756D01*
X157311638Y-67750000D01*
X157315000Y-67784135D01*
X157315001Y-80947127D01*
X157243461Y-80875587D01*
X156795508Y-80576275D01*
X156297770Y-80370105D01*
X155769374Y-80265000D01*
X155230626Y-80265000D01*
X154702230Y-80370105D01*
X154204492Y-80576275D01*
X153756539Y-80875587D01*
X153375587Y-81256539D01*
X153076275Y-81704492D01*
X152870105Y-82202230D01*
X152765000Y-82730626D01*
X152765000Y-83269374D01*
X152846679Y-83680000D01*
X139044134Y-83680000D01*
X139010000Y-83676638D01*
X138975865Y-83680000D01*
X138873756Y-83690057D01*
X138742748Y-83729798D01*
X138622011Y-83794333D01*
X138516183Y-83881183D01*
X138429333Y-83987011D01*
X138364798Y-84107748D01*
X138325057Y-84238756D01*
X138311638Y-84375000D01*
X134705000Y-84375000D01*
X134705000Y-82034135D01*
X134708362Y-82000000D01*
X134694943Y-81863756D01*
X134655202Y-81732748D01*
X134590667Y-81612011D01*
X134503817Y-81506183D01*
X134397989Y-81419333D01*
X134277252Y-81354798D01*
X134146244Y-81315057D01*
X134044135Y-81305000D01*
X134010000Y-81301638D01*
X133975866Y-81305000D01*
X120044134Y-81305000D01*
X120010000Y-81301638D01*
X119975865Y-81305000D01*
X119873756Y-81315057D01*
X119742748Y-81354798D01*
X119622011Y-81419333D01*
X119516183Y-81506183D01*
X119429333Y-81612011D01*
X119364798Y-81732748D01*
X119325057Y-81863756D01*
X119311638Y-82000000D01*
X96705000Y-82000000D01*
X96705000Y-70159135D01*
X96708362Y-70125000D01*
X96694943Y-69988756D01*
X96655202Y-69857748D01*
X96590667Y-69737011D01*
X96503817Y-69631183D01*
X96397989Y-69544333D01*
X96277252Y-69479798D01*
X96146244Y-69440057D01*
X96044135Y-69430000D01*
X96010000Y-69426638D01*
X95975866Y-69430000D01*
X82044134Y-69430000D01*
X82010000Y-69426638D01*
X81975865Y-69430000D01*
X81873756Y-69440057D01*
X81742748Y-69479798D01*
X81622011Y-69544333D01*
X81516183Y-69631183D01*
X81429333Y-69737011D01*
X81364798Y-69857748D01*
X81325057Y-69988756D01*
X81311638Y-70125000D01*
X77708362Y-70125000D01*
X77694943Y-69988756D01*
X77655202Y-69857748D01*
X77590667Y-69737011D01*
X77503817Y-69631183D01*
X77397989Y-69544333D01*
X77277252Y-69479798D01*
X77146244Y-69440057D01*
X77044135Y-69430000D01*
X77010000Y-69426638D01*
X76975866Y-69430000D01*
X63044134Y-69430000D01*
X63010000Y-69426638D01*
X62975865Y-69430000D01*
X62873756Y-69440057D01*
X62742748Y-69479798D01*
X62622011Y-69544333D01*
X62516183Y-69631183D01*
X62429333Y-69737011D01*
X62364798Y-69857748D01*
X62325057Y-69988756D01*
X62311638Y-70125000D01*
X61710000Y-70125000D01*
X61710000Y-68710000D01*
X98534877Y-68710000D01*
X98564877Y-68707045D01*
X98567839Y-68707066D01*
X98577705Y-68706099D01*
X98625645Y-68701060D01*
X98639184Y-68699727D01*
X98639636Y-68699590D01*
X98674754Y-68695899D01*
X98737811Y-68682955D01*
X98801001Y-68670901D01*
X98810491Y-68668036D01*
X98903710Y-68639180D01*
X98963021Y-68614248D01*
X99022702Y-68590135D01*
X99031454Y-68585481D01*
X99117292Y-68539068D01*
X99170612Y-68503102D01*
X99224486Y-68467848D01*
X99232168Y-68461583D01*
X99307357Y-68399381D01*
X99352689Y-68353731D01*
X99398673Y-68308701D01*
X99404992Y-68301062D01*
X99466668Y-68225441D01*
X99502272Y-68171853D01*
X99538641Y-68118738D01*
X99543356Y-68110017D01*
X99589168Y-68023856D01*
X99613679Y-67964388D01*
X99639038Y-67905220D01*
X99641969Y-67895751D01*
X99670174Y-67802333D01*
X99682672Y-67739213D01*
X99696054Y-67676257D01*
X99697090Y-67666398D01*
X99706612Y-67569281D01*
X99706612Y-67569277D01*
X99710000Y-67534877D01*
X99710000Y-65375000D01*
X100311638Y-65375000D01*
X100315000Y-65409135D01*
X100315001Y-79340855D01*
X100311638Y-79375000D01*
X100325057Y-79511244D01*
X100364798Y-79642252D01*
X100429333Y-79762989D01*
X100516183Y-79868817D01*
X100622011Y-79955667D01*
X100742748Y-80020202D01*
X100873756Y-80059943D01*
X100975865Y-80070000D01*
X100975866Y-80070000D01*
X101010000Y-80073362D01*
X101044135Y-80070000D01*
X114975865Y-80070000D01*
X115010000Y-80073362D01*
X115044134Y-80070000D01*
X115044135Y-80070000D01*
X115146244Y-80059943D01*
X115277252Y-80020202D01*
X115397989Y-79955667D01*
X115503817Y-79868817D01*
X115590667Y-79762989D01*
X115655202Y-79642252D01*
X115694943Y-79511244D01*
X115708362Y-79375000D01*
X115705000Y-79340865D01*
X115705000Y-65409135D01*
X115708362Y-65375000D01*
X115701660Y-65306949D01*
X115694943Y-65238756D01*
X115655202Y-65107748D01*
X115590667Y-64987011D01*
X115503817Y-64881183D01*
X115397989Y-64794333D01*
X115277252Y-64729798D01*
X115146244Y-64690057D01*
X115010000Y-64676638D01*
X114975866Y-64680000D01*
X101044134Y-64680000D01*
X101010000Y-64676638D01*
X100975865Y-64680000D01*
X100873756Y-64690057D01*
X100742748Y-64729798D01*
X100622011Y-64794333D01*
X100516183Y-64881183D01*
X100429333Y-64987011D01*
X100364798Y-65107748D01*
X100325057Y-65238756D01*
X100311638Y-65375000D01*
X99710000Y-65375000D01*
X99710000Y-63960000D01*
X117534877Y-63960000D01*
X117564877Y-63957045D01*
X117567839Y-63957066D01*
X117577705Y-63956099D01*
X117625645Y-63951060D01*
X117639184Y-63949727D01*
X117639636Y-63949590D01*
X117674754Y-63945899D01*
X117737811Y-63932955D01*
X117801001Y-63920901D01*
X117810491Y-63918036D01*
X117903710Y-63889180D01*
X117963021Y-63864248D01*
X118022702Y-63840135D01*
X118031454Y-63835481D01*
X118117292Y-63789068D01*
X118170612Y-63753102D01*
X118224486Y-63717848D01*
X118232168Y-63711583D01*
X118307357Y-63649381D01*
X118352689Y-63603731D01*
X118398673Y-63558701D01*
X118404992Y-63551062D01*
X118466668Y-63475441D01*
X118502272Y-63421853D01*
X118538641Y-63368738D01*
X118543356Y-63360017D01*
X118589168Y-63273856D01*
X118613679Y-63214388D01*
X118639038Y-63155220D01*
X118641969Y-63145751D01*
X118670174Y-63052333D01*
X118680536Y-63000000D01*
X119311638Y-63000000D01*
X119315000Y-63034135D01*
X119315001Y-76965855D01*
X119311638Y-77000000D01*
X119325057Y-77136244D01*
X119364798Y-77267252D01*
X119429333Y-77387989D01*
X119516183Y-77493817D01*
X119622011Y-77580667D01*
X119742748Y-77645202D01*
X119873756Y-77684943D01*
X119975865Y-77695000D01*
X119975866Y-77695000D01*
X120010000Y-77698362D01*
X120044135Y-77695000D01*
X133975865Y-77695000D01*
X134010000Y-77698362D01*
X134044134Y-77695000D01*
X134044135Y-77695000D01*
X134146244Y-77684943D01*
X134277252Y-77645202D01*
X134397989Y-77580667D01*
X134503817Y-77493817D01*
X134590667Y-77387989D01*
X134655202Y-77267252D01*
X134694943Y-77136244D01*
X134708362Y-77000000D01*
X134705000Y-76965865D01*
X134705000Y-65375000D01*
X138311638Y-65375000D01*
X138315000Y-65409135D01*
X138315001Y-79340855D01*
X138311638Y-79375000D01*
X138325057Y-79511244D01*
X138364798Y-79642252D01*
X138429333Y-79762989D01*
X138516183Y-79868817D01*
X138622011Y-79955667D01*
X138742748Y-80020202D01*
X138873756Y-80059943D01*
X138975865Y-80070000D01*
X138975866Y-80070000D01*
X139010000Y-80073362D01*
X139044135Y-80070000D01*
X152975865Y-80070000D01*
X153010000Y-80073362D01*
X153044134Y-80070000D01*
X153044135Y-80070000D01*
X153146244Y-80059943D01*
X153277252Y-80020202D01*
X153397989Y-79955667D01*
X153503817Y-79868817D01*
X153590667Y-79762989D01*
X153655202Y-79642252D01*
X153694943Y-79511244D01*
X153708362Y-79375000D01*
X153705000Y-79340865D01*
X153705000Y-65409135D01*
X153708362Y-65375000D01*
X153701660Y-65306949D01*
X153694943Y-65238756D01*
X153655202Y-65107748D01*
X153590667Y-64987011D01*
X153503817Y-64881183D01*
X153397989Y-64794333D01*
X153277252Y-64729798D01*
X153146244Y-64690057D01*
X153010000Y-64676638D01*
X152975866Y-64680000D01*
X139044134Y-64680000D01*
X139010000Y-64676638D01*
X138975865Y-64680000D01*
X138873756Y-64690057D01*
X138742748Y-64729798D01*
X138622011Y-64794333D01*
X138516183Y-64881183D01*
X138429333Y-64987011D01*
X138364798Y-65107748D01*
X138325057Y-65238756D01*
X138311638Y-65375000D01*
X134705000Y-65375000D01*
X134705000Y-63034135D01*
X134708362Y-63000000D01*
X134703968Y-62955382D01*
X134694943Y-62863756D01*
X134655202Y-62732748D01*
X134590667Y-62612011D01*
X134503817Y-62506183D01*
X134397989Y-62419333D01*
X134277252Y-62354798D01*
X134146244Y-62315057D01*
X134010000Y-62301638D01*
X133975866Y-62305000D01*
X120044134Y-62305000D01*
X120010000Y-62301638D01*
X119975865Y-62305000D01*
X119873756Y-62315057D01*
X119742748Y-62354798D01*
X119622011Y-62419333D01*
X119516183Y-62506183D01*
X119429333Y-62612011D01*
X119364798Y-62732748D01*
X119325057Y-62863756D01*
X119311638Y-63000000D01*
X118680536Y-63000000D01*
X118682672Y-62989213D01*
X118696054Y-62926257D01*
X118697090Y-62916398D01*
X118706612Y-62819281D01*
X118706612Y-62819277D01*
X118710000Y-62784877D01*
X118710000Y-61710000D01*
X135290001Y-61710000D01*
X135290000Y-62784876D01*
M02*
