G04 #@! TF.GenerationSoftware,KiCad,Pcbnew,(5.1.4-0-10_14)*
G04 #@! TF.CreationDate,2021-06-12T19:38:40+03:00*
G04 #@! TF.ProjectId,corne-top-plate,636f726e-652d-4746-9f70-2d706c617465,2.1*
G04 #@! TF.SameCoordinates,Original*
G04 #@! TF.FileFunction,Profile,NP*
%FSLAX46Y46*%
G04 Gerber Fmt 4.6, Leading zero omitted, Abs format (unit mm)*
G04 Created by KiCad (PCBNEW (5.1.4-0-10_14)) date 2021-06-12 19:38:40*
%MOMM*%
%LPD*%
G04 APERTURE LIST*
%ADD10C,0.150000*%
%ADD11C,0.120000*%
G04 APERTURE END LIST*
D10*
X174350000Y-117475001D02*
G75*
G02X173997282Y-116810192I497282J689809D01*
G01*
X193270508Y-128396988D02*
G75*
G02X193650000Y-130325000I-770507J-1153013D01*
G01*
X193270509Y-128396988D02*
X174350000Y-117475000D01*
X181297263Y-151781464D02*
G75*
G02X179369251Y-152160956I-1153013J770507D01*
G01*
X164420556Y-143770344D02*
G75*
G02X165075000Y-143900000I-333152J-3398096D01*
G01*
X181297263Y-151781465D02*
X193650000Y-130325000D01*
X165075000Y-143900000D02*
X179369251Y-152160956D01*
X127750000Y-139000000D02*
X164420556Y-143770344D01*
X127396447Y-138853553D02*
G75*
G03X127750000Y-139000000I353553J353553D01*
G01*
X116853553Y-124396447D02*
X127396447Y-138853553D01*
X174000000Y-66250000D02*
X173997282Y-116810192D01*
X174000000Y-66250000D02*
G75*
G03X173500000Y-65750000I-500000J0D01*
G01*
X116853553Y-124396447D02*
G75*
G03X116500000Y-124250000I-353553J-353553D01*
G01*
X61000000Y-123750000D02*
G75*
G03X61500000Y-124250000I500000J0D01*
G01*
X61500000Y-68000000D02*
G75*
G03X61000000Y-68500000I0J-500000D01*
G01*
X98500000Y-68000000D02*
G75*
G03X99000000Y-67500000I0J500000D01*
G01*
X99500000Y-63250000D02*
G75*
G03X99000000Y-63750000I0J-500000D01*
G01*
X117500000Y-63250000D02*
G75*
G03X118000000Y-62750000I0J500000D01*
G01*
X118500000Y-61000000D02*
G75*
G03X118000000Y-61500000I0J-500000D01*
G01*
X136000000Y-61500000D02*
G75*
G03X135500000Y-61000000I-500000J0D01*
G01*
X136000000Y-62750000D02*
G75*
G03X136500000Y-63250000I500000J0D01*
G01*
X155000000Y-63750000D02*
G75*
G03X154500000Y-63250000I-500000J0D01*
G01*
X155000000Y-65250000D02*
G75*
G03X155500000Y-65750000I500000J0D01*
G01*
X116500000Y-124250000D02*
X61500000Y-124250000D01*
X61000000Y-68500000D02*
X61000000Y-123750000D01*
X98500000Y-68000000D02*
X61500000Y-68000000D01*
X99000000Y-63750000D02*
X99000000Y-67500000D01*
X117500000Y-63250000D02*
X99500000Y-63250000D01*
X118000000Y-61500000D02*
X118000000Y-62750000D01*
X135500000Y-61000000D02*
X118500000Y-61000000D01*
X136000000Y-62750000D02*
X136000000Y-61500000D01*
X154500000Y-63250000D02*
X136500000Y-63250000D01*
X155000000Y-65250000D02*
X155000000Y-63750000D01*
X173500000Y-65750000D02*
X155500000Y-65750000D01*
D11*
X189312178Y-133922822D02*
X177187822Y-126922822D01*
X182312178Y-146047178D02*
X189312178Y-133922822D01*
X170187822Y-139047178D02*
X182312178Y-146047178D01*
X177187822Y-126922822D02*
X170187822Y-139047178D01*
X166065214Y-127794253D02*
X152542253Y-124170786D01*
X162441747Y-141317214D02*
X166065214Y-127794253D01*
X148918786Y-137693747D02*
X162441747Y-141317214D01*
X152542253Y-124170786D02*
X148918786Y-137693747D01*
X143530000Y-123035000D02*
X129530000Y-123035000D01*
X143530000Y-137035000D02*
X143530000Y-123035000D01*
X129530000Y-137035000D02*
X143530000Y-137035000D01*
X129530000Y-123035000D02*
X129530000Y-137035000D01*
X172010000Y-105750000D02*
X158010000Y-105750000D01*
X172010000Y-119750000D02*
X172010000Y-105750000D01*
X158010000Y-119750000D02*
X172010000Y-119750000D01*
X158010000Y-105750000D02*
X158010000Y-119750000D01*
X172010000Y-67750000D02*
X158010000Y-67750000D01*
X172010000Y-81750000D02*
X172010000Y-67750000D01*
X158010000Y-81750000D02*
X172010000Y-81750000D01*
X158010000Y-67750000D02*
X158010000Y-81750000D01*
X172010000Y-86750000D02*
X158010000Y-86750000D01*
X172010000Y-100750000D02*
X172010000Y-86750000D01*
X158010000Y-100750000D02*
X172010000Y-100750000D01*
X158010000Y-86750000D02*
X158010000Y-100750000D01*
X153010000Y-84375000D02*
X139010000Y-84375000D01*
X153010000Y-98375000D02*
X153010000Y-84375000D01*
X139010000Y-98375000D02*
X153010000Y-98375000D01*
X139010000Y-84375000D02*
X139010000Y-98375000D01*
X153010000Y-65375000D02*
X139010000Y-65375000D01*
X153010000Y-79375000D02*
X153010000Y-65375000D01*
X139010000Y-79375000D02*
X153010000Y-79375000D01*
X139010000Y-65375000D02*
X139010000Y-79375000D01*
X153010000Y-103375000D02*
X139010000Y-103375000D01*
X153010000Y-117375000D02*
X153010000Y-103375000D01*
X139010000Y-117375000D02*
X153010000Y-117375000D01*
X139010000Y-103375000D02*
X139010000Y-117375000D01*
X134010000Y-82000000D02*
X120010000Y-82000000D01*
X134010000Y-96000000D02*
X134010000Y-82000000D01*
X120010000Y-96000000D02*
X134010000Y-96000000D01*
X120010000Y-82000000D02*
X120010000Y-96000000D01*
X134010000Y-101000000D02*
X120010000Y-101000000D01*
X134010000Y-115000000D02*
X134010000Y-101000000D01*
X120010000Y-115000000D02*
X134010000Y-115000000D01*
X120010000Y-101000000D02*
X120010000Y-115000000D01*
X134010000Y-63000000D02*
X120010000Y-63000000D01*
X134010000Y-77000000D02*
X134010000Y-63000000D01*
X120010000Y-77000000D02*
X134010000Y-77000000D01*
X120010000Y-63000000D02*
X120010000Y-77000000D01*
X115010000Y-84375000D02*
X101010000Y-84375000D01*
X115010000Y-98375000D02*
X115010000Y-84375000D01*
X101010000Y-98375000D02*
X115010000Y-98375000D01*
X101010000Y-84375000D02*
X101010000Y-98375000D01*
X115010000Y-103375000D02*
X101010000Y-103375000D01*
X115010000Y-117375000D02*
X115010000Y-103375000D01*
X101010000Y-117375000D02*
X115010000Y-117375000D01*
X101010000Y-103375000D02*
X101010000Y-117375000D01*
X115010000Y-65375000D02*
X101010000Y-65375000D01*
X115010000Y-79375000D02*
X115010000Y-65375000D01*
X101010000Y-79375000D02*
X115010000Y-79375000D01*
X101010000Y-65375000D02*
X101010000Y-79375000D01*
X96010000Y-89125000D02*
X82010000Y-89125000D01*
X96010000Y-103125000D02*
X96010000Y-89125000D01*
X82010000Y-103125000D02*
X96010000Y-103125000D01*
X82010000Y-89125000D02*
X82010000Y-103125000D01*
X96010000Y-108125000D02*
X82010000Y-108125000D01*
X96010000Y-122125000D02*
X96010000Y-108125000D01*
X82010000Y-122125000D02*
X96010000Y-122125000D01*
X82010000Y-108125000D02*
X82010000Y-122125000D01*
X96010000Y-70125000D02*
X82010000Y-70125000D01*
X96010000Y-84125000D02*
X96010000Y-70125000D01*
X82010000Y-84125000D02*
X96010000Y-84125000D01*
X82010000Y-70125000D02*
X82010000Y-84125000D01*
X77010000Y-108125000D02*
X63010000Y-108125000D01*
X77010000Y-122125000D02*
X77010000Y-108125000D01*
X63010000Y-122125000D02*
X77010000Y-122125000D01*
X63010000Y-108125000D02*
X63010000Y-122125000D01*
X77010000Y-89125000D02*
X63010000Y-89125000D01*
X77010000Y-103125000D02*
X77010000Y-89125000D01*
X63010000Y-103125000D02*
X77010000Y-103125000D01*
X63010000Y-89125000D02*
X63010000Y-103125000D01*
X77010000Y-70125000D02*
X63010000Y-70125000D01*
X77010000Y-84125000D02*
X77010000Y-70125000D01*
X63010000Y-84125000D02*
X77010000Y-84125000D01*
X63010000Y-70125000D02*
X63010000Y-84125000D01*
M02*
