G04 #@! TF.GenerationSoftware,KiCad,Pcbnew,(5.1.4-0-10_14)*
G04 #@! TF.CreationDate,2021-06-12T19:28:26+03:00*
G04 #@! TF.ProjectId,corne-cherry,636f726e-652d-4636-9865-7272792e6b69,3.0.1*
G04 #@! TF.SameCoordinates,Original*
G04 #@! TF.FileFunction,Copper,L1,Top*
G04 #@! TF.FilePolarity,Positive*
%FSLAX46Y46*%
G04 Gerber Fmt 4.6, Leading zero omitted, Abs format (unit mm)*
G04 Created by KiCad (PCBNEW (5.1.4-0-10_14)) date 2021-06-12 19:28:26*
%MOMM*%
%LPD*%
G04 APERTURE LIST*
%ADD10C,1.397000*%
%ADD11R,1.397000X1.397000*%
%ADD12R,0.950000X1.300000*%
%ADD13C,0.100000*%
%ADD14C,0.950000*%
%ADD15R,1.300000X0.950000*%
%ADD16C,1.524000*%
%ADD17R,2.000000X2.000000*%
%ADD18C,2.000000*%
%ADD19R,3.200000X2.000000*%
%ADD20C,1.500000*%
%ADD21O,1.397000X1.778000*%
%ADD22O,2.500000X1.700000*%
%ADD23C,0.600000*%
%ADD24C,0.250000*%
%ADD25C,0.508000*%
%ADD26C,0.500000*%
%ADD27C,0.254000*%
G04 APERTURE END LIST*
D10*
X46734500Y-33870000D03*
D11*
X46734500Y-41490000D03*
D12*
X46734500Y-39455000D03*
X46734500Y-35905000D03*
D10*
X251907500Y-90970000D03*
D11*
X251907500Y-98590000D03*
D12*
X251907500Y-96555000D03*
X251907500Y-93005000D03*
D10*
X92907500Y-91270000D03*
D11*
X92907500Y-98890000D03*
D12*
X92907500Y-96855000D03*
X92907500Y-93305000D03*
D10*
X190669862Y-115062500D03*
X184070748Y-118872500D03*
D13*
G36*
X183815079Y-119826669D02*
G01*
X183116579Y-118616831D01*
X184326417Y-117918331D01*
X185024917Y-119128169D01*
X183815079Y-119826669D01*
X183815079Y-119826669D01*
G37*
D14*
X185833110Y-117855000D03*
D13*
G36*
X185507693Y-118591362D02*
G01*
X185032693Y-117768638D01*
X186158527Y-117118638D01*
X186633527Y-117941362D01*
X185507693Y-118591362D01*
X185507693Y-118591362D01*
G37*
D14*
X188907500Y-116080000D03*
D13*
G36*
X188582083Y-116816362D02*
G01*
X188107083Y-115993638D01*
X189232917Y-115343638D01*
X189707917Y-116166362D01*
X188582083Y-116816362D01*
X188582083Y-116816362D01*
G37*
D10*
X206869862Y-105362500D03*
X200270748Y-109172500D03*
D13*
G36*
X200015079Y-110126669D02*
G01*
X199316579Y-108916831D01*
X200526417Y-108218331D01*
X201224917Y-109428169D01*
X200015079Y-110126669D01*
X200015079Y-110126669D01*
G37*
D14*
X202033110Y-108155000D03*
D13*
G36*
X201707693Y-108891362D02*
G01*
X201232693Y-108068638D01*
X202358527Y-107418638D01*
X202833527Y-108241362D01*
X201707693Y-108891362D01*
X201707693Y-108891362D01*
G37*
D14*
X205107500Y-106380000D03*
D13*
G36*
X204782083Y-107116362D02*
G01*
X204307083Y-106293638D01*
X205432917Y-105643638D01*
X205907917Y-106466362D01*
X204782083Y-107116362D01*
X204782083Y-107116362D01*
G37*
D10*
X232607500Y-92870000D03*
D11*
X232607500Y-100490000D03*
D12*
X232607500Y-98455000D03*
X232607500Y-94905000D03*
D10*
X220957500Y-60495000D03*
D11*
X220957500Y-68115000D03*
D12*
X220957500Y-66080000D03*
X220957500Y-62530000D03*
D10*
X239964500Y-55615000D03*
D11*
X239964500Y-63235000D03*
D12*
X239964500Y-61200000D03*
X239964500Y-57650000D03*
D10*
X258964500Y-50740000D03*
D11*
X258964500Y-58360000D03*
D12*
X258964500Y-56325000D03*
X258964500Y-52775000D03*
D10*
X277964500Y-58115000D03*
D11*
X277964500Y-65735000D03*
D12*
X277964500Y-63700000D03*
X277964500Y-60150000D03*
D10*
X296964500Y-71865000D03*
D11*
X296964500Y-79485000D03*
D12*
X296964500Y-77450000D03*
X296964500Y-73900000D03*
D10*
X315964500Y-71865000D03*
D11*
X315964500Y-79485000D03*
D12*
X315964500Y-77450000D03*
X315964500Y-73900000D03*
D10*
X220957500Y-41495000D03*
D11*
X220957500Y-49115000D03*
D12*
X220957500Y-47080000D03*
X220957500Y-43530000D03*
D10*
X240107500Y-36570000D03*
D11*
X240107500Y-44190000D03*
D12*
X240107500Y-42155000D03*
X240107500Y-38605000D03*
D10*
X258964500Y-31740000D03*
D11*
X258964500Y-39360000D03*
D12*
X258964500Y-37325000D03*
X258964500Y-33775000D03*
D10*
X277964500Y-39115000D03*
D11*
X277964500Y-46735000D03*
D12*
X277964500Y-44700000D03*
X277964500Y-41150000D03*
D10*
X296964500Y-52865000D03*
D11*
X296964500Y-60485000D03*
D12*
X296964500Y-58450000D03*
X296964500Y-54900000D03*
D10*
X315964500Y-52715000D03*
D11*
X315964500Y-60335000D03*
D12*
X315964500Y-58300000D03*
X315964500Y-54750000D03*
D10*
X222557500Y-20310000D03*
D11*
X222557500Y-27930000D03*
D12*
X222557500Y-25895000D03*
X222557500Y-22345000D03*
D10*
X239964500Y-17615000D03*
D11*
X239964500Y-25235000D03*
D12*
X239964500Y-23200000D03*
X239964500Y-19650000D03*
D10*
X258964500Y-12740000D03*
D11*
X258964500Y-20360000D03*
D12*
X258964500Y-18325000D03*
X258964500Y-14775000D03*
D10*
X277964500Y-20115000D03*
D11*
X277964500Y-27735000D03*
D12*
X277964500Y-25700000D03*
X277964500Y-22150000D03*
D10*
X296964500Y-33865000D03*
D11*
X296964500Y-41485000D03*
D12*
X296964500Y-39450000D03*
X296964500Y-35900000D03*
D10*
X315964500Y-33865000D03*
D11*
X315964500Y-41485000D03*
D12*
X315964500Y-39450000D03*
X315964500Y-35900000D03*
D10*
X132992500Y-85780000D03*
D11*
X125372500Y-85780000D03*
D15*
X127407500Y-85780000D03*
X130957500Y-85780000D03*
D10*
X114607500Y-92570000D03*
D11*
X114607500Y-100190000D03*
D12*
X114607500Y-98155000D03*
X114607500Y-94605000D03*
D10*
X112107500Y-92570000D03*
D11*
X112107500Y-100190000D03*
D12*
X112107500Y-98155000D03*
X112107500Y-94605000D03*
D10*
X122707500Y-60495000D03*
D11*
X122707500Y-68115000D03*
D12*
X122707500Y-66080000D03*
X122707500Y-62530000D03*
D10*
X103707500Y-55620000D03*
D11*
X103707500Y-63240000D03*
D12*
X103707500Y-61205000D03*
X103707500Y-57655000D03*
D10*
X84707500Y-50745000D03*
D11*
X84707500Y-58365000D03*
D12*
X84707500Y-56330000D03*
X84707500Y-52780000D03*
D10*
X65707500Y-58120000D03*
D11*
X65707500Y-65740000D03*
D12*
X65707500Y-63705000D03*
X65707500Y-60155000D03*
D10*
X46734500Y-71870000D03*
D11*
X46734500Y-79490000D03*
D12*
X46734500Y-77455000D03*
X46734500Y-73905000D03*
D10*
X27734500Y-71866875D03*
D11*
X27734500Y-79486875D03*
D12*
X27734500Y-77451875D03*
X27734500Y-73901875D03*
D10*
X122707500Y-41495000D03*
D11*
X122707500Y-49115000D03*
D12*
X122707500Y-47080000D03*
X122707500Y-43530000D03*
D10*
X103707500Y-36620000D03*
D11*
X103707500Y-44240000D03*
D12*
X103707500Y-42205000D03*
X103707500Y-38655000D03*
D10*
X84707500Y-31745000D03*
D11*
X84707500Y-39365000D03*
D12*
X84707500Y-37330000D03*
X84707500Y-33780000D03*
D10*
X66857500Y-37320000D03*
D11*
X66857500Y-44940000D03*
D12*
X66857500Y-42905000D03*
X66857500Y-39355000D03*
D10*
X46734500Y-52870000D03*
D11*
X46734500Y-60490000D03*
D12*
X46734500Y-58455000D03*
X46734500Y-54905000D03*
D10*
X27734500Y-52866875D03*
D11*
X27734500Y-60486875D03*
D12*
X27734500Y-58451875D03*
X27734500Y-54901875D03*
D10*
X122707500Y-22495000D03*
D11*
X122707500Y-30115000D03*
D12*
X122707500Y-28080000D03*
X122707500Y-24530000D03*
D10*
X103707500Y-17620000D03*
D11*
X103707500Y-25240000D03*
D12*
X103707500Y-23205000D03*
X103707500Y-19655000D03*
D10*
X84707500Y-12745000D03*
D11*
X84707500Y-20365000D03*
D12*
X84707500Y-18330000D03*
X84707500Y-14780000D03*
D10*
X65707500Y-19870000D03*
D11*
X65707500Y-27490000D03*
D12*
X65707500Y-25455000D03*
X65707500Y-21905000D03*
D10*
X27907500Y-33860000D03*
D11*
X27907500Y-41480000D03*
D12*
X27907500Y-39445000D03*
X27907500Y-35895000D03*
D16*
X127203900Y-18942000D03*
X127203900Y-21482000D03*
X127203900Y-24022000D03*
X127203900Y-26562000D03*
X127203900Y-29102000D03*
X127203900Y-31642000D03*
X127203900Y-34182000D03*
X127203900Y-36722000D03*
X127203900Y-39262000D03*
X127203900Y-41802000D03*
X127203900Y-44342000D03*
X127203900Y-46882000D03*
X142423900Y-46882000D03*
X142423900Y-44342000D03*
X142423900Y-41802000D03*
X142423900Y-39262000D03*
X142423900Y-36722000D03*
X142423900Y-34182000D03*
X142423900Y-31642000D03*
X142423900Y-29102000D03*
X142423900Y-26562000D03*
X142423900Y-24022000D03*
X142423900Y-21482000D03*
X142423900Y-18942000D03*
D17*
X186107500Y-76780000D03*
D18*
X186107500Y-74280000D03*
X186107500Y-71780000D03*
D19*
X193607500Y-79880000D03*
X193607500Y-68680000D03*
D20*
X200607500Y-76780000D03*
X200607500Y-71780000D03*
D16*
X186128900Y-18912000D03*
X186128900Y-21452000D03*
X186128900Y-23992000D03*
X186128900Y-26532000D03*
X186128900Y-29072000D03*
X186128900Y-31612000D03*
X186128900Y-34152000D03*
X186128900Y-36692000D03*
X186128900Y-39232000D03*
X186128900Y-41772000D03*
X186128900Y-44312000D03*
X186128900Y-46852000D03*
X201348900Y-46852000D03*
X201348900Y-44312000D03*
X201348900Y-41772000D03*
X201348900Y-39232000D03*
X201348900Y-36692000D03*
X201348900Y-34152000D03*
X201348900Y-31612000D03*
X201348900Y-29072000D03*
X201348900Y-26532000D03*
X201348900Y-23992000D03*
X201348900Y-21452000D03*
X201348900Y-18912000D03*
D18*
X186054500Y-50272000D03*
X186054500Y-56772000D03*
X142424500Y-50281000D03*
X142424500Y-56781000D03*
D21*
X197547500Y-54020000D03*
X195007500Y-54020000D03*
X192467500Y-54020000D03*
X189927500Y-54020000D03*
X138568500Y-54028000D03*
X136028500Y-54028000D03*
X133488500Y-54028000D03*
X130948500Y-54028000D03*
D22*
X196087500Y-63370000D03*
X194587500Y-59170000D03*
X190587500Y-59170000D03*
X187587500Y-59170000D03*
X132334500Y-59192000D03*
X133834500Y-63392000D03*
X137834500Y-63392000D03*
X140834500Y-63392000D03*
D23*
X69307500Y-10180000D03*
X69307500Y-20080000D03*
X50307500Y-17180000D03*
X50307500Y-27980000D03*
X123907500Y-49080000D03*
X49207500Y-35930000D03*
X47707500Y-58480000D03*
X130295697Y-49065082D03*
X125041889Y-53880000D03*
X116407500Y-91080000D03*
X116407500Y-97080000D03*
X125407500Y-66030000D03*
X125372500Y-82051410D03*
X29757500Y-29780000D03*
X29807500Y-39830000D03*
X34807500Y-46930000D03*
X72557500Y-20080000D03*
X73207500Y-25480000D03*
X110757500Y-27730000D03*
X116557670Y-46045000D03*
X68744162Y-43966662D03*
X65107500Y-46330000D03*
X48775856Y-58380000D03*
X48807500Y-45380000D03*
X34157500Y-58280000D03*
X34807500Y-65830000D03*
X72307500Y-58580000D03*
X72407500Y-64880000D03*
X110407500Y-66130000D03*
X110757500Y-74580000D03*
X127346669Y-67069169D03*
X133084500Y-66957000D03*
X123752407Y-31219254D03*
X33807500Y-40680000D03*
X110157500Y-35280000D03*
X117907500Y-50180000D03*
X49525856Y-47411644D03*
X45007500Y-63780000D03*
X132187202Y-109000298D03*
X136507500Y-100130000D03*
X124060812Y-31971510D03*
X32007500Y-48880000D03*
X32007500Y-54480000D03*
X32007500Y-50280000D03*
X32107500Y-69280000D03*
X31907500Y-35180000D03*
X52607500Y-49807000D03*
X51007500Y-55580000D03*
X51007500Y-40480000D03*
X51007500Y-36530000D03*
X51007500Y-21430000D03*
X50957500Y-59680000D03*
X75607500Y-90430000D03*
X70842922Y-45915422D03*
X70157500Y-48305000D03*
X70157500Y-33080000D03*
X70007500Y-29130000D03*
X70007500Y-14030000D03*
X69957500Y-52080000D03*
X96457500Y-94030000D03*
X89907500Y-49569030D03*
X89007500Y-53105000D03*
X89007500Y-37930000D03*
X89007500Y-34205000D03*
X89007500Y-18930000D03*
X121152364Y-104774864D03*
X89057500Y-57180000D03*
X108957500Y-53169028D03*
X108057500Y-58005000D03*
X108057500Y-42830000D03*
X108007500Y-39105000D03*
X107957500Y-23830000D03*
X108007500Y-62030000D03*
X138807500Y-112280000D03*
X205630500Y-34080000D03*
X204407500Y-18530000D03*
X203157500Y-51730000D03*
X203207500Y-55780000D03*
X202457500Y-48480000D03*
X184657500Y-95630000D03*
X187157500Y-118680000D03*
X200057500Y-107380000D03*
X215107500Y-90130000D03*
X210663584Y-102836084D03*
X205111500Y-32280000D03*
X301207500Y-35280000D03*
X301257500Y-54280000D03*
X301257500Y-69230000D03*
X301857500Y-50330000D03*
X282407500Y-35280000D03*
X282307500Y-54280000D03*
X282207500Y-69230000D03*
X282307500Y-50380000D03*
X282307500Y-60080000D03*
X263357500Y-40330000D03*
X263207500Y-55480000D03*
X263357500Y-59430000D03*
X236757500Y-87930000D03*
X263257500Y-36630000D03*
X263207500Y-21480000D03*
X263257500Y-50030000D03*
X244057500Y-33030000D03*
X244207500Y-52130000D03*
X217607500Y-89930000D03*
X244207500Y-28980000D03*
X244157500Y-14080000D03*
X244060841Y-46433341D03*
X225207500Y-52980000D03*
X225257500Y-38230000D03*
X225257500Y-34030000D03*
X225257500Y-18930000D03*
X225257500Y-56980000D03*
X200707500Y-90080000D03*
X206457500Y-43130000D03*
X206257500Y-38730000D03*
X206257500Y-24080000D03*
X206357500Y-57680000D03*
X206207500Y-62330000D03*
X183057500Y-99780000D03*
X206957500Y-54980000D03*
X203603500Y-29480000D03*
X215807500Y-70668002D03*
X215857500Y-77630000D03*
X205718246Y-50215010D03*
X209057500Y-28330000D03*
X209307500Y-35480000D03*
X246957500Y-18980000D03*
X247107500Y-25730000D03*
X285007500Y-39730000D03*
X285257500Y-46830000D03*
X203707500Y-27380000D03*
X204357500Y-43930000D03*
X284807500Y-58430000D03*
X284957500Y-65680000D03*
X246907500Y-57330000D03*
X246907500Y-70830000D03*
X208907500Y-66230000D03*
X208907500Y-82330000D03*
X193707500Y-65080000D03*
X31598148Y-63180000D03*
X34057500Y-48030000D03*
X50007500Y-36330000D03*
X50007500Y-34730000D03*
X67357500Y-31480000D03*
X72357500Y-26530000D03*
X81307500Y-18680000D03*
X70807500Y-18430000D03*
X68507500Y-18280000D03*
X53607500Y-27780000D03*
X119357500Y-28480000D03*
X91657500Y-25180000D03*
X24507500Y-39830000D03*
X26557500Y-63180000D03*
X43407942Y-59279558D03*
X34857500Y-41330000D03*
X62407500Y-26130000D03*
X51657500Y-45880000D03*
X73057500Y-20715010D03*
X81182500Y-37705000D03*
X91857500Y-43980000D03*
X100307500Y-23530000D03*
X117757500Y-44980000D03*
X110807500Y-29830000D03*
X24457500Y-58830000D03*
X17257500Y-80330000D03*
X23357500Y-80630000D03*
X43307500Y-77830000D03*
X34807500Y-60380000D03*
X72857500Y-39130000D03*
X81307500Y-56730000D03*
X91907500Y-62980000D03*
X100307500Y-42580000D03*
X119307500Y-66580000D03*
X110807500Y-48980000D03*
X73078125Y-58042694D03*
X107957500Y-98480000D03*
X152257500Y-106880000D03*
X111807500Y-68830000D03*
X99507500Y-99930000D03*
X128107500Y-105341373D03*
X123057500Y-86180000D03*
X148557500Y-115230000D03*
X48707500Y-66380000D03*
X56957500Y-74580000D03*
X42307500Y-38630000D03*
X26657500Y-44180000D03*
X62357500Y-45180000D03*
X53861659Y-65634159D03*
X132107500Y-105430000D03*
X100357500Y-61680000D03*
X189407500Y-94780000D03*
X206834500Y-73380000D03*
X236757500Y-65841510D03*
X236657500Y-62180000D03*
X24357500Y-77930000D03*
X36357500Y-80430000D03*
X62457500Y-64080000D03*
X79807500Y-98730000D03*
D24*
X69307500Y-10180000D02*
X69307500Y-20080000D01*
X50307500Y-17180000D02*
X50307500Y-27980000D01*
X48107500Y-58080000D02*
X48107500Y-37030000D01*
X48107500Y-37030000D02*
X49207500Y-35930000D01*
X47707500Y-58480000D02*
X48107500Y-58080000D01*
X123922418Y-49065082D02*
X123907500Y-49080000D01*
X123907500Y-52745611D02*
X125041889Y-53880000D01*
X123907500Y-49080000D02*
X123907500Y-52745611D01*
X116407500Y-91080000D02*
X116407500Y-97080000D01*
X125407500Y-82016410D02*
X125372500Y-82051410D01*
X125407500Y-66030000D02*
X125407500Y-82016410D01*
D25*
X29757500Y-39780000D02*
X29807500Y-39830000D01*
X29757500Y-29780000D02*
X29757500Y-39780000D01*
X72557500Y-20080000D02*
X72007500Y-20630000D01*
X72007500Y-24280000D02*
X73207500Y-25480000D01*
X72007500Y-20630000D02*
X72007500Y-24280000D01*
X123860001Y-44319701D02*
X123545701Y-44634001D01*
X123860001Y-40941799D02*
X123860001Y-44319701D01*
X123153499Y-31958265D02*
X123153499Y-40235297D01*
X123545701Y-44634001D02*
X121511501Y-44634001D01*
X123153499Y-40235297D02*
X123860001Y-40941799D01*
X123157500Y-31954264D02*
X123153499Y-31958265D01*
X120100502Y-46045000D02*
X116557670Y-46045000D01*
X121511501Y-44634001D02*
X120100502Y-46045000D01*
X67681702Y-46330000D02*
X65107500Y-46330000D01*
X68744162Y-45267540D02*
X67681702Y-46330000D01*
X68744162Y-43966662D02*
X68744162Y-45267540D01*
X48771855Y-45415645D02*
X48807500Y-45380000D01*
X48771855Y-57951735D02*
X48771855Y-45415645D01*
X48775856Y-57955736D02*
X48771855Y-57951735D01*
X48775856Y-58380000D02*
X48775856Y-57955736D01*
X138234500Y-63392000D02*
X137834500Y-63392000D01*
X143878501Y-57747999D02*
X138234500Y-63392000D01*
X142423900Y-26562000D02*
X143878501Y-28016601D01*
X143858501Y-49281001D02*
X143878501Y-49301001D01*
X143424499Y-49281001D02*
X143858501Y-49281001D01*
X143878501Y-49301001D02*
X143878501Y-57747999D01*
X142424500Y-50281000D02*
X143424499Y-49281001D01*
X143878501Y-28016601D02*
X143878501Y-49301001D01*
X138677500Y-54028000D02*
X138568500Y-54028000D01*
X142424500Y-50281000D02*
X138677500Y-54028000D01*
D26*
X72307500Y-64780000D02*
X72407500Y-64880000D01*
X72307500Y-58580000D02*
X72307500Y-64780000D01*
X110407500Y-66130000D02*
X110407500Y-74280000D01*
X110707500Y-74580000D02*
X110757500Y-74580000D01*
X110407500Y-74280000D02*
X110707500Y-74580000D01*
D25*
X132972331Y-67069169D02*
X133084500Y-66957000D01*
X127346669Y-67069169D02*
X132972331Y-67069169D01*
D26*
X123157500Y-31814161D02*
X123752407Y-31219254D01*
X123157500Y-31954264D02*
X123157500Y-31814161D01*
D25*
X33607500Y-64630000D02*
X34507501Y-65530001D01*
X34507501Y-65530001D02*
X34807500Y-65830000D01*
X33607500Y-58830000D02*
X33607500Y-64630000D01*
X34157500Y-58280000D02*
X33607500Y-58830000D01*
X33807500Y-45930000D02*
X33807500Y-40680000D01*
X34807500Y-46930000D02*
X33807500Y-45930000D01*
X110053499Y-35175999D02*
X110157500Y-35280000D01*
X110053499Y-28434001D02*
X110053499Y-35175999D01*
X110757500Y-27730000D02*
X110053499Y-28434001D01*
D26*
X119507500Y-48344998D02*
X119507500Y-49880000D01*
X119207500Y-50180000D02*
X117907500Y-50180000D01*
X119507500Y-49880000D02*
X119207500Y-50180000D01*
X49525856Y-47411644D02*
X49525856Y-59905646D01*
X136028500Y-53837500D02*
X136028500Y-54028000D01*
X133434500Y-63392000D02*
X133834500Y-63392000D01*
D25*
X121876499Y-45975999D02*
X119507500Y-48344998D01*
X123204980Y-45975999D02*
X121876499Y-45975999D01*
X124568011Y-44612968D02*
X123204980Y-45975999D01*
X124568011Y-34514775D02*
X124568011Y-44612968D01*
D26*
X49525856Y-60711644D02*
X49525856Y-59905646D01*
X46457500Y-63780000D02*
X49525856Y-60711644D01*
X45007500Y-63780000D02*
X46457500Y-63780000D01*
X132487201Y-108700299D02*
X132487201Y-108150299D01*
X132187202Y-109000298D02*
X132487201Y-108700299D01*
X136397146Y-100240354D02*
X136507500Y-100130000D01*
X136397146Y-104240354D02*
X136397146Y-100240354D01*
X132487201Y-108150299D02*
X136397146Y-104240354D01*
X134267000Y-55980000D02*
X136028500Y-54218500D01*
X136028500Y-54218500D02*
X136028500Y-54028000D01*
X129357500Y-55980000D02*
X134267000Y-55980000D01*
X129357500Y-28715600D02*
X129357500Y-55980000D01*
X127203900Y-26562000D02*
X129357500Y-28715600D01*
X129357500Y-55980000D02*
X129357500Y-59280000D01*
X129340000Y-59297500D02*
X133434500Y-63392000D01*
X124060812Y-34007576D02*
X124568011Y-34514775D01*
X124060812Y-31971510D02*
X124060812Y-34007576D01*
D27*
X32007500Y-48880000D02*
X32007500Y-50280000D01*
X32007500Y-54480000D02*
X32007500Y-62380000D01*
X32507500Y-62880000D02*
X32507500Y-66180000D01*
X32007500Y-62380000D02*
X32507500Y-62880000D01*
X32107500Y-66580000D02*
X32107500Y-68080000D01*
X32507500Y-66180000D02*
X32107500Y-66580000D01*
X32107500Y-68080000D02*
X32107500Y-69280000D01*
X32307499Y-48580001D02*
X32307499Y-43479999D01*
X32007500Y-48880000D02*
X32307499Y-48580001D01*
X31907500Y-43080000D02*
X31907500Y-35180000D01*
X32307499Y-43479999D02*
X31907500Y-43080000D01*
X51007500Y-50180000D02*
X51007500Y-55580000D01*
X51380500Y-49807000D02*
X51007500Y-50180000D01*
X52607500Y-49807000D02*
X51380500Y-49807000D01*
X51007500Y-50180000D02*
X51007500Y-40480000D01*
X51007500Y-36530000D02*
X51007500Y-21430000D01*
X51750499Y-66572999D02*
X75607500Y-90430000D01*
X50957500Y-65780000D02*
X51750499Y-66572999D01*
X50957500Y-59680000D02*
X50957500Y-65780000D01*
X70157500Y-46600844D02*
X70157500Y-48305000D01*
X70842922Y-45915422D02*
X70157500Y-46600844D01*
X70157500Y-46600844D02*
X70157500Y-33080000D01*
X70007500Y-29130000D02*
X70007500Y-14030000D01*
X69957500Y-66730000D02*
X79907500Y-76680000D01*
X69957500Y-52080000D02*
X69957500Y-66730000D01*
X79907500Y-76680000D02*
X85357500Y-76680000D01*
X85357500Y-76680000D02*
X94957500Y-86280000D01*
X94957500Y-86280000D02*
X94957500Y-93880000D01*
X95107500Y-94030000D02*
X96457500Y-94030000D01*
X94957500Y-93880000D02*
X95107500Y-94030000D01*
X89007500Y-50469030D02*
X89007500Y-53105000D01*
D24*
X89907500Y-49569030D02*
X89007500Y-50469030D01*
D27*
X89007500Y-50469030D02*
X89007500Y-37930000D01*
X89007500Y-34205000D02*
X89007500Y-18930000D01*
X89057500Y-59127314D02*
X89057500Y-57180000D01*
X121351492Y-88655296D02*
X121351492Y-88652468D01*
X120607500Y-95523962D02*
X121807501Y-94323961D01*
X121351492Y-88652468D02*
X116279968Y-88652468D01*
X121807501Y-89111305D02*
X121351492Y-88655296D01*
X120607500Y-104230000D02*
X120607500Y-95523962D01*
X89057500Y-61430000D02*
X89057500Y-59127314D01*
X116279968Y-88652468D02*
X89057500Y-61430000D01*
X121807501Y-94323961D02*
X121807501Y-89111305D01*
X121152364Y-104774864D02*
X120607500Y-104230000D01*
D24*
X108057500Y-54069028D02*
X108057500Y-58005000D01*
X108957500Y-53169028D02*
X108057500Y-54069028D01*
X108057500Y-54069028D02*
X108057500Y-42830000D01*
X108007500Y-39105000D02*
X108007500Y-31630000D01*
X108007500Y-31630000D02*
X108507500Y-31130000D01*
X108507500Y-31130000D02*
X108507500Y-27630000D01*
X107957500Y-27080000D02*
X107957500Y-23830000D01*
X108507500Y-27630000D02*
X107957500Y-27080000D01*
D27*
X108007500Y-74030000D02*
X115250804Y-81273304D01*
X108007500Y-62030000D02*
X108007500Y-74030000D01*
X138807500Y-98780000D02*
X138807500Y-112280000D01*
X128040730Y-88013230D02*
X138807500Y-98780000D01*
X121990730Y-88013230D02*
X128040730Y-88013230D01*
X115250804Y-81273304D02*
X121990730Y-88013230D01*
D24*
X141661901Y-20720001D02*
X142423900Y-21482000D01*
X126682139Y-20394999D02*
X141336899Y-20394999D01*
X141336899Y-20394999D02*
X141661901Y-20720001D01*
X125666889Y-21410249D02*
X126682139Y-20394999D01*
X138809480Y-65017020D02*
X128887107Y-65017019D01*
X128887107Y-65017019D02*
X125666889Y-61796801D01*
X140434500Y-63392000D02*
X138809480Y-65017020D01*
X125666889Y-61796801D02*
X125666889Y-21410249D01*
X140834500Y-63392000D02*
X140434500Y-63392000D01*
X141306501Y-57780999D02*
X135757500Y-63330000D01*
X141424501Y-57780999D02*
X141306501Y-57780999D01*
X142424500Y-56781000D02*
X141424501Y-57780999D01*
X135757500Y-63330000D02*
X135757500Y-63530715D01*
X126441901Y-24783999D02*
X127203900Y-24022000D01*
X126116899Y-25109001D02*
X126441901Y-24783999D01*
X126116899Y-61610401D02*
X126116899Y-25109001D01*
X129073508Y-64567010D02*
X126116899Y-61610401D01*
X134721205Y-64567010D02*
X129073508Y-64567010D01*
X135757500Y-63530715D02*
X134721205Y-64567010D01*
X133488500Y-53837500D02*
X134796000Y-52530000D01*
X133488500Y-54028000D02*
X133488500Y-53837500D01*
X134796000Y-52530000D02*
X138757500Y-52530000D01*
X138757500Y-52530000D02*
X140907500Y-50380000D01*
X140907500Y-33158400D02*
X142423900Y-31642000D01*
X140907500Y-50380000D02*
X140907500Y-33158400D01*
X141661901Y-29863999D02*
X142423900Y-29102000D01*
X140457490Y-31068410D02*
X141661901Y-29863999D01*
X140457490Y-50193600D02*
X140457490Y-31068410D01*
X138571100Y-52079990D02*
X140457490Y-50193600D01*
X130948500Y-53837500D02*
X132706010Y-52079990D01*
X132706010Y-52079990D02*
X138571100Y-52079990D01*
X130948500Y-54028000D02*
X130948500Y-53837500D01*
X204407500Y-26518588D02*
X204407500Y-18530000D01*
X205630500Y-34080000D02*
X205630500Y-33655736D01*
X205736501Y-27847589D02*
X204407500Y-26518588D01*
X205736501Y-33549735D02*
X205736501Y-27847589D01*
X205630500Y-33655736D02*
X205736501Y-33549735D01*
X203157500Y-55730000D02*
X203207500Y-55780000D01*
X203157500Y-51730000D02*
X203157500Y-55730000D01*
X202457500Y-48480000D02*
X202457500Y-73380000D01*
X202457500Y-73380000D02*
X202457500Y-77530000D01*
X184657500Y-95330000D02*
X184657500Y-95630000D01*
X202457500Y-77530000D02*
X184657500Y-95330000D01*
X200057500Y-107530000D02*
X200057500Y-107380000D01*
X188907500Y-118680000D02*
X200057500Y-107530000D01*
X187157500Y-118680000D02*
X188907500Y-118680000D01*
X215107500Y-90830000D02*
X215107500Y-90130000D01*
X212407500Y-93530000D02*
X215107500Y-90830000D01*
X212407500Y-101092168D02*
X210663584Y-102836084D01*
X212407500Y-93530000D02*
X212407500Y-101092168D01*
X204936508Y-27684006D02*
X204936508Y-27980000D01*
X202435901Y-25183399D02*
X204936508Y-27684006D01*
X202435901Y-19999001D02*
X202435901Y-25183399D01*
X201348900Y-18912000D02*
X202435901Y-19999001D01*
X204936508Y-32105008D02*
X205111500Y-32280000D01*
X204936508Y-27980000D02*
X204936508Y-32105008D01*
D27*
X301857500Y-35930000D02*
X301207500Y-35280000D01*
X301557499Y-68930001D02*
X301257500Y-69230000D01*
X301257500Y-54280000D02*
X301557499Y-54579999D01*
X301857500Y-50330000D02*
X301857500Y-35930000D01*
X301557499Y-61479999D02*
X301557499Y-68930001D01*
X301557499Y-54579999D02*
X301557499Y-61479999D01*
X282357500Y-35330000D02*
X282407500Y-35280000D01*
X282307500Y-69130000D02*
X282207500Y-69230000D01*
X282307500Y-35380000D02*
X282407500Y-35280000D01*
X282307500Y-50380000D02*
X282307500Y-35380000D01*
X282307500Y-54280000D02*
X282307500Y-59830000D01*
X282307500Y-60080000D02*
X282307500Y-69130000D01*
X282307500Y-59830000D02*
X282307500Y-60080000D01*
X263257500Y-40430000D02*
X263357500Y-40330000D01*
X263257500Y-45180000D02*
X263257500Y-40430000D01*
X263257500Y-55430000D02*
X263207500Y-55480000D01*
X263357500Y-59854264D02*
X252381764Y-70830000D01*
X263357500Y-59430000D02*
X263357500Y-59854264D01*
X247957500Y-70830000D02*
X244661510Y-74125990D01*
X252381764Y-70830000D02*
X247957500Y-70830000D01*
X244661510Y-75668057D02*
X244395556Y-75934010D01*
X244661510Y-74125990D02*
X244661510Y-75668057D01*
X236757500Y-83572066D02*
X236757500Y-87930000D01*
X244395556Y-75934010D02*
X236757500Y-83572066D01*
X263257500Y-21530000D02*
X263207500Y-21480000D01*
X263257500Y-36630000D02*
X263257500Y-21530000D01*
X263257500Y-50030000D02*
X263257500Y-55430000D01*
X263257500Y-45180000D02*
X263257500Y-50030000D01*
X244057500Y-46430000D02*
X244057500Y-33030000D01*
X244207500Y-75480000D02*
X232857500Y-86830000D01*
X244207500Y-52130000D02*
X244207500Y-75480000D01*
X220707500Y-86830000D02*
X217607500Y-89930000D01*
X232857500Y-86830000D02*
X220707500Y-86830000D01*
X244207500Y-14130000D02*
X244157500Y-14080000D01*
X244207500Y-28980000D02*
X244207500Y-14130000D01*
X225257500Y-52930000D02*
X225207500Y-52980000D01*
X225257500Y-49880000D02*
X225257500Y-52930000D01*
X225257500Y-49880000D02*
X225257500Y-38230000D01*
X225257500Y-34030000D02*
X225257500Y-18930000D01*
X225257500Y-56980000D02*
X225257500Y-65800602D01*
X225257500Y-65800602D02*
X225257500Y-77780000D01*
X225257500Y-77780000D02*
X218557500Y-84480000D01*
X212957500Y-90080000D02*
X200707500Y-90080000D01*
X218557500Y-84480000D02*
X212957500Y-90080000D01*
X206457500Y-50480000D02*
X206457500Y-43130000D01*
X206957500Y-50980000D02*
X206457500Y-50480000D01*
X206257500Y-38730000D02*
X206257500Y-24080000D01*
X206957500Y-57080000D02*
X206357500Y-57680000D01*
X206207500Y-76630000D02*
X183057500Y-99780000D01*
X206207500Y-62330000D02*
X206207500Y-76630000D01*
X206957500Y-54980000D02*
X206957500Y-57080000D01*
X206957500Y-50980000D02*
X206957500Y-54980000D01*
D26*
X188778990Y-54686228D02*
X190022762Y-55930000D01*
X188778990Y-29182090D02*
X188778990Y-54686228D01*
X186128900Y-26532000D02*
X188778990Y-29182090D01*
X195007500Y-54210500D02*
X195007500Y-54020000D01*
X193288000Y-55930000D02*
X195007500Y-54210500D01*
X190022762Y-55930000D02*
X193288000Y-55930000D01*
X194587500Y-57229500D02*
X194587500Y-59170000D01*
X193288000Y-55930000D02*
X194587500Y-57229500D01*
X215807500Y-77580000D02*
X215857500Y-77630000D01*
X215807500Y-70668002D02*
X215807500Y-77580000D01*
X203603500Y-29480000D02*
X203603500Y-44576000D01*
X205718246Y-46690746D02*
X205718246Y-50215010D01*
X203603500Y-44576000D02*
X205718246Y-46690746D01*
D25*
X209057500Y-35230000D02*
X209307500Y-35480000D01*
X209057500Y-28330000D02*
X209057500Y-35230000D01*
X246957500Y-25580000D02*
X247107500Y-25730000D01*
X246957500Y-18980000D02*
X246957500Y-25580000D01*
X285007500Y-46580000D02*
X285257500Y-46830000D01*
X285007500Y-39730000D02*
X285007500Y-46580000D01*
X204357500Y-28030000D02*
X204357500Y-43930000D01*
X203707500Y-27380000D02*
X204357500Y-28030000D01*
X187054499Y-49272001D02*
X186054500Y-50272000D01*
X187344901Y-48981599D02*
X187054499Y-49272001D01*
X185653217Y-43095999D02*
X186712581Y-43095999D01*
X187344901Y-43728319D02*
X187344901Y-48981599D01*
X184912899Y-42355681D02*
X185653217Y-43095999D01*
X184912899Y-22668001D02*
X184912899Y-42355681D01*
X186712581Y-43095999D02*
X187344901Y-43728319D01*
X186128900Y-21452000D02*
X184912899Y-22668001D01*
X190587500Y-57812000D02*
X190587500Y-59170000D01*
X187508501Y-49145199D02*
X187508501Y-54733001D01*
X187508501Y-54733001D02*
X190587500Y-57812000D01*
X187344901Y-48981599D02*
X187508501Y-49145199D01*
X197547500Y-55417000D02*
X197547500Y-54020000D01*
X197547500Y-58454148D02*
X197547500Y-55417000D01*
X192687578Y-62730000D02*
X193271648Y-62730000D01*
X193271648Y-62730000D02*
X197547500Y-58454148D01*
X190587500Y-60629922D02*
X192687578Y-62730000D01*
X190587500Y-59170000D02*
X190587500Y-60629922D01*
X284807500Y-65530000D02*
X284957500Y-65680000D01*
X284807500Y-58430000D02*
X284807500Y-65530000D01*
X246907500Y-57330000D02*
X246907500Y-70830000D01*
X208907500Y-66230000D02*
X208907500Y-82330000D01*
X192687578Y-64060078D02*
X193707500Y-65080000D01*
X192687578Y-62730000D02*
X192687578Y-64060078D01*
D24*
X32632501Y-52929997D02*
X32632501Y-49454999D01*
X32632501Y-49454999D02*
X34057500Y-48030000D01*
X31298149Y-54264349D02*
X32632501Y-52929997D01*
X31298149Y-62880001D02*
X31298149Y-54264349D01*
X31598148Y-63180000D02*
X31298149Y-62880001D01*
X50007500Y-36330000D02*
X50007500Y-34730000D01*
X68582502Y-31480000D02*
X72357500Y-27705002D01*
X72357500Y-27705002D02*
X72357500Y-26530000D01*
X67357500Y-31480000D02*
X68582502Y-31480000D01*
X80097490Y-17469990D02*
X71967510Y-17469990D01*
X81307500Y-18680000D02*
X80097490Y-17469990D01*
X71007500Y-18430000D02*
X70807500Y-18430000D01*
X71967510Y-17469990D02*
X71007500Y-18430000D01*
X66731001Y-22591501D02*
X66731001Y-28906499D01*
X68507500Y-20815002D02*
X66731001Y-22591501D01*
X68507500Y-18280000D02*
X68507500Y-20815002D01*
X54733999Y-28906499D02*
X53607500Y-27780000D01*
X66731001Y-28906499D02*
X54733999Y-28906499D01*
X119357500Y-28480000D02*
X118257500Y-27380000D01*
X103482498Y-27380000D02*
X93857500Y-27380000D01*
X107657499Y-23204999D02*
X103482498Y-27380000D01*
X108257501Y-23204999D02*
X107657499Y-23204999D01*
X117982499Y-27104999D02*
X110457499Y-27104999D01*
X108582501Y-23529999D02*
X108257501Y-23204999D01*
X108582501Y-25230001D02*
X108582501Y-23529999D01*
X93857500Y-27380000D02*
X91657500Y-25180000D01*
X110457499Y-27104999D02*
X108582501Y-25230001D01*
X118257500Y-27380000D02*
X117982499Y-27104999D01*
X24507500Y-39830000D02*
X24507500Y-41880000D01*
X26557500Y-54262998D02*
X26557500Y-63180000D01*
X24507500Y-52212998D02*
X26557500Y-54262998D01*
X24507500Y-41880000D02*
X24507500Y-52212998D01*
X41482501Y-52236003D02*
X34857500Y-45611002D01*
X41482501Y-57354117D02*
X41482501Y-52236003D01*
X43407942Y-59279558D02*
X41482501Y-57354117D01*
X34857500Y-45611002D02*
X34857500Y-41330000D01*
X51657500Y-28804998D02*
X51657500Y-45880000D01*
X55617508Y-24844990D02*
X51657500Y-28804998D01*
X61122490Y-24844990D02*
X55617508Y-24844990D01*
X62407500Y-26130000D02*
X61122490Y-24844990D01*
X77757500Y-25415010D02*
X77757500Y-30789998D01*
X73057500Y-20715010D02*
X77757500Y-25415010D01*
X79482501Y-32514999D02*
X77757500Y-30789998D01*
X81182500Y-34537002D02*
X79482501Y-32837003D01*
X79482501Y-32837003D02*
X79482501Y-32514999D01*
X81182500Y-37705000D02*
X81182500Y-34537002D01*
X91032499Y-25480001D02*
X91032499Y-24879999D01*
X94122501Y-36866001D02*
X94122501Y-28570003D01*
X91032499Y-24879999D02*
X93567508Y-22344990D01*
X92302501Y-38686001D02*
X94122501Y-36866001D01*
X93567508Y-22344990D02*
X99922490Y-22344990D01*
X92302501Y-43534999D02*
X92302501Y-38686001D01*
X94122501Y-28570003D02*
X91032499Y-25480001D01*
X91857500Y-43980000D02*
X92302501Y-43534999D01*
X99922490Y-23144990D02*
X100307500Y-23530000D01*
X99922490Y-22344990D02*
X99922490Y-23144990D01*
X110807500Y-29830000D02*
X110807500Y-37180000D01*
X117757500Y-44555736D02*
X117757500Y-44980000D01*
X112507500Y-37180000D02*
X117757500Y-42430000D01*
X117757500Y-42430000D02*
X117757500Y-44555736D01*
X110807500Y-37180000D02*
X112507500Y-37180000D01*
X24457500Y-62005002D02*
X26462501Y-64010003D01*
X24457500Y-58830000D02*
X24457500Y-62005002D01*
X17392510Y-80465010D02*
X17257500Y-80330000D01*
X26462501Y-70617997D02*
X23357500Y-73722998D01*
X26462501Y-64010003D02*
X26462501Y-70617997D01*
X23357500Y-73722998D02*
X23357500Y-80630000D01*
X41557500Y-71311002D02*
X34807500Y-64561002D01*
X41557500Y-76080000D02*
X41557500Y-71311002D01*
X43307500Y-77830000D02*
X41557500Y-76080000D01*
X34807500Y-64561002D02*
X34807500Y-60380000D01*
X72857500Y-39130000D02*
X72857500Y-44130000D01*
X72857500Y-44130000D02*
X80912499Y-52184999D01*
X80912499Y-56334999D02*
X80912499Y-55134999D01*
X81307500Y-56730000D02*
X80912499Y-56334999D01*
X80912499Y-55134999D02*
X80912499Y-55434999D01*
X80912499Y-52184999D02*
X80912499Y-55134999D01*
D27*
X96820499Y-53170963D02*
X96820499Y-49817001D01*
X93730499Y-56260963D02*
X96820499Y-53170963D01*
X93730499Y-60732737D02*
X93730499Y-56260963D01*
X91907500Y-62555736D02*
X93730499Y-60732737D01*
X91907500Y-62980000D02*
X91907500Y-62555736D01*
D24*
X100307500Y-46330000D02*
X99982500Y-46655000D01*
X100307500Y-42580000D02*
X100307500Y-46330000D01*
D27*
X96820499Y-49817001D02*
X99982500Y-46655000D01*
D24*
X110807500Y-54589998D02*
X110807500Y-48980000D01*
X117482501Y-61264999D02*
X110807500Y-54589998D01*
X117482501Y-64755001D02*
X117482501Y-61264999D01*
X119307500Y-66580000D02*
X117482501Y-64755001D01*
X73078125Y-58042694D02*
X73078125Y-68100625D01*
X73107500Y-68130000D02*
X73107500Y-69240762D01*
X73078125Y-68100625D02*
X73107500Y-68130000D01*
X80094728Y-76227990D02*
X89955490Y-76227990D01*
X73107500Y-69240762D02*
X80094728Y-76227990D01*
X89955490Y-76227990D02*
X106557500Y-92830000D01*
X106557500Y-92830000D02*
X106557500Y-95780000D01*
X106557500Y-97080000D02*
X107957500Y-98480000D01*
X106557500Y-95780000D02*
X106557500Y-97080000D01*
X152257500Y-105728589D02*
X134807500Y-88278589D01*
X152257500Y-106880000D02*
X152257500Y-105728589D01*
X125072499Y-82676411D02*
X111807500Y-69411412D01*
X111807500Y-69411412D02*
X111807500Y-68830000D01*
X126013913Y-82676411D02*
X125072499Y-82676411D01*
X131616091Y-88278589D02*
X126013913Y-82676411D01*
X134807500Y-88278589D02*
X131616091Y-88278589D01*
X99507500Y-100354264D02*
X104384283Y-105231047D01*
X104384283Y-105231047D02*
X106688958Y-105430000D01*
X99507500Y-99930000D02*
X99507500Y-100354264D01*
X128018873Y-105430000D02*
X128107500Y-105341373D01*
X106688958Y-105430000D02*
X128018873Y-105430000D01*
X123057500Y-86180000D02*
X124007500Y-87130000D01*
X141403090Y-107133850D02*
X146357500Y-112088260D01*
X141403090Y-100736352D02*
X141403090Y-107133850D01*
X127796738Y-87130000D02*
X141403090Y-100736352D01*
X124007500Y-87130000D02*
X127796738Y-87130000D01*
X146357500Y-113030000D02*
X148557500Y-115230000D01*
X146357500Y-112088260D02*
X146357500Y-113030000D01*
X56907500Y-74580000D02*
X56957500Y-74580000D01*
X48707500Y-66380000D02*
X56907500Y-74580000D01*
X29457499Y-29154999D02*
X26657500Y-31954998D01*
X35997501Y-29154999D02*
X29457499Y-29154999D01*
X42307500Y-35464998D02*
X35997501Y-29154999D01*
X42307500Y-38630000D02*
X42307500Y-35464998D01*
X26657500Y-31954998D02*
X26657500Y-37874486D01*
X26657500Y-37874486D02*
X26657500Y-41080000D01*
X26657500Y-41080000D02*
X26657500Y-44180000D01*
X56957500Y-57664998D02*
X54302501Y-60319997D01*
X56957500Y-54780000D02*
X56957500Y-57664998D01*
X62357500Y-49380000D02*
X56957500Y-54780000D01*
X54302501Y-60319997D02*
X54302501Y-63734999D01*
X62357500Y-45180000D02*
X62357500Y-49380000D01*
X53861659Y-64175841D02*
X53861659Y-65634159D01*
X54302501Y-63734999D02*
X53861659Y-64175841D01*
X132107500Y-105430000D02*
X131256910Y-104579410D01*
X121805501Y-88467239D02*
X101057500Y-67719238D01*
X101057500Y-62380000D02*
X100357500Y-61680000D01*
X101057500Y-67719238D02*
X101057500Y-62380000D01*
D27*
X122261511Y-88923249D02*
X121805501Y-88467239D01*
X122261511Y-101925989D02*
X122261511Y-88923249D01*
X124916932Y-104581410D02*
X122261511Y-101925989D01*
X127680461Y-104581410D02*
X124916932Y-104581410D01*
X127682461Y-104579410D02*
X127680461Y-104581410D01*
X131256910Y-104579410D02*
X127682461Y-104579410D01*
D24*
X189407500Y-94780000D02*
X189407500Y-94180000D01*
X189407500Y-94180000D02*
X202539144Y-81048356D01*
X202539144Y-81048356D02*
X203357500Y-80230000D01*
X206834500Y-76753000D02*
X206834500Y-73380000D01*
X203357500Y-80230000D02*
X206834500Y-76753000D01*
X236757500Y-62280000D02*
X236657500Y-62180000D01*
X236757500Y-65841510D02*
X236757500Y-62280000D01*
X24357500Y-77930000D02*
X24357500Y-78780000D01*
X36277124Y-80510376D02*
X36357500Y-80430000D01*
X26087876Y-80510376D02*
X36277124Y-80510376D01*
X24357500Y-78780000D02*
X26087876Y-80510376D01*
X78352499Y-90771501D02*
X78352499Y-97274999D01*
X62457500Y-74876502D02*
X78352499Y-90771501D01*
X62457500Y-64080000D02*
X62457500Y-74876502D01*
X78352499Y-97274999D02*
X79807500Y-98730000D01*
M02*
