G04 #@! TF.GenerationSoftware,KiCad,Pcbnew,(5.1.4-0-10_14)*
G04 #@! TF.CreationDate,2021-06-12T19:28:26+03:00*
G04 #@! TF.ProjectId,corne-cherry,636f726e-652d-4636-9865-7272792e6b69,3.0.1*
G04 #@! TF.SameCoordinates,Original*
G04 #@! TF.FileFunction,Legend,Bot*
G04 #@! TF.FilePolarity,Positive*
%FSLAX46Y46*%
G04 Gerber Fmt 4.6, Leading zero omitted, Abs format (unit mm)*
G04 Created by KiCad (PCBNEW (5.1.4-0-10_14)) date 2021-06-12 19:28:26*
%MOMM*%
%LPD*%
G04 APERTURE LIST*
%ADD10C,0.120000*%
%ADD11C,0.150000*%
%ADD12C,0.300000*%
%ADD13C,0.800000*%
%ADD14C,3.000000*%
%ADD15C,0.500000*%
%ADD16C,1.000000*%
%ADD17C,3.500000*%
%ADD18C,0.400000*%
%ADD19C,0.010000*%
G04 APERTURE END LIST*
D10*
X111457500Y-36655000D02*
X111457500Y-35505000D01*
X118757500Y-36655000D02*
X111457500Y-36655000D01*
X118757500Y-31155000D02*
X111457500Y-31155000D01*
D11*
X45984500Y-34980000D02*
X47484500Y-34980000D01*
X45984500Y-40380000D02*
X45984500Y-34980000D01*
X47484500Y-40380000D02*
X45984500Y-40380000D01*
X47484500Y-34980000D02*
X47484500Y-40380000D01*
X47234500Y-38180000D02*
X46234500Y-38180000D01*
X46234500Y-37180000D02*
X46734500Y-38080000D01*
X47234500Y-37180000D02*
X46234500Y-37180000D01*
X46734500Y-38080000D02*
X47234500Y-37180000D01*
D12*
X109307500Y-58355000D02*
X109307500Y-57705000D01*
D13*
X109807500Y-60805000D02*
X109807500Y-59005001D01*
D14*
X110937500Y-57305000D02*
X110937500Y-59545000D01*
D15*
X119307500Y-59155000D02*
X118007500Y-59105000D01*
D16*
X119007500Y-56405000D02*
X119007500Y-58905000D01*
D17*
X117707500Y-57605000D02*
X111007500Y-57605000D01*
D11*
X119507500Y-59405000D02*
X119507500Y-55805000D01*
X119487500Y-58405000D02*
X119487500Y-56155000D01*
X109207500Y-58455000D02*
X109407500Y-58455000D01*
X109457500Y-56855000D02*
X109457500Y-61305000D01*
X109207500Y-57705000D02*
X109207500Y-58455000D01*
X109457500Y-61305000D02*
X112487500Y-61305000D01*
X114707500Y-59405000D02*
X119507500Y-59405000D01*
X119507500Y-55805000D02*
X111307499Y-55805000D01*
X112491182Y-61283529D02*
G75*
G02X114707500Y-59405000I2151318J-291471D01*
G01*
X109207500Y-57705001D02*
G75*
G02X111307499Y-55805000I2000000J-99999D01*
G01*
D16*
X112091182Y-60883529D02*
G75*
G02X114307500Y-59005000I2151318J-291471D01*
G01*
D15*
X109657500Y-61105000D02*
X112107500Y-61105000D01*
D18*
X119357500Y-56005000D02*
X118107500Y-56005000D01*
D12*
X139950097Y-111652947D02*
X139387181Y-111327947D01*
D13*
X142321859Y-112444935D02*
X140763014Y-111544935D01*
D14*
X139855770Y-109716326D02*
X141795667Y-110836326D01*
D15*
X145642917Y-103392693D02*
X144949616Y-104493526D01*
D16*
X143111348Y-102277501D02*
X145276411Y-103527501D01*
D17*
X143500578Y-104003334D02*
X140150578Y-109805704D01*
D11*
X145959424Y-103344488D02*
X142841732Y-101544488D01*
X145083398Y-102861809D02*
X143134841Y-101736809D01*
X139986700Y-111789550D02*
X140086700Y-111616345D01*
X138726059Y-110773044D02*
X142579872Y-112998044D01*
X139337181Y-111414550D02*
X139986700Y-111789550D01*
X142579872Y-112998044D02*
X144094872Y-110373987D01*
X143559424Y-107501410D02*
X145959424Y-103344488D01*
X142841732Y-101544488D02*
X138741732Y-108645897D01*
X144078119Y-110360062D02*
G75*
G02X143559424Y-107501410I1328080J1717360D01*
G01*
X139337181Y-111414550D02*
G75*
G02X138741732Y-108645897I1086602J1682051D01*
G01*
D16*
X143531709Y-110506472D02*
G75*
G02X143013014Y-107647820I1328080J1717360D01*
G01*
D15*
X142506667Y-112724838D02*
X143731667Y-110603076D01*
D18*
X142939937Y-101774392D02*
X142314937Y-102856924D01*
D12*
X182971903Y-101602053D02*
X183534819Y-101277053D01*
D13*
X181100141Y-103260065D02*
X182658986Y-102360066D01*
D14*
X184696230Y-102488674D02*
X182756333Y-103608674D01*
D15*
X187279083Y-110662307D02*
X186672384Y-109511474D01*
D16*
X189510652Y-109027499D02*
X187345589Y-110277499D01*
D17*
X187821422Y-108501666D02*
X184471422Y-102699296D01*
D11*
X187162576Y-110960512D02*
X190280268Y-109160512D01*
X188018602Y-110443191D02*
X189967159Y-109318191D01*
X182835300Y-101565450D02*
X182935300Y-101738655D01*
X184345941Y-100981956D02*
X180492128Y-103206956D01*
X183484819Y-101190450D02*
X182835300Y-101565450D01*
X180492128Y-103206956D02*
X182007128Y-105831013D01*
X184762576Y-106803590D02*
X187162576Y-110960512D01*
X190280268Y-109160512D02*
X186180267Y-102059103D01*
X182027563Y-105823467D02*
G75*
G02X184762576Y-106803590I823238J-2008831D01*
G01*
X183484819Y-101190451D02*
G75*
G02X186180267Y-102059103I913398J-1782050D01*
G01*
D16*
X182173973Y-105277057D02*
G75*
G02X184908986Y-106257180I823238J-2008831D01*
G01*
D15*
X180765333Y-103280162D02*
X181990333Y-105401924D01*
D18*
X190032063Y-109130608D02*
X189407063Y-108048076D01*
D12*
X237967500Y-89130000D02*
X237967500Y-88480000D01*
D13*
X238467500Y-91580000D02*
X238467500Y-89780001D01*
D14*
X239597500Y-88080000D02*
X239597500Y-90320000D01*
D15*
X247967500Y-89930000D02*
X246667500Y-89880000D01*
D16*
X247667500Y-87180000D02*
X247667500Y-89680000D01*
D17*
X246367500Y-88380000D02*
X239667500Y-88380000D01*
D11*
X248167500Y-90180000D02*
X248167500Y-86580000D01*
X248147500Y-89180000D02*
X248147500Y-86930000D01*
X237867500Y-89230000D02*
X238067500Y-89230000D01*
X238117500Y-87630000D02*
X238117500Y-92080000D01*
X237867500Y-88480000D02*
X237867500Y-89230000D01*
X238117500Y-92080000D02*
X241147500Y-92080000D01*
X243367500Y-90180000D02*
X248167500Y-90180000D01*
X248167500Y-86580000D02*
X239967499Y-86580000D01*
X241151182Y-92058529D02*
G75*
G02X243367500Y-90180000I2151318J-291471D01*
G01*
X237867500Y-88480001D02*
G75*
G02X239967499Y-86580000I2000000J-99999D01*
G01*
D16*
X240751182Y-91658529D02*
G75*
G02X242967500Y-89780000I2151318J-291471D01*
G01*
D15*
X238317500Y-91880000D02*
X240767500Y-91880000D01*
D18*
X248017500Y-86780000D02*
X246767500Y-86780000D01*
D10*
X239807500Y-97930000D02*
X239807500Y-96330000D01*
X247607500Y-100030000D02*
X239807500Y-100030000D01*
X239807500Y-96330000D02*
X247607500Y-96330000D01*
D11*
X251157500Y-92080000D02*
X252657500Y-92080000D01*
X251157500Y-97480000D02*
X251157500Y-92080000D01*
X252657500Y-97480000D02*
X251157500Y-97480000D01*
X252657500Y-92080000D02*
X252657500Y-97480000D01*
X252407500Y-95280000D02*
X251407500Y-95280000D01*
X251407500Y-94280000D02*
X251907500Y-95180000D01*
X252407500Y-94280000D02*
X251407500Y-94280000D01*
X251907500Y-95180000D02*
X252407500Y-94280000D01*
X92157500Y-92380000D02*
X93657500Y-92380000D01*
X92157500Y-97780000D02*
X92157500Y-92380000D01*
X93657500Y-97780000D02*
X92157500Y-97780000D01*
X93657500Y-92380000D02*
X93657500Y-97780000D01*
X93407500Y-95580000D02*
X92407500Y-95580000D01*
X92407500Y-94580000D02*
X92907500Y-95480000D01*
X93407500Y-94580000D02*
X92407500Y-94580000D01*
X92907500Y-95480000D02*
X93407500Y-94580000D01*
X189333574Y-114967981D02*
X190083574Y-116267019D01*
X184657036Y-117667981D02*
X189333574Y-114967981D01*
X185407036Y-118967019D02*
X184657036Y-117667981D01*
X190083574Y-116267019D02*
X185407036Y-118967019D01*
X187187292Y-117650513D02*
X186687292Y-116784487D01*
X187553318Y-116284487D02*
X187023895Y-117167500D01*
X188053318Y-117150513D02*
X187553318Y-116284487D01*
X187023895Y-117167500D02*
X188053318Y-117150513D01*
X205533574Y-105267981D02*
X206283574Y-106567019D01*
X200857036Y-107967981D02*
X205533574Y-105267981D01*
X201607036Y-109267019D02*
X200857036Y-107967981D01*
X206283574Y-106567019D02*
X201607036Y-109267019D01*
X203387292Y-107950513D02*
X202887292Y-107084487D01*
X203753318Y-106584487D02*
X203223895Y-107467500D01*
X204253318Y-107450513D02*
X203753318Y-106584487D01*
X203223895Y-107467500D02*
X204253318Y-107450513D01*
X231857500Y-93980000D02*
X233357500Y-93980000D01*
X231857500Y-99380000D02*
X231857500Y-93980000D01*
X233357500Y-99380000D02*
X231857500Y-99380000D01*
X233357500Y-93980000D02*
X233357500Y-99380000D01*
X233107500Y-97180000D02*
X232107500Y-97180000D01*
X232107500Y-96180000D02*
X232607500Y-97080000D01*
X233107500Y-96180000D02*
X232107500Y-96180000D01*
X232607500Y-97080000D02*
X233107500Y-96180000D01*
X220207500Y-61605000D02*
X221707500Y-61605000D01*
X220207500Y-67005000D02*
X220207500Y-61605000D01*
X221707500Y-67005000D02*
X220207500Y-67005000D01*
X221707500Y-61605000D02*
X221707500Y-67005000D01*
X221457500Y-64805000D02*
X220457500Y-64805000D01*
X220457500Y-63805000D02*
X220957500Y-64705000D01*
X221457500Y-63805000D02*
X220457500Y-63805000D01*
X220957500Y-64705000D02*
X221457500Y-63805000D01*
X239214500Y-56725000D02*
X240714500Y-56725000D01*
X239214500Y-62125000D02*
X239214500Y-56725000D01*
X240714500Y-62125000D02*
X239214500Y-62125000D01*
X240714500Y-56725000D02*
X240714500Y-62125000D01*
X240464500Y-59925000D02*
X239464500Y-59925000D01*
X239464500Y-58925000D02*
X239964500Y-59825000D01*
X240464500Y-58925000D02*
X239464500Y-58925000D01*
X239964500Y-59825000D02*
X240464500Y-58925000D01*
X258214500Y-51850000D02*
X259714500Y-51850000D01*
X258214500Y-57250000D02*
X258214500Y-51850000D01*
X259714500Y-57250000D02*
X258214500Y-57250000D01*
X259714500Y-51850000D02*
X259714500Y-57250000D01*
X259464500Y-55050000D02*
X258464500Y-55050000D01*
X258464500Y-54050000D02*
X258964500Y-54950000D01*
X259464500Y-54050000D02*
X258464500Y-54050000D01*
X258964500Y-54950000D02*
X259464500Y-54050000D01*
X277214500Y-59225000D02*
X278714500Y-59225000D01*
X277214500Y-64625000D02*
X277214500Y-59225000D01*
X278714500Y-64625000D02*
X277214500Y-64625000D01*
X278714500Y-59225000D02*
X278714500Y-64625000D01*
X278464500Y-62425000D02*
X277464500Y-62425000D01*
X277464500Y-61425000D02*
X277964500Y-62325000D01*
X278464500Y-61425000D02*
X277464500Y-61425000D01*
X277964500Y-62325000D02*
X278464500Y-61425000D01*
X296214500Y-72975000D02*
X297714500Y-72975000D01*
X296214500Y-78375000D02*
X296214500Y-72975000D01*
X297714500Y-78375000D02*
X296214500Y-78375000D01*
X297714500Y-72975000D02*
X297714500Y-78375000D01*
X297464500Y-76175000D02*
X296464500Y-76175000D01*
X296464500Y-75175000D02*
X296964500Y-76075000D01*
X297464500Y-75175000D02*
X296464500Y-75175000D01*
X296964500Y-76075000D02*
X297464500Y-75175000D01*
X315214500Y-72975000D02*
X316714500Y-72975000D01*
X315214500Y-78375000D02*
X315214500Y-72975000D01*
X316714500Y-78375000D02*
X315214500Y-78375000D01*
X316714500Y-72975000D02*
X316714500Y-78375000D01*
X316464500Y-76175000D02*
X315464500Y-76175000D01*
X315464500Y-75175000D02*
X315964500Y-76075000D01*
X316464500Y-75175000D02*
X315464500Y-75175000D01*
X315964500Y-76075000D02*
X316464500Y-75175000D01*
X220207500Y-42605000D02*
X221707500Y-42605000D01*
X220207500Y-48005000D02*
X220207500Y-42605000D01*
X221707500Y-48005000D02*
X220207500Y-48005000D01*
X221707500Y-42605000D02*
X221707500Y-48005000D01*
X221457500Y-45805000D02*
X220457500Y-45805000D01*
X220457500Y-44805000D02*
X220957500Y-45705000D01*
X221457500Y-44805000D02*
X220457500Y-44805000D01*
X220957500Y-45705000D02*
X221457500Y-44805000D01*
X239357500Y-37680000D02*
X240857500Y-37680000D01*
X239357500Y-43080000D02*
X239357500Y-37680000D01*
X240857500Y-43080000D02*
X239357500Y-43080000D01*
X240857500Y-37680000D02*
X240857500Y-43080000D01*
X240607500Y-40880000D02*
X239607500Y-40880000D01*
X239607500Y-39880000D02*
X240107500Y-40780000D01*
X240607500Y-39880000D02*
X239607500Y-39880000D01*
X240107500Y-40780000D02*
X240607500Y-39880000D01*
X258214500Y-32850000D02*
X259714500Y-32850000D01*
X258214500Y-38250000D02*
X258214500Y-32850000D01*
X259714500Y-38250000D02*
X258214500Y-38250000D01*
X259714500Y-32850000D02*
X259714500Y-38250000D01*
X259464500Y-36050000D02*
X258464500Y-36050000D01*
X258464500Y-35050000D02*
X258964500Y-35950000D01*
X259464500Y-35050000D02*
X258464500Y-35050000D01*
X258964500Y-35950000D02*
X259464500Y-35050000D01*
X277214500Y-40225000D02*
X278714500Y-40225000D01*
X277214500Y-45625000D02*
X277214500Y-40225000D01*
X278714500Y-45625000D02*
X277214500Y-45625000D01*
X278714500Y-40225000D02*
X278714500Y-45625000D01*
X278464500Y-43425000D02*
X277464500Y-43425000D01*
X277464500Y-42425000D02*
X277964500Y-43325000D01*
X278464500Y-42425000D02*
X277464500Y-42425000D01*
X277964500Y-43325000D02*
X278464500Y-42425000D01*
X296214500Y-53975000D02*
X297714500Y-53975000D01*
X296214500Y-59375000D02*
X296214500Y-53975000D01*
X297714500Y-59375000D02*
X296214500Y-59375000D01*
X297714500Y-53975000D02*
X297714500Y-59375000D01*
X297464500Y-57175000D02*
X296464500Y-57175000D01*
X296464500Y-56175000D02*
X296964500Y-57075000D01*
X297464500Y-56175000D02*
X296464500Y-56175000D01*
X296964500Y-57075000D02*
X297464500Y-56175000D01*
X315214500Y-53825000D02*
X316714500Y-53825000D01*
X315214500Y-59225000D02*
X315214500Y-53825000D01*
X316714500Y-59225000D02*
X315214500Y-59225000D01*
X316714500Y-53825000D02*
X316714500Y-59225000D01*
X316464500Y-57025000D02*
X315464500Y-57025000D01*
X315464500Y-56025000D02*
X315964500Y-56925000D01*
X316464500Y-56025000D02*
X315464500Y-56025000D01*
X315964500Y-56925000D02*
X316464500Y-56025000D01*
X221807500Y-21420000D02*
X223307500Y-21420000D01*
X221807500Y-26820000D02*
X221807500Y-21420000D01*
X223307500Y-26820000D02*
X221807500Y-26820000D01*
X223307500Y-21420000D02*
X223307500Y-26820000D01*
X223057500Y-24620000D02*
X222057500Y-24620000D01*
X222057500Y-23620000D02*
X222557500Y-24520000D01*
X223057500Y-23620000D02*
X222057500Y-23620000D01*
X222557500Y-24520000D02*
X223057500Y-23620000D01*
X239214500Y-18725000D02*
X240714500Y-18725000D01*
X239214500Y-24125000D02*
X239214500Y-18725000D01*
X240714500Y-24125000D02*
X239214500Y-24125000D01*
X240714500Y-18725000D02*
X240714500Y-24125000D01*
X240464500Y-21925000D02*
X239464500Y-21925000D01*
X239464500Y-20925000D02*
X239964500Y-21825000D01*
X240464500Y-20925000D02*
X239464500Y-20925000D01*
X239964500Y-21825000D02*
X240464500Y-20925000D01*
X258214500Y-13850000D02*
X259714500Y-13850000D01*
X258214500Y-19250000D02*
X258214500Y-13850000D01*
X259714500Y-19250000D02*
X258214500Y-19250000D01*
X259714500Y-13850000D02*
X259714500Y-19250000D01*
X259464500Y-17050000D02*
X258464500Y-17050000D01*
X258464500Y-16050000D02*
X258964500Y-16950000D01*
X259464500Y-16050000D02*
X258464500Y-16050000D01*
X258964500Y-16950000D02*
X259464500Y-16050000D01*
X277214500Y-21225000D02*
X278714500Y-21225000D01*
X277214500Y-26625000D02*
X277214500Y-21225000D01*
X278714500Y-26625000D02*
X277214500Y-26625000D01*
X278714500Y-21225000D02*
X278714500Y-26625000D01*
X278464500Y-24425000D02*
X277464500Y-24425000D01*
X277464500Y-23425000D02*
X277964500Y-24325000D01*
X278464500Y-23425000D02*
X277464500Y-23425000D01*
X277964500Y-24325000D02*
X278464500Y-23425000D01*
X296214500Y-34975000D02*
X297714500Y-34975000D01*
X296214500Y-40375000D02*
X296214500Y-34975000D01*
X297714500Y-40375000D02*
X296214500Y-40375000D01*
X297714500Y-34975000D02*
X297714500Y-40375000D01*
X297464500Y-38175000D02*
X296464500Y-38175000D01*
X296464500Y-37175000D02*
X296964500Y-38075000D01*
X297464500Y-37175000D02*
X296464500Y-37175000D01*
X296964500Y-38075000D02*
X297464500Y-37175000D01*
X315214500Y-34975000D02*
X316714500Y-34975000D01*
X315214500Y-40375000D02*
X315214500Y-34975000D01*
X316714500Y-40375000D02*
X315214500Y-40375000D01*
X316714500Y-34975000D02*
X316714500Y-40375000D01*
X316464500Y-38175000D02*
X315464500Y-38175000D01*
X315464500Y-37175000D02*
X315964500Y-38075000D01*
X316464500Y-37175000D02*
X315464500Y-37175000D01*
X315964500Y-38075000D02*
X316464500Y-37175000D01*
X131882500Y-85030000D02*
X131882500Y-86530000D01*
X126482500Y-85030000D02*
X131882500Y-85030000D01*
X126482500Y-86530000D02*
X126482500Y-85030000D01*
X131882500Y-86530000D02*
X126482500Y-86530000D01*
X128682500Y-86280000D02*
X128682500Y-85280000D01*
X129682500Y-85280000D02*
X128782500Y-85780000D01*
X129682500Y-86280000D02*
X129682500Y-85280000D01*
X128782500Y-85780000D02*
X129682500Y-86280000D01*
X113857500Y-93680000D02*
X115357500Y-93680000D01*
X113857500Y-99080000D02*
X113857500Y-93680000D01*
X115357500Y-99080000D02*
X113857500Y-99080000D01*
X115357500Y-93680000D02*
X115357500Y-99080000D01*
X115107500Y-96880000D02*
X114107500Y-96880000D01*
X114107500Y-95880000D02*
X114607500Y-96780000D01*
X115107500Y-95880000D02*
X114107500Y-95880000D01*
X114607500Y-96780000D02*
X115107500Y-95880000D01*
X111357500Y-93680000D02*
X112857500Y-93680000D01*
X111357500Y-99080000D02*
X111357500Y-93680000D01*
X112857500Y-99080000D02*
X111357500Y-99080000D01*
X112857500Y-93680000D02*
X112857500Y-99080000D01*
X112607500Y-96880000D02*
X111607500Y-96880000D01*
X111607500Y-95880000D02*
X112107500Y-96780000D01*
X112607500Y-95880000D02*
X111607500Y-95880000D01*
X112107500Y-96780000D02*
X112607500Y-95880000D01*
X121957500Y-61605000D02*
X123457500Y-61605000D01*
X121957500Y-67005000D02*
X121957500Y-61605000D01*
X123457500Y-67005000D02*
X121957500Y-67005000D01*
X123457500Y-61605000D02*
X123457500Y-67005000D01*
X123207500Y-64805000D02*
X122207500Y-64805000D01*
X122207500Y-63805000D02*
X122707500Y-64705000D01*
X123207500Y-63805000D02*
X122207500Y-63805000D01*
X122707500Y-64705000D02*
X123207500Y-63805000D01*
X102957500Y-56730000D02*
X104457500Y-56730000D01*
X102957500Y-62130000D02*
X102957500Y-56730000D01*
X104457500Y-62130000D02*
X102957500Y-62130000D01*
X104457500Y-56730000D02*
X104457500Y-62130000D01*
X104207500Y-59930000D02*
X103207500Y-59930000D01*
X103207500Y-58930000D02*
X103707500Y-59830000D01*
X104207500Y-58930000D02*
X103207500Y-58930000D01*
X103707500Y-59830000D02*
X104207500Y-58930000D01*
X83957500Y-51855000D02*
X85457500Y-51855000D01*
X83957500Y-57255000D02*
X83957500Y-51855000D01*
X85457500Y-57255000D02*
X83957500Y-57255000D01*
X85457500Y-51855000D02*
X85457500Y-57255000D01*
X85207500Y-55055000D02*
X84207500Y-55055000D01*
X84207500Y-54055000D02*
X84707500Y-54955000D01*
X85207500Y-54055000D02*
X84207500Y-54055000D01*
X84707500Y-54955000D02*
X85207500Y-54055000D01*
X64957500Y-59230000D02*
X66457500Y-59230000D01*
X64957500Y-64630000D02*
X64957500Y-59230000D01*
X66457500Y-64630000D02*
X64957500Y-64630000D01*
X66457500Y-59230000D02*
X66457500Y-64630000D01*
X66207500Y-62430000D02*
X65207500Y-62430000D01*
X65207500Y-61430000D02*
X65707500Y-62330000D01*
X66207500Y-61430000D02*
X65207500Y-61430000D01*
X65707500Y-62330000D02*
X66207500Y-61430000D01*
X45984500Y-72980000D02*
X47484500Y-72980000D01*
X45984500Y-78380000D02*
X45984500Y-72980000D01*
X47484500Y-78380000D02*
X45984500Y-78380000D01*
X47484500Y-72980000D02*
X47484500Y-78380000D01*
X47234500Y-76180000D02*
X46234500Y-76180000D01*
X46234500Y-75180000D02*
X46734500Y-76080000D01*
X47234500Y-75180000D02*
X46234500Y-75180000D01*
X46734500Y-76080000D02*
X47234500Y-75180000D01*
X26984500Y-72976875D02*
X28484500Y-72976875D01*
X26984500Y-78376875D02*
X26984500Y-72976875D01*
X28484500Y-78376875D02*
X26984500Y-78376875D01*
X28484500Y-72976875D02*
X28484500Y-78376875D01*
X28234500Y-76176875D02*
X27234500Y-76176875D01*
X27234500Y-75176875D02*
X27734500Y-76076875D01*
X28234500Y-75176875D02*
X27234500Y-75176875D01*
X27734500Y-76076875D02*
X28234500Y-75176875D01*
X121957500Y-42605000D02*
X123457500Y-42605000D01*
X121957500Y-48005000D02*
X121957500Y-42605000D01*
X123457500Y-48005000D02*
X121957500Y-48005000D01*
X123457500Y-42605000D02*
X123457500Y-48005000D01*
X123207500Y-45805000D02*
X122207500Y-45805000D01*
X122207500Y-44805000D02*
X122707500Y-45705000D01*
X123207500Y-44805000D02*
X122207500Y-44805000D01*
X122707500Y-45705000D02*
X123207500Y-44805000D01*
X102957500Y-37730000D02*
X104457500Y-37730000D01*
X102957500Y-43130000D02*
X102957500Y-37730000D01*
X104457500Y-43130000D02*
X102957500Y-43130000D01*
X104457500Y-37730000D02*
X104457500Y-43130000D01*
X104207500Y-40930000D02*
X103207500Y-40930000D01*
X103207500Y-39930000D02*
X103707500Y-40830000D01*
X104207500Y-39930000D02*
X103207500Y-39930000D01*
X103707500Y-40830000D02*
X104207500Y-39930000D01*
X83957500Y-32855000D02*
X85457500Y-32855000D01*
X83957500Y-38255000D02*
X83957500Y-32855000D01*
X85457500Y-38255000D02*
X83957500Y-38255000D01*
X85457500Y-32855000D02*
X85457500Y-38255000D01*
X85207500Y-36055000D02*
X84207500Y-36055000D01*
X84207500Y-35055000D02*
X84707500Y-35955000D01*
X85207500Y-35055000D02*
X84207500Y-35055000D01*
X84707500Y-35955000D02*
X85207500Y-35055000D01*
X66107500Y-38430000D02*
X67607500Y-38430000D01*
X66107500Y-43830000D02*
X66107500Y-38430000D01*
X67607500Y-43830000D02*
X66107500Y-43830000D01*
X67607500Y-38430000D02*
X67607500Y-43830000D01*
X67357500Y-41630000D02*
X66357500Y-41630000D01*
X66357500Y-40630000D02*
X66857500Y-41530000D01*
X67357500Y-40630000D02*
X66357500Y-40630000D01*
X66857500Y-41530000D02*
X67357500Y-40630000D01*
X45984500Y-53980000D02*
X47484500Y-53980000D01*
X45984500Y-59380000D02*
X45984500Y-53980000D01*
X47484500Y-59380000D02*
X45984500Y-59380000D01*
X47484500Y-53980000D02*
X47484500Y-59380000D01*
X47234500Y-57180000D02*
X46234500Y-57180000D01*
X46234500Y-56180000D02*
X46734500Y-57080000D01*
X47234500Y-56180000D02*
X46234500Y-56180000D01*
X46734500Y-57080000D02*
X47234500Y-56180000D01*
X26984500Y-53976875D02*
X28484500Y-53976875D01*
X26984500Y-59376875D02*
X26984500Y-53976875D01*
X28484500Y-59376875D02*
X26984500Y-59376875D01*
X28484500Y-53976875D02*
X28484500Y-59376875D01*
X28234500Y-57176875D02*
X27234500Y-57176875D01*
X27234500Y-56176875D02*
X27734500Y-57076875D01*
X28234500Y-56176875D02*
X27234500Y-56176875D01*
X27734500Y-57076875D02*
X28234500Y-56176875D01*
X121957500Y-23605000D02*
X123457500Y-23605000D01*
X121957500Y-29005000D02*
X121957500Y-23605000D01*
X123457500Y-29005000D02*
X121957500Y-29005000D01*
X123457500Y-23605000D02*
X123457500Y-29005000D01*
X123207500Y-26805000D02*
X122207500Y-26805000D01*
X122207500Y-25805000D02*
X122707500Y-26705000D01*
X123207500Y-25805000D02*
X122207500Y-25805000D01*
X122707500Y-26705000D02*
X123207500Y-25805000D01*
X102957500Y-18730000D02*
X104457500Y-18730000D01*
X102957500Y-24130000D02*
X102957500Y-18730000D01*
X104457500Y-24130000D02*
X102957500Y-24130000D01*
X104457500Y-18730000D02*
X104457500Y-24130000D01*
X104207500Y-21930000D02*
X103207500Y-21930000D01*
X103207500Y-20930000D02*
X103707500Y-21830000D01*
X104207500Y-20930000D02*
X103207500Y-20930000D01*
X103707500Y-21830000D02*
X104207500Y-20930000D01*
X83957500Y-13855000D02*
X85457500Y-13855000D01*
X83957500Y-19255000D02*
X83957500Y-13855000D01*
X85457500Y-19255000D02*
X83957500Y-19255000D01*
X85457500Y-13855000D02*
X85457500Y-19255000D01*
X85207500Y-17055000D02*
X84207500Y-17055000D01*
X84207500Y-16055000D02*
X84707500Y-16955000D01*
X85207500Y-16055000D02*
X84207500Y-16055000D01*
X84707500Y-16955000D02*
X85207500Y-16055000D01*
X64957500Y-20980000D02*
X66457500Y-20980000D01*
X64957500Y-26380000D02*
X64957500Y-20980000D01*
X66457500Y-26380000D02*
X64957500Y-26380000D01*
X66457500Y-20980000D02*
X66457500Y-26380000D01*
X66207500Y-24180000D02*
X65207500Y-24180000D01*
X65207500Y-23180000D02*
X65707500Y-24080000D01*
X66207500Y-23180000D02*
X65207500Y-23180000D01*
X65707500Y-24080000D02*
X66207500Y-23180000D01*
X27157500Y-34970000D02*
X28657500Y-34970000D01*
X27157500Y-40370000D02*
X27157500Y-34970000D01*
X28657500Y-40370000D02*
X27157500Y-40370000D01*
X28657500Y-34970000D02*
X28657500Y-40370000D01*
X28407500Y-38170000D02*
X27407500Y-38170000D01*
X27407500Y-37170000D02*
X27907500Y-38070000D01*
X28407500Y-37170000D02*
X27407500Y-37170000D01*
X27907500Y-38070000D02*
X28407500Y-37170000D01*
D12*
X109307500Y-20355000D02*
X109307500Y-19705000D01*
D13*
X109807500Y-22805000D02*
X109807500Y-21005001D01*
D14*
X110937500Y-19305000D02*
X110937500Y-21545000D01*
D15*
X119307500Y-21155000D02*
X118007500Y-21105000D01*
D16*
X119007500Y-18405000D02*
X119007500Y-20905000D01*
D17*
X117707500Y-19605000D02*
X111007500Y-19605000D01*
D11*
X119507500Y-21405000D02*
X119507500Y-17805000D01*
X119487500Y-20405000D02*
X119487500Y-18155000D01*
X109207500Y-20455000D02*
X109407500Y-20455000D01*
X109457500Y-18855000D02*
X109457500Y-23305000D01*
X109207500Y-19705000D02*
X109207500Y-20455000D01*
X109457500Y-23305000D02*
X112487500Y-23305000D01*
X114707500Y-21405000D02*
X119507500Y-21405000D01*
X119507500Y-17805000D02*
X111307499Y-17805000D01*
X112491182Y-23283529D02*
G75*
G02X114707500Y-21405000I2151318J-291471D01*
G01*
X109207500Y-19705001D02*
G75*
G02X111307499Y-17805000I2000000J-99999D01*
G01*
D16*
X112091182Y-22883529D02*
G75*
G02X114307500Y-21005000I2151318J-291471D01*
G01*
D15*
X109657500Y-23105000D02*
X112107500Y-23105000D01*
D18*
X119357500Y-18005000D02*
X118107500Y-18005000D01*
D12*
X199671903Y-91852053D02*
X200234819Y-91527053D01*
D13*
X197800141Y-93510065D02*
X199358986Y-92610066D01*
D14*
X201396230Y-92738674D02*
X199456333Y-93858674D01*
D15*
X203979083Y-100912307D02*
X203372384Y-99761474D01*
D16*
X206210652Y-99277499D02*
X204045589Y-100527499D01*
D17*
X204521422Y-98751666D02*
X201171422Y-92949296D01*
D11*
X203862576Y-101210512D02*
X206980268Y-99410512D01*
X204718602Y-100693191D02*
X206667159Y-99568191D01*
X199535300Y-91815450D02*
X199635300Y-91988655D01*
X201045941Y-91231956D02*
X197192128Y-93456956D01*
X200184819Y-91440450D02*
X199535300Y-91815450D01*
X197192128Y-93456956D02*
X198707128Y-96081013D01*
X201462576Y-97053590D02*
X203862576Y-101210512D01*
X206980268Y-99410512D02*
X202880267Y-92309103D01*
X198727563Y-96073467D02*
G75*
G02X201462576Y-97053590I823238J-2008831D01*
G01*
X200184819Y-91440451D02*
G75*
G02X202880267Y-92309103I913398J-1782050D01*
G01*
D16*
X198873973Y-95527057D02*
G75*
G02X201608986Y-96507180I823238J-2008831D01*
G01*
D15*
X197465333Y-93530162D02*
X198690333Y-95651924D01*
D18*
X206732063Y-99380608D02*
X206107063Y-98298076D01*
D12*
X123200097Y-101902947D02*
X122637181Y-101577947D01*
D13*
X125571859Y-102694935D02*
X124013014Y-101794935D01*
D14*
X123105770Y-99966326D02*
X125045667Y-101086326D01*
D15*
X128892917Y-93642693D02*
X128199616Y-94743526D01*
D16*
X126361348Y-92527501D02*
X128526411Y-93777501D01*
D17*
X126750578Y-94253334D02*
X123400578Y-100055704D01*
D11*
X129209424Y-93594488D02*
X126091732Y-91794488D01*
X128333398Y-93111809D02*
X126384841Y-91986809D01*
X123236700Y-102039550D02*
X123336700Y-101866345D01*
X121976059Y-101023044D02*
X125829872Y-103248044D01*
X122587181Y-101664550D02*
X123236700Y-102039550D01*
X125829872Y-103248044D02*
X127344872Y-100623987D01*
X126809424Y-97751410D02*
X129209424Y-93594488D01*
X126091732Y-91794488D02*
X121991732Y-98895897D01*
X127328119Y-100610062D02*
G75*
G02X126809424Y-97751410I1328080J1717360D01*
G01*
X122587181Y-101664550D02*
G75*
G02X121991732Y-98895897I1086602J1682051D01*
G01*
D16*
X126781709Y-100756472D02*
G75*
G02X126263014Y-97897820I1328080J1717360D01*
G01*
D15*
X125756667Y-102974838D02*
X126981667Y-100853076D01*
D18*
X126189937Y-92024392D02*
X125564937Y-93106924D01*
D10*
X196607500Y-74280000D02*
G75*
G03X196607500Y-74280000I-3000000J0D01*
G01*
X195607500Y-80180000D02*
X199707500Y-80180000D01*
X199707500Y-68380000D02*
X195607500Y-68380000D01*
X191607500Y-68380000D02*
X187507500Y-68380000D01*
X191607500Y-80080000D02*
X187507500Y-80080000D01*
X187507500Y-80080000D02*
X187507500Y-68380000D01*
X186107500Y-78080000D02*
X185807500Y-78380000D01*
X185807500Y-78380000D02*
X186407500Y-78380000D01*
X186407500Y-78380000D02*
X186107500Y-78080000D01*
X199707500Y-80180000D02*
X199707500Y-77580000D01*
X199707500Y-75580000D02*
X199707500Y-72980000D01*
X199707500Y-70980000D02*
X199707500Y-68380000D01*
X193607500Y-74780000D02*
X193607500Y-73780000D01*
X193107500Y-74280000D02*
X194107500Y-74280000D01*
D12*
X78907500Y-89130000D02*
X78907500Y-88480000D01*
D13*
X79407500Y-91580000D02*
X79407500Y-89780001D01*
D14*
X80537500Y-88080000D02*
X80537500Y-90320000D01*
D15*
X88907500Y-89930000D02*
X87607500Y-89880000D01*
D16*
X88607500Y-87180000D02*
X88607500Y-89680000D01*
D17*
X87307500Y-88380000D02*
X80607500Y-88380000D01*
D11*
X89107500Y-90180000D02*
X89107500Y-86580000D01*
X89087500Y-89180000D02*
X89087500Y-86930000D01*
X78807500Y-89230000D02*
X79007500Y-89230000D01*
X79057500Y-87630000D02*
X79057500Y-92080000D01*
X78807500Y-88480000D02*
X78807500Y-89230000D01*
X79057500Y-92080000D02*
X82087500Y-92080000D01*
X84307500Y-90180000D02*
X89107500Y-90180000D01*
X89107500Y-86580000D02*
X80907499Y-86580000D01*
X82091182Y-92058529D02*
G75*
G02X84307500Y-90180000I2151318J-291471D01*
G01*
X78807500Y-88480001D02*
G75*
G02X80907499Y-86580000I2000000J-99999D01*
G01*
D16*
X81691182Y-91658529D02*
G75*
G02X83907500Y-89780000I2151318J-291471D01*
G01*
D15*
X79257500Y-91880000D02*
X81707500Y-91880000D01*
D18*
X88957500Y-86780000D02*
X87707500Y-86780000D01*
D10*
X80607500Y-97930000D02*
X80607500Y-96330000D01*
X88407500Y-100030000D02*
X80607500Y-100030000D01*
X80607500Y-96330000D02*
X88407500Y-96330000D01*
X35457500Y-48030000D02*
X35457500Y-46880000D01*
X42757500Y-48030000D02*
X35457500Y-48030000D01*
X42757500Y-42530000D02*
X35457500Y-42530000D01*
X73457500Y-26905000D02*
X73457500Y-25755000D01*
X80757500Y-26905000D02*
X73457500Y-26905000D01*
X80757500Y-21405000D02*
X73457500Y-21405000D01*
X35457500Y-67030000D02*
X35457500Y-65880000D01*
X42757500Y-67030000D02*
X35457500Y-67030000D01*
X42757500Y-61530000D02*
X35457500Y-61530000D01*
X73457500Y-66130000D02*
X73457500Y-64980000D01*
X80757500Y-66130000D02*
X73457500Y-66130000D01*
X80757500Y-60630000D02*
X73457500Y-60630000D01*
X111357500Y-75730000D02*
X111357500Y-74580000D01*
X118657500Y-75730000D02*
X111357500Y-75730000D01*
X118657500Y-70230000D02*
X111357500Y-70230000D01*
X285707500Y-48030000D02*
X285707500Y-46880000D01*
X293007500Y-48030000D02*
X285707500Y-48030000D01*
X293007500Y-42530000D02*
X285707500Y-42530000D01*
X247707500Y-26905000D02*
X247707500Y-25755000D01*
X255007500Y-26905000D02*
X247707500Y-26905000D01*
X255007500Y-21405000D02*
X247707500Y-21405000D01*
X209707500Y-36655000D02*
X209707500Y-35505000D01*
X217007500Y-36655000D02*
X209707500Y-36655000D01*
X217007500Y-31155000D02*
X209707500Y-31155000D01*
X285707500Y-67030000D02*
X285707500Y-65880000D01*
X293007500Y-67030000D02*
X285707500Y-67030000D01*
X293007500Y-61530000D02*
X285707500Y-61530000D01*
X247707500Y-78905000D02*
X247707500Y-77755000D01*
X255007500Y-78905000D02*
X247707500Y-78905000D01*
X255007500Y-73405000D02*
X247707500Y-73405000D01*
X209707500Y-83655000D02*
X209707500Y-82505000D01*
X217007500Y-83655000D02*
X209707500Y-83655000D01*
X217007500Y-78155000D02*
X209707500Y-78155000D01*
X131440994Y-104532499D02*
X130055353Y-103732499D01*
X137159647Y-98827501D02*
X133259647Y-105582499D01*
X130055353Y-103732499D02*
X133955353Y-96977501D01*
X16207500Y-40280000D02*
X16207500Y-38680000D01*
X24007500Y-42380000D02*
X16207500Y-42380000D01*
X16207500Y-38680000D02*
X24007500Y-38680000D01*
X35207500Y-40280000D02*
X35207500Y-38680000D01*
X43007500Y-42380000D02*
X35207500Y-42380000D01*
X35207500Y-38680000D02*
X43007500Y-38680000D01*
X54207500Y-26530000D02*
X54207500Y-24930000D01*
X62007500Y-28630000D02*
X54207500Y-28630000D01*
X54207500Y-24930000D02*
X62007500Y-24930000D01*
X73207500Y-19155000D02*
X73207500Y-17555000D01*
X81007500Y-21255000D02*
X73207500Y-21255000D01*
X73207500Y-17555000D02*
X81007500Y-17555000D01*
X92207500Y-24030000D02*
X92207500Y-22430000D01*
X100007500Y-26130000D02*
X92207500Y-26130000D01*
X92207500Y-22430000D02*
X100007500Y-22430000D01*
X111207500Y-28905000D02*
X111207500Y-27305000D01*
X119007500Y-31005000D02*
X111207500Y-31005000D01*
X111207500Y-27305000D02*
X119007500Y-27305000D01*
X16207500Y-59280000D02*
X16207500Y-57680000D01*
X24007500Y-61380000D02*
X16207500Y-61380000D01*
X16207500Y-57680000D02*
X24007500Y-57680000D01*
X35207500Y-59280000D02*
X35207500Y-57680000D01*
X43007500Y-61380000D02*
X35207500Y-61380000D01*
X35207500Y-57680000D02*
X43007500Y-57680000D01*
X54207500Y-45530000D02*
X54207500Y-43930000D01*
X62007500Y-47630000D02*
X54207500Y-47630000D01*
X54207500Y-43930000D02*
X62007500Y-43930000D01*
X73207500Y-38155000D02*
X73207500Y-36555000D01*
X81007500Y-40255000D02*
X73207500Y-40255000D01*
X73207500Y-36555000D02*
X81007500Y-36555000D01*
X92207500Y-43030000D02*
X92207500Y-41430000D01*
X100007500Y-45130000D02*
X92207500Y-45130000D01*
X92207500Y-41430000D02*
X100007500Y-41430000D01*
X111207500Y-47905000D02*
X111207500Y-46305000D01*
X119007500Y-50005000D02*
X111207500Y-50005000D01*
X111207500Y-46305000D02*
X119007500Y-46305000D01*
X16207500Y-78280000D02*
X16207500Y-76680000D01*
X24007500Y-80380000D02*
X16207500Y-80380000D01*
X16207500Y-76680000D02*
X24007500Y-76680000D01*
X35207500Y-78280000D02*
X35207500Y-76680000D01*
X43007500Y-80380000D02*
X35207500Y-80380000D01*
X35207500Y-76680000D02*
X43007500Y-76680000D01*
X54207500Y-64530000D02*
X54207500Y-62930000D01*
X62007500Y-66630000D02*
X54207500Y-66630000D01*
X54207500Y-62930000D02*
X62007500Y-62930000D01*
X73207500Y-57155000D02*
X73207500Y-55555000D01*
X81007500Y-59255000D02*
X73207500Y-59255000D01*
X73207500Y-55555000D02*
X81007500Y-55555000D01*
X111207500Y-66905000D02*
X111207500Y-65305000D01*
X119007500Y-69005000D02*
X111207500Y-69005000D01*
X111207500Y-65305000D02*
X119007500Y-65305000D01*
X99907500Y-98955000D02*
X99907500Y-97355000D01*
X107707500Y-101055000D02*
X99907500Y-101055000D01*
X99907500Y-97355000D02*
X107707500Y-97355000D01*
X148304615Y-114282499D02*
X146918974Y-113482499D01*
X154023268Y-108577501D02*
X150123268Y-115332499D01*
X146918974Y-113482499D02*
X150818974Y-106727501D01*
X247457500Y-38155000D02*
X247457500Y-36555000D01*
X255257500Y-40255000D02*
X247457500Y-40255000D01*
X247457500Y-36555000D02*
X255257500Y-36555000D01*
X228457500Y-43030000D02*
X228457500Y-41430000D01*
X236257500Y-45130000D02*
X228457500Y-45130000D01*
X228457500Y-41430000D02*
X236257500Y-41430000D01*
X209457500Y-47905000D02*
X209457500Y-46305000D01*
X217257500Y-50005000D02*
X209457500Y-50005000D01*
X209457500Y-46305000D02*
X217257500Y-46305000D01*
X304457500Y-78280000D02*
X304457500Y-76680000D01*
X312257500Y-80380000D02*
X304457500Y-80380000D01*
X304457500Y-76680000D02*
X312257500Y-76680000D01*
X285457500Y-78280000D02*
X285457500Y-76680000D01*
X293257500Y-80380000D02*
X285457500Y-80380000D01*
X285457500Y-76680000D02*
X293257500Y-76680000D01*
X266457500Y-64530000D02*
X266457500Y-62930000D01*
X274257500Y-66630000D02*
X266457500Y-66630000D01*
X266457500Y-62930000D02*
X274257500Y-62930000D01*
X247457500Y-57155000D02*
X247457500Y-55555000D01*
X255257500Y-59255000D02*
X247457500Y-59255000D01*
X247457500Y-55555000D02*
X255257500Y-55555000D01*
X228457500Y-62030000D02*
X228457500Y-60430000D01*
X236257500Y-64130000D02*
X228457500Y-64130000D01*
X228457500Y-60430000D02*
X236257500Y-60430000D01*
X209457500Y-66905000D02*
X209457500Y-65305000D01*
X217257500Y-69005000D02*
X209457500Y-69005000D01*
X209457500Y-65305000D02*
X217257500Y-65305000D01*
X220757500Y-99155000D02*
X220757500Y-97555000D01*
X228557500Y-101255000D02*
X220757500Y-101255000D01*
X220757500Y-97555000D02*
X228557500Y-97555000D01*
X193092788Y-97245931D02*
X194478429Y-96445931D01*
X195174135Y-105050929D02*
X191274135Y-98295931D01*
X194478429Y-96445931D02*
X198378429Y-103200929D01*
X176517385Y-107522501D02*
X177903026Y-106722501D01*
X178598732Y-115327499D02*
X174698732Y-108572501D01*
X177903026Y-106722501D02*
X181803026Y-113477499D01*
X92207500Y-62030000D02*
X92207500Y-60430000D01*
X100007500Y-64130000D02*
X92207500Y-64130000D01*
X92207500Y-60430000D02*
X100007500Y-60430000D01*
X304457500Y-40280000D02*
X304457500Y-38680000D01*
X312257500Y-42380000D02*
X304457500Y-42380000D01*
X304457500Y-38680000D02*
X312257500Y-38680000D01*
X285457500Y-40280000D02*
X285457500Y-38680000D01*
X293257500Y-42380000D02*
X285457500Y-42380000D01*
X285457500Y-38680000D02*
X293257500Y-38680000D01*
X266457500Y-26530000D02*
X266457500Y-24930000D01*
X274257500Y-28630000D02*
X266457500Y-28630000D01*
X266457500Y-24930000D02*
X274257500Y-24930000D01*
X247457500Y-19155000D02*
X247457500Y-17555000D01*
X255257500Y-21255000D02*
X247457500Y-21255000D01*
X247457500Y-17555000D02*
X255257500Y-17555000D01*
X228457500Y-24030000D02*
X228457500Y-22430000D01*
X236257500Y-26130000D02*
X228457500Y-26130000D01*
X228457500Y-22430000D02*
X236257500Y-22430000D01*
X209457500Y-28905000D02*
X209457500Y-27305000D01*
X217257500Y-31005000D02*
X209457500Y-31005000D01*
X209457500Y-27305000D02*
X217257500Y-27305000D01*
X304457500Y-59280000D02*
X304457500Y-57680000D01*
X312257500Y-61380000D02*
X304457500Y-61380000D01*
X304457500Y-57680000D02*
X312257500Y-57680000D01*
X285457500Y-59280000D02*
X285457500Y-57680000D01*
X293257500Y-61380000D02*
X285457500Y-61380000D01*
X285457500Y-57680000D02*
X293257500Y-57680000D01*
X266457500Y-45530000D02*
X266457500Y-43930000D01*
X274257500Y-47630000D02*
X266457500Y-47630000D01*
X266457500Y-43930000D02*
X274257500Y-43930000D01*
D12*
X207564500Y-39350000D02*
X207564500Y-38700000D01*
D13*
X208064500Y-41800000D02*
X208064500Y-40000001D01*
D14*
X209194500Y-38300000D02*
X209194500Y-40540000D01*
D15*
X217564500Y-40150000D02*
X216264500Y-40100000D01*
D16*
X217264500Y-37400000D02*
X217264500Y-39900000D01*
D17*
X215964500Y-38600000D02*
X209264500Y-38600000D01*
D11*
X217764500Y-40400000D02*
X217764500Y-36800000D01*
X217744500Y-39400000D02*
X217744500Y-37150000D01*
X207464500Y-39450000D02*
X207664500Y-39450000D01*
X207714500Y-37850000D02*
X207714500Y-42300000D01*
X207464500Y-38700000D02*
X207464500Y-39450000D01*
X207714500Y-42300000D02*
X210744500Y-42300000D01*
X212964500Y-40400000D02*
X217764500Y-40400000D01*
X217764500Y-36800000D02*
X209564499Y-36800000D01*
X210748182Y-42278529D02*
G75*
G02X212964500Y-40400000I2151318J-291471D01*
G01*
X207464500Y-38700001D02*
G75*
G02X209564499Y-36800000I2000000J-99999D01*
G01*
D16*
X210348182Y-41878529D02*
G75*
G02X212564500Y-40000000I2151318J-291471D01*
G01*
D15*
X207914500Y-42100000D02*
X210364500Y-42100000D01*
D18*
X217614500Y-37000000D02*
X216364500Y-37000000D01*
D12*
X207564500Y-58350000D02*
X207564500Y-57700000D01*
D13*
X208064500Y-60800000D02*
X208064500Y-59000001D01*
D14*
X209194500Y-57300000D02*
X209194500Y-59540000D01*
D15*
X217564500Y-59150000D02*
X216264500Y-59100000D01*
D16*
X217264500Y-56400000D02*
X217264500Y-58900000D01*
D17*
X215964500Y-57600000D02*
X209264500Y-57600000D01*
D11*
X217764500Y-59400000D02*
X217764500Y-55800000D01*
X217744500Y-58400000D02*
X217744500Y-56150000D01*
X207464500Y-58450000D02*
X207664500Y-58450000D01*
X207714500Y-56850000D02*
X207714500Y-61300000D01*
X207464500Y-57700000D02*
X207464500Y-58450000D01*
X207714500Y-61300000D02*
X210744500Y-61300000D01*
X212964500Y-59400000D02*
X217764500Y-59400000D01*
X217764500Y-55800000D02*
X209564499Y-55800000D01*
X210748182Y-61278529D02*
G75*
G02X212964500Y-59400000I2151318J-291471D01*
G01*
X207464500Y-57700001D02*
G75*
G02X209564499Y-55800000I2000000J-99999D01*
G01*
D16*
X210348182Y-60878529D02*
G75*
G02X212564500Y-59000000I2151318J-291471D01*
G01*
D15*
X207914500Y-61100000D02*
X210364500Y-61100000D01*
D18*
X217614500Y-56000000D02*
X216364500Y-56000000D01*
D12*
X14307500Y-69730000D02*
X14307500Y-69080000D01*
D13*
X14807500Y-72180000D02*
X14807500Y-70380001D01*
D14*
X15937500Y-68680000D02*
X15937500Y-70920000D01*
D15*
X24307500Y-70530000D02*
X23007500Y-70480000D01*
D16*
X24007500Y-67780000D02*
X24007500Y-70280000D01*
D17*
X22707500Y-68980000D02*
X16007500Y-68980000D01*
D11*
X24507500Y-70780000D02*
X24507500Y-67180000D01*
X24487500Y-69780000D02*
X24487500Y-67530000D01*
X14207500Y-69830000D02*
X14407500Y-69830000D01*
X14457500Y-68230000D02*
X14457500Y-72680000D01*
X14207500Y-69080000D02*
X14207500Y-69830000D01*
X14457500Y-72680000D02*
X17487500Y-72680000D01*
X19707500Y-70780000D02*
X24507500Y-70780000D01*
X24507500Y-67180000D02*
X16307499Y-67180000D01*
X17491182Y-72658529D02*
G75*
G02X19707500Y-70780000I2151318J-291471D01*
G01*
X14207500Y-69080001D02*
G75*
G02X16307499Y-67180000I2000000J-99999D01*
G01*
D16*
X17091182Y-72258529D02*
G75*
G02X19307500Y-70380000I2151318J-291471D01*
G01*
D15*
X14657500Y-72480000D02*
X17107500Y-72480000D01*
D18*
X24357500Y-67380000D02*
X23107500Y-67380000D01*
D12*
X283564500Y-69725000D02*
X283564500Y-69075000D01*
D13*
X284064500Y-72175000D02*
X284064500Y-70375001D01*
D14*
X285194500Y-68675000D02*
X285194500Y-70915000D01*
D15*
X293564500Y-70525000D02*
X292264500Y-70475000D01*
D16*
X293264500Y-67775000D02*
X293264500Y-70275000D01*
D17*
X291964500Y-68975000D02*
X285264500Y-68975000D01*
D11*
X293764500Y-70775000D02*
X293764500Y-67175000D01*
X293744500Y-69775000D02*
X293744500Y-67525000D01*
X283464500Y-69825000D02*
X283664500Y-69825000D01*
X283714500Y-68225000D02*
X283714500Y-72675000D01*
X283464500Y-69075000D02*
X283464500Y-69825000D01*
X283714500Y-72675000D02*
X286744500Y-72675000D01*
X288964500Y-70775000D02*
X293764500Y-70775000D01*
X293764500Y-67175000D02*
X285564499Y-67175000D01*
X286748182Y-72653529D02*
G75*
G02X288964500Y-70775000I2151318J-291471D01*
G01*
X283464500Y-69075001D02*
G75*
G02X285564499Y-67175000I2000000J-99999D01*
G01*
D16*
X286348182Y-72253529D02*
G75*
G02X288564500Y-70375000I2151318J-291471D01*
G01*
D15*
X283914500Y-72475000D02*
X286364500Y-72475000D01*
D18*
X293614500Y-67375000D02*
X292364500Y-67375000D01*
D12*
X245564500Y-48600000D02*
X245564500Y-47950000D01*
D13*
X246064500Y-51050000D02*
X246064500Y-49250001D01*
D14*
X247194500Y-47550000D02*
X247194500Y-49790000D01*
D15*
X255564500Y-49400000D02*
X254264500Y-49350000D01*
D16*
X255264500Y-46650000D02*
X255264500Y-49150000D01*
D17*
X253964500Y-47850000D02*
X247264500Y-47850000D01*
D11*
X255764500Y-49650000D02*
X255764500Y-46050000D01*
X255744500Y-48650000D02*
X255744500Y-46400000D01*
X245464500Y-48700000D02*
X245664500Y-48700000D01*
X245714500Y-47100000D02*
X245714500Y-51550000D01*
X245464500Y-47950000D02*
X245464500Y-48700000D01*
X245714500Y-51550000D02*
X248744500Y-51550000D01*
X250964500Y-49650000D02*
X255764500Y-49650000D01*
X255764500Y-46050000D02*
X247564499Y-46050000D01*
X248748182Y-51528529D02*
G75*
G02X250964500Y-49650000I2151318J-291471D01*
G01*
X245464500Y-47950001D02*
G75*
G02X247564499Y-46050000I2000000J-99999D01*
G01*
D16*
X248348182Y-51128529D02*
G75*
G02X250564500Y-49250000I2151318J-291471D01*
G01*
D15*
X245914500Y-51350000D02*
X248364500Y-51350000D01*
D18*
X255614500Y-46250000D02*
X254364500Y-46250000D01*
D12*
X33307500Y-69730000D02*
X33307500Y-69080000D01*
D13*
X33807500Y-72180000D02*
X33807500Y-70380001D01*
D14*
X34937500Y-68680000D02*
X34937500Y-70920000D01*
D15*
X43307500Y-70530000D02*
X42007500Y-70480000D01*
D16*
X43007500Y-67780000D02*
X43007500Y-70280000D01*
D17*
X41707500Y-68980000D02*
X35007500Y-68980000D01*
D11*
X43507500Y-70780000D02*
X43507500Y-67180000D01*
X43487500Y-69780000D02*
X43487500Y-67530000D01*
X33207500Y-69830000D02*
X33407500Y-69830000D01*
X33457500Y-68230000D02*
X33457500Y-72680000D01*
X33207500Y-69080000D02*
X33207500Y-69830000D01*
X33457500Y-72680000D02*
X36487500Y-72680000D01*
X38707500Y-70780000D02*
X43507500Y-70780000D01*
X43507500Y-67180000D02*
X35307499Y-67180000D01*
X36491182Y-72658529D02*
G75*
G02X38707500Y-70780000I2151318J-291471D01*
G01*
X33207500Y-69080001D02*
G75*
G02X35307499Y-67180000I2000000J-99999D01*
G01*
D16*
X36091182Y-72258529D02*
G75*
G02X38307500Y-70380000I2151318J-291471D01*
G01*
D15*
X33657500Y-72480000D02*
X36107500Y-72480000D01*
D18*
X43357500Y-67380000D02*
X42107500Y-67380000D01*
D12*
X14307500Y-50730000D02*
X14307500Y-50080000D01*
D13*
X14807500Y-53180000D02*
X14807500Y-51380001D01*
D14*
X15937500Y-49680000D02*
X15937500Y-51920000D01*
D15*
X24307500Y-51530000D02*
X23007500Y-51480000D01*
D16*
X24007500Y-48780000D02*
X24007500Y-51280000D01*
D17*
X22707500Y-49980000D02*
X16007500Y-49980000D01*
D11*
X24507500Y-51780000D02*
X24507500Y-48180000D01*
X24487500Y-50780000D02*
X24487500Y-48530000D01*
X14207500Y-50830000D02*
X14407500Y-50830000D01*
X14457500Y-49230000D02*
X14457500Y-53680000D01*
X14207500Y-50080000D02*
X14207500Y-50830000D01*
X14457500Y-53680000D02*
X17487500Y-53680000D01*
X19707500Y-51780000D02*
X24507500Y-51780000D01*
X24507500Y-48180000D02*
X16307499Y-48180000D01*
X17491182Y-53658529D02*
G75*
G02X19707500Y-51780000I2151318J-291471D01*
G01*
X14207500Y-50080001D02*
G75*
G02X16307499Y-48180000I2000000J-99999D01*
G01*
D16*
X17091182Y-53258529D02*
G75*
G02X19307500Y-51380000I2151318J-291471D01*
G01*
D15*
X14657500Y-53480000D02*
X17107500Y-53480000D01*
D18*
X24357500Y-48380000D02*
X23107500Y-48380000D01*
D12*
X33307500Y-50730000D02*
X33307500Y-50080000D01*
D13*
X33807500Y-53180000D02*
X33807500Y-51380001D01*
D14*
X34937500Y-49680000D02*
X34937500Y-51920000D01*
D15*
X43307500Y-51530000D02*
X42007500Y-51480000D01*
D16*
X43007500Y-48780000D02*
X43007500Y-51280000D01*
D17*
X41707500Y-49980000D02*
X35007500Y-49980000D01*
D11*
X43507500Y-51780000D02*
X43507500Y-48180000D01*
X43487500Y-50780000D02*
X43487500Y-48530000D01*
X33207500Y-50830000D02*
X33407500Y-50830000D01*
X33457500Y-49230000D02*
X33457500Y-53680000D01*
X33207500Y-50080000D02*
X33207500Y-50830000D01*
X33457500Y-53680000D02*
X36487500Y-53680000D01*
X38707500Y-51780000D02*
X43507500Y-51780000D01*
X43507500Y-48180000D02*
X35307499Y-48180000D01*
X36491182Y-53658529D02*
G75*
G02X38707500Y-51780000I2151318J-291471D01*
G01*
X33207500Y-50080001D02*
G75*
G02X35307499Y-48180000I2000000J-99999D01*
G01*
D16*
X36091182Y-53258529D02*
G75*
G02X38307500Y-51380000I2151318J-291471D01*
G01*
D15*
X33657500Y-53480000D02*
X36107500Y-53480000D01*
D18*
X43357500Y-48380000D02*
X42107500Y-48380000D01*
D12*
X14307500Y-31730000D02*
X14307500Y-31080000D01*
D13*
X14807500Y-34180000D02*
X14807500Y-32380001D01*
D14*
X15937500Y-30680000D02*
X15937500Y-32920000D01*
D15*
X24307500Y-32530000D02*
X23007500Y-32480000D01*
D16*
X24007500Y-29780000D02*
X24007500Y-32280000D01*
D17*
X22707500Y-30980000D02*
X16007500Y-30980000D01*
D11*
X24507500Y-32780000D02*
X24507500Y-29180000D01*
X24487500Y-31780000D02*
X24487500Y-29530000D01*
X14207500Y-31830000D02*
X14407500Y-31830000D01*
X14457500Y-30230000D02*
X14457500Y-34680000D01*
X14207500Y-31080000D02*
X14207500Y-31830000D01*
X14457500Y-34680000D02*
X17487500Y-34680000D01*
X19707500Y-32780000D02*
X24507500Y-32780000D01*
X24507500Y-29180000D02*
X16307499Y-29180000D01*
X17491182Y-34658529D02*
G75*
G02X19707500Y-32780000I2151318J-291471D01*
G01*
X14207500Y-31080001D02*
G75*
G02X16307499Y-29180000I2000000J-99999D01*
G01*
D16*
X17091182Y-34258529D02*
G75*
G02X19307500Y-32380000I2151318J-291471D01*
G01*
D15*
X14657500Y-34480000D02*
X17107500Y-34480000D01*
D18*
X24357500Y-29380000D02*
X23107500Y-29380000D01*
D12*
X33307500Y-31730000D02*
X33307500Y-31080000D01*
D13*
X33807500Y-34180000D02*
X33807500Y-32380001D01*
D14*
X34937500Y-30680000D02*
X34937500Y-32920000D01*
D15*
X43307500Y-32530000D02*
X42007500Y-32480000D01*
D16*
X43007500Y-29780000D02*
X43007500Y-32280000D01*
D17*
X41707500Y-30980000D02*
X35007500Y-30980000D01*
D11*
X43507500Y-32780000D02*
X43507500Y-29180000D01*
X43487500Y-31780000D02*
X43487500Y-29530000D01*
X33207500Y-31830000D02*
X33407500Y-31830000D01*
X33457500Y-30230000D02*
X33457500Y-34680000D01*
X33207500Y-31080000D02*
X33207500Y-31830000D01*
X33457500Y-34680000D02*
X36487500Y-34680000D01*
X38707500Y-32780000D02*
X43507500Y-32780000D01*
X43507500Y-29180000D02*
X35307499Y-29180000D01*
X36491182Y-34658529D02*
G75*
G02X38707500Y-32780000I2151318J-291471D01*
G01*
X33207500Y-31080001D02*
G75*
G02X35307499Y-29180000I2000000J-99999D01*
G01*
D16*
X36091182Y-34258529D02*
G75*
G02X38307500Y-32380000I2151318J-291471D01*
G01*
D15*
X33657500Y-34480000D02*
X36107500Y-34480000D01*
D18*
X43357500Y-29380000D02*
X42107500Y-29380000D01*
D12*
X52307500Y-17980000D02*
X52307500Y-17330000D01*
D13*
X52807500Y-20430000D02*
X52807500Y-18630001D01*
D14*
X53937500Y-16930000D02*
X53937500Y-19170000D01*
D15*
X62307500Y-18780000D02*
X61007500Y-18730000D01*
D16*
X62007500Y-16030000D02*
X62007500Y-18530000D01*
D17*
X60707500Y-17230000D02*
X54007500Y-17230000D01*
D11*
X62507500Y-19030000D02*
X62507500Y-15430000D01*
X62487500Y-18030000D02*
X62487500Y-15780000D01*
X52207500Y-18080000D02*
X52407500Y-18080000D01*
X52457500Y-16480000D02*
X52457500Y-20930000D01*
X52207500Y-17330000D02*
X52207500Y-18080000D01*
X52457500Y-20930000D02*
X55487500Y-20930000D01*
X57707500Y-19030000D02*
X62507500Y-19030000D01*
X62507500Y-15430000D02*
X54307499Y-15430000D01*
X55491182Y-20908529D02*
G75*
G02X57707500Y-19030000I2151318J-291471D01*
G01*
X52207500Y-17330001D02*
G75*
G02X54307499Y-15430000I2000000J-99999D01*
G01*
D16*
X55091182Y-20508529D02*
G75*
G02X57307500Y-18630000I2151318J-291471D01*
G01*
D15*
X52657500Y-20730000D02*
X55107500Y-20730000D01*
D18*
X62357500Y-15630000D02*
X61107500Y-15630000D01*
D12*
X71307500Y-10605000D02*
X71307500Y-9955000D01*
D13*
X71807500Y-13055000D02*
X71807500Y-11255001D01*
D14*
X72937500Y-9555000D02*
X72937500Y-11795000D01*
D15*
X81307500Y-11405000D02*
X80007500Y-11355000D01*
D16*
X81007500Y-8655000D02*
X81007500Y-11155000D01*
D17*
X79707500Y-9855000D02*
X73007500Y-9855000D01*
D11*
X81507500Y-11655000D02*
X81507500Y-8055000D01*
X81487500Y-10655000D02*
X81487500Y-8405000D01*
X71207500Y-10705000D02*
X71407500Y-10705000D01*
X71457500Y-9105000D02*
X71457500Y-13555000D01*
X71207500Y-9955000D02*
X71207500Y-10705000D01*
X71457500Y-13555000D02*
X74487500Y-13555000D01*
X76707500Y-11655000D02*
X81507500Y-11655000D01*
X81507500Y-8055000D02*
X73307499Y-8055000D01*
X74491182Y-13533529D02*
G75*
G02X76707500Y-11655000I2151318J-291471D01*
G01*
X71207500Y-9955001D02*
G75*
G02X73307499Y-8055000I2000000J-99999D01*
G01*
D16*
X74091182Y-13133529D02*
G75*
G02X76307500Y-11255000I2151318J-291471D01*
G01*
D15*
X71657500Y-13355000D02*
X74107500Y-13355000D01*
D18*
X81357500Y-8255000D02*
X80107500Y-8255000D01*
D12*
X90307500Y-15480000D02*
X90307500Y-14830000D01*
D13*
X90807500Y-17930000D02*
X90807500Y-16130001D01*
D14*
X91937500Y-14430000D02*
X91937500Y-16670000D01*
D15*
X100307500Y-16280000D02*
X99007500Y-16230000D01*
D16*
X100007500Y-13530000D02*
X100007500Y-16030000D01*
D17*
X98707500Y-14730000D02*
X92007500Y-14730000D01*
D11*
X100507500Y-16530000D02*
X100507500Y-12930000D01*
X100487500Y-15530000D02*
X100487500Y-13280000D01*
X90207500Y-15580000D02*
X90407500Y-15580000D01*
X90457500Y-13980000D02*
X90457500Y-18430000D01*
X90207500Y-14830000D02*
X90207500Y-15580000D01*
X90457500Y-18430000D02*
X93487500Y-18430000D01*
X95707500Y-16530000D02*
X100507500Y-16530000D01*
X100507500Y-12930000D02*
X92307499Y-12930000D01*
X93491182Y-18408529D02*
G75*
G02X95707500Y-16530000I2151318J-291471D01*
G01*
X90207500Y-14830001D02*
G75*
G02X92307499Y-12930000I2000000J-99999D01*
G01*
D16*
X93091182Y-18008529D02*
G75*
G02X95307500Y-16130000I2151318J-291471D01*
G01*
D15*
X90657500Y-18230000D02*
X93107500Y-18230000D01*
D18*
X100357500Y-13130000D02*
X99107500Y-13130000D01*
D12*
X52307500Y-36980000D02*
X52307500Y-36330000D01*
D13*
X52807500Y-39430000D02*
X52807500Y-37630001D01*
D14*
X53937500Y-35930000D02*
X53937500Y-38170000D01*
D15*
X62307500Y-37780000D02*
X61007500Y-37730000D01*
D16*
X62007500Y-35030000D02*
X62007500Y-37530000D01*
D17*
X60707500Y-36230000D02*
X54007500Y-36230000D01*
D11*
X62507500Y-38030000D02*
X62507500Y-34430000D01*
X62487500Y-37030000D02*
X62487500Y-34780000D01*
X52207500Y-37080000D02*
X52407500Y-37080000D01*
X52457500Y-35480000D02*
X52457500Y-39930000D01*
X52207500Y-36330000D02*
X52207500Y-37080000D01*
X52457500Y-39930000D02*
X55487500Y-39930000D01*
X57707500Y-38030000D02*
X62507500Y-38030000D01*
X62507500Y-34430000D02*
X54307499Y-34430000D01*
X55491182Y-39908529D02*
G75*
G02X57707500Y-38030000I2151318J-291471D01*
G01*
X52207500Y-36330001D02*
G75*
G02X54307499Y-34430000I2000000J-99999D01*
G01*
D16*
X55091182Y-39508529D02*
G75*
G02X57307500Y-37630000I2151318J-291471D01*
G01*
D15*
X52657500Y-39730000D02*
X55107500Y-39730000D01*
D18*
X62357500Y-34630000D02*
X61107500Y-34630000D01*
D12*
X71307500Y-29605000D02*
X71307500Y-28955000D01*
D13*
X71807500Y-32055000D02*
X71807500Y-30255001D01*
D14*
X72937500Y-28555000D02*
X72937500Y-30795000D01*
D15*
X81307500Y-30405000D02*
X80007500Y-30355000D01*
D16*
X81007500Y-27655000D02*
X81007500Y-30155000D01*
D17*
X79707500Y-28855000D02*
X73007500Y-28855000D01*
D11*
X81507500Y-30655000D02*
X81507500Y-27055000D01*
X81487500Y-29655000D02*
X81487500Y-27405000D01*
X71207500Y-29705000D02*
X71407500Y-29705000D01*
X71457500Y-28105000D02*
X71457500Y-32555000D01*
X71207500Y-28955000D02*
X71207500Y-29705000D01*
X71457500Y-32555000D02*
X74487500Y-32555000D01*
X76707500Y-30655000D02*
X81507500Y-30655000D01*
X81507500Y-27055000D02*
X73307499Y-27055000D01*
X74491182Y-32533529D02*
G75*
G02X76707500Y-30655000I2151318J-291471D01*
G01*
X71207500Y-28955001D02*
G75*
G02X73307499Y-27055000I2000000J-99999D01*
G01*
D16*
X74091182Y-32133529D02*
G75*
G02X76307500Y-30255000I2151318J-291471D01*
G01*
D15*
X71657500Y-32355000D02*
X74107500Y-32355000D01*
D18*
X81357500Y-27255000D02*
X80107500Y-27255000D01*
D12*
X90307500Y-34480000D02*
X90307500Y-33830000D01*
D13*
X90807500Y-36930000D02*
X90807500Y-35130001D01*
D14*
X91937500Y-33430000D02*
X91937500Y-35670000D01*
D15*
X100307500Y-35280000D02*
X99007500Y-35230000D01*
D16*
X100007500Y-32530000D02*
X100007500Y-35030000D01*
D17*
X98707500Y-33730000D02*
X92007500Y-33730000D01*
D11*
X100507500Y-35530000D02*
X100507500Y-31930000D01*
X100487500Y-34530000D02*
X100487500Y-32280000D01*
X90207500Y-34580000D02*
X90407500Y-34580000D01*
X90457500Y-32980000D02*
X90457500Y-37430000D01*
X90207500Y-33830000D02*
X90207500Y-34580000D01*
X90457500Y-37430000D02*
X93487500Y-37430000D01*
X95707500Y-35530000D02*
X100507500Y-35530000D01*
X100507500Y-31930000D02*
X92307499Y-31930000D01*
X93491182Y-37408529D02*
G75*
G02X95707500Y-35530000I2151318J-291471D01*
G01*
X90207500Y-33830001D02*
G75*
G02X92307499Y-31930000I2000000J-99999D01*
G01*
D16*
X93091182Y-37008529D02*
G75*
G02X95307500Y-35130000I2151318J-291471D01*
G01*
D15*
X90657500Y-37230000D02*
X93107500Y-37230000D01*
D18*
X100357500Y-32130000D02*
X99107500Y-32130000D01*
D12*
X109307500Y-39355000D02*
X109307500Y-38705000D01*
D13*
X109807500Y-41805000D02*
X109807500Y-40005001D01*
D14*
X110937500Y-38305000D02*
X110937500Y-40545000D01*
D15*
X119307500Y-40155000D02*
X118007500Y-40105000D01*
D16*
X119007500Y-37405000D02*
X119007500Y-39905000D01*
D17*
X117707500Y-38605000D02*
X111007500Y-38605000D01*
D11*
X119507500Y-40405000D02*
X119507500Y-36805000D01*
X119487500Y-39405000D02*
X119487500Y-37155000D01*
X109207500Y-39455000D02*
X109407500Y-39455000D01*
X109457500Y-37855000D02*
X109457500Y-42305000D01*
X109207500Y-38705000D02*
X109207500Y-39455000D01*
X109457500Y-42305000D02*
X112487500Y-42305000D01*
X114707500Y-40405000D02*
X119507500Y-40405000D01*
X119507500Y-36805000D02*
X111307499Y-36805000D01*
X112491182Y-42283529D02*
G75*
G02X114707500Y-40405000I2151318J-291471D01*
G01*
X109207500Y-38705001D02*
G75*
G02X111307499Y-36805000I2000000J-99999D01*
G01*
D16*
X112091182Y-41883529D02*
G75*
G02X114307500Y-40005000I2151318J-291471D01*
G01*
D15*
X109657500Y-42105000D02*
X112107500Y-42105000D01*
D18*
X119357500Y-37005000D02*
X118107500Y-37005000D01*
D12*
X52307500Y-55980000D02*
X52307500Y-55330000D01*
D13*
X52807500Y-58430000D02*
X52807500Y-56630001D01*
D14*
X53937500Y-54930000D02*
X53937500Y-57170000D01*
D15*
X62307500Y-56780000D02*
X61007500Y-56730000D01*
D16*
X62007500Y-54030000D02*
X62007500Y-56530000D01*
D17*
X60707500Y-55230000D02*
X54007500Y-55230000D01*
D11*
X62507500Y-57030000D02*
X62507500Y-53430000D01*
X62487500Y-56030000D02*
X62487500Y-53780000D01*
X52207500Y-56080000D02*
X52407500Y-56080000D01*
X52457500Y-54480000D02*
X52457500Y-58930000D01*
X52207500Y-55330000D02*
X52207500Y-56080000D01*
X52457500Y-58930000D02*
X55487500Y-58930000D01*
X57707500Y-57030000D02*
X62507500Y-57030000D01*
X62507500Y-53430000D02*
X54307499Y-53430000D01*
X55491182Y-58908529D02*
G75*
G02X57707500Y-57030000I2151318J-291471D01*
G01*
X52207500Y-55330001D02*
G75*
G02X54307499Y-53430000I2000000J-99999D01*
G01*
D16*
X55091182Y-58508529D02*
G75*
G02X57307500Y-56630000I2151318J-291471D01*
G01*
D15*
X52657500Y-58730000D02*
X55107500Y-58730000D01*
D18*
X62357500Y-53630000D02*
X61107500Y-53630000D01*
D12*
X71307500Y-48605000D02*
X71307500Y-47955000D01*
D13*
X71807500Y-51055000D02*
X71807500Y-49255001D01*
D14*
X72937500Y-47555000D02*
X72937500Y-49795000D01*
D15*
X81307500Y-49405000D02*
X80007500Y-49355000D01*
D16*
X81007500Y-46655000D02*
X81007500Y-49155000D01*
D17*
X79707500Y-47855000D02*
X73007500Y-47855000D01*
D11*
X81507500Y-49655000D02*
X81507500Y-46055000D01*
X81487500Y-48655000D02*
X81487500Y-46405000D01*
X71207500Y-48705000D02*
X71407500Y-48705000D01*
X71457500Y-47105000D02*
X71457500Y-51555000D01*
X71207500Y-47955000D02*
X71207500Y-48705000D01*
X71457500Y-51555000D02*
X74487500Y-51555000D01*
X76707500Y-49655000D02*
X81507500Y-49655000D01*
X81507500Y-46055000D02*
X73307499Y-46055000D01*
X74491182Y-51533529D02*
G75*
G02X76707500Y-49655000I2151318J-291471D01*
G01*
X71207500Y-47955001D02*
G75*
G02X73307499Y-46055000I2000000J-99999D01*
G01*
D16*
X74091182Y-51133529D02*
G75*
G02X76307500Y-49255000I2151318J-291471D01*
G01*
D15*
X71657500Y-51355000D02*
X74107500Y-51355000D01*
D18*
X81357500Y-46255000D02*
X80107500Y-46255000D01*
D12*
X90307500Y-53480000D02*
X90307500Y-52830000D01*
D13*
X90807500Y-55930000D02*
X90807500Y-54130001D01*
D14*
X91937500Y-52430000D02*
X91937500Y-54670000D01*
D15*
X100307500Y-54280000D02*
X99007500Y-54230000D01*
D16*
X100007500Y-51530000D02*
X100007500Y-54030000D01*
D17*
X98707500Y-52730000D02*
X92007500Y-52730000D01*
D11*
X100507500Y-54530000D02*
X100507500Y-50930000D01*
X100487500Y-53530000D02*
X100487500Y-51280000D01*
X90207500Y-53580000D02*
X90407500Y-53580000D01*
X90457500Y-51980000D02*
X90457500Y-56430000D01*
X90207500Y-52830000D02*
X90207500Y-53580000D01*
X90457500Y-56430000D02*
X93487500Y-56430000D01*
X95707500Y-54530000D02*
X100507500Y-54530000D01*
X100507500Y-50930000D02*
X92307499Y-50930000D01*
X93491182Y-56408529D02*
G75*
G02X95707500Y-54530000I2151318J-291471D01*
G01*
X90207500Y-52830001D02*
G75*
G02X92307499Y-50930000I2000000J-99999D01*
G01*
D16*
X93091182Y-56008529D02*
G75*
G02X95307500Y-54130000I2151318J-291471D01*
G01*
D15*
X90657500Y-56230000D02*
X93107500Y-56230000D01*
D18*
X100357500Y-51130000D02*
X99107500Y-51130000D01*
D12*
X98007500Y-90405000D02*
X98007500Y-89755000D01*
D13*
X98507500Y-92855000D02*
X98507500Y-91055001D01*
D14*
X99637500Y-89355000D02*
X99637500Y-91595000D01*
D15*
X108007500Y-91205000D02*
X106707500Y-91155000D01*
D16*
X107707500Y-88455000D02*
X107707500Y-90955000D01*
D17*
X106407500Y-89655000D02*
X99707500Y-89655000D01*
D11*
X108207500Y-91455000D02*
X108207500Y-87855000D01*
X108187500Y-90455000D02*
X108187500Y-88205000D01*
X97907500Y-90505000D02*
X98107500Y-90505000D01*
X98157500Y-88905000D02*
X98157500Y-93355000D01*
X97907500Y-89755000D02*
X97907500Y-90505000D01*
X98157500Y-93355000D02*
X101187500Y-93355000D01*
X103407500Y-91455000D02*
X108207500Y-91455000D01*
X108207500Y-87855000D02*
X100007499Y-87855000D01*
X101191182Y-93333529D02*
G75*
G02X103407500Y-91455000I2151318J-291471D01*
G01*
X97907500Y-89755001D02*
G75*
G02X100007499Y-87855000I2000000J-99999D01*
G01*
D16*
X100791182Y-92933529D02*
G75*
G02X103007500Y-91055000I2151318J-291471D01*
G01*
D15*
X98357500Y-93155000D02*
X100807500Y-93155000D01*
D18*
X108057500Y-88055000D02*
X106807500Y-88055000D01*
D12*
X302564500Y-31725000D02*
X302564500Y-31075000D01*
D13*
X303064500Y-34175000D02*
X303064500Y-32375001D01*
D14*
X304194500Y-30675000D02*
X304194500Y-32915000D01*
D15*
X312564500Y-32525000D02*
X311264500Y-32475000D01*
D16*
X312264500Y-29775000D02*
X312264500Y-32275000D01*
D17*
X310964500Y-30975000D02*
X304264500Y-30975000D01*
D11*
X312764500Y-32775000D02*
X312764500Y-29175000D01*
X312744500Y-31775000D02*
X312744500Y-29525000D01*
X302464500Y-31825000D02*
X302664500Y-31825000D01*
X302714500Y-30225000D02*
X302714500Y-34675000D01*
X302464500Y-31075000D02*
X302464500Y-31825000D01*
X302714500Y-34675000D02*
X305744500Y-34675000D01*
X307964500Y-32775000D02*
X312764500Y-32775000D01*
X312764500Y-29175000D02*
X304564499Y-29175000D01*
X305748182Y-34653529D02*
G75*
G02X307964500Y-32775000I2151318J-291471D01*
G01*
X302464500Y-31075001D02*
G75*
G02X304564499Y-29175000I2000000J-99999D01*
G01*
D16*
X305348182Y-34253529D02*
G75*
G02X307564500Y-32375000I2151318J-291471D01*
G01*
D15*
X302914500Y-34475000D02*
X305364500Y-34475000D01*
D18*
X312614500Y-29375000D02*
X311364500Y-29375000D01*
D12*
X283564500Y-31725000D02*
X283564500Y-31075000D01*
D13*
X284064500Y-34175000D02*
X284064500Y-32375001D01*
D14*
X285194500Y-30675000D02*
X285194500Y-32915000D01*
D15*
X293564500Y-32525000D02*
X292264500Y-32475000D01*
D16*
X293264500Y-29775000D02*
X293264500Y-32275000D01*
D17*
X291964500Y-30975000D02*
X285264500Y-30975000D01*
D11*
X293764500Y-32775000D02*
X293764500Y-29175000D01*
X293744500Y-31775000D02*
X293744500Y-29525000D01*
X283464500Y-31825000D02*
X283664500Y-31825000D01*
X283714500Y-30225000D02*
X283714500Y-34675000D01*
X283464500Y-31075000D02*
X283464500Y-31825000D01*
X283714500Y-34675000D02*
X286744500Y-34675000D01*
X288964500Y-32775000D02*
X293764500Y-32775000D01*
X293764500Y-29175000D02*
X285564499Y-29175000D01*
X286748182Y-34653529D02*
G75*
G02X288964500Y-32775000I2151318J-291471D01*
G01*
X283464500Y-31075001D02*
G75*
G02X285564499Y-29175000I2000000J-99999D01*
G01*
D16*
X286348182Y-34253529D02*
G75*
G02X288564500Y-32375000I2151318J-291471D01*
G01*
D15*
X283914500Y-34475000D02*
X286364500Y-34475000D01*
D18*
X293614500Y-29375000D02*
X292364500Y-29375000D01*
D12*
X264564500Y-17975000D02*
X264564500Y-17325000D01*
D13*
X265064500Y-20425000D02*
X265064500Y-18625001D01*
D14*
X266194500Y-16925000D02*
X266194500Y-19165000D01*
D15*
X274564500Y-18775000D02*
X273264500Y-18725000D01*
D16*
X274264500Y-16025000D02*
X274264500Y-18525000D01*
D17*
X272964500Y-17225000D02*
X266264500Y-17225000D01*
D11*
X274764500Y-19025000D02*
X274764500Y-15425000D01*
X274744500Y-18025000D02*
X274744500Y-15775000D01*
X264464500Y-18075000D02*
X264664500Y-18075000D01*
X264714500Y-16475000D02*
X264714500Y-20925000D01*
X264464500Y-17325000D02*
X264464500Y-18075000D01*
X264714500Y-20925000D02*
X267744500Y-20925000D01*
X269964500Y-19025000D02*
X274764500Y-19025000D01*
X274764500Y-15425000D02*
X266564499Y-15425000D01*
X267748182Y-20903529D02*
G75*
G02X269964500Y-19025000I2151318J-291471D01*
G01*
X264464500Y-17325001D02*
G75*
G02X266564499Y-15425000I2000000J-99999D01*
G01*
D16*
X267348182Y-20503529D02*
G75*
G02X269564500Y-18625000I2151318J-291471D01*
G01*
D15*
X264914500Y-20725000D02*
X267364500Y-20725000D01*
D18*
X274614500Y-15625000D02*
X273364500Y-15625000D01*
D12*
X245564500Y-10600000D02*
X245564500Y-9950000D01*
D13*
X246064500Y-13050000D02*
X246064500Y-11250001D01*
D14*
X247194500Y-9550000D02*
X247194500Y-11790000D01*
D15*
X255564500Y-11400000D02*
X254264500Y-11350000D01*
D16*
X255264500Y-8650000D02*
X255264500Y-11150000D01*
D17*
X253964500Y-9850000D02*
X247264500Y-9850000D01*
D11*
X255764500Y-11650000D02*
X255764500Y-8050000D01*
X255744500Y-10650000D02*
X255744500Y-8400000D01*
X245464500Y-10700000D02*
X245664500Y-10700000D01*
X245714500Y-9100000D02*
X245714500Y-13550000D01*
X245464500Y-9950000D02*
X245464500Y-10700000D01*
X245714500Y-13550000D02*
X248744500Y-13550000D01*
X250964500Y-11650000D02*
X255764500Y-11650000D01*
X255764500Y-8050000D02*
X247564499Y-8050000D01*
X248748182Y-13528529D02*
G75*
G02X250964500Y-11650000I2151318J-291471D01*
G01*
X245464500Y-9950001D02*
G75*
G02X247564499Y-8050000I2000000J-99999D01*
G01*
D16*
X248348182Y-13128529D02*
G75*
G02X250564500Y-11250000I2151318J-291471D01*
G01*
D15*
X245914500Y-13350000D02*
X248364500Y-13350000D01*
D18*
X255614500Y-8250000D02*
X254364500Y-8250000D01*
D12*
X226564500Y-15475000D02*
X226564500Y-14825000D01*
D13*
X227064500Y-17925000D02*
X227064500Y-16125001D01*
D14*
X228194500Y-14425000D02*
X228194500Y-16665000D01*
D15*
X236564500Y-16275000D02*
X235264500Y-16225000D01*
D16*
X236264500Y-13525000D02*
X236264500Y-16025000D01*
D17*
X234964500Y-14725000D02*
X228264500Y-14725000D01*
D11*
X236764500Y-16525000D02*
X236764500Y-12925000D01*
X236744500Y-15525000D02*
X236744500Y-13275000D01*
X226464500Y-15575000D02*
X226664500Y-15575000D01*
X226714500Y-13975000D02*
X226714500Y-18425000D01*
X226464500Y-14825000D02*
X226464500Y-15575000D01*
X226714500Y-18425000D02*
X229744500Y-18425000D01*
X231964500Y-16525000D02*
X236764500Y-16525000D01*
X236764500Y-12925000D02*
X228564499Y-12925000D01*
X229748182Y-18403529D02*
G75*
G02X231964500Y-16525000I2151318J-291471D01*
G01*
X226464500Y-14825001D02*
G75*
G02X228564499Y-12925000I2000000J-99999D01*
G01*
D16*
X229348182Y-18003529D02*
G75*
G02X231564500Y-16125000I2151318J-291471D01*
G01*
D15*
X226914500Y-18225000D02*
X229364500Y-18225000D01*
D18*
X236614500Y-13125000D02*
X235364500Y-13125000D01*
D12*
X207557500Y-20355000D02*
X207557500Y-19705000D01*
D13*
X208057500Y-22805000D02*
X208057500Y-21005001D01*
D14*
X209187500Y-19305000D02*
X209187500Y-21545000D01*
D15*
X217557500Y-21155000D02*
X216257500Y-21105000D01*
D16*
X217257500Y-18405000D02*
X217257500Y-20905000D01*
D17*
X215957500Y-19605000D02*
X209257500Y-19605000D01*
D11*
X217757500Y-21405000D02*
X217757500Y-17805000D01*
X217737500Y-20405000D02*
X217737500Y-18155000D01*
X207457500Y-20455000D02*
X207657500Y-20455000D01*
X207707500Y-18855000D02*
X207707500Y-23305000D01*
X207457500Y-19705000D02*
X207457500Y-20455000D01*
X207707500Y-23305000D02*
X210737500Y-23305000D01*
X212957500Y-21405000D02*
X217757500Y-21405000D01*
X217757500Y-17805000D02*
X209557499Y-17805000D01*
X210741182Y-23283529D02*
G75*
G02X212957500Y-21405000I2151318J-291471D01*
G01*
X207457500Y-19705001D02*
G75*
G02X209557499Y-17805000I2000000J-99999D01*
G01*
D16*
X210341182Y-22883529D02*
G75*
G02X212557500Y-21005000I2151318J-291471D01*
G01*
D15*
X207907500Y-23105000D02*
X210357500Y-23105000D01*
D18*
X217607500Y-18005000D02*
X216357500Y-18005000D01*
D12*
X302564500Y-50725000D02*
X302564500Y-50075000D01*
D13*
X303064500Y-53175000D02*
X303064500Y-51375001D01*
D14*
X304194500Y-49675000D02*
X304194500Y-51915000D01*
D15*
X312564500Y-51525000D02*
X311264500Y-51475000D01*
D16*
X312264500Y-48775000D02*
X312264500Y-51275000D01*
D17*
X310964500Y-49975000D02*
X304264500Y-49975000D01*
D11*
X312764500Y-51775000D02*
X312764500Y-48175000D01*
X312744500Y-50775000D02*
X312744500Y-48525000D01*
X302464500Y-50825000D02*
X302664500Y-50825000D01*
X302714500Y-49225000D02*
X302714500Y-53675000D01*
X302464500Y-50075000D02*
X302464500Y-50825000D01*
X302714500Y-53675000D02*
X305744500Y-53675000D01*
X307964500Y-51775000D02*
X312764500Y-51775000D01*
X312764500Y-48175000D02*
X304564499Y-48175000D01*
X305748182Y-53653529D02*
G75*
G02X307964500Y-51775000I2151318J-291471D01*
G01*
X302464500Y-50075001D02*
G75*
G02X304564499Y-48175000I2000000J-99999D01*
G01*
D16*
X305348182Y-53253529D02*
G75*
G02X307564500Y-51375000I2151318J-291471D01*
G01*
D15*
X302914500Y-53475000D02*
X305364500Y-53475000D01*
D18*
X312614500Y-48375000D02*
X311364500Y-48375000D01*
D12*
X283564500Y-50725000D02*
X283564500Y-50075000D01*
D13*
X284064500Y-53175000D02*
X284064500Y-51375001D01*
D14*
X285194500Y-49675000D02*
X285194500Y-51915000D01*
D15*
X293564500Y-51525000D02*
X292264500Y-51475000D01*
D16*
X293264500Y-48775000D02*
X293264500Y-51275000D01*
D17*
X291964500Y-49975000D02*
X285264500Y-49975000D01*
D11*
X293764500Y-51775000D02*
X293764500Y-48175000D01*
X293744500Y-50775000D02*
X293744500Y-48525000D01*
X283464500Y-50825000D02*
X283664500Y-50825000D01*
X283714500Y-49225000D02*
X283714500Y-53675000D01*
X283464500Y-50075000D02*
X283464500Y-50825000D01*
X283714500Y-53675000D02*
X286744500Y-53675000D01*
X288964500Y-51775000D02*
X293764500Y-51775000D01*
X293764500Y-48175000D02*
X285564499Y-48175000D01*
X286748182Y-53653529D02*
G75*
G02X288964500Y-51775000I2151318J-291471D01*
G01*
X283464500Y-50075001D02*
G75*
G02X285564499Y-48175000I2000000J-99999D01*
G01*
D16*
X286348182Y-53253529D02*
G75*
G02X288564500Y-51375000I2151318J-291471D01*
G01*
D15*
X283914500Y-53475000D02*
X286364500Y-53475000D01*
D18*
X293614500Y-48375000D02*
X292364500Y-48375000D01*
D12*
X264564500Y-36975000D02*
X264564500Y-36325000D01*
D13*
X265064500Y-39425000D02*
X265064500Y-37625001D01*
D14*
X266194500Y-35925000D02*
X266194500Y-38165000D01*
D15*
X274564500Y-37775000D02*
X273264500Y-37725000D01*
D16*
X274264500Y-35025000D02*
X274264500Y-37525000D01*
D17*
X272964500Y-36225000D02*
X266264500Y-36225000D01*
D11*
X274764500Y-38025000D02*
X274764500Y-34425000D01*
X274744500Y-37025000D02*
X274744500Y-34775000D01*
X264464500Y-37075000D02*
X264664500Y-37075000D01*
X264714500Y-35475000D02*
X264714500Y-39925000D01*
X264464500Y-36325000D02*
X264464500Y-37075000D01*
X264714500Y-39925000D02*
X267744500Y-39925000D01*
X269964500Y-38025000D02*
X274764500Y-38025000D01*
X274764500Y-34425000D02*
X266564499Y-34425000D01*
X267748182Y-39903529D02*
G75*
G02X269964500Y-38025000I2151318J-291471D01*
G01*
X264464500Y-36325001D02*
G75*
G02X266564499Y-34425000I2000000J-99999D01*
G01*
D16*
X267348182Y-39503529D02*
G75*
G02X269564500Y-37625000I2151318J-291471D01*
G01*
D15*
X264914500Y-39725000D02*
X267364500Y-39725000D01*
D18*
X274614500Y-34625000D02*
X273364500Y-34625000D01*
D12*
X245564500Y-29600000D02*
X245564500Y-28950000D01*
D13*
X246064500Y-32050000D02*
X246064500Y-30250001D01*
D14*
X247194500Y-28550000D02*
X247194500Y-30790000D01*
D15*
X255564500Y-30400000D02*
X254264500Y-30350000D01*
D16*
X255264500Y-27650000D02*
X255264500Y-30150000D01*
D17*
X253964500Y-28850000D02*
X247264500Y-28850000D01*
D11*
X255764500Y-30650000D02*
X255764500Y-27050000D01*
X255744500Y-29650000D02*
X255744500Y-27400000D01*
X245464500Y-29700000D02*
X245664500Y-29700000D01*
X245714500Y-28100000D02*
X245714500Y-32550000D01*
X245464500Y-28950000D02*
X245464500Y-29700000D01*
X245714500Y-32550000D02*
X248744500Y-32550000D01*
X250964500Y-30650000D02*
X255764500Y-30650000D01*
X255764500Y-27050000D02*
X247564499Y-27050000D01*
X248748182Y-32528529D02*
G75*
G02X250964500Y-30650000I2151318J-291471D01*
G01*
X245464500Y-28950001D02*
G75*
G02X247564499Y-27050000I2000000J-99999D01*
G01*
D16*
X248348182Y-32128529D02*
G75*
G02X250564500Y-30250000I2151318J-291471D01*
G01*
D15*
X245914500Y-32350000D02*
X248364500Y-32350000D01*
D18*
X255614500Y-27250000D02*
X254364500Y-27250000D01*
D12*
X226564500Y-34475000D02*
X226564500Y-33825000D01*
D13*
X227064500Y-36925000D02*
X227064500Y-35125001D01*
D14*
X228194500Y-33425000D02*
X228194500Y-35665000D01*
D15*
X236564500Y-35275000D02*
X235264500Y-35225000D01*
D16*
X236264500Y-32525000D02*
X236264500Y-35025000D01*
D17*
X234964500Y-33725000D02*
X228264500Y-33725000D01*
D11*
X236764500Y-35525000D02*
X236764500Y-31925000D01*
X236744500Y-34525000D02*
X236744500Y-32275000D01*
X226464500Y-34575000D02*
X226664500Y-34575000D01*
X226714500Y-32975000D02*
X226714500Y-37425000D01*
X226464500Y-33825000D02*
X226464500Y-34575000D01*
X226714500Y-37425000D02*
X229744500Y-37425000D01*
X231964500Y-35525000D02*
X236764500Y-35525000D01*
X236764500Y-31925000D02*
X228564499Y-31925000D01*
X229748182Y-37403529D02*
G75*
G02X231964500Y-35525000I2151318J-291471D01*
G01*
X226464500Y-33825001D02*
G75*
G02X228564499Y-31925000I2000000J-99999D01*
G01*
D16*
X229348182Y-37003529D02*
G75*
G02X231564500Y-35125000I2151318J-291471D01*
G01*
D15*
X226914500Y-37225000D02*
X229364500Y-37225000D01*
D18*
X236614500Y-32125000D02*
X235364500Y-32125000D01*
D12*
X302564500Y-69725000D02*
X302564500Y-69075000D01*
D13*
X303064500Y-72175000D02*
X303064500Y-70375001D01*
D14*
X304194500Y-68675000D02*
X304194500Y-70915000D01*
D15*
X312564500Y-70525000D02*
X311264500Y-70475000D01*
D16*
X312264500Y-67775000D02*
X312264500Y-70275000D01*
D17*
X310964500Y-68975000D02*
X304264500Y-68975000D01*
D11*
X312764500Y-70775000D02*
X312764500Y-67175000D01*
X312744500Y-69775000D02*
X312744500Y-67525000D01*
X302464500Y-69825000D02*
X302664500Y-69825000D01*
X302714500Y-68225000D02*
X302714500Y-72675000D01*
X302464500Y-69075000D02*
X302464500Y-69825000D01*
X302714500Y-72675000D02*
X305744500Y-72675000D01*
X307964500Y-70775000D02*
X312764500Y-70775000D01*
X312764500Y-67175000D02*
X304564499Y-67175000D01*
X305748182Y-72653529D02*
G75*
G02X307964500Y-70775000I2151318J-291471D01*
G01*
X302464500Y-69075001D02*
G75*
G02X304564499Y-67175000I2000000J-99999D01*
G01*
D16*
X305348182Y-72253529D02*
G75*
G02X307564500Y-70375000I2151318J-291471D01*
G01*
D15*
X302914500Y-72475000D02*
X305364500Y-72475000D01*
D18*
X312614500Y-67375000D02*
X311364500Y-67375000D01*
D12*
X264564500Y-55975000D02*
X264564500Y-55325000D01*
D13*
X265064500Y-58425000D02*
X265064500Y-56625001D01*
D14*
X266194500Y-54925000D02*
X266194500Y-57165000D01*
D15*
X274564500Y-56775000D02*
X273264500Y-56725000D01*
D16*
X274264500Y-54025000D02*
X274264500Y-56525000D01*
D17*
X272964500Y-55225000D02*
X266264500Y-55225000D01*
D11*
X274764500Y-57025000D02*
X274764500Y-53425000D01*
X274744500Y-56025000D02*
X274744500Y-53775000D01*
X264464500Y-56075000D02*
X264664500Y-56075000D01*
X264714500Y-54475000D02*
X264714500Y-58925000D01*
X264464500Y-55325000D02*
X264464500Y-56075000D01*
X264714500Y-58925000D02*
X267744500Y-58925000D01*
X269964500Y-57025000D02*
X274764500Y-57025000D01*
X274764500Y-53425000D02*
X266564499Y-53425000D01*
X267748182Y-58903529D02*
G75*
G02X269964500Y-57025000I2151318J-291471D01*
G01*
X264464500Y-55325001D02*
G75*
G02X266564499Y-53425000I2000000J-99999D01*
G01*
D16*
X267348182Y-58503529D02*
G75*
G02X269564500Y-56625000I2151318J-291471D01*
G01*
D15*
X264914500Y-58725000D02*
X267364500Y-58725000D01*
D18*
X274614500Y-53625000D02*
X273364500Y-53625000D01*
D12*
X226564500Y-53475000D02*
X226564500Y-52825000D01*
D13*
X227064500Y-55925000D02*
X227064500Y-54125001D01*
D14*
X228194500Y-52425000D02*
X228194500Y-54665000D01*
D15*
X236564500Y-54275000D02*
X235264500Y-54225000D01*
D16*
X236264500Y-51525000D02*
X236264500Y-54025000D01*
D17*
X234964500Y-52725000D02*
X228264500Y-52725000D01*
D11*
X236764500Y-54525000D02*
X236764500Y-50925000D01*
X236744500Y-53525000D02*
X236744500Y-51275000D01*
X226464500Y-53575000D02*
X226664500Y-53575000D01*
X226714500Y-51975000D02*
X226714500Y-56425000D01*
X226464500Y-52825000D02*
X226464500Y-53575000D01*
X226714500Y-56425000D02*
X229744500Y-56425000D01*
X231964500Y-54525000D02*
X236764500Y-54525000D01*
X236764500Y-50925000D02*
X228564499Y-50925000D01*
X229748182Y-56403529D02*
G75*
G02X231964500Y-54525000I2151318J-291471D01*
G01*
X226464500Y-52825001D02*
G75*
G02X228564499Y-50925000I2000000J-99999D01*
G01*
D16*
X229348182Y-56003529D02*
G75*
G02X231564500Y-54125000I2151318J-291471D01*
G01*
D15*
X226914500Y-56225000D02*
X229364500Y-56225000D01*
D18*
X236614500Y-51125000D02*
X235364500Y-51125000D01*
D12*
X218864500Y-90600000D02*
X218864500Y-89950000D01*
D13*
X219364500Y-93050000D02*
X219364500Y-91250001D01*
D14*
X220494500Y-89550000D02*
X220494500Y-91790000D01*
D15*
X228864500Y-91400000D02*
X227564500Y-91350000D01*
D16*
X228564500Y-88650000D02*
X228564500Y-91150000D01*
D17*
X227264500Y-89850000D02*
X220564500Y-89850000D01*
D11*
X229064500Y-91650000D02*
X229064500Y-88050000D01*
X229044500Y-90650000D02*
X229044500Y-88400000D01*
X218764500Y-90700000D02*
X218964500Y-90700000D01*
X219014500Y-89100000D02*
X219014500Y-93550000D01*
X218764500Y-89950000D02*
X218764500Y-90700000D01*
X219014500Y-93550000D02*
X222044500Y-93550000D01*
X224264500Y-91650000D02*
X229064500Y-91650000D01*
X229064500Y-88050000D02*
X220864499Y-88050000D01*
X222048182Y-93528529D02*
G75*
G02X224264500Y-91650000I2151318J-291471D01*
G01*
X218764500Y-89950001D02*
G75*
G02X220864499Y-88050000I2000000J-99999D01*
G01*
D16*
X221648182Y-93128529D02*
G75*
G02X223864500Y-91250000I2151318J-291471D01*
G01*
D15*
X219214500Y-93350000D02*
X221664500Y-93350000D01*
D18*
X228914500Y-88250000D02*
X227664500Y-88250000D01*
D19*
G36*
X268115509Y-79808791D02*
G01*
X268021425Y-79812451D01*
X267951010Y-79821455D01*
X267890699Y-79838181D01*
X267826930Y-79865005D01*
X267772749Y-79891171D01*
X267601702Y-79999513D01*
X267468452Y-80138673D01*
X267371121Y-80311378D01*
X267307832Y-80520354D01*
X267296425Y-80582800D01*
X267289136Y-80653770D01*
X267282597Y-80766525D01*
X267277097Y-80912049D01*
X267272926Y-81081330D01*
X267270373Y-81265353D01*
X267269692Y-81414650D01*
X267269500Y-82081400D01*
X267701300Y-82081400D01*
X267701300Y-81362110D01*
X267701907Y-81133457D01*
X267703900Y-80949758D01*
X267707537Y-80805177D01*
X267713078Y-80693882D01*
X267720781Y-80610037D01*
X267730905Y-80547809D01*
X267738803Y-80516534D01*
X267803563Y-80378307D01*
X267904470Y-80275106D01*
X268039897Y-80207984D01*
X268208220Y-80177999D01*
X268262688Y-80176400D01*
X268425159Y-80186817D01*
X268555138Y-80221694D01*
X268667236Y-80286472D01*
X268747140Y-80356726D01*
X268801327Y-80413731D01*
X268844709Y-80469501D01*
X268878477Y-80530365D01*
X268903821Y-80602652D01*
X268921933Y-80692689D01*
X268934004Y-80806805D01*
X268941223Y-80951327D01*
X268944783Y-81132585D01*
X268945874Y-81356907D01*
X268945900Y-81412910D01*
X268945900Y-82081400D01*
X269377700Y-82081400D01*
X269377700Y-79820800D01*
X268945900Y-79820800D01*
X268945900Y-80078707D01*
X268863636Y-79996442D01*
X268777248Y-79920836D01*
X268686545Y-79867569D01*
X268580522Y-79833282D01*
X268448176Y-79814616D01*
X268278505Y-79808211D01*
X268246826Y-79808100D01*
X268115509Y-79808791D01*
X268115509Y-79808791D01*
G37*
X268115509Y-79808791D02*
X268021425Y-79812451D01*
X267951010Y-79821455D01*
X267890699Y-79838181D01*
X267826930Y-79865005D01*
X267772749Y-79891171D01*
X267601702Y-79999513D01*
X267468452Y-80138673D01*
X267371121Y-80311378D01*
X267307832Y-80520354D01*
X267296425Y-80582800D01*
X267289136Y-80653770D01*
X267282597Y-80766525D01*
X267277097Y-80912049D01*
X267272926Y-81081330D01*
X267270373Y-81265353D01*
X267269692Y-81414650D01*
X267269500Y-82081400D01*
X267701300Y-82081400D01*
X267701300Y-81362110D01*
X267701907Y-81133457D01*
X267703900Y-80949758D01*
X267707537Y-80805177D01*
X267713078Y-80693882D01*
X267720781Y-80610037D01*
X267730905Y-80547809D01*
X267738803Y-80516534D01*
X267803563Y-80378307D01*
X267904470Y-80275106D01*
X268039897Y-80207984D01*
X268208220Y-80177999D01*
X268262688Y-80176400D01*
X268425159Y-80186817D01*
X268555138Y-80221694D01*
X268667236Y-80286472D01*
X268747140Y-80356726D01*
X268801327Y-80413731D01*
X268844709Y-80469501D01*
X268878477Y-80530365D01*
X268903821Y-80602652D01*
X268921933Y-80692689D01*
X268934004Y-80806805D01*
X268941223Y-80951327D01*
X268944783Y-81132585D01*
X268945874Y-81356907D01*
X268945900Y-81412910D01*
X268945900Y-82081400D01*
X269377700Y-82081400D01*
X269377700Y-79820800D01*
X268945900Y-79820800D01*
X268945900Y-80078707D01*
X268863636Y-79996442D01*
X268777248Y-79920836D01*
X268686545Y-79867569D01*
X268580522Y-79833282D01*
X268448176Y-79814616D01*
X268278505Y-79808211D01*
X268246826Y-79808100D01*
X268115509Y-79808791D01*
G36*
X269777763Y-79785436D02*
G01*
X269631700Y-79801961D01*
X269631700Y-80172729D01*
X269765050Y-80159068D01*
X269949149Y-80164139D01*
X270118548Y-80215922D01*
X270267119Y-80311056D01*
X270388734Y-80446179D01*
X270437611Y-80527869D01*
X270520700Y-80688838D01*
X270520700Y-82081400D01*
X270952500Y-82081400D01*
X270952500Y-79818745D01*
X270742950Y-79826122D01*
X270533400Y-79833500D01*
X270508000Y-80055358D01*
X270457231Y-79998946D01*
X270339054Y-79902357D01*
X270187202Y-79831267D01*
X270013958Y-79789536D01*
X269831610Y-79781025D01*
X269777763Y-79785436D01*
X269777763Y-79785436D01*
G37*
X269777763Y-79785436D02*
X269631700Y-79801961D01*
X269631700Y-80172729D01*
X269765050Y-80159068D01*
X269949149Y-80164139D01*
X270118548Y-80215922D01*
X270267119Y-80311056D01*
X270388734Y-80446179D01*
X270437611Y-80527869D01*
X270520700Y-80688838D01*
X270520700Y-82081400D01*
X270952500Y-82081400D01*
X270952500Y-79818745D01*
X270742950Y-79826122D01*
X270533400Y-79833500D01*
X270508000Y-80055358D01*
X270457231Y-79998946D01*
X270339054Y-79902357D01*
X270187202Y-79831267D01*
X270013958Y-79789536D01*
X269831610Y-79781025D01*
X269777763Y-79785436D01*
G36*
X265583470Y-79818406D02*
G01*
X265361106Y-79884705D01*
X265162867Y-79990213D01*
X264992921Y-80130847D01*
X264855441Y-80302524D01*
X264754596Y-80501162D01*
X264694557Y-80722678D01*
X264678700Y-80918336D01*
X264678700Y-81065400D01*
X266583700Y-81065400D01*
X266583700Y-81138498D01*
X266560783Y-81261649D01*
X266497345Y-81389172D01*
X266401357Y-81510298D01*
X266280789Y-81614256D01*
X266191612Y-81668239D01*
X266055758Y-81719647D01*
X265895096Y-81744683D01*
X265882128Y-81745596D01*
X265699871Y-81743127D01*
X265546197Y-81706329D01*
X265408505Y-81630614D01*
X265293807Y-81531419D01*
X265157987Y-81395600D01*
X264954732Y-81395600D01*
X264854189Y-81396246D01*
X264794967Y-81400122D01*
X264767590Y-81410133D01*
X264762581Y-81429182D01*
X264768270Y-81452750D01*
X264806583Y-81538398D01*
X264871501Y-81641086D01*
X264951226Y-81744606D01*
X265033956Y-81832746D01*
X265064143Y-81859173D01*
X265263010Y-81988773D01*
X265485698Y-82078237D01*
X265722404Y-82125509D01*
X265963327Y-82128535D01*
X266174643Y-82092004D01*
X266395755Y-82007879D01*
X266590575Y-81884023D01*
X266754175Y-81725554D01*
X266881626Y-81537590D01*
X266967999Y-81325249D01*
X266987156Y-81248299D01*
X267017692Y-80998242D01*
X267003959Y-80758661D01*
X266991778Y-80709800D01*
X266582443Y-80709800D01*
X265859172Y-80709800D01*
X265646586Y-80709528D01*
X265479501Y-80708521D01*
X265352621Y-80706494D01*
X265260649Y-80703158D01*
X265198288Y-80698229D01*
X265160241Y-80691420D01*
X265141212Y-80682444D01*
X265135903Y-80671014D01*
X265135900Y-80670688D01*
X265156277Y-80588758D01*
X265210975Y-80493173D01*
X265290348Y-80395722D01*
X265384752Y-80308195D01*
X265484539Y-80242383D01*
X265487597Y-80240826D01*
X265626653Y-80193277D01*
X265790767Y-80172014D01*
X265961572Y-80176960D01*
X266120702Y-80208039D01*
X266212440Y-80243844D01*
X266358974Y-80345486D01*
X266477851Y-80486797D01*
X266558235Y-80646127D01*
X266582443Y-80709800D01*
X266991778Y-80709800D01*
X266948133Y-80534735D01*
X266852394Y-80331643D01*
X266718921Y-80154563D01*
X266549892Y-80008672D01*
X266437001Y-79940689D01*
X266242397Y-79856746D01*
X266045074Y-79809901D01*
X265825787Y-79795400D01*
X265583470Y-79818406D01*
X265583470Y-79818406D01*
G37*
X265583470Y-79818406D02*
X265361106Y-79884705D01*
X265162867Y-79990213D01*
X264992921Y-80130847D01*
X264855441Y-80302524D01*
X264754596Y-80501162D01*
X264694557Y-80722678D01*
X264678700Y-80918336D01*
X264678700Y-81065400D01*
X266583700Y-81065400D01*
X266583700Y-81138498D01*
X266560783Y-81261649D01*
X266497345Y-81389172D01*
X266401357Y-81510298D01*
X266280789Y-81614256D01*
X266191612Y-81668239D01*
X266055758Y-81719647D01*
X265895096Y-81744683D01*
X265882128Y-81745596D01*
X265699871Y-81743127D01*
X265546197Y-81706329D01*
X265408505Y-81630614D01*
X265293807Y-81531419D01*
X265157987Y-81395600D01*
X264954732Y-81395600D01*
X264854189Y-81396246D01*
X264794967Y-81400122D01*
X264767590Y-81410133D01*
X264762581Y-81429182D01*
X264768270Y-81452750D01*
X264806583Y-81538398D01*
X264871501Y-81641086D01*
X264951226Y-81744606D01*
X265033956Y-81832746D01*
X265064143Y-81859173D01*
X265263010Y-81988773D01*
X265485698Y-82078237D01*
X265722404Y-82125509D01*
X265963327Y-82128535D01*
X266174643Y-82092004D01*
X266395755Y-82007879D01*
X266590575Y-81884023D01*
X266754175Y-81725554D01*
X266881626Y-81537590D01*
X266967999Y-81325249D01*
X266987156Y-81248299D01*
X267017692Y-80998242D01*
X267003959Y-80758661D01*
X266991778Y-80709800D01*
X266582443Y-80709800D01*
X265859172Y-80709800D01*
X265646586Y-80709528D01*
X265479501Y-80708521D01*
X265352621Y-80706494D01*
X265260649Y-80703158D01*
X265198288Y-80698229D01*
X265160241Y-80691420D01*
X265141212Y-80682444D01*
X265135903Y-80671014D01*
X265135900Y-80670688D01*
X265156277Y-80588758D01*
X265210975Y-80493173D01*
X265290348Y-80395722D01*
X265384752Y-80308195D01*
X265484539Y-80242383D01*
X265487597Y-80240826D01*
X265626653Y-80193277D01*
X265790767Y-80172014D01*
X265961572Y-80176960D01*
X266120702Y-80208039D01*
X266212440Y-80243844D01*
X266358974Y-80345486D01*
X266477851Y-80486797D01*
X266558235Y-80646127D01*
X266582443Y-80709800D01*
X266991778Y-80709800D01*
X266948133Y-80534735D01*
X266852394Y-80331643D01*
X266718921Y-80154563D01*
X266549892Y-80008672D01*
X266437001Y-79940689D01*
X266242397Y-79856746D01*
X266045074Y-79809901D01*
X265825787Y-79795400D01*
X265583470Y-79818406D01*
G36*
X272375014Y-79801840D02*
G01*
X272121560Y-79837111D01*
X271893475Y-79913807D01*
X271693825Y-80029865D01*
X271525675Y-80183222D01*
X271392092Y-80371816D01*
X271327544Y-80506600D01*
X271295982Y-80620705D01*
X271275715Y-80768371D01*
X271266970Y-80933580D01*
X271269975Y-81100313D01*
X271284957Y-81252551D01*
X271312144Y-81374275D01*
X271315095Y-81382900D01*
X271411481Y-81580172D01*
X271550725Y-81756574D01*
X271727321Y-81906769D01*
X271935759Y-82025421D01*
X272010660Y-82056770D01*
X272142679Y-82093019D01*
X272305665Y-82116467D01*
X272481219Y-82126287D01*
X272650940Y-82121650D01*
X272796426Y-82101729D01*
X272829247Y-82093599D01*
X273043147Y-82011401D01*
X273237879Y-81893093D01*
X273404845Y-81745635D01*
X273535444Y-81575986D01*
X273586318Y-81480895D01*
X273624663Y-81378102D01*
X273658849Y-81253876D01*
X273678901Y-81150628D01*
X273686252Y-81009224D01*
X273261926Y-81009224D01*
X273247591Y-81156866D01*
X273227459Y-81238207D01*
X273174206Y-81350941D01*
X273093805Y-81466333D01*
X272999822Y-81567702D01*
X272905826Y-81638365D01*
X272899042Y-81642020D01*
X272702302Y-81718118D01*
X272497311Y-81748463D01*
X272293896Y-81732243D01*
X272181336Y-81701468D01*
X272004056Y-81614347D01*
X271859590Y-81490677D01*
X271752413Y-81334341D01*
X271747980Y-81325466D01*
X271694990Y-81169401D01*
X271673007Y-80992298D01*
X271682361Y-80813017D01*
X271723379Y-80650421D01*
X271735711Y-80620900D01*
X271833042Y-80461906D01*
X271960739Y-80337092D01*
X272111436Y-80246623D01*
X272277764Y-80190666D01*
X272452358Y-80169386D01*
X272627851Y-80182949D01*
X272796876Y-80231522D01*
X272952066Y-80315270D01*
X273086055Y-80434360D01*
X273191035Y-80588101D01*
X273232581Y-80705807D01*
X273256567Y-80852526D01*
X273261926Y-81009224D01*
X273686252Y-81009224D01*
X273691762Y-80903236D01*
X273659350Y-80668693D01*
X273584150Y-80452052D01*
X273468643Y-80258365D01*
X273315313Y-80092687D01*
X273126640Y-79960069D01*
X273082581Y-79936803D01*
X272908295Y-79862053D01*
X272736970Y-79817281D01*
X272551095Y-79799147D01*
X272375014Y-79801840D01*
X272375014Y-79801840D01*
G37*
X272375014Y-79801840D02*
X272121560Y-79837111D01*
X271893475Y-79913807D01*
X271693825Y-80029865D01*
X271525675Y-80183222D01*
X271392092Y-80371816D01*
X271327544Y-80506600D01*
X271295982Y-80620705D01*
X271275715Y-80768371D01*
X271266970Y-80933580D01*
X271269975Y-81100313D01*
X271284957Y-81252551D01*
X271312144Y-81374275D01*
X271315095Y-81382900D01*
X271411481Y-81580172D01*
X271550725Y-81756574D01*
X271727321Y-81906769D01*
X271935759Y-82025421D01*
X272010660Y-82056770D01*
X272142679Y-82093019D01*
X272305665Y-82116467D01*
X272481219Y-82126287D01*
X272650940Y-82121650D01*
X272796426Y-82101729D01*
X272829247Y-82093599D01*
X273043147Y-82011401D01*
X273237879Y-81893093D01*
X273404845Y-81745635D01*
X273535444Y-81575986D01*
X273586318Y-81480895D01*
X273624663Y-81378102D01*
X273658849Y-81253876D01*
X273678901Y-81150628D01*
X273686252Y-81009224D01*
X273261926Y-81009224D01*
X273247591Y-81156866D01*
X273227459Y-81238207D01*
X273174206Y-81350941D01*
X273093805Y-81466333D01*
X272999822Y-81567702D01*
X272905826Y-81638365D01*
X272899042Y-81642020D01*
X272702302Y-81718118D01*
X272497311Y-81748463D01*
X272293896Y-81732243D01*
X272181336Y-81701468D01*
X272004056Y-81614347D01*
X271859590Y-81490677D01*
X271752413Y-81334341D01*
X271747980Y-81325466D01*
X271694990Y-81169401D01*
X271673007Y-80992298D01*
X271682361Y-80813017D01*
X271723379Y-80650421D01*
X271735711Y-80620900D01*
X271833042Y-80461906D01*
X271960739Y-80337092D01*
X272111436Y-80246623D01*
X272277764Y-80190666D01*
X272452358Y-80169386D01*
X272627851Y-80182949D01*
X272796876Y-80231522D01*
X272952066Y-80315270D01*
X273086055Y-80434360D01*
X273191035Y-80588101D01*
X273232581Y-80705807D01*
X273256567Y-80852526D01*
X273261926Y-81009224D01*
X273686252Y-81009224D01*
X273691762Y-80903236D01*
X273659350Y-80668693D01*
X273584150Y-80452052D01*
X273468643Y-80258365D01*
X273315313Y-80092687D01*
X273126640Y-79960069D01*
X273082581Y-79936803D01*
X272908295Y-79862053D01*
X272736970Y-79817281D01*
X272551095Y-79799147D01*
X272375014Y-79801840D01*
G36*
X274757951Y-79815988D02*
G01*
X274643252Y-79842102D01*
X274422150Y-79932639D01*
X274230707Y-80059036D01*
X274073778Y-80216988D01*
X273956218Y-80402188D01*
X273921563Y-80482254D01*
X273887536Y-80575731D01*
X273875917Y-80634761D01*
X273893202Y-80667261D01*
X273945888Y-80681149D01*
X274040471Y-80684343D01*
X274087431Y-80684400D01*
X274301361Y-80684399D01*
X274332267Y-80590754D01*
X274398857Y-80464894D01*
X274505362Y-80353503D01*
X274641537Y-80263012D01*
X274797136Y-80199854D01*
X274961915Y-80170461D01*
X275003801Y-80169142D01*
X275186131Y-80191910D01*
X275356435Y-80256221D01*
X275505984Y-80356089D01*
X275626047Y-80485526D01*
X275707895Y-80638547D01*
X275714093Y-80656267D01*
X275747644Y-80814924D01*
X275753427Y-80990402D01*
X275732741Y-81164327D01*
X275686887Y-81318322D01*
X275663825Y-81366531D01*
X275558096Y-81517138D01*
X275423221Y-81629303D01*
X275275898Y-81700915D01*
X275097211Y-81743926D01*
X274917741Y-81743773D01*
X274745928Y-81703785D01*
X274590210Y-81627291D01*
X274459026Y-81517622D01*
X274360816Y-81378106D01*
X274339233Y-81331389D01*
X274292600Y-81217990D01*
X274083050Y-81217895D01*
X273980332Y-81218561D01*
X273918216Y-81222620D01*
X273886505Y-81232992D01*
X273875003Y-81252594D01*
X273873500Y-81277887D01*
X273889025Y-81352902D01*
X273930576Y-81452781D01*
X273990622Y-81564252D01*
X274061631Y-81674041D01*
X274136071Y-81768876D01*
X274174962Y-81809119D01*
X274354736Y-81944131D01*
X274563593Y-82044811D01*
X274790440Y-82107913D01*
X275024182Y-82130194D01*
X275219700Y-82114664D01*
X275412913Y-82063943D01*
X275600549Y-81980877D01*
X275770240Y-81872860D01*
X275909617Y-81747289D01*
X275976511Y-81662165D01*
X276057840Y-81527841D01*
X276113730Y-81402887D01*
X276148309Y-81272138D01*
X276165707Y-81120430D01*
X276170086Y-80951100D01*
X276168581Y-80810194D01*
X276162879Y-80706188D01*
X276151202Y-80625236D01*
X276131770Y-80553494D01*
X276112149Y-80500197D01*
X276006503Y-80300543D01*
X275860238Y-80124026D01*
X275681124Y-79978316D01*
X275476931Y-79871085D01*
X275473700Y-79869802D01*
X275317717Y-79825914D01*
X275133745Y-79801892D01*
X274940813Y-79798372D01*
X274757951Y-79815988D01*
X274757951Y-79815988D01*
G37*
X274757951Y-79815988D02*
X274643252Y-79842102D01*
X274422150Y-79932639D01*
X274230707Y-80059036D01*
X274073778Y-80216988D01*
X273956218Y-80402188D01*
X273921563Y-80482254D01*
X273887536Y-80575731D01*
X273875917Y-80634761D01*
X273893202Y-80667261D01*
X273945888Y-80681149D01*
X274040471Y-80684343D01*
X274087431Y-80684400D01*
X274301361Y-80684399D01*
X274332267Y-80590754D01*
X274398857Y-80464894D01*
X274505362Y-80353503D01*
X274641537Y-80263012D01*
X274797136Y-80199854D01*
X274961915Y-80170461D01*
X275003801Y-80169142D01*
X275186131Y-80191910D01*
X275356435Y-80256221D01*
X275505984Y-80356089D01*
X275626047Y-80485526D01*
X275707895Y-80638547D01*
X275714093Y-80656267D01*
X275747644Y-80814924D01*
X275753427Y-80990402D01*
X275732741Y-81164327D01*
X275686887Y-81318322D01*
X275663825Y-81366531D01*
X275558096Y-81517138D01*
X275423221Y-81629303D01*
X275275898Y-81700915D01*
X275097211Y-81743926D01*
X274917741Y-81743773D01*
X274745928Y-81703785D01*
X274590210Y-81627291D01*
X274459026Y-81517622D01*
X274360816Y-81378106D01*
X274339233Y-81331389D01*
X274292600Y-81217990D01*
X274083050Y-81217895D01*
X273980332Y-81218561D01*
X273918216Y-81222620D01*
X273886505Y-81232992D01*
X273875003Y-81252594D01*
X273873500Y-81277887D01*
X273889025Y-81352902D01*
X273930576Y-81452781D01*
X273990622Y-81564252D01*
X274061631Y-81674041D01*
X274136071Y-81768876D01*
X274174962Y-81809119D01*
X274354736Y-81944131D01*
X274563593Y-82044811D01*
X274790440Y-82107913D01*
X275024182Y-82130194D01*
X275219700Y-82114664D01*
X275412913Y-82063943D01*
X275600549Y-81980877D01*
X275770240Y-81872860D01*
X275909617Y-81747289D01*
X275976511Y-81662165D01*
X276057840Y-81527841D01*
X276113730Y-81402887D01*
X276148309Y-81272138D01*
X276165707Y-81120430D01*
X276170086Y-80951100D01*
X276168581Y-80810194D01*
X276162879Y-80706188D01*
X276151202Y-80625236D01*
X276131770Y-80553494D01*
X276112149Y-80500197D01*
X276006503Y-80300543D01*
X275860238Y-80124026D01*
X275681124Y-79978316D01*
X275476931Y-79871085D01*
X275473700Y-79869802D01*
X275317717Y-79825914D01*
X275133745Y-79801892D01*
X274940813Y-79798372D01*
X274757951Y-79815988D01*
G36*
X62477951Y-79665988D02*
G01*
X62363252Y-79692102D01*
X62142150Y-79782639D01*
X61950707Y-79909036D01*
X61793778Y-80066988D01*
X61676218Y-80252188D01*
X61641563Y-80332254D01*
X61607536Y-80425731D01*
X61595917Y-80484761D01*
X61613202Y-80517261D01*
X61665888Y-80531149D01*
X61760471Y-80534343D01*
X61807431Y-80534400D01*
X62021361Y-80534399D01*
X62052267Y-80440754D01*
X62118857Y-80314894D01*
X62225362Y-80203503D01*
X62361537Y-80113012D01*
X62517136Y-80049854D01*
X62681915Y-80020461D01*
X62723801Y-80019142D01*
X62906131Y-80041910D01*
X63076435Y-80106221D01*
X63225984Y-80206089D01*
X63346047Y-80335526D01*
X63427895Y-80488547D01*
X63434093Y-80506267D01*
X63467644Y-80664924D01*
X63473427Y-80840402D01*
X63452741Y-81014327D01*
X63406887Y-81168322D01*
X63383825Y-81216531D01*
X63278096Y-81367138D01*
X63143221Y-81479303D01*
X62995898Y-81550915D01*
X62817211Y-81593926D01*
X62637741Y-81593773D01*
X62465928Y-81553785D01*
X62310210Y-81477291D01*
X62179026Y-81367622D01*
X62080816Y-81228106D01*
X62059233Y-81181389D01*
X62012600Y-81067990D01*
X61803050Y-81067895D01*
X61700332Y-81068561D01*
X61638216Y-81072620D01*
X61606505Y-81082992D01*
X61595003Y-81102594D01*
X61593500Y-81127887D01*
X61609025Y-81202902D01*
X61650576Y-81302781D01*
X61710622Y-81414252D01*
X61781631Y-81524041D01*
X61856071Y-81618876D01*
X61894962Y-81659119D01*
X62074736Y-81794131D01*
X62283593Y-81894811D01*
X62510440Y-81957913D01*
X62744182Y-81980194D01*
X62939700Y-81964664D01*
X63132913Y-81913943D01*
X63320549Y-81830877D01*
X63490240Y-81722860D01*
X63629617Y-81597289D01*
X63696511Y-81512165D01*
X63777840Y-81377841D01*
X63833730Y-81252887D01*
X63868309Y-81122138D01*
X63885707Y-80970430D01*
X63890086Y-80801100D01*
X63888581Y-80660194D01*
X63882879Y-80556188D01*
X63871202Y-80475236D01*
X63851770Y-80403494D01*
X63832149Y-80350197D01*
X63726503Y-80150543D01*
X63580238Y-79974026D01*
X63401124Y-79828316D01*
X63196931Y-79721085D01*
X63193700Y-79719802D01*
X63037717Y-79675914D01*
X62853745Y-79651892D01*
X62660813Y-79648372D01*
X62477951Y-79665988D01*
X62477951Y-79665988D01*
G37*
X62477951Y-79665988D02*
X62363252Y-79692102D01*
X62142150Y-79782639D01*
X61950707Y-79909036D01*
X61793778Y-80066988D01*
X61676218Y-80252188D01*
X61641563Y-80332254D01*
X61607536Y-80425731D01*
X61595917Y-80484761D01*
X61613202Y-80517261D01*
X61665888Y-80531149D01*
X61760471Y-80534343D01*
X61807431Y-80534400D01*
X62021361Y-80534399D01*
X62052267Y-80440754D01*
X62118857Y-80314894D01*
X62225362Y-80203503D01*
X62361537Y-80113012D01*
X62517136Y-80049854D01*
X62681915Y-80020461D01*
X62723801Y-80019142D01*
X62906131Y-80041910D01*
X63076435Y-80106221D01*
X63225984Y-80206089D01*
X63346047Y-80335526D01*
X63427895Y-80488547D01*
X63434093Y-80506267D01*
X63467644Y-80664924D01*
X63473427Y-80840402D01*
X63452741Y-81014327D01*
X63406887Y-81168322D01*
X63383825Y-81216531D01*
X63278096Y-81367138D01*
X63143221Y-81479303D01*
X62995898Y-81550915D01*
X62817211Y-81593926D01*
X62637741Y-81593773D01*
X62465928Y-81553785D01*
X62310210Y-81477291D01*
X62179026Y-81367622D01*
X62080816Y-81228106D01*
X62059233Y-81181389D01*
X62012600Y-81067990D01*
X61803050Y-81067895D01*
X61700332Y-81068561D01*
X61638216Y-81072620D01*
X61606505Y-81082992D01*
X61595003Y-81102594D01*
X61593500Y-81127887D01*
X61609025Y-81202902D01*
X61650576Y-81302781D01*
X61710622Y-81414252D01*
X61781631Y-81524041D01*
X61856071Y-81618876D01*
X61894962Y-81659119D01*
X62074736Y-81794131D01*
X62283593Y-81894811D01*
X62510440Y-81957913D01*
X62744182Y-81980194D01*
X62939700Y-81964664D01*
X63132913Y-81913943D01*
X63320549Y-81830877D01*
X63490240Y-81722860D01*
X63629617Y-81597289D01*
X63696511Y-81512165D01*
X63777840Y-81377841D01*
X63833730Y-81252887D01*
X63868309Y-81122138D01*
X63885707Y-80970430D01*
X63890086Y-80801100D01*
X63888581Y-80660194D01*
X63882879Y-80556188D01*
X63871202Y-80475236D01*
X63851770Y-80403494D01*
X63832149Y-80350197D01*
X63726503Y-80150543D01*
X63580238Y-79974026D01*
X63401124Y-79828316D01*
X63196931Y-79721085D01*
X63193700Y-79719802D01*
X63037717Y-79675914D01*
X62853745Y-79651892D01*
X62660813Y-79648372D01*
X62477951Y-79665988D01*
G36*
X60095014Y-79651840D02*
G01*
X59841560Y-79687111D01*
X59613475Y-79763807D01*
X59413825Y-79879865D01*
X59245675Y-80033222D01*
X59112092Y-80221816D01*
X59047544Y-80356600D01*
X59015982Y-80470705D01*
X58995715Y-80618371D01*
X58986970Y-80783580D01*
X58989975Y-80950313D01*
X59004957Y-81102551D01*
X59032144Y-81224275D01*
X59035095Y-81232900D01*
X59131481Y-81430172D01*
X59270725Y-81606574D01*
X59447321Y-81756769D01*
X59655759Y-81875421D01*
X59730660Y-81906770D01*
X59862679Y-81943019D01*
X60025665Y-81966467D01*
X60201219Y-81976287D01*
X60370940Y-81971650D01*
X60516426Y-81951729D01*
X60549247Y-81943599D01*
X60763147Y-81861401D01*
X60957879Y-81743093D01*
X61124845Y-81595635D01*
X61255444Y-81425986D01*
X61306318Y-81330895D01*
X61344663Y-81228102D01*
X61378849Y-81103876D01*
X61398901Y-81000628D01*
X61406252Y-80859224D01*
X60981926Y-80859224D01*
X60967591Y-81006866D01*
X60947459Y-81088207D01*
X60894206Y-81200941D01*
X60813805Y-81316333D01*
X60719822Y-81417702D01*
X60625826Y-81488365D01*
X60619042Y-81492020D01*
X60422302Y-81568118D01*
X60217311Y-81598463D01*
X60013896Y-81582243D01*
X59901336Y-81551468D01*
X59724056Y-81464347D01*
X59579590Y-81340677D01*
X59472413Y-81184341D01*
X59467980Y-81175466D01*
X59414990Y-81019401D01*
X59393007Y-80842298D01*
X59402361Y-80663017D01*
X59443379Y-80500421D01*
X59455711Y-80470900D01*
X59553042Y-80311906D01*
X59680739Y-80187092D01*
X59831436Y-80096623D01*
X59997764Y-80040666D01*
X60172358Y-80019386D01*
X60347851Y-80032949D01*
X60516876Y-80081522D01*
X60672066Y-80165270D01*
X60806055Y-80284360D01*
X60911035Y-80438101D01*
X60952581Y-80555807D01*
X60976567Y-80702526D01*
X60981926Y-80859224D01*
X61406252Y-80859224D01*
X61411762Y-80753236D01*
X61379350Y-80518693D01*
X61304150Y-80302052D01*
X61188643Y-80108365D01*
X61035313Y-79942687D01*
X60846640Y-79810069D01*
X60802581Y-79786803D01*
X60628295Y-79712053D01*
X60456970Y-79667281D01*
X60271095Y-79649147D01*
X60095014Y-79651840D01*
X60095014Y-79651840D01*
G37*
X60095014Y-79651840D02*
X59841560Y-79687111D01*
X59613475Y-79763807D01*
X59413825Y-79879865D01*
X59245675Y-80033222D01*
X59112092Y-80221816D01*
X59047544Y-80356600D01*
X59015982Y-80470705D01*
X58995715Y-80618371D01*
X58986970Y-80783580D01*
X58989975Y-80950313D01*
X59004957Y-81102551D01*
X59032144Y-81224275D01*
X59035095Y-81232900D01*
X59131481Y-81430172D01*
X59270725Y-81606574D01*
X59447321Y-81756769D01*
X59655759Y-81875421D01*
X59730660Y-81906770D01*
X59862679Y-81943019D01*
X60025665Y-81966467D01*
X60201219Y-81976287D01*
X60370940Y-81971650D01*
X60516426Y-81951729D01*
X60549247Y-81943599D01*
X60763147Y-81861401D01*
X60957879Y-81743093D01*
X61124845Y-81595635D01*
X61255444Y-81425986D01*
X61306318Y-81330895D01*
X61344663Y-81228102D01*
X61378849Y-81103876D01*
X61398901Y-81000628D01*
X61406252Y-80859224D01*
X60981926Y-80859224D01*
X60967591Y-81006866D01*
X60947459Y-81088207D01*
X60894206Y-81200941D01*
X60813805Y-81316333D01*
X60719822Y-81417702D01*
X60625826Y-81488365D01*
X60619042Y-81492020D01*
X60422302Y-81568118D01*
X60217311Y-81598463D01*
X60013896Y-81582243D01*
X59901336Y-81551468D01*
X59724056Y-81464347D01*
X59579590Y-81340677D01*
X59472413Y-81184341D01*
X59467980Y-81175466D01*
X59414990Y-81019401D01*
X59393007Y-80842298D01*
X59402361Y-80663017D01*
X59443379Y-80500421D01*
X59455711Y-80470900D01*
X59553042Y-80311906D01*
X59680739Y-80187092D01*
X59831436Y-80096623D01*
X59997764Y-80040666D01*
X60172358Y-80019386D01*
X60347851Y-80032949D01*
X60516876Y-80081522D01*
X60672066Y-80165270D01*
X60806055Y-80284360D01*
X60911035Y-80438101D01*
X60952581Y-80555807D01*
X60976567Y-80702526D01*
X60981926Y-80859224D01*
X61406252Y-80859224D01*
X61411762Y-80753236D01*
X61379350Y-80518693D01*
X61304150Y-80302052D01*
X61188643Y-80108365D01*
X61035313Y-79942687D01*
X60846640Y-79810069D01*
X60802581Y-79786803D01*
X60628295Y-79712053D01*
X60456970Y-79667281D01*
X60271095Y-79649147D01*
X60095014Y-79651840D01*
G36*
X53303470Y-79668406D02*
G01*
X53081106Y-79734705D01*
X52882867Y-79840213D01*
X52712921Y-79980847D01*
X52575441Y-80152524D01*
X52474596Y-80351162D01*
X52414557Y-80572678D01*
X52398700Y-80768336D01*
X52398700Y-80915400D01*
X54303700Y-80915400D01*
X54303700Y-80988498D01*
X54280783Y-81111649D01*
X54217345Y-81239172D01*
X54121357Y-81360298D01*
X54000789Y-81464256D01*
X53911612Y-81518239D01*
X53775758Y-81569647D01*
X53615096Y-81594683D01*
X53602128Y-81595596D01*
X53419871Y-81593127D01*
X53266197Y-81556329D01*
X53128505Y-81480614D01*
X53013807Y-81381419D01*
X52877987Y-81245600D01*
X52674732Y-81245600D01*
X52574189Y-81246246D01*
X52514967Y-81250122D01*
X52487590Y-81260133D01*
X52482581Y-81279182D01*
X52488270Y-81302750D01*
X52526583Y-81388398D01*
X52591501Y-81491086D01*
X52671226Y-81594606D01*
X52753956Y-81682746D01*
X52784143Y-81709173D01*
X52983010Y-81838773D01*
X53205698Y-81928237D01*
X53442404Y-81975509D01*
X53683327Y-81978535D01*
X53894643Y-81942004D01*
X54115755Y-81857879D01*
X54310575Y-81734023D01*
X54474175Y-81575554D01*
X54601626Y-81387590D01*
X54687999Y-81175249D01*
X54707156Y-81098299D01*
X54737692Y-80848242D01*
X54723959Y-80608661D01*
X54711778Y-80559800D01*
X54302443Y-80559800D01*
X53579172Y-80559800D01*
X53366586Y-80559528D01*
X53199501Y-80558521D01*
X53072621Y-80556494D01*
X52980649Y-80553158D01*
X52918288Y-80548229D01*
X52880241Y-80541420D01*
X52861212Y-80532444D01*
X52855903Y-80521014D01*
X52855900Y-80520688D01*
X52876277Y-80438758D01*
X52930975Y-80343173D01*
X53010348Y-80245722D01*
X53104752Y-80158195D01*
X53204539Y-80092383D01*
X53207597Y-80090826D01*
X53346653Y-80043277D01*
X53510767Y-80022014D01*
X53681572Y-80026960D01*
X53840702Y-80058039D01*
X53932440Y-80093844D01*
X54078974Y-80195486D01*
X54197851Y-80336797D01*
X54278235Y-80496127D01*
X54302443Y-80559800D01*
X54711778Y-80559800D01*
X54668133Y-80384735D01*
X54572394Y-80181643D01*
X54438921Y-80004563D01*
X54269892Y-79858672D01*
X54157001Y-79790689D01*
X53962397Y-79706746D01*
X53765074Y-79659901D01*
X53545787Y-79645400D01*
X53303470Y-79668406D01*
X53303470Y-79668406D01*
G37*
X53303470Y-79668406D02*
X53081106Y-79734705D01*
X52882867Y-79840213D01*
X52712921Y-79980847D01*
X52575441Y-80152524D01*
X52474596Y-80351162D01*
X52414557Y-80572678D01*
X52398700Y-80768336D01*
X52398700Y-80915400D01*
X54303700Y-80915400D01*
X54303700Y-80988498D01*
X54280783Y-81111649D01*
X54217345Y-81239172D01*
X54121357Y-81360298D01*
X54000789Y-81464256D01*
X53911612Y-81518239D01*
X53775758Y-81569647D01*
X53615096Y-81594683D01*
X53602128Y-81595596D01*
X53419871Y-81593127D01*
X53266197Y-81556329D01*
X53128505Y-81480614D01*
X53013807Y-81381419D01*
X52877987Y-81245600D01*
X52674732Y-81245600D01*
X52574189Y-81246246D01*
X52514967Y-81250122D01*
X52487590Y-81260133D01*
X52482581Y-81279182D01*
X52488270Y-81302750D01*
X52526583Y-81388398D01*
X52591501Y-81491086D01*
X52671226Y-81594606D01*
X52753956Y-81682746D01*
X52784143Y-81709173D01*
X52983010Y-81838773D01*
X53205698Y-81928237D01*
X53442404Y-81975509D01*
X53683327Y-81978535D01*
X53894643Y-81942004D01*
X54115755Y-81857879D01*
X54310575Y-81734023D01*
X54474175Y-81575554D01*
X54601626Y-81387590D01*
X54687999Y-81175249D01*
X54707156Y-81098299D01*
X54737692Y-80848242D01*
X54723959Y-80608661D01*
X54711778Y-80559800D01*
X54302443Y-80559800D01*
X53579172Y-80559800D01*
X53366586Y-80559528D01*
X53199501Y-80558521D01*
X53072621Y-80556494D01*
X52980649Y-80553158D01*
X52918288Y-80548229D01*
X52880241Y-80541420D01*
X52861212Y-80532444D01*
X52855903Y-80521014D01*
X52855900Y-80520688D01*
X52876277Y-80438758D01*
X52930975Y-80343173D01*
X53010348Y-80245722D01*
X53104752Y-80158195D01*
X53204539Y-80092383D01*
X53207597Y-80090826D01*
X53346653Y-80043277D01*
X53510767Y-80022014D01*
X53681572Y-80026960D01*
X53840702Y-80058039D01*
X53932440Y-80093844D01*
X54078974Y-80195486D01*
X54197851Y-80336797D01*
X54278235Y-80496127D01*
X54302443Y-80559800D01*
X54711778Y-80559800D01*
X54668133Y-80384735D01*
X54572394Y-80181643D01*
X54438921Y-80004563D01*
X54269892Y-79858672D01*
X54157001Y-79790689D01*
X53962397Y-79706746D01*
X53765074Y-79659901D01*
X53545787Y-79645400D01*
X53303470Y-79668406D01*
G36*
X57497763Y-79635436D02*
G01*
X57351700Y-79651961D01*
X57351700Y-80022729D01*
X57485050Y-80009068D01*
X57669149Y-80014139D01*
X57838548Y-80065922D01*
X57987119Y-80161056D01*
X58108734Y-80296179D01*
X58157611Y-80377869D01*
X58240700Y-80538838D01*
X58240700Y-81931400D01*
X58672500Y-81931400D01*
X58672500Y-79668745D01*
X58462950Y-79676122D01*
X58253400Y-79683500D01*
X58228000Y-79905358D01*
X58177231Y-79848946D01*
X58059054Y-79752357D01*
X57907202Y-79681267D01*
X57733958Y-79639536D01*
X57551610Y-79631025D01*
X57497763Y-79635436D01*
X57497763Y-79635436D01*
G37*
X57497763Y-79635436D02*
X57351700Y-79651961D01*
X57351700Y-80022729D01*
X57485050Y-80009068D01*
X57669149Y-80014139D01*
X57838548Y-80065922D01*
X57987119Y-80161056D01*
X58108734Y-80296179D01*
X58157611Y-80377869D01*
X58240700Y-80538838D01*
X58240700Y-81931400D01*
X58672500Y-81931400D01*
X58672500Y-79668745D01*
X58462950Y-79676122D01*
X58253400Y-79683500D01*
X58228000Y-79905358D01*
X58177231Y-79848946D01*
X58059054Y-79752357D01*
X57907202Y-79681267D01*
X57733958Y-79639536D01*
X57551610Y-79631025D01*
X57497763Y-79635436D01*
G36*
X55835509Y-79658791D02*
G01*
X55741425Y-79662451D01*
X55671010Y-79671455D01*
X55610699Y-79688181D01*
X55546930Y-79715005D01*
X55492749Y-79741171D01*
X55321702Y-79849513D01*
X55188452Y-79988673D01*
X55091121Y-80161378D01*
X55027832Y-80370354D01*
X55016425Y-80432800D01*
X55009136Y-80503770D01*
X55002597Y-80616525D01*
X54997097Y-80762049D01*
X54992926Y-80931330D01*
X54990373Y-81115353D01*
X54989692Y-81264650D01*
X54989500Y-81931400D01*
X55421300Y-81931400D01*
X55421300Y-81212110D01*
X55421907Y-80983457D01*
X55423900Y-80799758D01*
X55427537Y-80655177D01*
X55433078Y-80543882D01*
X55440781Y-80460037D01*
X55450905Y-80397809D01*
X55458803Y-80366534D01*
X55523563Y-80228307D01*
X55624470Y-80125106D01*
X55759897Y-80057984D01*
X55928220Y-80027999D01*
X55982688Y-80026400D01*
X56145159Y-80036817D01*
X56275138Y-80071694D01*
X56387236Y-80136472D01*
X56467140Y-80206726D01*
X56521327Y-80263731D01*
X56564709Y-80319501D01*
X56598477Y-80380365D01*
X56623821Y-80452652D01*
X56641933Y-80542689D01*
X56654004Y-80656805D01*
X56661223Y-80801327D01*
X56664783Y-80982585D01*
X56665874Y-81206907D01*
X56665900Y-81262910D01*
X56665900Y-81931400D01*
X57097700Y-81931400D01*
X57097700Y-79670800D01*
X56665900Y-79670800D01*
X56665900Y-79928707D01*
X56583636Y-79846442D01*
X56497248Y-79770836D01*
X56406545Y-79717569D01*
X56300522Y-79683282D01*
X56168176Y-79664616D01*
X55998505Y-79658211D01*
X55966826Y-79658100D01*
X55835509Y-79658791D01*
X55835509Y-79658791D01*
G37*
X55835509Y-79658791D02*
X55741425Y-79662451D01*
X55671010Y-79671455D01*
X55610699Y-79688181D01*
X55546930Y-79715005D01*
X55492749Y-79741171D01*
X55321702Y-79849513D01*
X55188452Y-79988673D01*
X55091121Y-80161378D01*
X55027832Y-80370354D01*
X55016425Y-80432800D01*
X55009136Y-80503770D01*
X55002597Y-80616525D01*
X54997097Y-80762049D01*
X54992926Y-80931330D01*
X54990373Y-81115353D01*
X54989692Y-81264650D01*
X54989500Y-81931400D01*
X55421300Y-81931400D01*
X55421300Y-81212110D01*
X55421907Y-80983457D01*
X55423900Y-80799758D01*
X55427537Y-80655177D01*
X55433078Y-80543882D01*
X55440781Y-80460037D01*
X55450905Y-80397809D01*
X55458803Y-80366534D01*
X55523563Y-80228307D01*
X55624470Y-80125106D01*
X55759897Y-80057984D01*
X55928220Y-80027999D01*
X55982688Y-80026400D01*
X56145159Y-80036817D01*
X56275138Y-80071694D01*
X56387236Y-80136472D01*
X56467140Y-80206726D01*
X56521327Y-80263731D01*
X56564709Y-80319501D01*
X56598477Y-80380365D01*
X56623821Y-80452652D01*
X56641933Y-80542689D01*
X56654004Y-80656805D01*
X56661223Y-80801327D01*
X56664783Y-80982585D01*
X56665874Y-81206907D01*
X56665900Y-81262910D01*
X56665900Y-81931400D01*
X57097700Y-81931400D01*
X57097700Y-79670800D01*
X56665900Y-79670800D01*
X56665900Y-79928707D01*
X56583636Y-79846442D01*
X56497248Y-79770836D01*
X56406545Y-79717569D01*
X56300522Y-79683282D01*
X56168176Y-79664616D01*
X55998505Y-79658211D01*
X55966826Y-79658100D01*
X55835509Y-79658791D01*
D11*
X116306547Y-34497380D02*
X116782738Y-34497380D01*
X116782738Y-33497380D01*
X115973214Y-33973571D02*
X115639880Y-33973571D01*
X115497023Y-34497380D02*
X115973214Y-34497380D01*
X115973214Y-33497380D01*
X115497023Y-33497380D01*
X115068452Y-34497380D02*
X115068452Y-33497380D01*
X114830357Y-33497380D01*
X114687500Y-33545000D01*
X114592261Y-33640238D01*
X114544642Y-33735476D01*
X114497023Y-33925952D01*
X114497023Y-34068809D01*
X114544642Y-34259285D01*
X114592261Y-34354523D01*
X114687500Y-34449761D01*
X114830357Y-34497380D01*
X115068452Y-34497380D01*
X114163690Y-33497380D02*
X113544642Y-33497380D01*
X113877976Y-33878333D01*
X113735119Y-33878333D01*
X113639880Y-33925952D01*
X113592261Y-33973571D01*
X113544642Y-34068809D01*
X113544642Y-34306904D01*
X113592261Y-34402142D01*
X113639880Y-34449761D01*
X113735119Y-34497380D01*
X114020833Y-34497380D01*
X114116071Y-34449761D01*
X114163690Y-34402142D01*
X245502738Y-87432380D02*
X245978928Y-87432380D01*
X245978928Y-86432380D01*
X245169404Y-86908571D02*
X244836071Y-86908571D01*
X244693214Y-87432380D02*
X245169404Y-87432380D01*
X245169404Y-86432380D01*
X244693214Y-86432380D01*
X244264642Y-87432380D02*
X244264642Y-86432380D01*
X244026547Y-86432380D01*
X243883690Y-86480000D01*
X243788452Y-86575238D01*
X243740833Y-86670476D01*
X243693214Y-86860952D01*
X243693214Y-87003809D01*
X243740833Y-87194285D01*
X243788452Y-87289523D01*
X243883690Y-87384761D01*
X244026547Y-87432380D01*
X244264642Y-87432380D01*
X242788452Y-86432380D02*
X243264642Y-86432380D01*
X243312261Y-86908571D01*
X243264642Y-86860952D01*
X243169404Y-86813333D01*
X242931309Y-86813333D01*
X242836071Y-86860952D01*
X242788452Y-86908571D01*
X242740833Y-87003809D01*
X242740833Y-87241904D01*
X242788452Y-87337142D01*
X242836071Y-87384761D01*
X242931309Y-87432380D01*
X243169404Y-87432380D01*
X243264642Y-87384761D01*
X243312261Y-87337142D01*
X241883690Y-86432380D02*
X242074166Y-86432380D01*
X242169404Y-86480000D01*
X242217023Y-86527619D01*
X242312261Y-86670476D01*
X242359880Y-86860952D01*
X242359880Y-87241904D01*
X242312261Y-87337142D01*
X242264642Y-87384761D01*
X242169404Y-87432380D01*
X241978928Y-87432380D01*
X241883690Y-87384761D01*
X241836071Y-87337142D01*
X241788452Y-87241904D01*
X241788452Y-87003809D01*
X241836071Y-86908571D01*
X241883690Y-86860952D01*
X241978928Y-86813333D01*
X242169404Y-86813333D01*
X242264642Y-86860952D01*
X242312261Y-86908571D01*
X242359880Y-87003809D01*
X190717023Y-81884761D02*
X190574166Y-81932380D01*
X190336071Y-81932380D01*
X190240833Y-81884761D01*
X190193214Y-81837142D01*
X190145595Y-81741904D01*
X190145595Y-81646666D01*
X190193214Y-81551428D01*
X190240833Y-81503809D01*
X190336071Y-81456190D01*
X190526547Y-81408571D01*
X190621785Y-81360952D01*
X190669404Y-81313333D01*
X190717023Y-81218095D01*
X190717023Y-81122857D01*
X190669404Y-81027619D01*
X190621785Y-80980000D01*
X190526547Y-80932380D01*
X190288452Y-80932380D01*
X190145595Y-80980000D01*
X189812261Y-80932380D02*
X189574166Y-81932380D01*
X189383690Y-81218095D01*
X189193214Y-81932380D01*
X188955119Y-80932380D01*
X188145595Y-81265714D02*
X188145595Y-81932380D01*
X188383690Y-80884761D02*
X188621785Y-81599047D01*
X188002738Y-81599047D01*
X187193214Y-81265714D02*
X187193214Y-81932380D01*
X187431309Y-80884761D02*
X187669404Y-81599047D01*
X187050357Y-81599047D01*
X86102738Y-96144380D02*
X86578928Y-96144380D01*
X86578928Y-95144380D01*
X85769404Y-95620571D02*
X85436071Y-95620571D01*
X85293214Y-96144380D02*
X85769404Y-96144380D01*
X85769404Y-95144380D01*
X85293214Y-95144380D01*
X84864642Y-96144380D02*
X84864642Y-95144380D01*
X84626547Y-95144380D01*
X84483690Y-95192000D01*
X84388452Y-95287238D01*
X84340833Y-95382476D01*
X84293214Y-95572952D01*
X84293214Y-95715809D01*
X84340833Y-95906285D01*
X84388452Y-96001523D01*
X84483690Y-96096761D01*
X84626547Y-96144380D01*
X84864642Y-96144380D01*
X83388452Y-95144380D02*
X83864642Y-95144380D01*
X83912261Y-95620571D01*
X83864642Y-95572952D01*
X83769404Y-95525333D01*
X83531309Y-95525333D01*
X83436071Y-95572952D01*
X83388452Y-95620571D01*
X83340833Y-95715809D01*
X83340833Y-95953904D01*
X83388452Y-96049142D01*
X83436071Y-96096761D01*
X83531309Y-96144380D01*
X83769404Y-96144380D01*
X83864642Y-96096761D01*
X83912261Y-96049142D01*
X82436071Y-95144380D02*
X82912261Y-95144380D01*
X82959880Y-95620571D01*
X82912261Y-95572952D01*
X82817023Y-95525333D01*
X82578928Y-95525333D01*
X82483690Y-95572952D01*
X82436071Y-95620571D01*
X82388452Y-95715809D01*
X82388452Y-95953904D01*
X82436071Y-96049142D01*
X82483690Y-96096761D01*
X82578928Y-96144380D01*
X82817023Y-96144380D01*
X82912261Y-96096761D01*
X82959880Y-96049142D01*
X40236547Y-45867380D02*
X40712738Y-45867380D01*
X40712738Y-44867380D01*
X39903214Y-45343571D02*
X39569880Y-45343571D01*
X39427023Y-45867380D02*
X39903214Y-45867380D01*
X39903214Y-44867380D01*
X39427023Y-44867380D01*
X38998452Y-45867380D02*
X38998452Y-44867380D01*
X38760357Y-44867380D01*
X38617500Y-44915000D01*
X38522261Y-45010238D01*
X38474642Y-45105476D01*
X38427023Y-45295952D01*
X38427023Y-45438809D01*
X38474642Y-45629285D01*
X38522261Y-45724523D01*
X38617500Y-45819761D01*
X38760357Y-45867380D01*
X38998452Y-45867380D01*
X37474642Y-45867380D02*
X38046071Y-45867380D01*
X37760357Y-45867380D02*
X37760357Y-44867380D01*
X37855595Y-45010238D01*
X37950833Y-45105476D01*
X38046071Y-45153095D01*
X78286547Y-24747380D02*
X78762738Y-24747380D01*
X78762738Y-23747380D01*
X77953214Y-24223571D02*
X77619880Y-24223571D01*
X77477023Y-24747380D02*
X77953214Y-24747380D01*
X77953214Y-23747380D01*
X77477023Y-23747380D01*
X77048452Y-24747380D02*
X77048452Y-23747380D01*
X76810357Y-23747380D01*
X76667500Y-23795000D01*
X76572261Y-23890238D01*
X76524642Y-23985476D01*
X76477023Y-24175952D01*
X76477023Y-24318809D01*
X76524642Y-24509285D01*
X76572261Y-24604523D01*
X76667500Y-24699761D01*
X76810357Y-24747380D01*
X77048452Y-24747380D01*
X76096071Y-23842619D02*
X76048452Y-23795000D01*
X75953214Y-23747380D01*
X75715119Y-23747380D01*
X75619880Y-23795000D01*
X75572261Y-23842619D01*
X75524642Y-23937857D01*
X75524642Y-24033095D01*
X75572261Y-24175952D01*
X76143690Y-24747380D01*
X75524642Y-24747380D01*
X40356547Y-64897380D02*
X40832738Y-64897380D01*
X40832738Y-63897380D01*
X40023214Y-64373571D02*
X39689880Y-64373571D01*
X39547023Y-64897380D02*
X40023214Y-64897380D01*
X40023214Y-63897380D01*
X39547023Y-63897380D01*
X39118452Y-64897380D02*
X39118452Y-63897380D01*
X38880357Y-63897380D01*
X38737500Y-63945000D01*
X38642261Y-64040238D01*
X38594642Y-64135476D01*
X38547023Y-64325952D01*
X38547023Y-64468809D01*
X38594642Y-64659285D01*
X38642261Y-64754523D01*
X38737500Y-64849761D01*
X38880357Y-64897380D01*
X39118452Y-64897380D01*
X37689880Y-64230714D02*
X37689880Y-64897380D01*
X37927976Y-63849761D02*
X38166071Y-64564047D01*
X37547023Y-64564047D01*
X78356547Y-63852380D02*
X78832738Y-63852380D01*
X78832738Y-62852380D01*
X78023214Y-63328571D02*
X77689880Y-63328571D01*
X77547023Y-63852380D02*
X78023214Y-63852380D01*
X78023214Y-62852380D01*
X77547023Y-62852380D01*
X77118452Y-63852380D02*
X77118452Y-62852380D01*
X76880357Y-62852380D01*
X76737500Y-62900000D01*
X76642261Y-62995238D01*
X76594642Y-63090476D01*
X76547023Y-63280952D01*
X76547023Y-63423809D01*
X76594642Y-63614285D01*
X76642261Y-63709523D01*
X76737500Y-63804761D01*
X76880357Y-63852380D01*
X77118452Y-63852380D01*
X75642261Y-62852380D02*
X76118452Y-62852380D01*
X76166071Y-63328571D01*
X76118452Y-63280952D01*
X76023214Y-63233333D01*
X75785119Y-63233333D01*
X75689880Y-63280952D01*
X75642261Y-63328571D01*
X75594642Y-63423809D01*
X75594642Y-63661904D01*
X75642261Y-63757142D01*
X75689880Y-63804761D01*
X75785119Y-63852380D01*
X76023214Y-63852380D01*
X76118452Y-63804761D01*
X76166071Y-63757142D01*
X116176547Y-73512380D02*
X116652738Y-73512380D01*
X116652738Y-72512380D01*
X115843214Y-72988571D02*
X115509880Y-72988571D01*
X115367023Y-73512380D02*
X115843214Y-73512380D01*
X115843214Y-72512380D01*
X115367023Y-72512380D01*
X114938452Y-73512380D02*
X114938452Y-72512380D01*
X114700357Y-72512380D01*
X114557500Y-72560000D01*
X114462261Y-72655238D01*
X114414642Y-72750476D01*
X114367023Y-72940952D01*
X114367023Y-73083809D01*
X114414642Y-73274285D01*
X114462261Y-73369523D01*
X114557500Y-73464761D01*
X114700357Y-73512380D01*
X114938452Y-73512380D01*
X113509880Y-72512380D02*
X113700357Y-72512380D01*
X113795595Y-72560000D01*
X113843214Y-72607619D01*
X113938452Y-72750476D01*
X113986071Y-72940952D01*
X113986071Y-73321904D01*
X113938452Y-73417142D01*
X113890833Y-73464761D01*
X113795595Y-73512380D01*
X113605119Y-73512380D01*
X113509880Y-73464761D01*
X113462261Y-73417142D01*
X113414642Y-73321904D01*
X113414642Y-73083809D01*
X113462261Y-72988571D01*
X113509880Y-72940952D01*
X113605119Y-72893333D01*
X113795595Y-72893333D01*
X113890833Y-72940952D01*
X113938452Y-72988571D01*
X113986071Y-73083809D01*
X291152738Y-45742380D02*
X291628928Y-45742380D01*
X291628928Y-44742380D01*
X290819404Y-45218571D02*
X290486071Y-45218571D01*
X290343214Y-45742380D02*
X290819404Y-45742380D01*
X290819404Y-44742380D01*
X290343214Y-44742380D01*
X289914642Y-45742380D02*
X289914642Y-44742380D01*
X289676547Y-44742380D01*
X289533690Y-44790000D01*
X289438452Y-44885238D01*
X289390833Y-44980476D01*
X289343214Y-45170952D01*
X289343214Y-45313809D01*
X289390833Y-45504285D01*
X289438452Y-45599523D01*
X289533690Y-45694761D01*
X289676547Y-45742380D01*
X289914642Y-45742380D01*
X288962261Y-44837619D02*
X288914642Y-44790000D01*
X288819404Y-44742380D01*
X288581309Y-44742380D01*
X288486071Y-44790000D01*
X288438452Y-44837619D01*
X288390833Y-44932857D01*
X288390833Y-45028095D01*
X288438452Y-45170952D01*
X289009880Y-45742380D01*
X288390833Y-45742380D01*
X287819404Y-45170952D02*
X287914642Y-45123333D01*
X287962261Y-45075714D01*
X288009880Y-44980476D01*
X288009880Y-44932857D01*
X287962261Y-44837619D01*
X287914642Y-44790000D01*
X287819404Y-44742380D01*
X287628928Y-44742380D01*
X287533690Y-44790000D01*
X287486071Y-44837619D01*
X287438452Y-44932857D01*
X287438452Y-44980476D01*
X287486071Y-45075714D01*
X287533690Y-45123333D01*
X287628928Y-45170952D01*
X287819404Y-45170952D01*
X287914642Y-45218571D01*
X287962261Y-45266190D01*
X288009880Y-45361428D01*
X288009880Y-45551904D01*
X287962261Y-45647142D01*
X287914642Y-45694761D01*
X287819404Y-45742380D01*
X287628928Y-45742380D01*
X287533690Y-45694761D01*
X287486071Y-45647142D01*
X287438452Y-45551904D01*
X287438452Y-45361428D01*
X287486071Y-45266190D01*
X287533690Y-45218571D01*
X287628928Y-45170952D01*
X253152738Y-24617380D02*
X253628928Y-24617380D01*
X253628928Y-23617380D01*
X252819404Y-24093571D02*
X252486071Y-24093571D01*
X252343214Y-24617380D02*
X252819404Y-24617380D01*
X252819404Y-23617380D01*
X252343214Y-23617380D01*
X251914642Y-24617380D02*
X251914642Y-23617380D01*
X251676547Y-23617380D01*
X251533690Y-23665000D01*
X251438452Y-23760238D01*
X251390833Y-23855476D01*
X251343214Y-24045952D01*
X251343214Y-24188809D01*
X251390833Y-24379285D01*
X251438452Y-24474523D01*
X251533690Y-24569761D01*
X251676547Y-24617380D01*
X251914642Y-24617380D01*
X250962261Y-23712619D02*
X250914642Y-23665000D01*
X250819404Y-23617380D01*
X250581309Y-23617380D01*
X250486071Y-23665000D01*
X250438452Y-23712619D01*
X250390833Y-23807857D01*
X250390833Y-23903095D01*
X250438452Y-24045952D01*
X251009880Y-24617380D01*
X250390833Y-24617380D01*
X249914642Y-24617380D02*
X249724166Y-24617380D01*
X249628928Y-24569761D01*
X249581309Y-24522142D01*
X249486071Y-24379285D01*
X249438452Y-24188809D01*
X249438452Y-23807857D01*
X249486071Y-23712619D01*
X249533690Y-23665000D01*
X249628928Y-23617380D01*
X249819404Y-23617380D01*
X249914642Y-23665000D01*
X249962261Y-23712619D01*
X250009880Y-23807857D01*
X250009880Y-24045952D01*
X249962261Y-24141190D01*
X249914642Y-24188809D01*
X249819404Y-24236428D01*
X249628928Y-24236428D01*
X249533690Y-24188809D01*
X249486071Y-24141190D01*
X249438452Y-24045952D01*
X215152738Y-34367380D02*
X215628928Y-34367380D01*
X215628928Y-33367380D01*
X214819404Y-33843571D02*
X214486071Y-33843571D01*
X214343214Y-34367380D02*
X214819404Y-34367380D01*
X214819404Y-33367380D01*
X214343214Y-33367380D01*
X213914642Y-34367380D02*
X213914642Y-33367380D01*
X213676547Y-33367380D01*
X213533690Y-33415000D01*
X213438452Y-33510238D01*
X213390833Y-33605476D01*
X213343214Y-33795952D01*
X213343214Y-33938809D01*
X213390833Y-34129285D01*
X213438452Y-34224523D01*
X213533690Y-34319761D01*
X213676547Y-34367380D01*
X213914642Y-34367380D01*
X213009880Y-33367380D02*
X212390833Y-33367380D01*
X212724166Y-33748333D01*
X212581309Y-33748333D01*
X212486071Y-33795952D01*
X212438452Y-33843571D01*
X212390833Y-33938809D01*
X212390833Y-34176904D01*
X212438452Y-34272142D01*
X212486071Y-34319761D01*
X212581309Y-34367380D01*
X212867023Y-34367380D01*
X212962261Y-34319761D01*
X213009880Y-34272142D01*
X211771785Y-33367380D02*
X211676547Y-33367380D01*
X211581309Y-33415000D01*
X211533690Y-33462619D01*
X211486071Y-33557857D01*
X211438452Y-33748333D01*
X211438452Y-33986428D01*
X211486071Y-34176904D01*
X211533690Y-34272142D01*
X211581309Y-34319761D01*
X211676547Y-34367380D01*
X211771785Y-34367380D01*
X211867023Y-34319761D01*
X211914642Y-34272142D01*
X211962261Y-34176904D01*
X212009880Y-33986428D01*
X212009880Y-33748333D01*
X211962261Y-33557857D01*
X211914642Y-33462619D01*
X211867023Y-33415000D01*
X211771785Y-33367380D01*
X291152738Y-64742380D02*
X291628928Y-64742380D01*
X291628928Y-63742380D01*
X290819404Y-64218571D02*
X290486071Y-64218571D01*
X290343214Y-64742380D02*
X290819404Y-64742380D01*
X290819404Y-63742380D01*
X290343214Y-63742380D01*
X289914642Y-64742380D02*
X289914642Y-63742380D01*
X289676547Y-63742380D01*
X289533690Y-63790000D01*
X289438452Y-63885238D01*
X289390833Y-63980476D01*
X289343214Y-64170952D01*
X289343214Y-64313809D01*
X289390833Y-64504285D01*
X289438452Y-64599523D01*
X289533690Y-64694761D01*
X289676547Y-64742380D01*
X289914642Y-64742380D01*
X289009880Y-63742380D02*
X288390833Y-63742380D01*
X288724166Y-64123333D01*
X288581309Y-64123333D01*
X288486071Y-64170952D01*
X288438452Y-64218571D01*
X288390833Y-64313809D01*
X288390833Y-64551904D01*
X288438452Y-64647142D01*
X288486071Y-64694761D01*
X288581309Y-64742380D01*
X288867023Y-64742380D01*
X288962261Y-64694761D01*
X289009880Y-64647142D01*
X287438452Y-64742380D02*
X288009880Y-64742380D01*
X287724166Y-64742380D02*
X287724166Y-63742380D01*
X287819404Y-63885238D01*
X287914642Y-63980476D01*
X288009880Y-64028095D01*
X253152738Y-76617380D02*
X253628928Y-76617380D01*
X253628928Y-75617380D01*
X252819404Y-76093571D02*
X252486071Y-76093571D01*
X252343214Y-76617380D02*
X252819404Y-76617380D01*
X252819404Y-75617380D01*
X252343214Y-75617380D01*
X251914642Y-76617380D02*
X251914642Y-75617380D01*
X251676547Y-75617380D01*
X251533690Y-75665000D01*
X251438452Y-75760238D01*
X251390833Y-75855476D01*
X251343214Y-76045952D01*
X251343214Y-76188809D01*
X251390833Y-76379285D01*
X251438452Y-76474523D01*
X251533690Y-76569761D01*
X251676547Y-76617380D01*
X251914642Y-76617380D01*
X251009880Y-75617380D02*
X250390833Y-75617380D01*
X250724166Y-75998333D01*
X250581309Y-75998333D01*
X250486071Y-76045952D01*
X250438452Y-76093571D01*
X250390833Y-76188809D01*
X250390833Y-76426904D01*
X250438452Y-76522142D01*
X250486071Y-76569761D01*
X250581309Y-76617380D01*
X250867023Y-76617380D01*
X250962261Y-76569761D01*
X251009880Y-76522142D01*
X250009880Y-75712619D02*
X249962261Y-75665000D01*
X249867023Y-75617380D01*
X249628928Y-75617380D01*
X249533690Y-75665000D01*
X249486071Y-75712619D01*
X249438452Y-75807857D01*
X249438452Y-75903095D01*
X249486071Y-76045952D01*
X250057500Y-76617380D01*
X249438452Y-76617380D01*
X215272738Y-63669880D02*
X215748928Y-63669880D01*
X215748928Y-62669880D01*
X214939404Y-63146071D02*
X214606071Y-63146071D01*
X214463214Y-63669880D02*
X214939404Y-63669880D01*
X214939404Y-62669880D01*
X214463214Y-62669880D01*
X214034642Y-63669880D02*
X214034642Y-62669880D01*
X213796547Y-62669880D01*
X213653690Y-62717500D01*
X213558452Y-62812738D01*
X213510833Y-62907976D01*
X213463214Y-63098452D01*
X213463214Y-63241309D01*
X213510833Y-63431785D01*
X213558452Y-63527023D01*
X213653690Y-63622261D01*
X213796547Y-63669880D01*
X214034642Y-63669880D01*
X213129880Y-62669880D02*
X212510833Y-62669880D01*
X212844166Y-63050833D01*
X212701309Y-63050833D01*
X212606071Y-63098452D01*
X212558452Y-63146071D01*
X212510833Y-63241309D01*
X212510833Y-63479404D01*
X212558452Y-63574642D01*
X212606071Y-63622261D01*
X212701309Y-63669880D01*
X212987023Y-63669880D01*
X213082261Y-63622261D01*
X213129880Y-63574642D01*
X212177500Y-62669880D02*
X211558452Y-62669880D01*
X211891785Y-63050833D01*
X211748928Y-63050833D01*
X211653690Y-63098452D01*
X211606071Y-63146071D01*
X211558452Y-63241309D01*
X211558452Y-63479404D01*
X211606071Y-63574642D01*
X211653690Y-63622261D01*
X211748928Y-63669880D01*
X212034642Y-63669880D01*
X212129880Y-63622261D01*
X212177500Y-63574642D01*
X214912738Y-81432380D02*
X215388928Y-81432380D01*
X215388928Y-80432380D01*
X214579404Y-80908571D02*
X214246071Y-80908571D01*
X214103214Y-81432380D02*
X214579404Y-81432380D01*
X214579404Y-80432380D01*
X214103214Y-80432380D01*
X213674642Y-81432380D02*
X213674642Y-80432380D01*
X213436547Y-80432380D01*
X213293690Y-80480000D01*
X213198452Y-80575238D01*
X213150833Y-80670476D01*
X213103214Y-80860952D01*
X213103214Y-81003809D01*
X213150833Y-81194285D01*
X213198452Y-81289523D01*
X213293690Y-81384761D01*
X213436547Y-81432380D01*
X213674642Y-81432380D01*
X212769880Y-80432380D02*
X212150833Y-80432380D01*
X212484166Y-80813333D01*
X212341309Y-80813333D01*
X212246071Y-80860952D01*
X212198452Y-80908571D01*
X212150833Y-81003809D01*
X212150833Y-81241904D01*
X212198452Y-81337142D01*
X212246071Y-81384761D01*
X212341309Y-81432380D01*
X212627023Y-81432380D01*
X212722261Y-81384761D01*
X212769880Y-81337142D01*
X211817500Y-80432380D02*
X211198452Y-80432380D01*
X211531785Y-80813333D01*
X211388928Y-80813333D01*
X211293690Y-80860952D01*
X211246071Y-80908571D01*
X211198452Y-81003809D01*
X211198452Y-81241904D01*
X211246071Y-81337142D01*
X211293690Y-81384761D01*
X211388928Y-81432380D01*
X211674642Y-81432380D01*
X211769880Y-81384761D01*
X211817500Y-81337142D01*
X137228966Y-101574140D02*
X137467061Y-101161747D01*
X136601036Y-100661747D01*
X136608667Y-101600911D02*
X136442000Y-101889586D01*
X136824204Y-102275208D02*
X137062299Y-101862815D01*
X136196274Y-101362815D01*
X135958179Y-101775208D01*
X136609918Y-102646362D02*
X135743893Y-102146362D01*
X135624845Y-102352559D01*
X135594656Y-102500086D01*
X135629516Y-102630184D01*
X135688185Y-102719042D01*
X135829332Y-102855520D01*
X135953050Y-102926948D01*
X136141817Y-102980947D01*
X136248105Y-102987327D01*
X136378203Y-102952467D01*
X136490871Y-102852559D01*
X136609918Y-102646362D01*
X135350181Y-103018767D02*
X135285132Y-103036197D01*
X135196274Y-103094866D01*
X135077226Y-103301063D01*
X135070847Y-103407351D01*
X135088276Y-103472400D01*
X135146945Y-103561258D01*
X135229424Y-103608877D01*
X135376951Y-103639066D01*
X136157537Y-103429909D01*
X135848014Y-103966020D01*
X134553417Y-104208327D02*
X134648655Y-104043370D01*
X134737513Y-103984701D01*
X134802562Y-103967271D01*
X134973899Y-103956221D01*
X135162666Y-104010220D01*
X135492580Y-104200696D01*
X135551249Y-104289555D01*
X135568679Y-104354603D01*
X135562299Y-104460892D01*
X135467061Y-104625849D01*
X135378203Y-104684518D01*
X135313154Y-104701948D01*
X135206866Y-104695568D01*
X135000669Y-104576520D01*
X134942000Y-104487662D01*
X134924570Y-104422613D01*
X134930950Y-104316325D01*
X135026188Y-104151368D01*
X135115047Y-104092699D01*
X135180095Y-104075269D01*
X135286384Y-104081649D01*
X21196547Y-43889880D02*
X21672738Y-43889880D01*
X21672738Y-42889880D01*
X20863214Y-43366071D02*
X20529880Y-43366071D01*
X20387023Y-43889880D02*
X20863214Y-43889880D01*
X20863214Y-42889880D01*
X20387023Y-42889880D01*
X19958452Y-43889880D02*
X19958452Y-42889880D01*
X19720357Y-42889880D01*
X19577500Y-42937500D01*
X19482261Y-43032738D01*
X19434642Y-43127976D01*
X19387023Y-43318452D01*
X19387023Y-43461309D01*
X19434642Y-43651785D01*
X19482261Y-43747023D01*
X19577500Y-43842261D01*
X19720357Y-43889880D01*
X19958452Y-43889880D01*
X19053690Y-42889880D02*
X18387023Y-42889880D01*
X18815595Y-43889880D01*
X33766547Y-41819880D02*
X34242738Y-41819880D01*
X34242738Y-40819880D01*
X33433214Y-41296071D02*
X33099880Y-41296071D01*
X32957023Y-41819880D02*
X33433214Y-41819880D01*
X33433214Y-40819880D01*
X32957023Y-40819880D01*
X32528452Y-41819880D02*
X32528452Y-40819880D01*
X32290357Y-40819880D01*
X32147500Y-40867500D01*
X32052261Y-40962738D01*
X32004642Y-41057976D01*
X31957023Y-41248452D01*
X31957023Y-41391309D01*
X32004642Y-41581785D01*
X32052261Y-41677023D01*
X32147500Y-41772261D01*
X32290357Y-41819880D01*
X32528452Y-41819880D01*
X31385595Y-41248452D02*
X31480833Y-41200833D01*
X31528452Y-41153214D01*
X31576071Y-41057976D01*
X31576071Y-41010357D01*
X31528452Y-40915119D01*
X31480833Y-40867500D01*
X31385595Y-40819880D01*
X31195119Y-40819880D01*
X31099880Y-40867500D01*
X31052261Y-40915119D01*
X31004642Y-41010357D01*
X31004642Y-41057976D01*
X31052261Y-41153214D01*
X31099880Y-41200833D01*
X31195119Y-41248452D01*
X31385595Y-41248452D01*
X31480833Y-41296071D01*
X31528452Y-41343690D01*
X31576071Y-41438928D01*
X31576071Y-41629404D01*
X31528452Y-41724642D01*
X31480833Y-41772261D01*
X31385595Y-41819880D01*
X31195119Y-41819880D01*
X31099880Y-41772261D01*
X31052261Y-41724642D01*
X31004642Y-41629404D01*
X31004642Y-41438928D01*
X31052261Y-41343690D01*
X31099880Y-41296071D01*
X31195119Y-41248452D01*
X59196547Y-30139880D02*
X59672738Y-30139880D01*
X59672738Y-29139880D01*
X58863214Y-29616071D02*
X58529880Y-29616071D01*
X58387023Y-30139880D02*
X58863214Y-30139880D01*
X58863214Y-29139880D01*
X58387023Y-29139880D01*
X57958452Y-30139880D02*
X57958452Y-29139880D01*
X57720357Y-29139880D01*
X57577500Y-29187500D01*
X57482261Y-29282738D01*
X57434642Y-29377976D01*
X57387023Y-29568452D01*
X57387023Y-29711309D01*
X57434642Y-29901785D01*
X57482261Y-29997023D01*
X57577500Y-30092261D01*
X57720357Y-30139880D01*
X57958452Y-30139880D01*
X56910833Y-30139880D02*
X56720357Y-30139880D01*
X56625119Y-30092261D01*
X56577500Y-30044642D01*
X56482261Y-29901785D01*
X56434642Y-29711309D01*
X56434642Y-29330357D01*
X56482261Y-29235119D01*
X56529880Y-29187500D01*
X56625119Y-29139880D01*
X56815595Y-29139880D01*
X56910833Y-29187500D01*
X56958452Y-29235119D01*
X57006071Y-29330357D01*
X57006071Y-29568452D01*
X56958452Y-29663690D01*
X56910833Y-29711309D01*
X56815595Y-29758928D01*
X56625119Y-29758928D01*
X56529880Y-29711309D01*
X56482261Y-29663690D01*
X56434642Y-29568452D01*
X72242738Y-20694880D02*
X72718928Y-20694880D01*
X72718928Y-19694880D01*
X71909404Y-20171071D02*
X71576071Y-20171071D01*
X71433214Y-20694880D02*
X71909404Y-20694880D01*
X71909404Y-19694880D01*
X71433214Y-19694880D01*
X71004642Y-20694880D02*
X71004642Y-19694880D01*
X70766547Y-19694880D01*
X70623690Y-19742500D01*
X70528452Y-19837738D01*
X70480833Y-19932976D01*
X70433214Y-20123452D01*
X70433214Y-20266309D01*
X70480833Y-20456785D01*
X70528452Y-20552023D01*
X70623690Y-20647261D01*
X70766547Y-20694880D01*
X71004642Y-20694880D01*
X69480833Y-20694880D02*
X70052261Y-20694880D01*
X69766547Y-20694880D02*
X69766547Y-19694880D01*
X69861785Y-19837738D01*
X69957023Y-19932976D01*
X70052261Y-19980595D01*
X68861785Y-19694880D02*
X68766547Y-19694880D01*
X68671309Y-19742500D01*
X68623690Y-19790119D01*
X68576071Y-19885357D01*
X68528452Y-20075833D01*
X68528452Y-20313928D01*
X68576071Y-20504404D01*
X68623690Y-20599642D01*
X68671309Y-20647261D01*
X68766547Y-20694880D01*
X68861785Y-20694880D01*
X68957023Y-20647261D01*
X69004642Y-20599642D01*
X69052261Y-20504404D01*
X69099880Y-20313928D01*
X69099880Y-20075833D01*
X69052261Y-19885357D01*
X69004642Y-19790119D01*
X68957023Y-19742500D01*
X68861785Y-19694880D01*
X97672738Y-27639880D02*
X98148928Y-27639880D01*
X98148928Y-26639880D01*
X97339404Y-27116071D02*
X97006071Y-27116071D01*
X96863214Y-27639880D02*
X97339404Y-27639880D01*
X97339404Y-26639880D01*
X96863214Y-26639880D01*
X96434642Y-27639880D02*
X96434642Y-26639880D01*
X96196547Y-26639880D01*
X96053690Y-26687500D01*
X95958452Y-26782738D01*
X95910833Y-26877976D01*
X95863214Y-27068452D01*
X95863214Y-27211309D01*
X95910833Y-27401785D01*
X95958452Y-27497023D01*
X96053690Y-27592261D01*
X96196547Y-27639880D01*
X96434642Y-27639880D01*
X94910833Y-27639880D02*
X95482261Y-27639880D01*
X95196547Y-27639880D02*
X95196547Y-26639880D01*
X95291785Y-26782738D01*
X95387023Y-26877976D01*
X95482261Y-26925595D01*
X93958452Y-27639880D02*
X94529880Y-27639880D01*
X94244166Y-27639880D02*
X94244166Y-26639880D01*
X94339404Y-26782738D01*
X94434642Y-26877976D01*
X94529880Y-26925595D01*
X110242738Y-30444880D02*
X110718928Y-30444880D01*
X110718928Y-29444880D01*
X109909404Y-29921071D02*
X109576071Y-29921071D01*
X109433214Y-30444880D02*
X109909404Y-30444880D01*
X109909404Y-29444880D01*
X109433214Y-29444880D01*
X109004642Y-30444880D02*
X109004642Y-29444880D01*
X108766547Y-29444880D01*
X108623690Y-29492500D01*
X108528452Y-29587738D01*
X108480833Y-29682976D01*
X108433214Y-29873452D01*
X108433214Y-30016309D01*
X108480833Y-30206785D01*
X108528452Y-30302023D01*
X108623690Y-30397261D01*
X108766547Y-30444880D01*
X109004642Y-30444880D01*
X107480833Y-30444880D02*
X108052261Y-30444880D01*
X107766547Y-30444880D02*
X107766547Y-29444880D01*
X107861785Y-29587738D01*
X107957023Y-29682976D01*
X108052261Y-29730595D01*
X107099880Y-29540119D02*
X107052261Y-29492500D01*
X106957023Y-29444880D01*
X106718928Y-29444880D01*
X106623690Y-29492500D01*
X106576071Y-29540119D01*
X106528452Y-29635357D01*
X106528452Y-29730595D01*
X106576071Y-29873452D01*
X107147500Y-30444880D01*
X106528452Y-30444880D01*
X21672738Y-62889880D02*
X22148928Y-62889880D01*
X22148928Y-61889880D01*
X21339404Y-62366071D02*
X21006071Y-62366071D01*
X20863214Y-62889880D02*
X21339404Y-62889880D01*
X21339404Y-61889880D01*
X20863214Y-61889880D01*
X20434642Y-62889880D02*
X20434642Y-61889880D01*
X20196547Y-61889880D01*
X20053690Y-61937500D01*
X19958452Y-62032738D01*
X19910833Y-62127976D01*
X19863214Y-62318452D01*
X19863214Y-62461309D01*
X19910833Y-62651785D01*
X19958452Y-62747023D01*
X20053690Y-62842261D01*
X20196547Y-62889880D01*
X20434642Y-62889880D01*
X18910833Y-62889880D02*
X19482261Y-62889880D01*
X19196547Y-62889880D02*
X19196547Y-61889880D01*
X19291785Y-62032738D01*
X19387023Y-62127976D01*
X19482261Y-62175595D01*
X18577500Y-61889880D02*
X17958452Y-61889880D01*
X18291785Y-62270833D01*
X18148928Y-62270833D01*
X18053690Y-62318452D01*
X18006071Y-62366071D01*
X17958452Y-62461309D01*
X17958452Y-62699404D01*
X18006071Y-62794642D01*
X18053690Y-62842261D01*
X18148928Y-62889880D01*
X18434642Y-62889880D01*
X18529880Y-62842261D01*
X18577500Y-62794642D01*
X34242738Y-60819880D02*
X34718928Y-60819880D01*
X34718928Y-59819880D01*
X33909404Y-60296071D02*
X33576071Y-60296071D01*
X33433214Y-60819880D02*
X33909404Y-60819880D01*
X33909404Y-59819880D01*
X33433214Y-59819880D01*
X33004642Y-60819880D02*
X33004642Y-59819880D01*
X32766547Y-59819880D01*
X32623690Y-59867500D01*
X32528452Y-59962738D01*
X32480833Y-60057976D01*
X32433214Y-60248452D01*
X32433214Y-60391309D01*
X32480833Y-60581785D01*
X32528452Y-60677023D01*
X32623690Y-60772261D01*
X32766547Y-60819880D01*
X33004642Y-60819880D01*
X31480833Y-60819880D02*
X32052261Y-60819880D01*
X31766547Y-60819880D02*
X31766547Y-59819880D01*
X31861785Y-59962738D01*
X31957023Y-60057976D01*
X32052261Y-60105595D01*
X30623690Y-60153214D02*
X30623690Y-60819880D01*
X30861785Y-59772261D02*
X31099880Y-60486547D01*
X30480833Y-60486547D01*
X59672738Y-49139880D02*
X60148928Y-49139880D01*
X60148928Y-48139880D01*
X59339404Y-48616071D02*
X59006071Y-48616071D01*
X58863214Y-49139880D02*
X59339404Y-49139880D01*
X59339404Y-48139880D01*
X58863214Y-48139880D01*
X58434642Y-49139880D02*
X58434642Y-48139880D01*
X58196547Y-48139880D01*
X58053690Y-48187500D01*
X57958452Y-48282738D01*
X57910833Y-48377976D01*
X57863214Y-48568452D01*
X57863214Y-48711309D01*
X57910833Y-48901785D01*
X57958452Y-48997023D01*
X58053690Y-49092261D01*
X58196547Y-49139880D01*
X58434642Y-49139880D01*
X56910833Y-49139880D02*
X57482261Y-49139880D01*
X57196547Y-49139880D02*
X57196547Y-48139880D01*
X57291785Y-48282738D01*
X57387023Y-48377976D01*
X57482261Y-48425595D01*
X56006071Y-48139880D02*
X56482261Y-48139880D01*
X56529880Y-48616071D01*
X56482261Y-48568452D01*
X56387023Y-48520833D01*
X56148928Y-48520833D01*
X56053690Y-48568452D01*
X56006071Y-48616071D01*
X55958452Y-48711309D01*
X55958452Y-48949404D01*
X56006071Y-49044642D01*
X56053690Y-49092261D01*
X56148928Y-49139880D01*
X56387023Y-49139880D01*
X56482261Y-49092261D01*
X56529880Y-49044642D01*
X78672738Y-41764880D02*
X79148928Y-41764880D01*
X79148928Y-40764880D01*
X78339404Y-41241071D02*
X78006071Y-41241071D01*
X77863214Y-41764880D02*
X78339404Y-41764880D01*
X78339404Y-40764880D01*
X77863214Y-40764880D01*
X77434642Y-41764880D02*
X77434642Y-40764880D01*
X77196547Y-40764880D01*
X77053690Y-40812500D01*
X76958452Y-40907738D01*
X76910833Y-41002976D01*
X76863214Y-41193452D01*
X76863214Y-41336309D01*
X76910833Y-41526785D01*
X76958452Y-41622023D01*
X77053690Y-41717261D01*
X77196547Y-41764880D01*
X77434642Y-41764880D01*
X75910833Y-41764880D02*
X76482261Y-41764880D01*
X76196547Y-41764880D02*
X76196547Y-40764880D01*
X76291785Y-40907738D01*
X76387023Y-41002976D01*
X76482261Y-41050595D01*
X75053690Y-40764880D02*
X75244166Y-40764880D01*
X75339404Y-40812500D01*
X75387023Y-40860119D01*
X75482261Y-41002976D01*
X75529880Y-41193452D01*
X75529880Y-41574404D01*
X75482261Y-41669642D01*
X75434642Y-41717261D01*
X75339404Y-41764880D01*
X75148928Y-41764880D01*
X75053690Y-41717261D01*
X75006071Y-41669642D01*
X74958452Y-41574404D01*
X74958452Y-41336309D01*
X75006071Y-41241071D01*
X75053690Y-41193452D01*
X75148928Y-41145833D01*
X75339404Y-41145833D01*
X75434642Y-41193452D01*
X75482261Y-41241071D01*
X75529880Y-41336309D01*
X97672738Y-46639880D02*
X98148928Y-46639880D01*
X98148928Y-45639880D01*
X97339404Y-46116071D02*
X97006071Y-46116071D01*
X96863214Y-46639880D02*
X97339404Y-46639880D01*
X97339404Y-45639880D01*
X96863214Y-45639880D01*
X96434642Y-46639880D02*
X96434642Y-45639880D01*
X96196547Y-45639880D01*
X96053690Y-45687500D01*
X95958452Y-45782738D01*
X95910833Y-45877976D01*
X95863214Y-46068452D01*
X95863214Y-46211309D01*
X95910833Y-46401785D01*
X95958452Y-46497023D01*
X96053690Y-46592261D01*
X96196547Y-46639880D01*
X96434642Y-46639880D01*
X94910833Y-46639880D02*
X95482261Y-46639880D01*
X95196547Y-46639880D02*
X95196547Y-45639880D01*
X95291785Y-45782738D01*
X95387023Y-45877976D01*
X95482261Y-45925595D01*
X94577500Y-45639880D02*
X93910833Y-45639880D01*
X94339404Y-46639880D01*
X116672738Y-51514880D02*
X117148928Y-51514880D01*
X117148928Y-50514880D01*
X116339404Y-50991071D02*
X116006071Y-50991071D01*
X115863214Y-51514880D02*
X116339404Y-51514880D01*
X116339404Y-50514880D01*
X115863214Y-50514880D01*
X115434642Y-51514880D02*
X115434642Y-50514880D01*
X115196547Y-50514880D01*
X115053690Y-50562500D01*
X114958452Y-50657738D01*
X114910833Y-50752976D01*
X114863214Y-50943452D01*
X114863214Y-51086309D01*
X114910833Y-51276785D01*
X114958452Y-51372023D01*
X115053690Y-51467261D01*
X115196547Y-51514880D01*
X115434642Y-51514880D01*
X113910833Y-51514880D02*
X114482261Y-51514880D01*
X114196547Y-51514880D02*
X114196547Y-50514880D01*
X114291785Y-50657738D01*
X114387023Y-50752976D01*
X114482261Y-50800595D01*
X113339404Y-50943452D02*
X113434642Y-50895833D01*
X113482261Y-50848214D01*
X113529880Y-50752976D01*
X113529880Y-50705357D01*
X113482261Y-50610119D01*
X113434642Y-50562500D01*
X113339404Y-50514880D01*
X113148928Y-50514880D01*
X113053690Y-50562500D01*
X113006071Y-50610119D01*
X112958452Y-50705357D01*
X112958452Y-50752976D01*
X113006071Y-50848214D01*
X113053690Y-50895833D01*
X113148928Y-50943452D01*
X113339404Y-50943452D01*
X113434642Y-50991071D01*
X113482261Y-51038690D01*
X113529880Y-51133928D01*
X113529880Y-51324404D01*
X113482261Y-51419642D01*
X113434642Y-51467261D01*
X113339404Y-51514880D01*
X113148928Y-51514880D01*
X113053690Y-51467261D01*
X113006071Y-51419642D01*
X112958452Y-51324404D01*
X112958452Y-51133928D01*
X113006071Y-51038690D01*
X113053690Y-50991071D01*
X113148928Y-50943452D01*
X21672738Y-81889880D02*
X22148928Y-81889880D01*
X22148928Y-80889880D01*
X21339404Y-81366071D02*
X21006071Y-81366071D01*
X20863214Y-81889880D02*
X21339404Y-81889880D01*
X21339404Y-80889880D01*
X20863214Y-80889880D01*
X20434642Y-81889880D02*
X20434642Y-80889880D01*
X20196547Y-80889880D01*
X20053690Y-80937500D01*
X19958452Y-81032738D01*
X19910833Y-81127976D01*
X19863214Y-81318452D01*
X19863214Y-81461309D01*
X19910833Y-81651785D01*
X19958452Y-81747023D01*
X20053690Y-81842261D01*
X20196547Y-81889880D01*
X20434642Y-81889880D01*
X18910833Y-81889880D02*
X19482261Y-81889880D01*
X19196547Y-81889880D02*
X19196547Y-80889880D01*
X19291785Y-81032738D01*
X19387023Y-81127976D01*
X19482261Y-81175595D01*
X18434642Y-81889880D02*
X18244166Y-81889880D01*
X18148928Y-81842261D01*
X18101309Y-81794642D01*
X18006071Y-81651785D01*
X17958452Y-81461309D01*
X17958452Y-81080357D01*
X18006071Y-80985119D01*
X18053690Y-80937500D01*
X18148928Y-80889880D01*
X18339404Y-80889880D01*
X18434642Y-80937500D01*
X18482261Y-80985119D01*
X18529880Y-81080357D01*
X18529880Y-81318452D01*
X18482261Y-81413690D01*
X18434642Y-81461309D01*
X18339404Y-81508928D01*
X18148928Y-81508928D01*
X18053690Y-81461309D01*
X18006071Y-81413690D01*
X17958452Y-81318452D01*
X40672738Y-81889880D02*
X41148928Y-81889880D01*
X41148928Y-80889880D01*
X40339404Y-81366071D02*
X40006071Y-81366071D01*
X39863214Y-81889880D02*
X40339404Y-81889880D01*
X40339404Y-80889880D01*
X39863214Y-80889880D01*
X39434642Y-81889880D02*
X39434642Y-80889880D01*
X39196547Y-80889880D01*
X39053690Y-80937500D01*
X38958452Y-81032738D01*
X38910833Y-81127976D01*
X38863214Y-81318452D01*
X38863214Y-81461309D01*
X38910833Y-81651785D01*
X38958452Y-81747023D01*
X39053690Y-81842261D01*
X39196547Y-81889880D01*
X39434642Y-81889880D01*
X38482261Y-80985119D02*
X38434642Y-80937500D01*
X38339404Y-80889880D01*
X38101309Y-80889880D01*
X38006071Y-80937500D01*
X37958452Y-80985119D01*
X37910833Y-81080357D01*
X37910833Y-81175595D01*
X37958452Y-81318452D01*
X38529880Y-81889880D01*
X37910833Y-81889880D01*
X37291785Y-80889880D02*
X37196547Y-80889880D01*
X37101309Y-80937500D01*
X37053690Y-80985119D01*
X37006071Y-81080357D01*
X36958452Y-81270833D01*
X36958452Y-81508928D01*
X37006071Y-81699404D01*
X37053690Y-81794642D01*
X37101309Y-81842261D01*
X37196547Y-81889880D01*
X37291785Y-81889880D01*
X37387023Y-81842261D01*
X37434642Y-81794642D01*
X37482261Y-81699404D01*
X37529880Y-81508928D01*
X37529880Y-81270833D01*
X37482261Y-81080357D01*
X37434642Y-80985119D01*
X37387023Y-80937500D01*
X37291785Y-80889880D01*
X59672738Y-68139880D02*
X60148928Y-68139880D01*
X60148928Y-67139880D01*
X59339404Y-67616071D02*
X59006071Y-67616071D01*
X58863214Y-68139880D02*
X59339404Y-68139880D01*
X59339404Y-67139880D01*
X58863214Y-67139880D01*
X58434642Y-68139880D02*
X58434642Y-67139880D01*
X58196547Y-67139880D01*
X58053690Y-67187500D01*
X57958452Y-67282738D01*
X57910833Y-67377976D01*
X57863214Y-67568452D01*
X57863214Y-67711309D01*
X57910833Y-67901785D01*
X57958452Y-67997023D01*
X58053690Y-68092261D01*
X58196547Y-68139880D01*
X58434642Y-68139880D01*
X57482261Y-67235119D02*
X57434642Y-67187500D01*
X57339404Y-67139880D01*
X57101309Y-67139880D01*
X57006071Y-67187500D01*
X56958452Y-67235119D01*
X56910833Y-67330357D01*
X56910833Y-67425595D01*
X56958452Y-67568452D01*
X57529880Y-68139880D01*
X56910833Y-68139880D01*
X55958452Y-68139880D02*
X56529880Y-68139880D01*
X56244166Y-68139880D02*
X56244166Y-67139880D01*
X56339404Y-67282738D01*
X56434642Y-67377976D01*
X56529880Y-67425595D01*
X72242738Y-58694880D02*
X72718928Y-58694880D01*
X72718928Y-57694880D01*
X71909404Y-58171071D02*
X71576071Y-58171071D01*
X71433214Y-58694880D02*
X71909404Y-58694880D01*
X71909404Y-57694880D01*
X71433214Y-57694880D01*
X71004642Y-58694880D02*
X71004642Y-57694880D01*
X70766547Y-57694880D01*
X70623690Y-57742500D01*
X70528452Y-57837738D01*
X70480833Y-57932976D01*
X70433214Y-58123452D01*
X70433214Y-58266309D01*
X70480833Y-58456785D01*
X70528452Y-58552023D01*
X70623690Y-58647261D01*
X70766547Y-58694880D01*
X71004642Y-58694880D01*
X70052261Y-57790119D02*
X70004642Y-57742500D01*
X69909404Y-57694880D01*
X69671309Y-57694880D01*
X69576071Y-57742500D01*
X69528452Y-57790119D01*
X69480833Y-57885357D01*
X69480833Y-57980595D01*
X69528452Y-58123452D01*
X70099880Y-58694880D01*
X69480833Y-58694880D01*
X69099880Y-57790119D02*
X69052261Y-57742500D01*
X68957023Y-57694880D01*
X68718928Y-57694880D01*
X68623690Y-57742500D01*
X68576071Y-57790119D01*
X68528452Y-57885357D01*
X68528452Y-57980595D01*
X68576071Y-58123452D01*
X69147500Y-58694880D01*
X68528452Y-58694880D01*
X110242738Y-68444880D02*
X110718928Y-68444880D01*
X110718928Y-67444880D01*
X109909404Y-67921071D02*
X109576071Y-67921071D01*
X109433214Y-68444880D02*
X109909404Y-68444880D01*
X109909404Y-67444880D01*
X109433214Y-67444880D01*
X109004642Y-68444880D02*
X109004642Y-67444880D01*
X108766547Y-67444880D01*
X108623690Y-67492500D01*
X108528452Y-67587738D01*
X108480833Y-67682976D01*
X108433214Y-67873452D01*
X108433214Y-68016309D01*
X108480833Y-68206785D01*
X108528452Y-68302023D01*
X108623690Y-68397261D01*
X108766547Y-68444880D01*
X109004642Y-68444880D01*
X108052261Y-67540119D02*
X108004642Y-67492500D01*
X107909404Y-67444880D01*
X107671309Y-67444880D01*
X107576071Y-67492500D01*
X107528452Y-67540119D01*
X107480833Y-67635357D01*
X107480833Y-67730595D01*
X107528452Y-67873452D01*
X108099880Y-68444880D01*
X107480833Y-68444880D01*
X106623690Y-67778214D02*
X106623690Y-68444880D01*
X106861785Y-67397261D02*
X107099880Y-68111547D01*
X106480833Y-68111547D01*
X105372738Y-102564880D02*
X105848928Y-102564880D01*
X105848928Y-101564880D01*
X105039404Y-102041071D02*
X104706071Y-102041071D01*
X104563214Y-102564880D02*
X105039404Y-102564880D01*
X105039404Y-101564880D01*
X104563214Y-101564880D01*
X104134642Y-102564880D02*
X104134642Y-101564880D01*
X103896547Y-101564880D01*
X103753690Y-101612500D01*
X103658452Y-101707738D01*
X103610833Y-101802976D01*
X103563214Y-101993452D01*
X103563214Y-102136309D01*
X103610833Y-102326785D01*
X103658452Y-102422023D01*
X103753690Y-102517261D01*
X103896547Y-102564880D01*
X104134642Y-102564880D01*
X103182261Y-101660119D02*
X103134642Y-101612500D01*
X103039404Y-101564880D01*
X102801309Y-101564880D01*
X102706071Y-101612500D01*
X102658452Y-101660119D01*
X102610833Y-101755357D01*
X102610833Y-101850595D01*
X102658452Y-101993452D01*
X103229880Y-102564880D01*
X102610833Y-102564880D01*
X101706071Y-101564880D02*
X102182261Y-101564880D01*
X102229880Y-102041071D01*
X102182261Y-101993452D01*
X102087023Y-101945833D01*
X101848928Y-101945833D01*
X101753690Y-101993452D01*
X101706071Y-102041071D01*
X101658452Y-102136309D01*
X101658452Y-102374404D01*
X101706071Y-102469642D01*
X101753690Y-102517261D01*
X101848928Y-102564880D01*
X102087023Y-102564880D01*
X102182261Y-102517261D01*
X102229880Y-102469642D01*
X154171892Y-111062173D02*
X154409987Y-110649780D01*
X153543962Y-110149780D01*
X153551593Y-111088944D02*
X153384926Y-111377619D01*
X153767130Y-111763241D02*
X154005225Y-111350848D01*
X153139200Y-110850848D01*
X152901105Y-111263241D01*
X153552844Y-112134395D02*
X152686819Y-111634395D01*
X152567771Y-111840592D01*
X152537582Y-111988119D01*
X152572442Y-112118217D01*
X152631111Y-112207075D01*
X152772258Y-112343553D01*
X152895976Y-112414981D01*
X153084743Y-112468980D01*
X153191031Y-112475360D01*
X153321129Y-112440500D01*
X153433797Y-112340592D01*
X153552844Y-112134395D01*
X152293107Y-112506800D02*
X152228058Y-112524230D01*
X152139200Y-112582899D01*
X152020152Y-112789096D01*
X152013773Y-112895384D01*
X152031202Y-112960433D01*
X152089871Y-113049291D01*
X152172350Y-113096910D01*
X152319877Y-113127099D01*
X153100463Y-112917942D01*
X152790940Y-113454053D01*
X151758247Y-113242728D02*
X151424914Y-113820078D01*
X152505225Y-113948925D01*
X252832738Y-41844880D02*
X253308928Y-41844880D01*
X253308928Y-40844880D01*
X252499404Y-41321071D02*
X252166071Y-41321071D01*
X252023214Y-41844880D02*
X252499404Y-41844880D01*
X252499404Y-40844880D01*
X252023214Y-40844880D01*
X251594642Y-41844880D02*
X251594642Y-40844880D01*
X251356547Y-40844880D01*
X251213690Y-40892500D01*
X251118452Y-40987738D01*
X251070833Y-41082976D01*
X251023214Y-41273452D01*
X251023214Y-41416309D01*
X251070833Y-41606785D01*
X251118452Y-41702023D01*
X251213690Y-41797261D01*
X251356547Y-41844880D01*
X251594642Y-41844880D01*
X250166071Y-41178214D02*
X250166071Y-41844880D01*
X250404166Y-40797261D02*
X250642261Y-41511547D01*
X250023214Y-41511547D01*
X249737500Y-40844880D02*
X249118452Y-40844880D01*
X249451785Y-41225833D01*
X249308928Y-41225833D01*
X249213690Y-41273452D01*
X249166071Y-41321071D01*
X249118452Y-41416309D01*
X249118452Y-41654404D01*
X249166071Y-41749642D01*
X249213690Y-41797261D01*
X249308928Y-41844880D01*
X249594642Y-41844880D01*
X249689880Y-41797261D01*
X249737500Y-41749642D01*
X233832738Y-46719880D02*
X234308928Y-46719880D01*
X234308928Y-45719880D01*
X233499404Y-46196071D02*
X233166071Y-46196071D01*
X233023214Y-46719880D02*
X233499404Y-46719880D01*
X233499404Y-45719880D01*
X233023214Y-45719880D01*
X232594642Y-46719880D02*
X232594642Y-45719880D01*
X232356547Y-45719880D01*
X232213690Y-45767500D01*
X232118452Y-45862738D01*
X232070833Y-45957976D01*
X232023214Y-46148452D01*
X232023214Y-46291309D01*
X232070833Y-46481785D01*
X232118452Y-46577023D01*
X232213690Y-46672261D01*
X232356547Y-46719880D01*
X232594642Y-46719880D01*
X231166071Y-46053214D02*
X231166071Y-46719880D01*
X231404166Y-45672261D02*
X231642261Y-46386547D01*
X231023214Y-46386547D01*
X230213690Y-46053214D02*
X230213690Y-46719880D01*
X230451785Y-45672261D02*
X230689880Y-46386547D01*
X230070833Y-46386547D01*
X214832738Y-51594880D02*
X215308928Y-51594880D01*
X215308928Y-50594880D01*
X214499404Y-51071071D02*
X214166071Y-51071071D01*
X214023214Y-51594880D02*
X214499404Y-51594880D01*
X214499404Y-50594880D01*
X214023214Y-50594880D01*
X213594642Y-51594880D02*
X213594642Y-50594880D01*
X213356547Y-50594880D01*
X213213690Y-50642500D01*
X213118452Y-50737738D01*
X213070833Y-50832976D01*
X213023214Y-51023452D01*
X213023214Y-51166309D01*
X213070833Y-51356785D01*
X213118452Y-51452023D01*
X213213690Y-51547261D01*
X213356547Y-51594880D01*
X213594642Y-51594880D01*
X212166071Y-50928214D02*
X212166071Y-51594880D01*
X212404166Y-50547261D02*
X212642261Y-51261547D01*
X212023214Y-51261547D01*
X211166071Y-50594880D02*
X211642261Y-50594880D01*
X211689880Y-51071071D01*
X211642261Y-51023452D01*
X211547023Y-50975833D01*
X211308928Y-50975833D01*
X211213690Y-51023452D01*
X211166071Y-51071071D01*
X211118452Y-51166309D01*
X211118452Y-51404404D01*
X211166071Y-51499642D01*
X211213690Y-51547261D01*
X211308928Y-51594880D01*
X211547023Y-51594880D01*
X211642261Y-51547261D01*
X211689880Y-51499642D01*
X309832738Y-81969880D02*
X310308928Y-81969880D01*
X310308928Y-80969880D01*
X309499404Y-81446071D02*
X309166071Y-81446071D01*
X309023214Y-81969880D02*
X309499404Y-81969880D01*
X309499404Y-80969880D01*
X309023214Y-80969880D01*
X308594642Y-81969880D02*
X308594642Y-80969880D01*
X308356547Y-80969880D01*
X308213690Y-81017500D01*
X308118452Y-81112738D01*
X308070833Y-81207976D01*
X308023214Y-81398452D01*
X308023214Y-81541309D01*
X308070833Y-81731785D01*
X308118452Y-81827023D01*
X308213690Y-81922261D01*
X308356547Y-81969880D01*
X308594642Y-81969880D01*
X307166071Y-81303214D02*
X307166071Y-81969880D01*
X307404166Y-80922261D02*
X307642261Y-81636547D01*
X307023214Y-81636547D01*
X306213690Y-80969880D02*
X306404166Y-80969880D01*
X306499404Y-81017500D01*
X306547023Y-81065119D01*
X306642261Y-81207976D01*
X306689880Y-81398452D01*
X306689880Y-81779404D01*
X306642261Y-81874642D01*
X306594642Y-81922261D01*
X306499404Y-81969880D01*
X306308928Y-81969880D01*
X306213690Y-81922261D01*
X306166071Y-81874642D01*
X306118452Y-81779404D01*
X306118452Y-81541309D01*
X306166071Y-81446071D01*
X306213690Y-81398452D01*
X306308928Y-81350833D01*
X306499404Y-81350833D01*
X306594642Y-81398452D01*
X306642261Y-81446071D01*
X306689880Y-81541309D01*
X290832738Y-81969880D02*
X291308928Y-81969880D01*
X291308928Y-80969880D01*
X290499404Y-81446071D02*
X290166071Y-81446071D01*
X290023214Y-81969880D02*
X290499404Y-81969880D01*
X290499404Y-80969880D01*
X290023214Y-80969880D01*
X289594642Y-81969880D02*
X289594642Y-80969880D01*
X289356547Y-80969880D01*
X289213690Y-81017500D01*
X289118452Y-81112738D01*
X289070833Y-81207976D01*
X289023214Y-81398452D01*
X289023214Y-81541309D01*
X289070833Y-81731785D01*
X289118452Y-81827023D01*
X289213690Y-81922261D01*
X289356547Y-81969880D01*
X289594642Y-81969880D01*
X288166071Y-81303214D02*
X288166071Y-81969880D01*
X288404166Y-80922261D02*
X288642261Y-81636547D01*
X288023214Y-81636547D01*
X287737500Y-80969880D02*
X287070833Y-80969880D01*
X287499404Y-81969880D01*
X271832738Y-68219880D02*
X272308928Y-68219880D01*
X272308928Y-67219880D01*
X271499404Y-67696071D02*
X271166071Y-67696071D01*
X271023214Y-68219880D02*
X271499404Y-68219880D01*
X271499404Y-67219880D01*
X271023214Y-67219880D01*
X270594642Y-68219880D02*
X270594642Y-67219880D01*
X270356547Y-67219880D01*
X270213690Y-67267500D01*
X270118452Y-67362738D01*
X270070833Y-67457976D01*
X270023214Y-67648452D01*
X270023214Y-67791309D01*
X270070833Y-67981785D01*
X270118452Y-68077023D01*
X270213690Y-68172261D01*
X270356547Y-68219880D01*
X270594642Y-68219880D01*
X269166071Y-67553214D02*
X269166071Y-68219880D01*
X269404166Y-67172261D02*
X269642261Y-67886547D01*
X269023214Y-67886547D01*
X268499404Y-67648452D02*
X268594642Y-67600833D01*
X268642261Y-67553214D01*
X268689880Y-67457976D01*
X268689880Y-67410357D01*
X268642261Y-67315119D01*
X268594642Y-67267500D01*
X268499404Y-67219880D01*
X268308928Y-67219880D01*
X268213690Y-67267500D01*
X268166071Y-67315119D01*
X268118452Y-67410357D01*
X268118452Y-67457976D01*
X268166071Y-67553214D01*
X268213690Y-67600833D01*
X268308928Y-67648452D01*
X268499404Y-67648452D01*
X268594642Y-67696071D01*
X268642261Y-67743690D01*
X268689880Y-67838928D01*
X268689880Y-68029404D01*
X268642261Y-68124642D01*
X268594642Y-68172261D01*
X268499404Y-68219880D01*
X268308928Y-68219880D01*
X268213690Y-68172261D01*
X268166071Y-68124642D01*
X268118452Y-68029404D01*
X268118452Y-67838928D01*
X268166071Y-67743690D01*
X268213690Y-67696071D01*
X268308928Y-67648452D01*
X246402738Y-58774880D02*
X246878928Y-58774880D01*
X246878928Y-57774880D01*
X246069404Y-58251071D02*
X245736071Y-58251071D01*
X245593214Y-58774880D02*
X246069404Y-58774880D01*
X246069404Y-57774880D01*
X245593214Y-57774880D01*
X245164642Y-58774880D02*
X245164642Y-57774880D01*
X244926547Y-57774880D01*
X244783690Y-57822500D01*
X244688452Y-57917738D01*
X244640833Y-58012976D01*
X244593214Y-58203452D01*
X244593214Y-58346309D01*
X244640833Y-58536785D01*
X244688452Y-58632023D01*
X244783690Y-58727261D01*
X244926547Y-58774880D01*
X245164642Y-58774880D01*
X243736071Y-58108214D02*
X243736071Y-58774880D01*
X243974166Y-57727261D02*
X244212261Y-58441547D01*
X243593214Y-58441547D01*
X243164642Y-58774880D02*
X242974166Y-58774880D01*
X242878928Y-58727261D01*
X242831309Y-58679642D01*
X242736071Y-58536785D01*
X242688452Y-58346309D01*
X242688452Y-57965357D01*
X242736071Y-57870119D01*
X242783690Y-57822500D01*
X242878928Y-57774880D01*
X243069404Y-57774880D01*
X243164642Y-57822500D01*
X243212261Y-57870119D01*
X243259880Y-57965357D01*
X243259880Y-58203452D01*
X243212261Y-58298690D01*
X243164642Y-58346309D01*
X243069404Y-58393928D01*
X242878928Y-58393928D01*
X242783690Y-58346309D01*
X242736071Y-58298690D01*
X242688452Y-58203452D01*
X234108128Y-65212380D02*
X234584318Y-65212380D01*
X234584318Y-64212380D01*
X233774794Y-64688571D02*
X233441461Y-64688571D01*
X233298604Y-65212380D02*
X233774794Y-65212380D01*
X233774794Y-64212380D01*
X233298604Y-64212380D01*
X232870032Y-65212380D02*
X232870032Y-64212380D01*
X232631937Y-64212380D01*
X232489080Y-64260000D01*
X232393842Y-64355238D01*
X232346223Y-64450476D01*
X232298604Y-64640952D01*
X232298604Y-64783809D01*
X232346223Y-64974285D01*
X232393842Y-65069523D01*
X232489080Y-65164761D01*
X232631937Y-65212380D01*
X232870032Y-65212380D01*
X231393842Y-64212380D02*
X231870032Y-64212380D01*
X231917651Y-64688571D01*
X231870032Y-64640952D01*
X231774794Y-64593333D01*
X231536699Y-64593333D01*
X231441461Y-64640952D01*
X231393842Y-64688571D01*
X231346223Y-64783809D01*
X231346223Y-65021904D01*
X231393842Y-65117142D01*
X231441461Y-65164761D01*
X231536699Y-65212380D01*
X231774794Y-65212380D01*
X231870032Y-65164761D01*
X231917651Y-65117142D01*
X230727175Y-64212380D02*
X230631937Y-64212380D01*
X230536699Y-64260000D01*
X230489080Y-64307619D01*
X230441461Y-64402857D01*
X230393842Y-64593333D01*
X230393842Y-64831428D01*
X230441461Y-65021904D01*
X230489080Y-65117142D01*
X230536699Y-65164761D01*
X230631937Y-65212380D01*
X230727175Y-65212380D01*
X230822413Y-65164761D01*
X230870032Y-65117142D01*
X230917651Y-65021904D01*
X230965270Y-64831428D01*
X230965270Y-64593333D01*
X230917651Y-64402857D01*
X230870032Y-64307619D01*
X230822413Y-64260000D01*
X230727175Y-64212380D01*
X208402738Y-68524880D02*
X208878928Y-68524880D01*
X208878928Y-67524880D01*
X208069404Y-68001071D02*
X207736071Y-68001071D01*
X207593214Y-68524880D02*
X208069404Y-68524880D01*
X208069404Y-67524880D01*
X207593214Y-67524880D01*
X207164642Y-68524880D02*
X207164642Y-67524880D01*
X206926547Y-67524880D01*
X206783690Y-67572500D01*
X206688452Y-67667738D01*
X206640833Y-67762976D01*
X206593214Y-67953452D01*
X206593214Y-68096309D01*
X206640833Y-68286785D01*
X206688452Y-68382023D01*
X206783690Y-68477261D01*
X206926547Y-68524880D01*
X207164642Y-68524880D01*
X205688452Y-67524880D02*
X206164642Y-67524880D01*
X206212261Y-68001071D01*
X206164642Y-67953452D01*
X206069404Y-67905833D01*
X205831309Y-67905833D01*
X205736071Y-67953452D01*
X205688452Y-68001071D01*
X205640833Y-68096309D01*
X205640833Y-68334404D01*
X205688452Y-68429642D01*
X205736071Y-68477261D01*
X205831309Y-68524880D01*
X206069404Y-68524880D01*
X206164642Y-68477261D01*
X206212261Y-68429642D01*
X204688452Y-68524880D02*
X205259880Y-68524880D01*
X204974166Y-68524880D02*
X204974166Y-67524880D01*
X205069404Y-67667738D01*
X205164642Y-67762976D01*
X205259880Y-67810595D01*
X226026284Y-102634610D02*
X226502474Y-102634610D01*
X226502474Y-101634610D01*
X225692950Y-102110801D02*
X225359617Y-102110801D01*
X225216760Y-102634610D02*
X225692950Y-102634610D01*
X225692950Y-101634610D01*
X225216760Y-101634610D01*
X224788188Y-102634610D02*
X224788188Y-101634610D01*
X224550093Y-101634610D01*
X224407236Y-101682230D01*
X224311998Y-101777468D01*
X224264379Y-101872706D01*
X224216760Y-102063182D01*
X224216760Y-102206039D01*
X224264379Y-102396515D01*
X224311998Y-102491753D01*
X224407236Y-102586991D01*
X224550093Y-102634610D01*
X224788188Y-102634610D01*
X223311998Y-101634610D02*
X223788188Y-101634610D01*
X223835807Y-102110801D01*
X223788188Y-102063182D01*
X223692950Y-102015563D01*
X223454855Y-102015563D01*
X223359617Y-102063182D01*
X223311998Y-102110801D01*
X223264379Y-102206039D01*
X223264379Y-102444134D01*
X223311998Y-102539372D01*
X223359617Y-102586991D01*
X223454855Y-102634610D01*
X223692950Y-102634610D01*
X223788188Y-102586991D01*
X223835807Y-102539372D01*
X222883426Y-101729849D02*
X222835807Y-101682230D01*
X222740569Y-101634610D01*
X222502474Y-101634610D01*
X222407236Y-101682230D01*
X222359617Y-101729849D01*
X222311998Y-101825087D01*
X222311998Y-101920325D01*
X222359617Y-102063182D01*
X222931046Y-102634610D01*
X222311998Y-102634610D01*
X192793412Y-103800135D02*
X193031507Y-104212528D01*
X193897533Y-103712528D01*
X193080378Y-103249555D02*
X192913711Y-102960880D01*
X192388650Y-103099067D02*
X192626745Y-103511460D01*
X193492771Y-103011460D01*
X193254676Y-102599067D01*
X192174365Y-102727913D02*
X193040390Y-102227913D01*
X192921342Y-102021716D01*
X192808674Y-101921808D01*
X192678577Y-101886948D01*
X192572289Y-101893328D01*
X192383522Y-101947327D01*
X192259804Y-102018755D01*
X192118656Y-102155233D01*
X192059987Y-102244091D01*
X192025128Y-102374189D01*
X192055317Y-102521716D01*
X192174365Y-102727913D01*
X192302295Y-100949494D02*
X192540390Y-101361887D01*
X192151806Y-101641222D01*
X192169236Y-101576173D01*
X192162856Y-101469885D01*
X192043809Y-101263688D01*
X191954950Y-101205019D01*
X191889902Y-101187590D01*
X191783614Y-101193969D01*
X191577417Y-101313017D01*
X191518748Y-101401875D01*
X191501318Y-101466924D01*
X191507698Y-101573212D01*
X191626745Y-101779409D01*
X191715604Y-101838078D01*
X191780653Y-101855508D01*
X192111819Y-100619580D02*
X191802295Y-100083469D01*
X191639047Y-100562620D01*
X191567618Y-100438902D01*
X191478760Y-100380233D01*
X191413711Y-100362803D01*
X191307423Y-100369183D01*
X191101227Y-100488231D01*
X191042557Y-100577089D01*
X191025128Y-100642138D01*
X191031507Y-100748426D01*
X191174365Y-100995862D01*
X191263223Y-101054531D01*
X191328272Y-101071961D01*
X176009473Y-114022534D02*
X176247568Y-114434927D01*
X177113594Y-113934927D01*
X176296439Y-113471954D02*
X176129772Y-113183279D01*
X175604711Y-113321466D02*
X175842806Y-113733859D01*
X176708832Y-113233859D01*
X176470737Y-112821466D01*
X175390426Y-112950312D02*
X176256451Y-112450312D01*
X176137403Y-112244115D01*
X176024735Y-112144207D01*
X175894638Y-112109347D01*
X175788350Y-112115727D01*
X175599583Y-112169726D01*
X175475865Y-112241154D01*
X175334717Y-112377632D01*
X175276048Y-112466490D01*
X175241189Y-112596588D01*
X175271378Y-112744115D01*
X175390426Y-112950312D01*
X175518356Y-111171893D02*
X175756451Y-111584286D01*
X175367867Y-111863621D01*
X175385297Y-111798572D01*
X175378917Y-111692284D01*
X175259870Y-111486087D01*
X175171011Y-111427418D01*
X175105963Y-111409989D01*
X174999675Y-111416368D01*
X174793478Y-111535416D01*
X174734809Y-111624274D01*
X174717379Y-111689323D01*
X174723759Y-111795611D01*
X174842806Y-112001808D01*
X174931665Y-112060477D01*
X174996714Y-112077907D01*
X174777300Y-110555013D02*
X174199949Y-110888347D01*
X175226262Y-110570734D02*
X174726720Y-111134073D01*
X174417196Y-110597962D01*
X97672738Y-65639880D02*
X98148928Y-65639880D01*
X98148928Y-64639880D01*
X97339404Y-65116071D02*
X97006071Y-65116071D01*
X96863214Y-65639880D02*
X97339404Y-65639880D01*
X97339404Y-64639880D01*
X96863214Y-64639880D01*
X96434642Y-65639880D02*
X96434642Y-64639880D01*
X96196547Y-64639880D01*
X96053690Y-64687500D01*
X95958452Y-64782738D01*
X95910833Y-64877976D01*
X95863214Y-65068452D01*
X95863214Y-65211309D01*
X95910833Y-65401785D01*
X95958452Y-65497023D01*
X96053690Y-65592261D01*
X96196547Y-65639880D01*
X96434642Y-65639880D01*
X95482261Y-64735119D02*
X95434642Y-64687500D01*
X95339404Y-64639880D01*
X95101309Y-64639880D01*
X95006071Y-64687500D01*
X94958452Y-64735119D01*
X94910833Y-64830357D01*
X94910833Y-64925595D01*
X94958452Y-65068452D01*
X95529880Y-65639880D01*
X94910833Y-65639880D01*
X94577500Y-64639880D02*
X93958452Y-64639880D01*
X94291785Y-65020833D01*
X94148928Y-65020833D01*
X94053690Y-65068452D01*
X94006071Y-65116071D01*
X93958452Y-65211309D01*
X93958452Y-65449404D01*
X94006071Y-65544642D01*
X94053690Y-65592261D01*
X94148928Y-65639880D01*
X94434642Y-65639880D01*
X94529880Y-65592261D01*
X94577500Y-65544642D01*
X309832738Y-43969880D02*
X310308928Y-43969880D01*
X310308928Y-42969880D01*
X309499404Y-43446071D02*
X309166071Y-43446071D01*
X309023214Y-43969880D02*
X309499404Y-43969880D01*
X309499404Y-42969880D01*
X309023214Y-42969880D01*
X308594642Y-43969880D02*
X308594642Y-42969880D01*
X308356547Y-42969880D01*
X308213690Y-43017500D01*
X308118452Y-43112738D01*
X308070833Y-43207976D01*
X308023214Y-43398452D01*
X308023214Y-43541309D01*
X308070833Y-43731785D01*
X308118452Y-43827023D01*
X308213690Y-43922261D01*
X308356547Y-43969880D01*
X308594642Y-43969880D01*
X307689880Y-42969880D02*
X307070833Y-42969880D01*
X307404166Y-43350833D01*
X307261309Y-43350833D01*
X307166071Y-43398452D01*
X307118452Y-43446071D01*
X307070833Y-43541309D01*
X307070833Y-43779404D01*
X307118452Y-43874642D01*
X307166071Y-43922261D01*
X307261309Y-43969880D01*
X307547023Y-43969880D01*
X307642261Y-43922261D01*
X307689880Y-43874642D01*
X306213690Y-43303214D02*
X306213690Y-43969880D01*
X306451785Y-42922261D02*
X306689880Y-43636547D01*
X306070833Y-43636547D01*
X284402738Y-41899880D02*
X284878928Y-41899880D01*
X284878928Y-40899880D01*
X284069404Y-41376071D02*
X283736071Y-41376071D01*
X283593214Y-41899880D02*
X284069404Y-41899880D01*
X284069404Y-40899880D01*
X283593214Y-40899880D01*
X283164642Y-41899880D02*
X283164642Y-40899880D01*
X282926547Y-40899880D01*
X282783690Y-40947500D01*
X282688452Y-41042738D01*
X282640833Y-41137976D01*
X282593214Y-41328452D01*
X282593214Y-41471309D01*
X282640833Y-41661785D01*
X282688452Y-41757023D01*
X282783690Y-41852261D01*
X282926547Y-41899880D01*
X283164642Y-41899880D01*
X282259880Y-40899880D02*
X281640833Y-40899880D01*
X281974166Y-41280833D01*
X281831309Y-41280833D01*
X281736071Y-41328452D01*
X281688452Y-41376071D01*
X281640833Y-41471309D01*
X281640833Y-41709404D01*
X281688452Y-41804642D01*
X281736071Y-41852261D01*
X281831309Y-41899880D01*
X282117023Y-41899880D01*
X282212261Y-41852261D01*
X282259880Y-41804642D01*
X280736071Y-40899880D02*
X281212261Y-40899880D01*
X281259880Y-41376071D01*
X281212261Y-41328452D01*
X281117023Y-41280833D01*
X280878928Y-41280833D01*
X280783690Y-41328452D01*
X280736071Y-41376071D01*
X280688452Y-41471309D01*
X280688452Y-41709404D01*
X280736071Y-41804642D01*
X280783690Y-41852261D01*
X280878928Y-41899880D01*
X281117023Y-41899880D01*
X281212261Y-41852261D01*
X281259880Y-41804642D01*
X271832738Y-30219880D02*
X272308928Y-30219880D01*
X272308928Y-29219880D01*
X271499404Y-29696071D02*
X271166071Y-29696071D01*
X271023214Y-30219880D02*
X271499404Y-30219880D01*
X271499404Y-29219880D01*
X271023214Y-29219880D01*
X270594642Y-30219880D02*
X270594642Y-29219880D01*
X270356547Y-29219880D01*
X270213690Y-29267500D01*
X270118452Y-29362738D01*
X270070833Y-29457976D01*
X270023214Y-29648452D01*
X270023214Y-29791309D01*
X270070833Y-29981785D01*
X270118452Y-30077023D01*
X270213690Y-30172261D01*
X270356547Y-30219880D01*
X270594642Y-30219880D01*
X269689880Y-29219880D02*
X269070833Y-29219880D01*
X269404166Y-29600833D01*
X269261309Y-29600833D01*
X269166071Y-29648452D01*
X269118452Y-29696071D01*
X269070833Y-29791309D01*
X269070833Y-30029404D01*
X269118452Y-30124642D01*
X269166071Y-30172261D01*
X269261309Y-30219880D01*
X269547023Y-30219880D01*
X269642261Y-30172261D01*
X269689880Y-30124642D01*
X268213690Y-29219880D02*
X268404166Y-29219880D01*
X268499404Y-29267500D01*
X268547023Y-29315119D01*
X268642261Y-29457976D01*
X268689880Y-29648452D01*
X268689880Y-30029404D01*
X268642261Y-30124642D01*
X268594642Y-30172261D01*
X268499404Y-30219880D01*
X268308928Y-30219880D01*
X268213690Y-30172261D01*
X268166071Y-30124642D01*
X268118452Y-30029404D01*
X268118452Y-29791309D01*
X268166071Y-29696071D01*
X268213690Y-29648452D01*
X268308928Y-29600833D01*
X268499404Y-29600833D01*
X268594642Y-29648452D01*
X268642261Y-29696071D01*
X268689880Y-29791309D01*
X246402738Y-20774880D02*
X246878928Y-20774880D01*
X246878928Y-19774880D01*
X246069404Y-20251071D02*
X245736071Y-20251071D01*
X245593214Y-20774880D02*
X246069404Y-20774880D01*
X246069404Y-19774880D01*
X245593214Y-19774880D01*
X245164642Y-20774880D02*
X245164642Y-19774880D01*
X244926547Y-19774880D01*
X244783690Y-19822500D01*
X244688452Y-19917738D01*
X244640833Y-20012976D01*
X244593214Y-20203452D01*
X244593214Y-20346309D01*
X244640833Y-20536785D01*
X244688452Y-20632023D01*
X244783690Y-20727261D01*
X244926547Y-20774880D01*
X245164642Y-20774880D01*
X244259880Y-19774880D02*
X243640833Y-19774880D01*
X243974166Y-20155833D01*
X243831309Y-20155833D01*
X243736071Y-20203452D01*
X243688452Y-20251071D01*
X243640833Y-20346309D01*
X243640833Y-20584404D01*
X243688452Y-20679642D01*
X243736071Y-20727261D01*
X243831309Y-20774880D01*
X244117023Y-20774880D01*
X244212261Y-20727261D01*
X244259880Y-20679642D01*
X243307500Y-19774880D02*
X242640833Y-19774880D01*
X243069404Y-20774880D01*
X233832738Y-27719880D02*
X234308928Y-27719880D01*
X234308928Y-26719880D01*
X233499404Y-27196071D02*
X233166071Y-27196071D01*
X233023214Y-27719880D02*
X233499404Y-27719880D01*
X233499404Y-26719880D01*
X233023214Y-26719880D01*
X232594642Y-27719880D02*
X232594642Y-26719880D01*
X232356547Y-26719880D01*
X232213690Y-26767500D01*
X232118452Y-26862738D01*
X232070833Y-26957976D01*
X232023214Y-27148452D01*
X232023214Y-27291309D01*
X232070833Y-27481785D01*
X232118452Y-27577023D01*
X232213690Y-27672261D01*
X232356547Y-27719880D01*
X232594642Y-27719880D01*
X231689880Y-26719880D02*
X231070833Y-26719880D01*
X231404166Y-27100833D01*
X231261309Y-27100833D01*
X231166071Y-27148452D01*
X231118452Y-27196071D01*
X231070833Y-27291309D01*
X231070833Y-27529404D01*
X231118452Y-27624642D01*
X231166071Y-27672261D01*
X231261309Y-27719880D01*
X231547023Y-27719880D01*
X231642261Y-27672261D01*
X231689880Y-27624642D01*
X230499404Y-27148452D02*
X230594642Y-27100833D01*
X230642261Y-27053214D01*
X230689880Y-26957976D01*
X230689880Y-26910357D01*
X230642261Y-26815119D01*
X230594642Y-26767500D01*
X230499404Y-26719880D01*
X230308928Y-26719880D01*
X230213690Y-26767500D01*
X230166071Y-26815119D01*
X230118452Y-26910357D01*
X230118452Y-26957976D01*
X230166071Y-27053214D01*
X230213690Y-27100833D01*
X230308928Y-27148452D01*
X230499404Y-27148452D01*
X230594642Y-27196071D01*
X230642261Y-27243690D01*
X230689880Y-27338928D01*
X230689880Y-27529404D01*
X230642261Y-27624642D01*
X230594642Y-27672261D01*
X230499404Y-27719880D01*
X230308928Y-27719880D01*
X230213690Y-27672261D01*
X230166071Y-27624642D01*
X230118452Y-27529404D01*
X230118452Y-27338928D01*
X230166071Y-27243690D01*
X230213690Y-27196071D01*
X230308928Y-27148452D01*
X208402738Y-30524880D02*
X208878928Y-30524880D01*
X208878928Y-29524880D01*
X208069404Y-30001071D02*
X207736071Y-30001071D01*
X207593214Y-30524880D02*
X208069404Y-30524880D01*
X208069404Y-29524880D01*
X207593214Y-29524880D01*
X207164642Y-30524880D02*
X207164642Y-29524880D01*
X206926547Y-29524880D01*
X206783690Y-29572500D01*
X206688452Y-29667738D01*
X206640833Y-29762976D01*
X206593214Y-29953452D01*
X206593214Y-30096309D01*
X206640833Y-30286785D01*
X206688452Y-30382023D01*
X206783690Y-30477261D01*
X206926547Y-30524880D01*
X207164642Y-30524880D01*
X206259880Y-29524880D02*
X205640833Y-29524880D01*
X205974166Y-29905833D01*
X205831309Y-29905833D01*
X205736071Y-29953452D01*
X205688452Y-30001071D01*
X205640833Y-30096309D01*
X205640833Y-30334404D01*
X205688452Y-30429642D01*
X205736071Y-30477261D01*
X205831309Y-30524880D01*
X206117023Y-30524880D01*
X206212261Y-30477261D01*
X206259880Y-30429642D01*
X205164642Y-30524880D02*
X204974166Y-30524880D01*
X204878928Y-30477261D01*
X204831309Y-30429642D01*
X204736071Y-30286785D01*
X204688452Y-30096309D01*
X204688452Y-29715357D01*
X204736071Y-29620119D01*
X204783690Y-29572500D01*
X204878928Y-29524880D01*
X205069404Y-29524880D01*
X205164642Y-29572500D01*
X205212261Y-29620119D01*
X205259880Y-29715357D01*
X205259880Y-29953452D01*
X205212261Y-30048690D01*
X205164642Y-30096309D01*
X205069404Y-30143928D01*
X204878928Y-30143928D01*
X204783690Y-30096309D01*
X204736071Y-30048690D01*
X204688452Y-29953452D01*
X309832738Y-62969880D02*
X310308928Y-62969880D01*
X310308928Y-61969880D01*
X309499404Y-62446071D02*
X309166071Y-62446071D01*
X309023214Y-62969880D02*
X309499404Y-62969880D01*
X309499404Y-61969880D01*
X309023214Y-61969880D01*
X308594642Y-62969880D02*
X308594642Y-61969880D01*
X308356547Y-61969880D01*
X308213690Y-62017500D01*
X308118452Y-62112738D01*
X308070833Y-62207976D01*
X308023214Y-62398452D01*
X308023214Y-62541309D01*
X308070833Y-62731785D01*
X308118452Y-62827023D01*
X308213690Y-62922261D01*
X308356547Y-62969880D01*
X308594642Y-62969880D01*
X307166071Y-62303214D02*
X307166071Y-62969880D01*
X307404166Y-61922261D02*
X307642261Y-62636547D01*
X307023214Y-62636547D01*
X306451785Y-61969880D02*
X306356547Y-61969880D01*
X306261309Y-62017500D01*
X306213690Y-62065119D01*
X306166071Y-62160357D01*
X306118452Y-62350833D01*
X306118452Y-62588928D01*
X306166071Y-62779404D01*
X306213690Y-62874642D01*
X306261309Y-62922261D01*
X306356547Y-62969880D01*
X306451785Y-62969880D01*
X306547023Y-62922261D01*
X306594642Y-62874642D01*
X306642261Y-62779404D01*
X306689880Y-62588928D01*
X306689880Y-62350833D01*
X306642261Y-62160357D01*
X306594642Y-62065119D01*
X306547023Y-62017500D01*
X306451785Y-61969880D01*
X284402738Y-60899880D02*
X284878928Y-60899880D01*
X284878928Y-59899880D01*
X284069404Y-60376071D02*
X283736071Y-60376071D01*
X283593214Y-60899880D02*
X284069404Y-60899880D01*
X284069404Y-59899880D01*
X283593214Y-59899880D01*
X283164642Y-60899880D02*
X283164642Y-59899880D01*
X282926547Y-59899880D01*
X282783690Y-59947500D01*
X282688452Y-60042738D01*
X282640833Y-60137976D01*
X282593214Y-60328452D01*
X282593214Y-60471309D01*
X282640833Y-60661785D01*
X282688452Y-60757023D01*
X282783690Y-60852261D01*
X282926547Y-60899880D01*
X283164642Y-60899880D01*
X281736071Y-60233214D02*
X281736071Y-60899880D01*
X281974166Y-59852261D02*
X282212261Y-60566547D01*
X281593214Y-60566547D01*
X280688452Y-60899880D02*
X281259880Y-60899880D01*
X280974166Y-60899880D02*
X280974166Y-59899880D01*
X281069404Y-60042738D01*
X281164642Y-60137976D01*
X281259880Y-60185595D01*
X271832738Y-49219880D02*
X272308928Y-49219880D01*
X272308928Y-48219880D01*
X271499404Y-48696071D02*
X271166071Y-48696071D01*
X271023214Y-49219880D02*
X271499404Y-49219880D01*
X271499404Y-48219880D01*
X271023214Y-48219880D01*
X270594642Y-49219880D02*
X270594642Y-48219880D01*
X270356547Y-48219880D01*
X270213690Y-48267500D01*
X270118452Y-48362738D01*
X270070833Y-48457976D01*
X270023214Y-48648452D01*
X270023214Y-48791309D01*
X270070833Y-48981785D01*
X270118452Y-49077023D01*
X270213690Y-49172261D01*
X270356547Y-49219880D01*
X270594642Y-49219880D01*
X269166071Y-48553214D02*
X269166071Y-49219880D01*
X269404166Y-48172261D02*
X269642261Y-48886547D01*
X269023214Y-48886547D01*
X268689880Y-48315119D02*
X268642261Y-48267500D01*
X268547023Y-48219880D01*
X268308928Y-48219880D01*
X268213690Y-48267500D01*
X268166071Y-48315119D01*
X268118452Y-48410357D01*
X268118452Y-48505595D01*
X268166071Y-48648452D01*
X268737500Y-49219880D01*
X268118452Y-49219880D01*
M02*
