G04 #@! TF.GenerationSoftware,KiCad,Pcbnew,(5.1.4-0-10_14)*
G04 #@! TF.CreationDate,2021-06-12T19:28:26+03:00*
G04 #@! TF.ProjectId,corne-cherry,636f726e-652d-4636-9865-7272792e6b69,3.0.1*
G04 #@! TF.SameCoordinates,Original*
G04 #@! TF.FileFunction,Profile,NP*
%FSLAX46Y46*%
G04 Gerber Fmt 4.6, Leading zero omitted, Abs format (unit mm)*
G04 Created by KiCad (PCBNEW (5.1.4-0-10_14)) date 2021-06-12 19:28:26*
%MOMM*%
%LPD*%
G04 APERTURE LIST*
%ADD10C,0.200000*%
%ADD11C,0.120000*%
G04 APERTURE END LIST*
D10*
X67043905Y-83166629D02*
X66927650Y-83080028D01*
X66927650Y-83080028D02*
X66778939Y-83028001D01*
X66778939Y-83028001D02*
X66690339Y-83020073D01*
X93897500Y-4800000D02*
X93902500Y-10530000D01*
X105188823Y-13280000D02*
X105218722Y-13450843D01*
X105218722Y-13450843D02*
X105289089Y-13580531D01*
X105289089Y-13580531D02*
X105389860Y-13680939D01*
X105389860Y-13680939D02*
X105520379Y-13751041D01*
X105520379Y-13751041D02*
X105688697Y-13780126D01*
X183704185Y-91780000D02*
X168357501Y-100530001D01*
X168357500Y-100530001D02*
G75*
G03X167857501Y-102029999I500000J-999999D01*
G01*
X182655417Y-124681084D02*
X182529477Y-124756716D01*
X182529477Y-124756716D02*
X182391414Y-124820605D01*
X182391414Y-124820605D02*
X182238687Y-124871193D01*
X182238687Y-124871193D02*
X182071847Y-124904931D01*
X182071847Y-124904931D02*
X181884793Y-124918041D01*
X181884793Y-124918041D02*
X181696832Y-124905724D01*
X181696832Y-124905724D02*
X181529099Y-124872703D01*
X181529099Y-124872703D02*
X181374682Y-124822565D01*
X181374682Y-124822565D02*
X181236310Y-124759589D01*
X181236310Y-124759589D02*
X181109237Y-124684193D01*
X181109237Y-124684193D02*
X180993574Y-124597802D01*
X180993574Y-124597802D02*
X180887822Y-124500006D01*
X180887822Y-124500006D02*
X180792698Y-124391573D01*
X180792698Y-124391573D02*
X180730396Y-124306226D01*
X180727300Y-124301612D02*
X167857501Y-102029999D01*
X213379500Y-106678000D02*
X182655417Y-124681084D01*
X160357500Y-100530001D02*
G75*
G02X160857499Y-102029999I-500000J-999999D01*
G01*
X144857500Y-91780000D02*
X160357499Y-100530001D01*
X261601095Y-83174629D02*
X253937500Y-102988000D01*
X115265500Y-106670000D02*
X115108185Y-106626571D01*
X115108185Y-106626571D02*
X114942674Y-106589456D01*
X114942674Y-106589456D02*
X114770355Y-106559848D01*
X114770355Y-106559848D02*
X114610944Y-106540460D01*
X74707500Y-102980000D02*
X74822597Y-103065852D01*
X74822597Y-103065852D02*
X74970966Y-103118139D01*
X74970966Y-103118139D02*
X75061065Y-103126298D01*
X105188823Y-13280000D02*
X105188823Y-11030000D01*
X144939288Y-14279873D02*
X144909512Y-14109629D01*
X144909512Y-14109629D02*
X144838473Y-13978866D01*
X144838473Y-13978866D02*
X144737705Y-13878776D01*
X144737705Y-13878776D02*
X144607303Y-13808927D01*
X144607303Y-13808927D02*
X144439405Y-13780000D01*
X144939288Y-14279873D02*
X144857500Y-91780000D01*
X55717500Y-83020309D02*
X22567500Y-83020309D01*
X11190372Y-27270174D02*
X11188596Y-82518930D01*
X48689119Y-26768525D02*
X11690499Y-26770301D01*
X85689263Y-5518292D02*
X68689060Y-5518292D01*
X86190406Y-10020126D02*
X86189642Y-6018671D01*
X104688444Y-10518729D02*
X98742500Y-10530000D01*
X115265500Y-106670000D02*
X146059583Y-124681084D01*
X49271118Y-13507634D02*
X49272130Y-26268651D01*
X67688559Y-13029873D02*
X60827500Y-13018729D01*
X68190456Y-6020194D02*
X68188680Y-12530000D01*
X144439405Y-13780000D02*
X105688697Y-13780126D01*
X11190372Y-82520200D02*
X11220358Y-82691029D01*
X11220358Y-82691029D02*
X11290790Y-82820683D01*
X11290790Y-82820683D02*
X11391009Y-82920590D01*
X11391009Y-82920590D02*
X11521083Y-82990687D01*
X11521083Y-82990687D02*
X11690494Y-83020073D01*
X11690494Y-83020073D02*
X11690499Y-83020073D01*
X11690499Y-26770301D02*
X11519649Y-26800200D01*
X11519649Y-26800200D02*
X11389810Y-26870679D01*
X11389810Y-26870679D02*
X11289552Y-26971337D01*
X11289552Y-26971337D02*
X11219579Y-27101494D01*
X11219579Y-27101494D02*
X11190372Y-27270169D01*
X11190372Y-27270169D02*
X11190372Y-27270174D01*
X48772008Y-26768525D02*
X48942852Y-26738617D01*
X48942852Y-26738617D02*
X49072690Y-26668136D01*
X49072690Y-26668136D02*
X49172947Y-26567479D01*
X49172947Y-26567479D02*
X49242885Y-26437409D01*
X49242885Y-26437409D02*
X49272130Y-26268651D01*
X49772003Y-13008777D02*
X49601221Y-13038743D01*
X49601221Y-13038743D02*
X49471448Y-13109245D01*
X49471448Y-13109245D02*
X49370740Y-13210574D01*
X49370740Y-13210574D02*
X49300801Y-13341467D01*
X49300801Y-13341467D02*
X49272130Y-13508651D01*
X67688559Y-13029873D02*
X67859403Y-12999965D01*
X67859403Y-12999965D02*
X67989240Y-12929484D01*
X67989240Y-12929484D02*
X68089497Y-12828827D01*
X68089497Y-12828827D02*
X68159435Y-12698757D01*
X68159435Y-12698757D02*
X68188680Y-12530000D01*
X68690330Y-5520068D02*
X68519493Y-5550054D01*
X68519493Y-5550054D02*
X68389690Y-5620598D01*
X68389690Y-5620598D02*
X68289485Y-5721306D01*
X68289485Y-5721306D02*
X68219448Y-5851859D01*
X68219448Y-5851859D02*
X68190456Y-6020189D01*
X86190406Y-6020194D02*
X86160695Y-5849883D01*
X86160695Y-5849883D02*
X86089680Y-5719055D01*
X86089680Y-5719055D02*
X85989363Y-5619247D01*
X85989363Y-5619247D02*
X85859292Y-5549305D01*
X85859292Y-5549305D02*
X85690533Y-5520068D01*
X85690533Y-19770068D02*
X85690533Y-19770068D01*
X86190406Y-10020126D02*
X86220305Y-10190969D01*
X86220305Y-10190969D02*
X86290672Y-10320657D01*
X86290672Y-10320657D02*
X86391443Y-10421065D01*
X86391443Y-10421065D02*
X86521962Y-10491167D01*
X86521962Y-10491167D02*
X86690280Y-10520252D01*
X105190351Y-11020126D02*
X105160572Y-10849882D01*
X105160572Y-10849882D02*
X105089535Y-10719121D01*
X105089535Y-10719121D02*
X104988771Y-10619032D01*
X104988771Y-10619032D02*
X104858372Y-10549181D01*
X104858372Y-10549181D02*
X104690478Y-10520252D01*
X147987700Y-124301612D02*
X160857499Y-102029999D01*
X146059583Y-124681084D02*
X146186001Y-124756974D01*
X146186001Y-124756974D02*
X146323578Y-124820605D01*
X146323578Y-124820605D02*
X146475791Y-124871055D01*
X146475791Y-124871055D02*
X146643927Y-124905039D01*
X146643927Y-124905039D02*
X146831764Y-124918044D01*
X146831764Y-124918044D02*
X147020736Y-124905376D01*
X147020736Y-124905376D02*
X147187905Y-124872176D01*
X147187905Y-124872176D02*
X147340309Y-124822565D01*
X147340309Y-124822565D02*
X147484248Y-124756660D01*
X147484248Y-124756660D02*
X147609483Y-124681691D01*
X147609483Y-124681691D02*
X147732865Y-124588170D01*
X147732865Y-124588170D02*
X147835829Y-124491032D01*
X147835829Y-124491032D02*
X147929274Y-124382656D01*
X147929274Y-124382656D02*
X147984604Y-124306226D01*
X75061065Y-103126298D02*
X114610944Y-106540460D01*
X67043905Y-83166629D02*
X74707500Y-102980000D01*
X86690528Y-10520252D02*
X93902500Y-10530000D01*
X49772003Y-13008777D02*
X55992500Y-13030000D01*
X11690499Y-83020073D02*
X17807500Y-83020309D01*
X66690339Y-83020073D02*
X60557500Y-83021073D01*
X261954661Y-83028073D02*
X268077500Y-83028073D01*
X316954501Y-83028073D02*
X310827500Y-83028073D01*
X278954616Y-13028252D02*
X273007500Y-13028252D01*
X241954472Y-10428252D02*
X235107500Y-10428252D01*
X253937500Y-102988000D02*
X253822394Y-103073852D01*
X253822394Y-103073852D02*
X253674213Y-103126105D01*
X253674213Y-103126105D02*
X253583935Y-103134298D01*
X253583935Y-103134298D02*
X214034056Y-106548460D01*
X197160396Y-114564226D02*
X197157300Y-114559612D01*
X223454649Y-13280126D02*
X223424721Y-13450774D01*
X223424721Y-13450774D02*
X223354110Y-13580757D01*
X223354110Y-13580757D02*
X223253104Y-13681189D01*
X223253104Y-13681189D02*
X223121769Y-13751383D01*
X223121769Y-13751383D02*
X222954527Y-13780000D01*
X223454649Y-10928126D02*
X223484614Y-10757344D01*
X223484614Y-10757344D02*
X223555116Y-10627571D01*
X223555116Y-10627571D02*
X223656445Y-10526863D01*
X223656445Y-10526863D02*
X223787338Y-10456924D01*
X223787338Y-10456924D02*
X223954522Y-10428252D01*
X241954720Y-22028252D02*
X241954472Y-22028252D01*
X242454346Y-9928126D02*
X242424439Y-10098969D01*
X242424439Y-10098969D02*
X242353958Y-10228807D01*
X242353958Y-10228807D02*
X242253302Y-10329065D01*
X242253302Y-10329065D02*
X242123231Y-10399005D01*
X242123231Y-10399005D02*
X241954472Y-10428252D01*
X242954467Y-19778068D02*
X242954467Y-19778068D01*
X242454594Y-6278194D02*
X242484493Y-6107344D01*
X242484493Y-6107344D02*
X242554972Y-5977505D01*
X242554972Y-5977505D02*
X242655630Y-5877247D01*
X242655630Y-5877247D02*
X242785789Y-5807274D01*
X242785789Y-5807274D02*
X242954467Y-5778068D01*
X260454544Y-20278189D02*
X260454544Y-20278194D01*
X259954670Y-5778068D02*
X260125499Y-5808054D01*
X260125499Y-5808054D02*
X260255153Y-5878485D01*
X260255153Y-5878485D02*
X260355060Y-5978704D01*
X260355060Y-5978704D02*
X260425157Y-6108779D01*
X260425157Y-6108779D02*
X260454544Y-6278189D01*
X260454544Y-21528379D02*
X260454544Y-21528126D01*
X260954665Y-13028252D02*
X260784352Y-12998539D01*
X260784352Y-12998539D02*
X260653526Y-12927524D01*
X260653526Y-12927524D02*
X260553383Y-12826754D01*
X260553383Y-12826754D02*
X260483491Y-12696326D01*
X260483491Y-12696326D02*
X260454544Y-12528379D01*
X278954616Y-13028252D02*
X279125389Y-13058218D01*
X279125389Y-13058218D02*
X279255013Y-13128607D01*
X279255013Y-13128607D02*
X279354916Y-13228772D01*
X279354916Y-13228772D02*
X279425424Y-13359862D01*
X279425424Y-13359862D02*
X279454489Y-13528126D01*
X279454489Y-26278427D02*
X279454489Y-26278179D01*
X279955881Y-26776525D02*
X279785568Y-26746812D01*
X279785568Y-26746812D02*
X279654742Y-26675797D01*
X279654742Y-26675797D02*
X279554599Y-26575027D01*
X279554599Y-26575027D02*
X279484707Y-26444599D01*
X279484707Y-26444599D02*
X279455759Y-26276651D01*
X317454628Y-27278169D02*
X317454628Y-27278174D01*
X316954501Y-26778301D02*
X317125344Y-26808200D01*
X317125344Y-26808200D02*
X317255032Y-26878566D01*
X317255032Y-26878566D02*
X317355440Y-26979337D01*
X317355440Y-26979337D02*
X317425543Y-27109854D01*
X317425543Y-27109854D02*
X317454628Y-27278169D01*
X316954506Y-83028073D02*
X316954501Y-83028073D01*
X317454628Y-82528200D02*
X317424700Y-82698849D01*
X317424700Y-82698849D02*
X317354088Y-82828833D01*
X317354088Y-82828833D02*
X317253082Y-82929264D01*
X317253082Y-82929264D02*
X317121746Y-82999458D01*
X317121746Y-82999458D02*
X316954506Y-83028073D01*
X261601095Y-83174629D02*
X261715496Y-83089029D01*
X261715496Y-83089029D02*
X261863416Y-83036484D01*
X261863416Y-83036484D02*
X261954661Y-83028073D01*
X184205595Y-13778224D02*
X222954527Y-13780000D01*
X260456320Y-6276671D02*
X260454544Y-12528379D01*
X260956699Y-13026729D02*
X268207500Y-13026729D01*
X279455501Y-13527109D02*
X279455759Y-26276651D01*
X223956556Y-10426729D02*
X229907500Y-10380000D01*
X242454346Y-9928126D02*
X242455358Y-6276671D01*
X242955737Y-5776292D02*
X259955940Y-5776292D01*
X279955881Y-26776525D02*
X316954501Y-26778301D01*
X317454628Y-27278174D02*
X317456404Y-82526930D01*
X272927500Y-83027309D02*
X306077500Y-83027309D01*
X183705712Y-14278097D02*
X183704185Y-91780000D01*
X183705712Y-14278097D02*
X183735674Y-14107315D01*
X183735674Y-14107315D02*
X183806178Y-13977540D01*
X183806178Y-13977540D02*
X183907511Y-13876831D01*
X183907511Y-13876831D02*
X184038409Y-13806894D01*
X184038409Y-13806894D02*
X184205595Y-13778224D01*
X223456177Y-13225707D02*
X223454649Y-10928126D01*
X213379500Y-106678000D02*
X213536810Y-106634571D01*
X213536810Y-106634571D02*
X213702322Y-106597456D01*
X213702322Y-106597456D02*
X213874639Y-106567848D01*
X213874639Y-106567848D02*
X214034056Y-106548460D01*
X22562500Y-83253000D02*
X22586000Y-83476000D01*
X22562500Y-83247000D02*
X22562500Y-83253000D01*
X22567500Y-83020309D02*
X22562500Y-83247000D01*
X17788600Y-83488000D02*
X17787700Y-83493000D01*
X17789600Y-83484000D02*
X17788600Y-83488000D01*
X17789600Y-83483000D02*
X17789600Y-83484000D01*
X17789600Y-83483000D02*
X17789600Y-83483000D01*
X17789600Y-83483000D02*
X17789600Y-83483000D01*
X17812300Y-83252000D02*
X17789600Y-83483000D01*
X17812300Y-83252000D02*
X17812300Y-83252000D01*
X17812500Y-83250000D02*
X17812300Y-83252000D01*
X17807500Y-83020309D02*
X17812500Y-83250000D01*
X10687500Y-85625000D02*
X10687500Y-133007000D01*
X317944500Y-85608000D02*
X317945500Y-132996000D01*
X65820700Y-130255000D02*
X66016600Y-130359000D01*
X229592500Y-3999000D02*
X229420500Y-3858700D01*
X229420500Y-3858700D02*
X229224500Y-3754500D01*
X317614500Y-133800000D02*
X317754500Y-133628000D01*
X312052500Y-84476000D02*
X311821500Y-84453000D01*
X60737500Y-4800000D02*
X60827500Y-13018729D01*
X60759400Y-4576600D02*
X60737500Y-4800000D01*
X60823600Y-4364100D02*
X60759400Y-4576600D01*
X60927800Y-4168200D02*
X60823600Y-4364100D01*
X61068000Y-3996200D02*
X60927800Y-4168200D01*
X61239100Y-3854700D02*
X61068000Y-3996200D01*
X61434300Y-3749100D02*
X61239100Y-3854700D01*
X61646300Y-3683500D02*
X61434300Y-3749100D01*
X61869400Y-3660000D02*
X61646300Y-3683500D01*
X61700200Y-17985000D02*
X61694400Y-17985000D01*
X92747600Y-3660000D02*
X61875200Y-3660000D01*
X92970900Y-3681900D02*
X92747600Y-3660000D01*
X93183400Y-3746100D02*
X92970900Y-3681900D01*
X93379300Y-3850300D02*
X93183400Y-3746100D01*
X93551300Y-3990600D02*
X93379300Y-3850300D01*
X93692800Y-4161600D02*
X93551300Y-3990600D01*
X93798400Y-4356800D02*
X93692800Y-4161600D01*
X93864000Y-4568800D02*
X93798400Y-4356800D01*
X93897500Y-4800000D02*
X93864000Y-4568800D01*
X235095500Y-4791000D02*
X235107500Y-10428252D01*
X235116500Y-4567600D02*
X235095500Y-4791000D01*
X235181500Y-4355100D02*
X235116500Y-4567600D01*
X235285500Y-4159200D02*
X235181500Y-4355100D01*
X235425500Y-3987200D02*
X235285500Y-4159200D01*
X235596500Y-3845700D02*
X235425500Y-3987200D01*
X235791500Y-3740100D02*
X235596500Y-3845700D01*
X236003500Y-3674500D02*
X235791500Y-3740100D01*
X236226500Y-3651000D02*
X236003500Y-3674500D01*
X236232500Y-3651000D02*
X236226500Y-3651000D01*
X267105500Y-3651000D02*
X236232500Y-3651000D01*
X267328500Y-3672900D02*
X267105500Y-3651000D01*
X267540500Y-3737100D02*
X267328500Y-3672900D01*
X267736500Y-3841300D02*
X267540500Y-3737100D01*
X267908500Y-3981600D02*
X267736500Y-3841300D01*
X268050500Y-4152600D02*
X267908500Y-3981600D01*
X268155500Y-4347800D02*
X268050500Y-4152600D01*
X268221500Y-4559800D02*
X268155500Y-4347800D01*
X268244500Y-4782900D02*
X268221500Y-4559800D01*
X268069500Y-19113700D02*
X268069500Y-19107900D01*
X268207500Y-13026729D02*
X268244500Y-4788700D01*
X55712500Y-83245000D02*
X55717500Y-83020309D01*
X55690600Y-83468000D02*
X55712500Y-83245000D01*
X55626400Y-83681000D02*
X55690600Y-83468000D01*
X55522200Y-83877000D02*
X55626400Y-83681000D01*
X55382000Y-84049000D02*
X55522200Y-83877000D01*
X55210900Y-84190000D02*
X55382000Y-84049000D01*
X55015700Y-84296000D02*
X55210900Y-84190000D01*
X54803700Y-84362000D02*
X55015700Y-84296000D01*
X54580600Y-84385000D02*
X54803700Y-84362000D01*
X54574800Y-84385000D02*
X54580600Y-84385000D01*
X23702400Y-84385000D02*
X54574800Y-84385000D01*
X23479100Y-84363000D02*
X23702400Y-84385000D01*
X23266600Y-84299000D02*
X23479100Y-84363000D01*
X23070700Y-84195000D02*
X23266600Y-84299000D01*
X22898600Y-84054000D02*
X23070700Y-84195000D01*
X22757200Y-83883000D02*
X22898600Y-84054000D01*
X22651600Y-83688000D02*
X22757200Y-83883000D01*
X22586000Y-83476000D02*
X22651600Y-83688000D01*
X306069500Y-83236000D02*
X306077500Y-83027309D01*
X306048500Y-83459000D02*
X306069500Y-83236000D01*
X305983500Y-83672000D02*
X306048500Y-83459000D01*
X305879500Y-83868000D02*
X305983500Y-83672000D01*
X305739500Y-84040000D02*
X305879500Y-83868000D01*
X305568500Y-84181000D02*
X305739500Y-84040000D01*
X305373500Y-84287000D02*
X305568500Y-84181000D01*
X305161500Y-84353000D02*
X305373500Y-84287000D01*
X304938500Y-84376000D02*
X305161500Y-84353000D01*
X304932500Y-84376000D02*
X304938500Y-84376000D01*
X274059500Y-84376000D02*
X304932500Y-84376000D01*
X273836500Y-84354000D02*
X274059500Y-84376000D01*
X273624500Y-84290000D02*
X273836500Y-84354000D01*
X273428500Y-84186000D02*
X273624500Y-84290000D01*
X273256500Y-84045000D02*
X273428500Y-84186000D01*
X273114500Y-83874000D02*
X273256500Y-84045000D01*
X273009500Y-83679000D02*
X273114500Y-83874000D01*
X272943500Y-83467000D02*
X273009500Y-83679000D01*
X272920500Y-83244000D02*
X272943500Y-83467000D01*
X272920500Y-83238000D02*
X272920500Y-83244000D01*
X272927500Y-83027309D02*
X272920500Y-83238000D01*
X98737500Y-4800000D02*
X98742500Y-10530000D01*
X98759500Y-4576600D02*
X98737500Y-4800000D01*
X98823500Y-4364100D02*
X98759500Y-4576600D01*
X98927500Y-4168200D02*
X98823500Y-4364100D01*
X99068500Y-3996200D02*
X98927500Y-4168200D01*
X99239500Y-3854700D02*
X99068500Y-3996200D01*
X99434500Y-3749100D02*
X99239500Y-3854700D01*
X99646500Y-3683500D02*
X99434500Y-3749100D01*
X99869500Y-3660000D02*
X99646500Y-3683500D01*
X228789500Y-3668400D02*
X99875500Y-3660000D01*
X229012500Y-3690300D02*
X228789500Y-3668400D01*
X229224500Y-3754500D02*
X229012500Y-3690300D01*
X229734500Y-4170000D02*
X229592500Y-3999000D01*
X229839500Y-4365200D02*
X229734500Y-4170000D01*
X229905500Y-4577200D02*
X229839500Y-4365200D01*
X229928500Y-4800300D02*
X229905500Y-4577200D01*
X230069500Y-19113700D02*
X230069500Y-19107900D01*
X229907500Y-10380000D02*
X229899500Y-4788700D01*
X268070500Y-83236000D02*
X268077500Y-83028073D01*
X268048500Y-83459000D02*
X268070500Y-83236000D01*
X267983500Y-83672000D02*
X268048500Y-83459000D01*
X267879500Y-83868000D02*
X267983500Y-83672000D01*
X267739500Y-84040000D02*
X267879500Y-83868000D01*
X267568500Y-84181000D02*
X267739500Y-84040000D01*
X267373500Y-84287000D02*
X267568500Y-84181000D01*
X267161500Y-84353000D02*
X267373500Y-84287000D01*
X266938500Y-84376000D02*
X267161500Y-84353000D01*
X266932500Y-84376000D02*
X266938500Y-84376000D01*
X265742500Y-84376000D02*
X266932500Y-84376000D01*
X265742500Y-84376000D02*
X265742500Y-84376000D01*
X265736500Y-84376000D02*
X265742500Y-84376000D01*
X265734500Y-84376000D02*
X265736500Y-84376000D01*
X265732500Y-84376000D02*
X265734500Y-84376000D01*
X265731500Y-84376000D02*
X265732500Y-84376000D01*
X265500500Y-84401000D02*
X265731500Y-84376000D01*
X265496500Y-84401000D02*
X265500500Y-84401000D01*
X265492500Y-84402000D02*
X265496500Y-84401000D01*
X265491500Y-84403000D02*
X265492500Y-84402000D01*
X265491500Y-84403000D02*
X265491500Y-84403000D01*
X265270500Y-84471000D02*
X265491500Y-84403000D01*
X265265500Y-84473000D02*
X265270500Y-84471000D01*
X265261500Y-84474000D02*
X265265500Y-84473000D01*
X265261500Y-84475000D02*
X265261500Y-84474000D01*
X265261500Y-84475000D02*
X265261500Y-84475000D01*
X265261500Y-84475000D02*
X265261500Y-84475000D01*
X265057500Y-84585000D02*
X265261500Y-84475000D01*
X265053500Y-84588000D02*
X265057500Y-84585000D01*
X265049500Y-84590000D02*
X265053500Y-84588000D01*
X265049500Y-84591000D02*
X265049500Y-84590000D01*
X264870500Y-84738000D02*
X265049500Y-84591000D01*
X264867500Y-84741000D02*
X264870500Y-84738000D01*
X264864500Y-84745000D02*
X264867500Y-84741000D01*
X264863500Y-84745000D02*
X264864500Y-84745000D01*
X264717500Y-84925000D02*
X264863500Y-84745000D01*
X264714500Y-84929000D02*
X264717500Y-84925000D01*
X264712500Y-84932000D02*
X264714500Y-84929000D01*
X264711500Y-84933000D02*
X264712500Y-84932000D01*
X264711500Y-84933000D02*
X264711500Y-84933000D01*
X264711500Y-84933000D02*
X264711500Y-84933000D01*
X264602500Y-85138000D02*
X264711500Y-84933000D01*
X264601500Y-85142000D02*
X264602500Y-85138000D01*
X264599500Y-85146000D02*
X264601500Y-85142000D01*
X264599500Y-85147000D02*
X264599500Y-85146000D01*
X264532500Y-85368000D02*
X264599500Y-85147000D01*
X264531500Y-85373000D02*
X264532500Y-85368000D01*
X264530500Y-85377000D02*
X264531500Y-85373000D01*
X264530500Y-85378000D02*
X264530500Y-85377000D01*
X264530500Y-85378000D02*
X264530500Y-85378000D01*
X264530500Y-85378000D02*
X264530500Y-85378000D01*
X264507500Y-85609000D02*
X264530500Y-85378000D01*
X264507500Y-85609000D02*
X264507500Y-85609000D01*
X264507500Y-85611000D02*
X264507500Y-85609000D01*
X264507500Y-129296000D02*
X264507500Y-85611000D01*
X264485500Y-129519000D02*
X264507500Y-129296000D01*
X264421500Y-129732000D02*
X264485500Y-129519000D01*
X264317500Y-129928000D02*
X264421500Y-129732000D01*
X264176500Y-130100000D02*
X264317500Y-129928000D01*
X264005500Y-130241000D02*
X264176500Y-130100000D01*
X263810500Y-130347000D02*
X264005500Y-130241000D01*
X263598500Y-130413000D02*
X263810500Y-130347000D01*
X263375500Y-130436000D02*
X263598500Y-130413000D01*
X263369500Y-130436000D02*
X263375500Y-130436000D01*
X66454500Y-130444000D02*
X263369500Y-130436000D01*
X66229100Y-130423000D02*
X66452400Y-130445000D01*
X66016600Y-130359000D02*
X66229100Y-130423000D01*
X65648600Y-130114000D02*
X65820700Y-130255000D01*
X65507200Y-129943000D02*
X65648600Y-130114000D01*
X65401600Y-129748000D02*
X65507200Y-129943000D01*
X65336000Y-129536000D02*
X65401600Y-129748000D01*
X65312500Y-129313000D02*
X65336000Y-129536000D01*
X65312500Y-129307000D02*
X65312500Y-129313000D01*
X65312500Y-85620000D02*
X65312500Y-129307000D01*
X65312500Y-85620000D02*
X65312500Y-85620000D01*
X65312500Y-85614000D02*
X65312500Y-85620000D01*
X65312200Y-85612000D02*
X65312500Y-85614000D01*
X65312300Y-85610000D02*
X65312200Y-85612000D01*
X65312200Y-85609000D02*
X65312300Y-85610000D01*
X65288000Y-85379000D02*
X65312200Y-85609000D01*
X65287100Y-85374000D02*
X65288000Y-85379000D01*
X65286200Y-85370000D02*
X65287100Y-85374000D01*
X65286000Y-85369000D02*
X65286200Y-85370000D01*
X65217500Y-85148000D02*
X65286000Y-85369000D01*
X65215700Y-85143000D02*
X65217500Y-85148000D01*
X65214000Y-85139000D02*
X65215700Y-85143000D01*
X65213700Y-85139000D02*
X65214000Y-85139000D01*
X65213700Y-85139000D02*
X65213700Y-85139000D01*
X65213700Y-85139000D02*
X65213700Y-85139000D01*
X65103500Y-84935000D02*
X65213700Y-85139000D01*
X65100900Y-84931000D02*
X65103500Y-84935000D01*
X65098400Y-84927000D02*
X65100900Y-84931000D01*
X65098000Y-84927000D02*
X65098400Y-84927000D01*
X64950300Y-84748000D02*
X65098000Y-84927000D01*
X64947000Y-84745000D02*
X64950300Y-84748000D01*
X64943900Y-84742000D02*
X64947000Y-84745000D01*
X64943400Y-84741000D02*
X64943900Y-84742000D01*
X64763800Y-84595000D02*
X64943400Y-84741000D01*
X64759999Y-84592000D02*
X64763800Y-84595000D01*
X64756199Y-84590000D02*
X64759999Y-84592000D01*
X64755600Y-84589000D02*
X64756199Y-84590000D01*
X64755600Y-84589000D02*
X64755600Y-84589000D01*
X64755600Y-84589000D02*
X64755600Y-84589000D01*
X64551000Y-84480000D02*
X64755600Y-84589000D01*
X64546800Y-84479000D02*
X64551000Y-84480000D01*
X64542599Y-84477000D02*
X64546800Y-84479000D01*
X64542000Y-84477000D02*
X64542599Y-84477000D01*
X64320100Y-84410000D02*
X64542000Y-84477000D01*
X64315600Y-84409000D02*
X64320100Y-84410000D01*
X64311200Y-84408000D02*
X64315600Y-84409000D01*
X64310500Y-84408000D02*
X64311200Y-84408000D01*
X64310500Y-84408000D02*
X64310500Y-84408000D01*
X64310500Y-84408000D02*
X64310500Y-84408000D01*
X64079900Y-84385000D02*
X64310500Y-84408000D01*
X64079900Y-84385000D02*
X64079900Y-84385000D01*
X64077400Y-84385000D02*
X64079900Y-84385000D01*
X61702400Y-84385000D02*
X64077400Y-84385000D01*
X61479100Y-84363000D02*
X61702400Y-84385000D01*
X61266600Y-84299000D02*
X61479100Y-84363000D01*
X61070700Y-84195000D02*
X61266600Y-84299000D01*
X60898600Y-84054000D02*
X61070700Y-84195000D01*
X60757200Y-83883000D02*
X60898600Y-84054000D01*
X60651600Y-83688000D02*
X60757200Y-83883000D01*
X60586000Y-83476000D02*
X60651600Y-83688000D01*
X60562500Y-83253000D02*
X60586000Y-83476000D01*
X60562500Y-83247000D02*
X60562500Y-83253000D01*
X60557500Y-83021073D02*
X60562500Y-83247000D01*
X55987500Y-4795100D02*
X55992500Y-13030000D01*
X55812500Y-19120000D02*
X55812500Y-19120100D01*
X55812500Y-19114100D02*
X55812500Y-19120000D01*
X55812200Y-19111900D02*
X55812500Y-19114100D01*
X55812300Y-19109700D02*
X55812200Y-19111900D01*
X55812200Y-19109000D02*
X55812300Y-19109700D01*
X55963000Y-4553500D02*
X55987200Y-4784000D01*
X55787100Y-18874100D02*
X55788000Y-18878500D01*
X55786200Y-18869600D02*
X55787100Y-18874100D01*
X55786000Y-18869000D02*
X55786200Y-18869600D01*
X55892500Y-4322600D02*
X55961000Y-4544000D01*
X55715700Y-18643400D02*
X55717500Y-18647600D01*
X55714000Y-18639200D02*
X55715700Y-18643400D01*
X55713700Y-18638600D02*
X55714000Y-18639200D01*
X55713700Y-18638600D02*
X55713700Y-18638600D01*
X55713700Y-18638600D02*
X55713700Y-18638600D01*
X55778500Y-4109700D02*
X55888700Y-4313600D01*
X55600900Y-18430900D02*
X55603500Y-18434700D01*
X55598400Y-18427100D02*
X55600900Y-18430900D01*
X55598000Y-18426600D02*
X55598400Y-18427100D01*
X55625300Y-3923000D02*
X55773000Y-4101600D01*
X55447000Y-18244800D02*
X55450300Y-18248000D01*
X55443900Y-18241600D02*
X55447000Y-18244800D01*
X55443400Y-18241200D02*
X55443900Y-18241600D01*
X55438800Y-3769700D02*
X55618400Y-3916200D01*
X55260000Y-18092200D02*
X55263800Y-18094700D01*
X55256200Y-18089600D02*
X55260000Y-18092200D01*
X55255600Y-18089300D02*
X55256200Y-18089600D01*
X55255600Y-18089300D02*
X55255600Y-18089300D01*
X55255600Y-18089300D02*
X55255600Y-18089300D01*
X55226000Y-3655500D02*
X55430600Y-3764300D01*
X55046800Y-17978700D02*
X55051000Y-17980500D01*
X55042600Y-17977000D02*
X55046800Y-17978700D01*
X55042000Y-17976800D02*
X55042600Y-17977000D01*
X54995100Y-3584800D02*
X55217000Y-3651800D01*
X54815600Y-17908900D02*
X54820100Y-17909800D01*
X54811200Y-17907900D02*
X54815600Y-17908900D01*
X54810500Y-17907900D02*
X54811200Y-17907900D01*
X54810500Y-17907900D02*
X54810500Y-17907900D01*
X54810500Y-17907900D02*
X54810500Y-17907900D01*
X54754900Y-3560300D02*
X54985500Y-3582900D01*
X54579900Y-17885300D02*
X54579900Y-17885300D01*
X54577400Y-17885000D02*
X54579900Y-17885300D01*
X12002400Y-3560000D02*
X54752400Y-3560000D01*
X11779100Y-3538100D02*
X12002400Y-3560000D01*
X11566600Y-3474000D02*
X11779100Y-3538100D01*
X11370700Y-3369800D02*
X11566600Y-3474000D01*
X11198600Y-3229500D02*
X11370700Y-3369800D01*
X11057200Y-3058500D02*
X11198600Y-3229500D01*
X10951600Y-2863200D02*
X11057200Y-3058500D01*
X10886000Y-2651200D02*
X10951600Y-2863200D01*
X10862500Y-2428100D02*
X10886000Y-2651200D01*
X10862500Y-2422300D02*
X10862500Y-2428100D01*
X10862500Y1137500D02*
X10862500Y-2422300D01*
X10884400Y1360900D02*
X10862500Y1137500D01*
X10948600Y1573400D02*
X10884400Y1360900D01*
X11052800Y1769300D02*
X10948600Y1573400D01*
X11193000Y1941300D02*
X11052800Y1769300D01*
X11364100Y2082800D02*
X11193000Y1941300D01*
X11559300Y2188400D02*
X11364100Y2082800D01*
X11771300Y2254000D02*
X11559300Y2188400D01*
X11994400Y2277500D02*
X11771300Y2254000D01*
X12000200Y2277500D02*
X11994400Y2277500D01*
X316980500Y2286500D02*
X12000200Y2277500D01*
X317203500Y2264600D02*
X316980500Y2286500D01*
X317415500Y2200400D02*
X317203500Y2264600D01*
X317611500Y2096200D02*
X317415500Y2200400D01*
X317783500Y1955900D02*
X317611500Y2096200D01*
X317925500Y1784900D02*
X317783500Y1955900D01*
X318030500Y1589700D02*
X317925500Y1784900D01*
X318096500Y1377700D02*
X318030500Y1589700D01*
X318119500Y1154600D02*
X318096500Y1377700D01*
X318119500Y1148800D02*
X318119500Y1154600D01*
X318120500Y-2411100D02*
X318119500Y1148800D01*
X318098500Y-2634400D02*
X318120500Y-2411100D01*
X318033500Y-2846900D02*
X318098500Y-2634400D01*
X317929500Y-3042900D02*
X318033500Y-2846900D01*
X317789500Y-3214900D02*
X317929500Y-3042900D01*
X317618500Y-3356400D02*
X317789500Y-3214900D01*
X317423500Y-3461900D02*
X317618500Y-3356400D01*
X317211500Y-3527600D02*
X317423500Y-3461900D01*
X316988500Y-3551000D02*
X317211500Y-3527600D01*
X316982500Y-3551000D02*
X316988500Y-3551000D01*
X274230500Y-3551000D02*
X316982500Y-3551000D01*
X274054500Y-17876000D02*
X274055500Y-17876000D01*
X274049500Y-17876000D02*
X274054500Y-17876000D01*
X274046500Y-17876300D02*
X274049500Y-17876000D01*
X274044500Y-17876300D02*
X274046500Y-17876300D01*
X274043500Y-17876300D02*
X274044500Y-17876300D01*
X273988500Y-3575500D02*
X274218500Y-3551300D01*
X273809500Y-17901500D02*
X273813500Y-17900500D01*
X273804500Y-17902300D02*
X273809500Y-17901500D01*
X273803500Y-17902500D02*
X273804500Y-17902300D01*
X273803500Y-17902500D02*
X273803500Y-17902500D01*
X273757500Y-3646000D02*
X273978500Y-3577500D01*
X273578500Y-17972800D02*
X273582500Y-17971000D01*
X273574500Y-17974500D02*
X273578500Y-17972800D01*
X273573500Y-17974800D02*
X273574500Y-17974500D01*
X273573500Y-17974800D02*
X273573500Y-17974800D01*
X273573500Y-17974800D02*
X273573500Y-17974800D01*
X273544500Y-3760100D02*
X273748500Y-3649800D01*
X273365500Y-18087600D02*
X273369500Y-18085100D01*
X273362500Y-18090100D02*
X273365500Y-18087600D01*
X273361500Y-18090500D02*
X273362500Y-18090100D01*
X273358500Y-3913200D02*
X273536500Y-3765500D01*
X273179500Y-18241500D02*
X273183500Y-18238200D01*
X273176500Y-18244600D02*
X273179500Y-18241500D01*
X273176500Y-18245200D02*
X273176500Y-18244600D01*
X273204500Y-4099800D02*
X273351500Y-3920200D01*
X273027500Y-18428500D02*
X273029500Y-18424800D01*
X273024500Y-18432300D02*
X273027500Y-18428500D01*
X273024500Y-18432900D02*
X273024500Y-18432300D01*
X273024500Y-18432900D02*
X273024500Y-18432900D01*
X273024500Y-18432900D02*
X273024500Y-18432900D01*
X273090500Y-4312500D02*
X273199500Y-4107900D01*
X272913500Y-18641700D02*
X272915500Y-18637500D01*
X272911500Y-18645900D02*
X272913500Y-18641700D01*
X272911500Y-18646500D02*
X272911500Y-18645900D01*
X273019500Y-4543400D02*
X273086500Y-4321500D01*
X272843500Y-18872900D02*
X272844500Y-18868400D01*
X272842500Y-18877300D02*
X272843500Y-18872900D01*
X272842500Y-18878000D02*
X272842500Y-18877300D01*
X272842500Y-18878000D02*
X272842500Y-18878000D01*
X272842500Y-18878000D02*
X272842500Y-18878000D01*
X272995500Y-4783600D02*
X273017500Y-4553000D01*
X272819500Y-19111100D02*
X272820500Y-19108600D01*
X273007500Y-13028252D02*
X272994500Y-4786100D01*
X310819500Y-83241000D02*
X310827500Y-83028073D01*
X310820500Y-83241000D02*
X310819500Y-83241000D01*
X310820500Y-83247000D02*
X310820500Y-83241000D01*
X310820500Y-83249000D02*
X310820500Y-83247000D01*
X310820500Y-83251000D02*
X310820500Y-83249000D01*
X310820500Y-83252000D02*
X310820500Y-83251000D01*
X310844500Y-83483000D02*
X310820500Y-83252000D01*
X310845500Y-83487000D02*
X310844500Y-83483000D01*
X310846500Y-83491000D02*
X310845500Y-83487000D01*
X310846500Y-83492000D02*
X310846500Y-83491000D01*
X310915500Y-83713000D02*
X310846500Y-83492000D01*
X310916500Y-83718000D02*
X310915500Y-83713000D01*
X310918500Y-83722000D02*
X310916500Y-83718000D01*
X310918500Y-83722000D02*
X310918500Y-83722000D01*
X310918500Y-83722000D02*
X310918500Y-83722000D01*
X310918500Y-83722000D02*
X310918500Y-83722000D01*
X311029500Y-83926000D02*
X310918500Y-83722000D01*
X311031500Y-83930000D02*
X311029500Y-83926000D01*
X311034500Y-83934000D02*
X311031500Y-83930000D01*
X311034500Y-83934000D02*
X311034500Y-83934000D01*
X311182500Y-84113000D02*
X311034500Y-83934000D01*
X311185500Y-84116000D02*
X311182500Y-84113000D01*
X311188500Y-84119000D02*
X311185500Y-84116000D01*
X311189500Y-84120000D02*
X311188500Y-84119000D01*
X311189500Y-84120000D02*
X311189500Y-84120000D01*
X311189500Y-84120000D02*
X311189500Y-84120000D01*
X311368500Y-84266000D02*
X311189500Y-84120000D01*
X311372500Y-84269000D02*
X311368500Y-84266000D01*
X311376500Y-84271000D02*
X311372500Y-84269000D01*
X311376500Y-84272000D02*
X311376500Y-84271000D01*
X311376500Y-84272000D02*
X311376500Y-84272000D01*
X311581500Y-84381000D02*
X311376500Y-84272000D01*
X311585500Y-84382000D02*
X311581500Y-84381000D01*
X311589500Y-84384000D02*
X311585500Y-84382000D01*
X311590500Y-84384000D02*
X311589500Y-84384000D01*
X311812500Y-84451000D02*
X311590500Y-84384000D01*
X311816500Y-84452000D02*
X311812500Y-84451000D01*
X311821500Y-84453000D02*
X311816500Y-84452000D01*
X311821500Y-84453000D02*
X311821500Y-84453000D01*
X311821500Y-84453000D02*
X311821500Y-84453000D01*
X311821500Y-84453000D02*
X311821500Y-84453000D01*
X312052500Y-84476000D02*
X312052500Y-84476000D01*
X312055500Y-84476000D02*
X312052500Y-84476000D01*
X316805500Y-84476000D02*
X312055500Y-84476000D01*
X317028500Y-84498000D02*
X316805500Y-84476000D01*
X317240500Y-84562000D02*
X317028500Y-84498000D01*
X317436500Y-84666000D02*
X317240500Y-84562000D01*
X317608500Y-84807000D02*
X317436500Y-84666000D01*
X317750500Y-84978000D02*
X317608500Y-84807000D01*
X317855500Y-85173000D02*
X317750500Y-84978000D01*
X317921500Y-85385000D02*
X317855500Y-85173000D01*
X317944500Y-85608000D02*
X317921500Y-85385000D01*
X317923500Y-133219000D02*
X317945500Y-132996000D01*
X317858500Y-133432000D02*
X317923500Y-133219000D01*
X317754500Y-133628000D02*
X317858500Y-133432000D01*
X317443500Y-133941000D02*
X317614500Y-133800000D01*
X317248500Y-134047000D02*
X317443500Y-133941000D01*
X317036500Y-134113000D02*
X317248500Y-134047000D01*
X316813500Y-134136000D02*
X317036500Y-134113000D01*
X316807500Y-134136000D02*
X316813500Y-134136000D01*
X11827400Y-134145000D02*
X316807500Y-134136000D01*
X11604100Y-134123000D02*
X11827400Y-134145000D01*
X11391600Y-134059000D02*
X11604100Y-134123000D01*
X11195700Y-133955000D02*
X11391600Y-134059000D01*
X11023600Y-133814000D02*
X11195700Y-133955000D01*
X10882200Y-133643000D02*
X11023600Y-133814000D01*
X10776600Y-133448000D02*
X10882200Y-133643000D01*
X10711000Y-133236000D02*
X10776600Y-133448000D01*
X10687500Y-133013000D02*
X10711000Y-133236000D01*
X10687500Y-133007000D02*
X10687500Y-133013000D01*
X10709400Y-85402000D02*
X10687500Y-85625000D01*
X10773600Y-85189000D02*
X10709400Y-85402000D01*
X10877800Y-84993000D02*
X10773600Y-85189000D01*
X11018000Y-84821000D02*
X10877800Y-84993000D01*
X11189100Y-84680000D02*
X11018000Y-84821000D01*
X11384300Y-84574000D02*
X11189100Y-84680000D01*
X11596300Y-84508000D02*
X11384300Y-84574000D01*
X11819400Y-84485000D02*
X11596300Y-84508000D01*
X11825200Y-84485000D02*
X11819400Y-84485000D01*
X16577400Y-84485000D02*
X11825200Y-84485000D01*
X16577500Y-84485000D02*
X16577400Y-84485000D01*
X16583500Y-84485000D02*
X16577500Y-84485000D01*
X16585600Y-84485000D02*
X16583500Y-84485000D01*
X16587800Y-84485000D02*
X16585600Y-84485000D01*
X16588500Y-84485000D02*
X16587800Y-84485000D01*
X16819000Y-84460000D02*
X16588500Y-84485000D01*
X16823500Y-84460000D02*
X16819000Y-84460000D01*
X16827900Y-84459000D02*
X16823500Y-84460000D01*
X16828600Y-84459000D02*
X16827900Y-84459000D01*
X17050000Y-84390000D02*
X16828600Y-84459000D01*
X17054200Y-84388000D02*
X17050000Y-84390000D01*
X17058300Y-84387000D02*
X17054200Y-84388000D01*
X17059000Y-84386000D02*
X17058300Y-84387000D01*
X17059000Y-84386000D02*
X17059000Y-84386000D01*
X17059000Y-84386000D02*
X17059000Y-84386000D01*
X17262800Y-84276000D02*
X17059000Y-84386000D01*
X17266600Y-84273000D02*
X17262800Y-84276000D01*
X17270400Y-84271000D02*
X17266600Y-84273000D01*
X17270900Y-84271000D02*
X17270400Y-84271000D01*
X17449500Y-84123000D02*
X17270900Y-84271000D01*
X17452700Y-84120000D02*
X17449500Y-84123000D01*
X17455900Y-84116000D02*
X17452700Y-84120000D01*
X17456400Y-84116000D02*
X17455900Y-84116000D01*
X17456400Y-84116000D02*
X17456400Y-84116000D01*
X17456400Y-84116000D02*
X17456400Y-84116000D01*
X17602800Y-83936000D02*
X17456400Y-84116000D01*
X17605400Y-83932000D02*
X17602800Y-83936000D01*
X17607900Y-83929000D02*
X17605400Y-83932000D01*
X17608200Y-83928000D02*
X17607900Y-83929000D01*
X17717000Y-83724000D02*
X17608200Y-83928000D01*
X17718800Y-83719000D02*
X17717000Y-83724000D01*
X17720600Y-83715000D02*
X17718800Y-83719000D01*
X17720800Y-83714000D02*
X17720600Y-83715000D01*
X17787700Y-83493000D02*
X17720800Y-83714000D01*
D11*
X245507500Y-99730000D02*
X241907500Y-99730000D01*
X245507500Y-96630000D02*
X245507500Y-99730000D01*
X241907500Y-96630000D02*
X245507500Y-96630000D01*
X241907500Y-99730000D02*
X241907500Y-96630000D01*
X86307500Y-99730000D02*
X82707500Y-99730000D01*
X86307500Y-96630000D02*
X86307500Y-99730000D01*
X82707500Y-96630000D02*
X86307500Y-96630000D01*
X82707500Y-99730000D02*
X82707500Y-96630000D01*
X135849839Y-100496154D02*
X134049839Y-103613846D01*
X133165161Y-98946154D02*
X135849839Y-100496154D01*
X131365161Y-102063846D02*
X133165161Y-98946154D01*
X134049839Y-103613846D02*
X131365161Y-102063846D01*
X21907500Y-42080000D02*
X18307500Y-42080000D01*
X21907500Y-38980000D02*
X21907500Y-42080000D01*
X18307500Y-38980000D02*
X21907500Y-38980000D01*
X18307500Y-42080000D02*
X18307500Y-38980000D01*
X40907500Y-42080000D02*
X37307500Y-42080000D01*
X40907500Y-38980000D02*
X40907500Y-42080000D01*
X37307500Y-38980000D02*
X40907500Y-38980000D01*
X37307500Y-42080000D02*
X37307500Y-38980000D01*
X59907500Y-28330000D02*
X56307500Y-28330000D01*
X59907500Y-25230000D02*
X59907500Y-28330000D01*
X56307500Y-25230000D02*
X59907500Y-25230000D01*
X56307500Y-28330000D02*
X56307500Y-25230000D01*
X78907500Y-20955000D02*
X75307500Y-20955000D01*
X78907500Y-17855000D02*
X78907500Y-20955000D01*
X75307500Y-17855000D02*
X78907500Y-17855000D01*
X75307500Y-20955000D02*
X75307500Y-17855000D01*
X97907500Y-25830000D02*
X94307500Y-25830000D01*
X97907500Y-22730000D02*
X97907500Y-25830000D01*
X94307500Y-22730000D02*
X97907500Y-22730000D01*
X94307500Y-25830000D02*
X94307500Y-22730000D01*
X116907500Y-30705000D02*
X113307500Y-30705000D01*
X116907500Y-27605000D02*
X116907500Y-30705000D01*
X113307500Y-27605000D02*
X116907500Y-27605000D01*
X113307500Y-30705000D02*
X113307500Y-27605000D01*
X21907500Y-61080000D02*
X18307500Y-61080000D01*
X21907500Y-57980000D02*
X21907500Y-61080000D01*
X18307500Y-57980000D02*
X21907500Y-57980000D01*
X18307500Y-61080000D02*
X18307500Y-57980000D01*
X40907500Y-61080000D02*
X37307500Y-61080000D01*
X40907500Y-57980000D02*
X40907500Y-61080000D01*
X37307500Y-57980000D02*
X40907500Y-57980000D01*
X37307500Y-61080000D02*
X37307500Y-57980000D01*
X59907500Y-47330000D02*
X56307500Y-47330000D01*
X59907500Y-44230000D02*
X59907500Y-47330000D01*
X56307500Y-44230000D02*
X59907500Y-44230000D01*
X56307500Y-47330000D02*
X56307500Y-44230000D01*
X78907500Y-39955000D02*
X75307500Y-39955000D01*
X78907500Y-36855000D02*
X78907500Y-39955000D01*
X75307500Y-36855000D02*
X78907500Y-36855000D01*
X75307500Y-39955000D02*
X75307500Y-36855000D01*
X97907500Y-44830000D02*
X94307500Y-44830000D01*
X97907500Y-41730000D02*
X97907500Y-44830000D01*
X94307500Y-41730000D02*
X97907500Y-41730000D01*
X94307500Y-44830000D02*
X94307500Y-41730000D01*
X116907500Y-49705000D02*
X113307500Y-49705000D01*
X116907500Y-46605000D02*
X116907500Y-49705000D01*
X113307500Y-46605000D02*
X116907500Y-46605000D01*
X113307500Y-49705000D02*
X113307500Y-46605000D01*
X21907500Y-80080000D02*
X18307500Y-80080000D01*
X21907500Y-76980000D02*
X21907500Y-80080000D01*
X18307500Y-76980000D02*
X21907500Y-76980000D01*
X18307500Y-80080000D02*
X18307500Y-76980000D01*
X40907500Y-80080000D02*
X37307500Y-80080000D01*
X40907500Y-76980000D02*
X40907500Y-80080000D01*
X37307500Y-76980000D02*
X40907500Y-76980000D01*
X37307500Y-80080000D02*
X37307500Y-76980000D01*
X59907500Y-66330000D02*
X56307500Y-66330000D01*
X59907500Y-63230000D02*
X59907500Y-66330000D01*
X56307500Y-63230000D02*
X59907500Y-63230000D01*
X56307500Y-66330000D02*
X56307500Y-63230000D01*
X78907500Y-58955000D02*
X75307500Y-58955000D01*
X78907500Y-55855000D02*
X78907500Y-58955000D01*
X75307500Y-55855000D02*
X78907500Y-55855000D01*
X75307500Y-58955000D02*
X75307500Y-55855000D01*
X116907500Y-68705000D02*
X113307500Y-68705000D01*
X116907500Y-65605000D02*
X116907500Y-68705000D01*
X113307500Y-65605000D02*
X116907500Y-65605000D01*
X113307500Y-68705000D02*
X113307500Y-65605000D01*
X105607500Y-100755000D02*
X102007500Y-100755000D01*
X105607500Y-97655000D02*
X105607500Y-100755000D01*
X102007500Y-97655000D02*
X105607500Y-97655000D01*
X102007500Y-100755000D02*
X102007500Y-97655000D01*
X152713460Y-110246154D02*
X150913460Y-113363846D01*
X150028782Y-108696154D02*
X152713460Y-110246154D01*
X148228782Y-111813846D02*
X150028782Y-108696154D01*
X150913460Y-113363846D02*
X148228782Y-111813846D01*
X253157500Y-39955000D02*
X249557500Y-39955000D01*
X253157500Y-36855000D02*
X253157500Y-39955000D01*
X249557500Y-36855000D02*
X253157500Y-36855000D01*
X249557500Y-39955000D02*
X249557500Y-36855000D01*
X234157500Y-44830000D02*
X230557500Y-44830000D01*
X234157500Y-41730000D02*
X234157500Y-44830000D01*
X230557500Y-41730000D02*
X234157500Y-41730000D01*
X230557500Y-44830000D02*
X230557500Y-41730000D01*
X215157500Y-49705000D02*
X211557500Y-49705000D01*
X215157500Y-46605000D02*
X215157500Y-49705000D01*
X211557500Y-46605000D02*
X215157500Y-46605000D01*
X211557500Y-49705000D02*
X211557500Y-46605000D01*
X310157500Y-80080000D02*
X306557500Y-80080000D01*
X310157500Y-76980000D02*
X310157500Y-80080000D01*
X306557500Y-76980000D02*
X310157500Y-76980000D01*
X306557500Y-80080000D02*
X306557500Y-76980000D01*
X291157500Y-80080000D02*
X287557500Y-80080000D01*
X291157500Y-76980000D02*
X291157500Y-80080000D01*
X287557500Y-76980000D02*
X291157500Y-76980000D01*
X287557500Y-80080000D02*
X287557500Y-76980000D01*
X272157500Y-66330000D02*
X268557500Y-66330000D01*
X272157500Y-63230000D02*
X272157500Y-66330000D01*
X268557500Y-63230000D02*
X272157500Y-63230000D01*
X268557500Y-66330000D02*
X268557500Y-63230000D01*
X253157500Y-58955000D02*
X249557500Y-58955000D01*
X253157500Y-55855000D02*
X253157500Y-58955000D01*
X249557500Y-55855000D02*
X253157500Y-55855000D01*
X249557500Y-58955000D02*
X249557500Y-55855000D01*
X234157500Y-63830000D02*
X230557500Y-63830000D01*
X234157500Y-60730000D02*
X234157500Y-63830000D01*
X230557500Y-60730000D02*
X234157500Y-60730000D01*
X230557500Y-63830000D02*
X230557500Y-60730000D01*
X215157500Y-68705000D02*
X211557500Y-68705000D01*
X215157500Y-65605000D02*
X215157500Y-68705000D01*
X211557500Y-65605000D02*
X215157500Y-65605000D01*
X211557500Y-68705000D02*
X211557500Y-65605000D01*
X226457500Y-100955000D02*
X222857500Y-100955000D01*
X226457500Y-97855000D02*
X226457500Y-100955000D01*
X222857500Y-97855000D02*
X226457500Y-97855000D01*
X222857500Y-100955000D02*
X222857500Y-97855000D01*
X194383943Y-103082276D02*
X192583943Y-99964584D01*
X197068621Y-101532276D02*
X194383943Y-103082276D01*
X195268621Y-98414584D02*
X197068621Y-101532276D01*
X192583943Y-99964584D02*
X195268621Y-98414584D01*
X177808540Y-113358846D02*
X176008540Y-110241154D01*
X180493218Y-111808846D02*
X177808540Y-113358846D01*
X178693218Y-108691154D02*
X180493218Y-111808846D01*
X176008540Y-110241154D02*
X178693218Y-108691154D01*
X97907500Y-63830000D02*
X94307500Y-63830000D01*
X97907500Y-60730000D02*
X97907500Y-63830000D01*
X94307500Y-60730000D02*
X97907500Y-60730000D01*
X94307500Y-63830000D02*
X94307500Y-60730000D01*
X310157500Y-42080000D02*
X306557500Y-42080000D01*
X310157500Y-38980000D02*
X310157500Y-42080000D01*
X306557500Y-38980000D02*
X310157500Y-38980000D01*
X306557500Y-42080000D02*
X306557500Y-38980000D01*
X291157500Y-42080000D02*
X287557500Y-42080000D01*
X291157500Y-38980000D02*
X291157500Y-42080000D01*
X287557500Y-38980000D02*
X291157500Y-38980000D01*
X287557500Y-42080000D02*
X287557500Y-38980000D01*
X272157500Y-28330000D02*
X268557500Y-28330000D01*
X272157500Y-25230000D02*
X272157500Y-28330000D01*
X268557500Y-25230000D02*
X272157500Y-25230000D01*
X268557500Y-28330000D02*
X268557500Y-25230000D01*
X253157500Y-20955000D02*
X249557500Y-20955000D01*
X253157500Y-17855000D02*
X253157500Y-20955000D01*
X249557500Y-17855000D02*
X253157500Y-17855000D01*
X249557500Y-20955000D02*
X249557500Y-17855000D01*
X234157500Y-25830000D02*
X230557500Y-25830000D01*
X234157500Y-22730000D02*
X234157500Y-25830000D01*
X230557500Y-22730000D02*
X234157500Y-22730000D01*
X230557500Y-25830000D02*
X230557500Y-22730000D01*
X215157500Y-30705000D02*
X211557500Y-30705000D01*
X215157500Y-27605000D02*
X215157500Y-30705000D01*
X211557500Y-27605000D02*
X215157500Y-27605000D01*
X211557500Y-30705000D02*
X211557500Y-27605000D01*
X310157500Y-61080000D02*
X306557500Y-61080000D01*
X310157500Y-57980000D02*
X310157500Y-61080000D01*
X306557500Y-57980000D02*
X310157500Y-57980000D01*
X306557500Y-61080000D02*
X306557500Y-57980000D01*
X291157500Y-61080000D02*
X287557500Y-61080000D01*
X291157500Y-57980000D02*
X291157500Y-61080000D01*
X287557500Y-57980000D02*
X291157500Y-57980000D01*
X287557500Y-61080000D02*
X287557500Y-57980000D01*
X272157500Y-47330000D02*
X268557500Y-47330000D01*
X272157500Y-44230000D02*
X272157500Y-47330000D01*
X268557500Y-44230000D02*
X272157500Y-44230000D01*
X268557500Y-47330000D02*
X268557500Y-44230000D01*
M02*
