M48
; DRILL file {KiCad (5.1.4-0-10_14)} date 2021 June 12, Saturday 19:28:53
; FORMAT={-:-/ absolute / inch / decimal}
; #@! TF.CreationDate,2021-06-12T19:28:53+03:00
; #@! TF.GenerationSoftware,Kicad,Pcbnew,(5.1.4-0-10_14)
FMAT,2
INCH
T1C0.0157
T2C0.0320
T3C0.0394
T4C0.0512
T5C0.0591
T6C0.0118
T7C0.0472
T8C0.0748
T9C0.0866
T10C0.1181
T11C0.1614
T12C0.1693
%
G90
G05
T1
X0.6794Y-3.1626
X0.9196Y-3.1744
X0.959Y-3.0681
X0.9629Y-2.3161
X0.9649Y-1.5681
X1.0456Y-2.4874
X1.0495Y-1.7394
X1.1716Y-1.1724
X1.1735Y-1.5681
X1.244Y-2.4874
X1.2562Y-1.385
X1.2601Y-1.9244
X1.2601Y-1.9795
X1.2601Y-2.1449
X1.2641Y-2.7276
X1.331Y-1.6016
X1.3408Y-1.8909
X1.3448Y-2.2945
X1.3704Y-1.8476
X1.3704Y-2.3772
X1.3704Y-2.5917
X1.3723Y-1.6272
X1.4314Y-3.1665
X1.6656Y-1.5209
X1.705Y-3.0642
X1.709Y-2.3338
X1.7719Y-2.511
X1.8782Y-2.3024
X1.9176Y-2.6134
X1.9203Y-2.2984
X1.9216Y-1.7866
X1.9373Y-1.4146
X1.9498Y-1.8666
X1.9688Y-1.3673
X1.9688Y-1.4303
X1.9806Y-0.6764
X1.9806Y-1.1016
X2.0062Y-2.3496
X2.0082Y-0.8437
X2.0082Y-1.4382
X2.0082Y-1.5937
X2.0082Y-2.1882
X2.0338Y-1.8063
X2.0712Y-1.9609
X2.1105Y-1.0937
X2.1205Y-2.584
X2.2424Y-2.9362
X2.455Y-1.7787
X2.457Y-1.0287
X2.459Y-2.5228
X2.5633Y-1.824
X2.6519Y-1.2394
X2.6971Y-0.7197
X2.7065Y-1.731
X2.7286Y-0.4008
X2.7286Y-0.7906
X2.7542Y-2.0504
X2.7562Y-0.5524
X2.7562Y-1.1469
X2.7621Y-1.3024
X2.7621Y-1.9018
X2.7877Y-0.7256
X2.7891Y-1.8077
X2.8468Y-2.3063
X2.8487Y-1.0445
X2.8507Y-2.5543
X2.8566Y-0.7906
X2.8684Y-1.5406
X2.8763Y-0.8156
X2.8771Y-2.2851
X2.8822Y-1.0031
X2.9767Y-3.5602
X3.142Y-3.887
X3.1962Y-1.4844
X3.2011Y-0.7354
X3.2011Y-2.2335
X3.5042Y-0.7453
X3.5042Y-1.3467
X3.5042Y-1.4933
X3.5042Y-2.0907
X3.5062Y-2.2512
X3.5397Y-1.9515
X3.6086Y-0.9913
X3.6164Y-1.7315
X3.6184Y-2.4795
X3.7975Y-3.702
X3.9176Y-3.9343
X3.9491Y-0.9264
X3.9491Y-1.6764
X3.9511Y-2.4283
X4.2503Y-0.9382
X4.2503Y-3.8772
X4.2523Y-1.5396
X4.2523Y-2.4421
X4.2542Y-1.6862
X4.2542Y-2.2837
X4.2897Y-2.0933
X4.3369Y-1.389
X4.3468Y-2.6035
X4.3605Y-1.0917
X4.3605Y-2.9362
X4.3625Y-1.1744
X4.3625Y-1.9283
X4.4019Y-2.7098
X4.583Y-3.5858
X4.583Y-3.822
X4.5889Y-1.8128
X4.6361Y-1.7709
X4.642Y-1.9756
X4.6971Y-2.6213
X4.6991Y-1.1213
X4.7698Y-4.125
X4.8448Y-3.3929
X4.8721Y-1.2291
X4.8782Y-1.9323
X4.8843Y-1.2587
X4.9229Y-2.1213
X4.9359Y-3.2304
X4.9373Y-2.5996
X5.0136Y-2.6405
X5.0436Y-4.1473
X5.1298Y-1.9317
X5.2011Y-4.1508
X5.2042Y-4.2914
X5.2395Y-2.6361
X5.3743Y-3.9421
X5.4649Y-4.4205
X5.8487Y-4.5366
X5.9944Y-4.2079
X7.207Y-3.9283
X7.27Y-3.765
X7.3684Y-4.6724
X7.457Y-3.7315
X7.6263Y-2.5622
X7.8763Y-4.2276
X7.9019Y-3.5465
X7.9708Y-1.9087
X7.9983Y-2.0366
X8.0003Y-2.1961
X8.0159Y-1.1606
X8.02Y-1.078
X8.0456Y-1.7295
X8.0475Y-0.7295
X8.0753Y-1.2709
X8.0957Y-1.3417
X8.0991Y-1.977
X8.1184Y-2.4539
X8.1204Y-0.948
X8.1204Y-1.5248
X8.1243Y-2.2709
X8.1282Y-1.698
X8.1431Y-2.889
X8.1479Y-2.1646
X8.2247Y-2.6075
X8.2247Y-3.2413
X8.2306Y-1.1154
X8.2405Y-1.3969
X8.2938Y-4.0487
X8.4688Y-3.5484
X8.4964Y-2.7822
X8.4983Y-3.0563
X8.5672Y-3.5406
X8.8664Y-2.0858
X8.8684Y-0.7453
X8.8684Y-1.3398
X8.8684Y-1.5051
X8.8684Y-2.2433
X9.3172Y-2.448
X9.3212Y-2.5922
X9.3212Y-3.4618
X9.6086Y-1.3004
X9.6087Y-1.8281
X9.6125Y-0.5543
X9.6145Y-1.1409
X9.6145Y-2.0524
X9.7208Y-2.2571
X9.7208Y-2.7886
X9.7227Y-0.7472
X9.7286Y-1.013
X10.3625Y-0.8457
X10.3625Y-2.1843
X10.3645Y-1.4421
X10.3645Y-1.9697
X10.3684Y-1.5878
X10.3684Y-2.3398
X11.1105Y-2.7256
X11.1145Y-1.9835
X11.1145Y-2.137
X11.1145Y-2.3654
X11.1184Y-1.389
X11.2129Y-2.3004
X11.2188Y-2.5858
X11.2208Y-1.5642
X11.2306Y-1.8437
X11.8586Y-1.389
X11.8605Y-2.137
X11.8605Y-2.7256
X11.8842Y-1.9815
T2
X10.1955Y-1.2496
X10.1955Y-1.5496
X4.831Y-2.3817
X7.8847Y-4.2981
X8.1445Y-4.1481
X9.4474Y-0.6935
X9.4474Y-0.9935
X4.831Y-1.6337
X4.831Y-1.9337
X10.1955Y-0.8016
X9.1578Y-3.6563
X9.1578Y-3.9563
X4.083Y-1.4417
X4.083Y-1.7417
X8.6991Y-2.3817
X8.6991Y-2.6817
X9.4474Y-2.1896
X9.4474Y-2.4896
X3.3349Y-1.2498
X3.3349Y-1.5498
X10.1955Y-0.5016
X7.3279Y-0.7446
X7.3279Y-0.8446
X4.831Y-2.6817
X3.6578Y-3.5933
X5.008Y-1.6457
X4.083Y-2.1898
X4.083Y-2.4898
X5.008Y-1.4457
X5.008Y-1.5457
X5.008Y-1.3457
X5.008Y-1.7457
X5.008Y-1.8457
X5.6072Y-1.8457
X5.6072Y-1.7457
X5.6072Y-1.6457
X5.008Y-1.2457
X5.008Y-1.1457
X5.008Y-1.0457
X5.008Y-0.9457
X5.008Y-0.8457
X5.008Y-0.7457
X1.0987Y-1.6331
X1.0987Y-1.3331
X5.6072Y-1.5457
X5.6072Y-1.4457
X5.6072Y-1.3457
X5.6072Y-1.2457
X5.6072Y-1.1457
X5.6072Y-1.0457
X10.9435Y-1.54
X10.9435Y-1.84
X11.6915Y-2.0813
X11.6915Y-2.3813
X3.3349Y-1.9978
X3.3349Y-2.2978
X2.5869Y-2.2882
X2.5869Y-2.5882
X5.6072Y-0.9457
X5.6072Y-0.8457
X5.6072Y-0.7457
X3.6578Y-3.8933
X1.8399Y-2.8295
X1.8399Y-3.1295
X1.0919Y-2.8294
X1.0919Y-3.1294
X12.4395Y-2.0754
X12.4395Y-2.3754
X7.2469Y-4.68
X7.5067Y-4.53
X8.7621Y-0.7996
X8.7621Y-1.0996
X7.4775Y-2.1268
X7.5775Y-2.1268
X7.6775Y-2.1268
X7.7775Y-2.1268
X7.3279Y-0.9446
X10.9435Y-0.7919
X10.9435Y-1.0919
X11.6915Y-1.3333
X11.6915Y-1.6333
X5.1555Y-2.1271
X5.2555Y-2.1271
X12.4395Y-1.3333
X7.3279Y-1.0446
X7.3279Y-1.1446
X7.3279Y-1.2446
X7.3279Y-1.3446
X7.3279Y-1.4446
X7.3279Y-1.5446
X7.3279Y-1.6446
X7.3279Y-1.7446
X7.3279Y-1.8446
X7.9271Y-0.7446
X7.9271Y-0.8446
X7.9271Y-0.9446
X7.9271Y-1.0446
X7.9271Y-1.1446
X7.9271Y-1.2446
X7.9271Y-1.3446
X7.9271Y-1.4446
X7.9271Y-1.5446
X7.9271Y-1.6446
X7.9271Y-1.7446
X7.9271Y-1.8446
X9.9176Y-3.5815
X9.9176Y-3.8815
X1.8399Y-1.3335
X1.8399Y-1.6335
X11.6915Y-2.8293
X10.1955Y-1.9976
X10.1955Y-2.2976
X10.9435Y-2.288
X10.9435Y-2.588
X11.6915Y-3.1293
X12.4395Y-2.8293
X12.4395Y-1.6333
X5.3555Y-2.1271
X5.4555Y-2.1271
X2.6322Y-1.4693
X2.6322Y-1.7693
X4.5121Y-3.9445
X1.8399Y-2.0815
X1.8399Y-2.3815
X4.9359Y-3.3772
X5.2359Y-3.3772
X4.5121Y-3.6445
X12.4395Y-3.1293
X4.4137Y-3.6445
X4.4137Y-3.9445
X1.0919Y-2.0814
X1.0919Y-2.3814
X4.831Y-0.8856
X4.831Y-1.1856
X4.083Y-0.6937
X4.083Y-0.9937
X3.3349Y-0.5018
X3.3349Y-0.8018
X2.5869Y-0.7823
X2.5869Y-1.0823
X8.6991Y-1.6337
X8.6991Y-1.9337
X9.4531Y-1.4398
X9.4531Y-1.7398
T3
X7.3271Y-2.826
X7.3271Y-2.9244
X7.3271Y-3.0228
X7.8979Y-2.826
X7.8979Y-3.0228
T4
X5.6073Y-1.9796
X5.6073Y-2.2355
X7.325Y-1.9792
X7.325Y-2.2351
T6
X10.5603Y-0.5067
X10.5837Y-0.5067
X10.6071Y-0.5067
X10.6305Y-0.5067
X10.6538Y-0.5067
X10.6772Y-0.5067
X10.7006Y-0.5067
X10.724Y-0.5067
X10.7473Y-0.5067
X2.2091Y-0.5067
X2.2325Y-0.5067
X2.2559Y-0.5067
X2.2793Y-0.5067
X2.3026Y-0.5067
X3.7001Y-0.4084
X2.326Y-0.5067
X3.7235Y-0.4084
X2.3728Y-0.5067
X2.1948Y-3.2747
X2.2182Y-3.2747
X2.2416Y-3.2747
X2.265Y-3.2747
X2.2883Y-3.2747
X0.7237Y-3.2746
X0.7003Y-3.2746
X0.7704Y-3.2746
X0.8172Y-3.2746
X3.7936Y-0.4084
X0.747Y-3.2746
X0.7938Y-3.2746
X0.8873Y-3.2746
X2.3494Y-0.5067
X3.7469Y-0.4084
X2.3117Y-3.2747
X2.3351Y-3.2747
X2.3585Y-3.2747
X2.3818Y-3.2747
X3.8404Y-0.4084
X0.8639Y-3.2746
X2.3961Y-0.5067
X0.8406Y-3.2746
X3.7702Y-0.4084
X3.817Y-0.4084
X3.8637Y-0.4084
X3.8871Y-0.4084
X9.0595Y-0.4049
X9.0829Y-0.4049
X9.1063Y-0.4049
X9.1297Y-0.4049
X9.1531Y-0.4049
X12.0484Y-3.2749
X12.0718Y-3.2749
X12.0952Y-3.2749
X12.1186Y-3.2749
X12.1419Y-3.2749
X12.1653Y-3.2749
X12.1887Y-3.2749
X12.2121Y-3.2749
X9.1764Y-0.4049
X9.2232Y-0.4049
X10.5558Y-3.2753
X10.5791Y-3.2753
X10.6025Y-3.2753
X10.6259Y-3.2753
X10.7194Y-3.2753
X12.2355Y-3.2749
X10.6726Y-3.2753
X10.696Y-3.2753
X10.7428Y-3.2753
X9.1998Y-0.4049
X9.2466Y-0.4049
X10.6493Y-3.2753
T7
X5.3399Y-2.4131
X5.6155Y-2.4131
X7.3145Y-2.4122
X7.5901Y-2.4122
T8
X9.6962Y-2.0728
X10.0962Y-2.0728
X1.3397Y-2.1567
X1.7397Y-2.1567
X8.2002Y-1.7087
X8.6002Y-1.7087
X8.6451Y-3.7264
X9.0451Y-3.7264
X10.4443Y-1.6152
X2.8357Y-1.325
X3.2357Y-1.325
X4.3318Y-1.7089
X4.7318Y-1.7089
X10.8443Y-2.3632
X8.9482Y-1.5167
X10.4443Y-2.3632
X9.3482Y-1.5167
X3.1349Y-3.6685
X10.8443Y-0.8671
X8.9482Y-0.7687
X9.3482Y-0.7687
X3.5349Y-3.6685
X10.4443Y-0.8671
X11.9403Y-2.1565
X3.5838Y-0.7689
X0.5916Y-2.9047
X0.9916Y-2.9047
X0.5916Y-1.4087
X0.9916Y-1.4087
X11.9403Y-1.4085
X2.0877Y-0.8673
X2.4877Y-0.8673
X10.8443Y-1.6152
X4.7318Y-2.4569
X3.5838Y-2.265
X3.9838Y-2.265
X4.3318Y-2.4569
X12.3403Y-2.1565
X3.9838Y-0.7689
X5.0027Y-4.0671
X9.3971Y-3.6685
X5.2027Y-3.7207
X9.7971Y-3.6685
X12.3403Y-1.4085
X2.0877Y-2.3634
X9.3482Y-2.2648
X8.2002Y-2.4567
X8.6002Y-2.4567
X8.9482Y-2.2648
X0.5916Y-2.1567
X0.9916Y-2.1567
X4.3318Y-0.9608
X4.7318Y-0.9608
X2.4877Y-2.3634
X11.9403Y-2.9045
X12.3403Y-2.9045
X11.1923Y-2.9045
X3.5838Y-1.5169
X3.9838Y-1.5169
X3.2357Y-0.577
X9.6962Y-1.3248
X10.0962Y-1.3248
X2.0877Y-1.6154
X2.4877Y-1.6154
X11.5923Y-2.9045
X2.8357Y-0.577
X5.6621Y-4.451
X5.8621Y-4.1046
X11.1923Y-2.1565
X11.5923Y-2.1565
X9.6962Y-0.5768
X10.0962Y-0.5768
X11.1923Y-1.4085
X11.5923Y-1.4085
X8.1999Y-0.9608
X8.5999Y-0.9608
X3.8869Y-3.7187
X1.3397Y-1.4087
X4.2869Y-3.7187
X7.7372Y-3.7205
X7.9372Y-4.0669
X1.3397Y-2.9047
X1.7397Y-2.9047
X1.7397Y-1.4087
X2.8357Y-2.073
X3.2357Y-2.073
X7.0797Y-4.1044
X7.2797Y-4.4508
T9
X5.6024Y-3.3376
X5.0342Y-2.4116
X7.8977Y-2.412
X7.3295Y-3.338
T10
X11.2423Y-1.3085
X11.4923Y-1.2085
X3.9369Y-3.6187
X4.1869Y-3.5187
X7.8488Y-3.7138
X2.1377Y-0.7673
X2.3877Y-0.6673
X4.3818Y-2.3569
X4.6318Y-2.2569
X0.8916Y-1.2087
X0.6416Y-1.3087
X0.6416Y-2.0567
X9.7462Y-1.2248
X9.9962Y-1.1248
X9.7462Y-1.9728
X9.9962Y-1.8728
X8.2502Y-2.3567
X8.5002Y-2.2567
X4.6318Y-0.7608
X3.6338Y-2.165
X3.8838Y-2.065
X3.6338Y-1.4169
X3.8838Y-1.3169
X2.1377Y-2.2634
X2.3877Y-2.1634
X0.8916Y-1.9567
X4.3818Y-0.8608
X11.2423Y-2.0565
X11.4923Y-1.9565
X8.9982Y-2.1648
X9.2482Y-2.0648
X8.2499Y-0.8608
X3.1357Y-0.377
X8.4999Y-0.7608
X11.9903Y-2.8045
X11.2423Y-2.8045
X2.1377Y-1.5154
X12.2403Y-2.7045
X11.4923Y-2.7045
X2.3877Y-1.4154
X2.8857Y-0.477
X5.6005Y-4.3577
X5.6389Y-4.0912
X9.7462Y-0.4768
X9.9962Y-0.3768
X8.0604Y-3.8803
X1.3897Y-2.8047
X1.6397Y-2.7047
X1.3897Y-1.3087
X1.6397Y-1.2087
X3.1357Y-1.873
X8.9982Y-1.4167
X2.8857Y-1.225
X3.1357Y-1.125
X4.3818Y-1.6089
X4.6318Y-1.5089
X10.4943Y-2.2632
X10.7443Y-2.1632
X2.8857Y-1.973
X1.3897Y-2.0567
X9.2482Y-1.3167
X8.2502Y-1.6087
X8.5002Y-1.5087
X7.4029Y-4.2642
X8.6951Y-3.6264
X8.9451Y-3.5264
X7.1913Y-4.0977
X1.6397Y-1.9567
X3.6338Y-0.6689
X0.6416Y-2.8047
X10.4943Y-1.5152
X11.9903Y-2.0565
X9.2482Y-0.5687
X0.8916Y-2.7047
X8.9982Y-0.6687
X10.4943Y-0.7671
X10.7443Y-0.6671
X3.8838Y-0.5689
X3.1849Y-3.5685
X3.4349Y-3.4685
X10.7443Y-1.4152
X12.2403Y-1.9565
X11.9903Y-1.3085
X12.2403Y-1.2085
X4.9411Y-3.9738
X4.9795Y-3.7073
X9.4471Y-3.5685
X9.6971Y-3.4685
T11
X2.2877Y-0.8673
X9.8962Y-2.0728
X9.8962Y-1.3248
X12.1403Y-2.9045
X2.2877Y-2.3634
X4.5318Y-0.9608
X3.7838Y-2.265
X4.5318Y-2.4569
X0.7916Y-1.4087
X8.4002Y-2.4567
X0.7916Y-2.1567
X11.3923Y-2.1565
X9.1482Y-2.2648
X3.7838Y-1.5169
X2.2877Y-1.6154
X11.3923Y-2.9045
X9.8962Y-0.5768
X8.3999Y-0.9608
X3.0357Y-0.577
X11.3923Y-1.4085
X5.7621Y-4.2778
X8.8451Y-3.7264
X10.6443Y-2.3632
X7.8372Y-3.8937
X7.1797Y-4.2776
X9.1482Y-1.5167
X8.4002Y-1.7087
X1.5397Y-2.9047
X4.0869Y-3.7187
X1.5397Y-1.4087
X3.0357Y-2.073
X1.5397Y-2.1567
X4.5318Y-1.7089
X3.3349Y-3.6685
X3.7838Y-0.7689
X3.0357Y-1.325
X0.7916Y-2.9047
X10.6443Y-1.6152
X10.6443Y-0.8671
X12.1403Y-2.1565
X12.1403Y-1.4085
X9.1482Y-0.7687
X9.5971Y-3.6685
X5.1027Y-3.8939
T12
X11.7657Y-2.5301
X8.2338Y-3.6671
X8.6853Y-1.326
X11.7719Y-1.8417
X1.1676Y-1.8181
X10.0671Y-3.2099
X4.6981Y-3.6667
X2.8647Y-3.2095
X4.1558Y-1.1921
X1.1656Y-2.574
T3
G00X5.2199Y-2.3304
M15
G01X5.2002Y-2.3304
M16
G05
G00X5.2789Y-2.4957
M15
G01X5.2592Y-2.4957
M16
G05
G00X5.4364Y-2.4957
M15
G01X5.4167Y-2.4957
M16
G05
G00X5.5545Y-2.4957
M15
G01X5.5348Y-2.4957
M16
G05
G00X7.3755Y-2.3295
M15
G01X7.3952Y-2.3295
M16
G05
G00X7.4936Y-2.3295
M15
G01X7.5133Y-2.3295
M16
G05
G00X7.6511Y-2.3295
M15
G01X7.6708Y-2.3295
M16
G05
G00X7.7101Y-2.4949
M15
G01X7.7298Y-2.4949
M16
G05
T5
G00X7.5968Y-2.7039
M15
G01X7.6479Y-2.7039
M16
G05
G00X7.5968Y-3.1449
M15
G01X7.6479Y-3.1449
M16
G05
T0
M30
