G04 #@! TF.GenerationSoftware,KiCad,Pcbnew,(5.1.4-0-10_14)*
G04 #@! TF.CreationDate,2021-06-12T19:28:26+03:00*
G04 #@! TF.ProjectId,corne-cherry,636f726e-652d-4636-9865-7272792e6b69,3.0.1*
G04 #@! TF.SameCoordinates,Original*
G04 #@! TF.FileFunction,Legend,Top*
G04 #@! TF.FilePolarity,Positive*
%FSLAX46Y46*%
G04 Gerber Fmt 4.6, Leading zero omitted, Abs format (unit mm)*
G04 Created by KiCad (PCBNEW (5.1.4-0-10_14)) date 2021-06-12 19:28:26*
%MOMM*%
%LPD*%
G04 APERTURE LIST*
%ADD10C,0.125000*%
%ADD11C,0.150000*%
%ADD12C,0.010000*%
G04 APERTURE END LIST*
D10*
X244473273Y-58687142D02*
X244425654Y-58734761D01*
X244282797Y-58782380D01*
X244187559Y-58782380D01*
X244044702Y-58734761D01*
X243949464Y-58639523D01*
X243901845Y-58544285D01*
X243854226Y-58353809D01*
X243854226Y-58210952D01*
X243901845Y-58020476D01*
X243949464Y-57925238D01*
X244044702Y-57830000D01*
X244187559Y-57782380D01*
X244282797Y-57782380D01*
X244425654Y-57830000D01*
X244473273Y-57877619D01*
X245044702Y-58782380D02*
X244949464Y-58734761D01*
X244901845Y-58687142D01*
X244854226Y-58591904D01*
X244854226Y-58306190D01*
X244901845Y-58210952D01*
X244949464Y-58163333D01*
X245044702Y-58115714D01*
X245187559Y-58115714D01*
X245282797Y-58163333D01*
X245330416Y-58210952D01*
X245378035Y-58306190D01*
X245378035Y-58591904D01*
X245330416Y-58687142D01*
X245282797Y-58734761D01*
X245187559Y-58782380D01*
X245044702Y-58782380D01*
X245806607Y-58782380D02*
X245806607Y-58115714D01*
X245806607Y-58306190D02*
X245854226Y-58210952D01*
X245901845Y-58163333D01*
X245997083Y-58115714D01*
X246092321Y-58115714D01*
X246425654Y-58115714D02*
X246425654Y-58782380D01*
X246425654Y-58210952D02*
X246473273Y-58163333D01*
X246568511Y-58115714D01*
X246711369Y-58115714D01*
X246806607Y-58163333D01*
X246854226Y-58258571D01*
X246854226Y-58782380D01*
X247711369Y-58734761D02*
X247616130Y-58782380D01*
X247425654Y-58782380D01*
X247330416Y-58734761D01*
X247282797Y-58639523D01*
X247282797Y-58258571D01*
X247330416Y-58163333D01*
X247425654Y-58115714D01*
X247616130Y-58115714D01*
X247711369Y-58163333D01*
X247758988Y-58258571D01*
X247758988Y-58353809D01*
X247282797Y-58449047D01*
X249520892Y-58687142D02*
X249473273Y-58734761D01*
X249330416Y-58782380D01*
X249235178Y-58782380D01*
X249092321Y-58734761D01*
X248997083Y-58639523D01*
X248949464Y-58544285D01*
X248901845Y-58353809D01*
X248901845Y-58210952D01*
X248949464Y-58020476D01*
X248997083Y-57925238D01*
X249092321Y-57830000D01*
X249235178Y-57782380D01*
X249330416Y-57782380D01*
X249473273Y-57830000D01*
X249520892Y-57877619D01*
X249949464Y-58782380D02*
X249949464Y-57782380D01*
X250378035Y-58782380D02*
X250378035Y-58258571D01*
X250330416Y-58163333D01*
X250235178Y-58115714D01*
X250092321Y-58115714D01*
X249997083Y-58163333D01*
X249949464Y-58210952D01*
X251235178Y-58734761D02*
X251139940Y-58782380D01*
X250949464Y-58782380D01*
X250854226Y-58734761D01*
X250806607Y-58639523D01*
X250806607Y-58258571D01*
X250854226Y-58163333D01*
X250949464Y-58115714D01*
X251139940Y-58115714D01*
X251235178Y-58163333D01*
X251282797Y-58258571D01*
X251282797Y-58353809D01*
X250806607Y-58449047D01*
X251711369Y-58782380D02*
X251711369Y-58115714D01*
X251711369Y-58306190D02*
X251758988Y-58210952D01*
X251806607Y-58163333D01*
X251901845Y-58115714D01*
X251997083Y-58115714D01*
X252330416Y-58782380D02*
X252330416Y-58115714D01*
X252330416Y-58306190D02*
X252378035Y-58210952D01*
X252425654Y-58163333D01*
X252520892Y-58115714D01*
X252616130Y-58115714D01*
X252854226Y-58115714D02*
X253092321Y-58782380D01*
X253330416Y-58115714D02*
X253092321Y-58782380D01*
X252997083Y-59020476D01*
X252949464Y-59068095D01*
X252854226Y-59115714D01*
X254378035Y-58115714D02*
X254616130Y-58782380D01*
X254854226Y-58115714D01*
X255139940Y-57782380D02*
X255758988Y-57782380D01*
X255425654Y-58163333D01*
X255568511Y-58163333D01*
X255663750Y-58210952D01*
X255711369Y-58258571D01*
X255758988Y-58353809D01*
X255758988Y-58591904D01*
X255711369Y-58687142D01*
X255663750Y-58734761D01*
X255568511Y-58782380D01*
X255282797Y-58782380D01*
X255187559Y-58734761D01*
X255139940Y-58687142D01*
X256187559Y-58687142D02*
X256235178Y-58734761D01*
X256187559Y-58782380D01*
X256139940Y-58734761D01*
X256187559Y-58687142D01*
X256187559Y-58782380D01*
X256854226Y-57782380D02*
X256949464Y-57782380D01*
X257044702Y-57830000D01*
X257092321Y-57877619D01*
X257139940Y-57972857D01*
X257187559Y-58163333D01*
X257187559Y-58401428D01*
X257139940Y-58591904D01*
X257092321Y-58687142D01*
X257044702Y-58734761D01*
X256949464Y-58782380D01*
X256854226Y-58782380D01*
X256758988Y-58734761D01*
X256711369Y-58687142D01*
X256663750Y-58591904D01*
X256616130Y-58401428D01*
X256616130Y-58163333D01*
X256663750Y-57972857D01*
X256711369Y-57877619D01*
X256758988Y-57830000D01*
X256854226Y-57782380D01*
X257616130Y-58687142D02*
X257663750Y-58734761D01*
X257616130Y-58782380D01*
X257568511Y-58734761D01*
X257616130Y-58687142D01*
X257616130Y-58782380D01*
X258616130Y-58782380D02*
X258044702Y-58782380D01*
X258330416Y-58782380D02*
X258330416Y-57782380D01*
X258235178Y-57925238D01*
X258139940Y-58020476D01*
X258044702Y-58068095D01*
X259806607Y-58782380D02*
X259806607Y-57782380D01*
X260187559Y-57782380D01*
X260282797Y-57830000D01*
X260330416Y-57877619D01*
X260378035Y-57972857D01*
X260378035Y-58115714D01*
X260330416Y-58210952D01*
X260282797Y-58258571D01*
X260187559Y-58306190D01*
X259806607Y-58306190D01*
X261378035Y-58687142D02*
X261330416Y-58734761D01*
X261187559Y-58782380D01*
X261092321Y-58782380D01*
X260949464Y-58734761D01*
X260854226Y-58639523D01*
X260806607Y-58544285D01*
X260758988Y-58353809D01*
X260758988Y-58210952D01*
X260806607Y-58020476D01*
X260854226Y-57925238D01*
X260949464Y-57830000D01*
X261092321Y-57782380D01*
X261187559Y-57782380D01*
X261330416Y-57830000D01*
X261378035Y-57877619D01*
X262139940Y-58258571D02*
X262282797Y-58306190D01*
X262330416Y-58353809D01*
X262378035Y-58449047D01*
X262378035Y-58591904D01*
X262330416Y-58687142D01*
X262282797Y-58734761D01*
X262187559Y-58782380D01*
X261806607Y-58782380D01*
X261806607Y-57782380D01*
X262139940Y-57782380D01*
X262235178Y-57830000D01*
X262282797Y-57877619D01*
X262330416Y-57972857D01*
X262330416Y-58068095D01*
X262282797Y-58163333D01*
X262235178Y-58210952D01*
X262139940Y-58258571D01*
X261806607Y-58258571D01*
X263568511Y-58782380D02*
X263568511Y-57782380D01*
X263806607Y-57782380D01*
X263949464Y-57830000D01*
X264044702Y-57925238D01*
X264092321Y-58020476D01*
X264139940Y-58210952D01*
X264139940Y-58353809D01*
X264092321Y-58544285D01*
X264044702Y-58639523D01*
X263949464Y-58734761D01*
X263806607Y-58782380D01*
X263568511Y-58782380D01*
X264949464Y-58734761D02*
X264854226Y-58782380D01*
X264663750Y-58782380D01*
X264568511Y-58734761D01*
X264520892Y-58639523D01*
X264520892Y-58258571D01*
X264568511Y-58163333D01*
X264663750Y-58115714D01*
X264854226Y-58115714D01*
X264949464Y-58163333D01*
X264997083Y-58258571D01*
X264997083Y-58353809D01*
X264520892Y-58449047D01*
X265378035Y-58734761D02*
X265473273Y-58782380D01*
X265663750Y-58782380D01*
X265758988Y-58734761D01*
X265806607Y-58639523D01*
X265806607Y-58591904D01*
X265758988Y-58496666D01*
X265663750Y-58449047D01*
X265520892Y-58449047D01*
X265425654Y-58401428D01*
X265378035Y-58306190D01*
X265378035Y-58258571D01*
X265425654Y-58163333D01*
X265520892Y-58115714D01*
X265663750Y-58115714D01*
X265758988Y-58163333D01*
X266235178Y-58782380D02*
X266235178Y-58115714D01*
X266235178Y-57782380D02*
X266187559Y-57830000D01*
X266235178Y-57877619D01*
X266282797Y-57830000D01*
X266235178Y-57782380D01*
X266235178Y-57877619D01*
X267139940Y-58115714D02*
X267139940Y-58925238D01*
X267092321Y-59020476D01*
X267044702Y-59068095D01*
X266949464Y-59115714D01*
X266806607Y-59115714D01*
X266711369Y-59068095D01*
X267139940Y-58734761D02*
X267044702Y-58782380D01*
X266854226Y-58782380D01*
X266758988Y-58734761D01*
X266711369Y-58687142D01*
X266663750Y-58591904D01*
X266663750Y-58306190D01*
X266711369Y-58210952D01*
X266758988Y-58163333D01*
X266854226Y-58115714D01*
X267044702Y-58115714D01*
X267139940Y-58163333D01*
X267616130Y-58115714D02*
X267616130Y-58782380D01*
X267616130Y-58210952D02*
X267663750Y-58163333D01*
X267758988Y-58115714D01*
X267901845Y-58115714D01*
X267997083Y-58163333D01*
X268044702Y-58258571D01*
X268044702Y-58782380D01*
X268901845Y-58734761D02*
X268806607Y-58782380D01*
X268616130Y-58782380D01*
X268520892Y-58734761D01*
X268473273Y-58639523D01*
X268473273Y-58258571D01*
X268520892Y-58163333D01*
X268616130Y-58115714D01*
X268806607Y-58115714D01*
X268901845Y-58163333D01*
X268949464Y-58258571D01*
X268949464Y-58353809D01*
X268473273Y-58449047D01*
X269806607Y-58782380D02*
X269806607Y-57782380D01*
X269806607Y-58734761D02*
X269711369Y-58782380D01*
X269520892Y-58782380D01*
X269425654Y-58734761D01*
X269378035Y-58687142D01*
X269330416Y-58591904D01*
X269330416Y-58306190D01*
X269378035Y-58210952D01*
X269425654Y-58163333D01*
X269520892Y-58115714D01*
X269711369Y-58115714D01*
X269806607Y-58163333D01*
X271044702Y-58782380D02*
X271044702Y-57782380D01*
X271044702Y-58163333D02*
X271139940Y-58115714D01*
X271330416Y-58115714D01*
X271425654Y-58163333D01*
X271473273Y-58210952D01*
X271520892Y-58306190D01*
X271520892Y-58591904D01*
X271473273Y-58687142D01*
X271425654Y-58734761D01*
X271330416Y-58782380D01*
X271139940Y-58782380D01*
X271044702Y-58734761D01*
X271854226Y-58115714D02*
X272092321Y-58782380D01*
X272330416Y-58115714D02*
X272092321Y-58782380D01*
X271997083Y-59020476D01*
X271949464Y-59068095D01*
X271854226Y-59115714D01*
X273330416Y-58115714D02*
X273711369Y-58115714D01*
X273473273Y-58782380D02*
X273473273Y-57925238D01*
X273520892Y-57830000D01*
X273616130Y-57782380D01*
X273711369Y-57782380D01*
X274187559Y-58782380D02*
X274092321Y-58734761D01*
X274044702Y-58687142D01*
X273997083Y-58591904D01*
X273997083Y-58306190D01*
X274044702Y-58210952D01*
X274092321Y-58163333D01*
X274187559Y-58115714D01*
X274330416Y-58115714D01*
X274425654Y-58163333D01*
X274473273Y-58210952D01*
X274520892Y-58306190D01*
X274520892Y-58591904D01*
X274473273Y-58687142D01*
X274425654Y-58734761D01*
X274330416Y-58782380D01*
X274187559Y-58782380D01*
X275092321Y-58782380D02*
X274997083Y-58734761D01*
X274949464Y-58687142D01*
X274901845Y-58591904D01*
X274901845Y-58306190D01*
X274949464Y-58210952D01*
X274997083Y-58163333D01*
X275092321Y-58115714D01*
X275235178Y-58115714D01*
X275330416Y-58163333D01*
X275378035Y-58210952D01*
X275425654Y-58306190D01*
X275425654Y-58591904D01*
X275378035Y-58687142D01*
X275330416Y-58734761D01*
X275235178Y-58782380D01*
X275092321Y-58782380D01*
X275806607Y-58734761D02*
X275901845Y-58782380D01*
X276092321Y-58782380D01*
X276187559Y-58734761D01*
X276235178Y-58639523D01*
X276235178Y-58591904D01*
X276187559Y-58496666D01*
X276092321Y-58449047D01*
X275949464Y-58449047D01*
X275854226Y-58401428D01*
X275806607Y-58306190D01*
X275806607Y-58258571D01*
X275854226Y-58163333D01*
X275949464Y-58115714D01*
X276092321Y-58115714D01*
X276187559Y-58163333D01*
X276520892Y-58115714D02*
X276901845Y-58115714D01*
X276663750Y-57782380D02*
X276663750Y-58639523D01*
X276711369Y-58734761D01*
X276806607Y-58782380D01*
X276901845Y-58782380D01*
X277663750Y-58782380D02*
X277663750Y-58258571D01*
X277616130Y-58163333D01*
X277520892Y-58115714D01*
X277330416Y-58115714D01*
X277235178Y-58163333D01*
X277663750Y-58734761D02*
X277568511Y-58782380D01*
X277330416Y-58782380D01*
X277235178Y-58734761D01*
X277187559Y-58639523D01*
X277187559Y-58544285D01*
X277235178Y-58449047D01*
X277330416Y-58401428D01*
X277568511Y-58401428D01*
X277663750Y-58353809D01*
X278139940Y-58115714D02*
X278139940Y-58782380D01*
X278139940Y-58210952D02*
X278187559Y-58163333D01*
X278282797Y-58115714D01*
X278425654Y-58115714D01*
X278520892Y-58163333D01*
X278568511Y-58258571D01*
X278568511Y-58782380D01*
X51173273Y-58687142D02*
X51125654Y-58734761D01*
X50982797Y-58782380D01*
X50887559Y-58782380D01*
X50744702Y-58734761D01*
X50649464Y-58639523D01*
X50601845Y-58544285D01*
X50554226Y-58353809D01*
X50554226Y-58210952D01*
X50601845Y-58020476D01*
X50649464Y-57925238D01*
X50744702Y-57830000D01*
X50887559Y-57782380D01*
X50982797Y-57782380D01*
X51125654Y-57830000D01*
X51173273Y-57877619D01*
X51744702Y-58782380D02*
X51649464Y-58734761D01*
X51601845Y-58687142D01*
X51554226Y-58591904D01*
X51554226Y-58306190D01*
X51601845Y-58210952D01*
X51649464Y-58163333D01*
X51744702Y-58115714D01*
X51887559Y-58115714D01*
X51982797Y-58163333D01*
X52030416Y-58210952D01*
X52078035Y-58306190D01*
X52078035Y-58591904D01*
X52030416Y-58687142D01*
X51982797Y-58734761D01*
X51887559Y-58782380D01*
X51744702Y-58782380D01*
X52506607Y-58782380D02*
X52506607Y-58115714D01*
X52506607Y-58306190D02*
X52554226Y-58210952D01*
X52601845Y-58163333D01*
X52697083Y-58115714D01*
X52792321Y-58115714D01*
X53125654Y-58115714D02*
X53125654Y-58782380D01*
X53125654Y-58210952D02*
X53173273Y-58163333D01*
X53268511Y-58115714D01*
X53411369Y-58115714D01*
X53506607Y-58163333D01*
X53554226Y-58258571D01*
X53554226Y-58782380D01*
X54411369Y-58734761D02*
X54316130Y-58782380D01*
X54125654Y-58782380D01*
X54030416Y-58734761D01*
X53982797Y-58639523D01*
X53982797Y-58258571D01*
X54030416Y-58163333D01*
X54125654Y-58115714D01*
X54316130Y-58115714D01*
X54411369Y-58163333D01*
X54458988Y-58258571D01*
X54458988Y-58353809D01*
X53982797Y-58449047D01*
X56220892Y-58687142D02*
X56173273Y-58734761D01*
X56030416Y-58782380D01*
X55935178Y-58782380D01*
X55792321Y-58734761D01*
X55697083Y-58639523D01*
X55649464Y-58544285D01*
X55601845Y-58353809D01*
X55601845Y-58210952D01*
X55649464Y-58020476D01*
X55697083Y-57925238D01*
X55792321Y-57830000D01*
X55935178Y-57782380D01*
X56030416Y-57782380D01*
X56173273Y-57830000D01*
X56220892Y-57877619D01*
X56649464Y-58782380D02*
X56649464Y-57782380D01*
X57078035Y-58782380D02*
X57078035Y-58258571D01*
X57030416Y-58163333D01*
X56935178Y-58115714D01*
X56792321Y-58115714D01*
X56697083Y-58163333D01*
X56649464Y-58210952D01*
X57935178Y-58734761D02*
X57839940Y-58782380D01*
X57649464Y-58782380D01*
X57554226Y-58734761D01*
X57506607Y-58639523D01*
X57506607Y-58258571D01*
X57554226Y-58163333D01*
X57649464Y-58115714D01*
X57839940Y-58115714D01*
X57935178Y-58163333D01*
X57982797Y-58258571D01*
X57982797Y-58353809D01*
X57506607Y-58449047D01*
X58411369Y-58782380D02*
X58411369Y-58115714D01*
X58411369Y-58306190D02*
X58458988Y-58210952D01*
X58506607Y-58163333D01*
X58601845Y-58115714D01*
X58697083Y-58115714D01*
X59030416Y-58782380D02*
X59030416Y-58115714D01*
X59030416Y-58306190D02*
X59078035Y-58210952D01*
X59125654Y-58163333D01*
X59220892Y-58115714D01*
X59316130Y-58115714D01*
X59554226Y-58115714D02*
X59792321Y-58782380D01*
X60030416Y-58115714D02*
X59792321Y-58782380D01*
X59697083Y-59020476D01*
X59649464Y-59068095D01*
X59554226Y-59115714D01*
X61078035Y-58115714D02*
X61316130Y-58782380D01*
X61554226Y-58115714D01*
X61839940Y-57782380D02*
X62458988Y-57782380D01*
X62125654Y-58163333D01*
X62268511Y-58163333D01*
X62363750Y-58210952D01*
X62411369Y-58258571D01*
X62458988Y-58353809D01*
X62458988Y-58591904D01*
X62411369Y-58687142D01*
X62363750Y-58734761D01*
X62268511Y-58782380D01*
X61982797Y-58782380D01*
X61887559Y-58734761D01*
X61839940Y-58687142D01*
X62887559Y-58687142D02*
X62935178Y-58734761D01*
X62887559Y-58782380D01*
X62839940Y-58734761D01*
X62887559Y-58687142D01*
X62887559Y-58782380D01*
X63554226Y-57782380D02*
X63649464Y-57782380D01*
X63744702Y-57830000D01*
X63792321Y-57877619D01*
X63839940Y-57972857D01*
X63887559Y-58163333D01*
X63887559Y-58401428D01*
X63839940Y-58591904D01*
X63792321Y-58687142D01*
X63744702Y-58734761D01*
X63649464Y-58782380D01*
X63554226Y-58782380D01*
X63458988Y-58734761D01*
X63411369Y-58687142D01*
X63363750Y-58591904D01*
X63316130Y-58401428D01*
X63316130Y-58163333D01*
X63363750Y-57972857D01*
X63411369Y-57877619D01*
X63458988Y-57830000D01*
X63554226Y-57782380D01*
X64316130Y-58687142D02*
X64363750Y-58734761D01*
X64316130Y-58782380D01*
X64268511Y-58734761D01*
X64316130Y-58687142D01*
X64316130Y-58782380D01*
X65316130Y-58782380D02*
X64744702Y-58782380D01*
X65030416Y-58782380D02*
X65030416Y-57782380D01*
X64935178Y-57925238D01*
X64839940Y-58020476D01*
X64744702Y-58068095D01*
X66506607Y-58782380D02*
X66506607Y-57782380D01*
X66887559Y-57782380D01*
X66982797Y-57830000D01*
X67030416Y-57877619D01*
X67078035Y-57972857D01*
X67078035Y-58115714D01*
X67030416Y-58210952D01*
X66982797Y-58258571D01*
X66887559Y-58306190D01*
X66506607Y-58306190D01*
X68078035Y-58687142D02*
X68030416Y-58734761D01*
X67887559Y-58782380D01*
X67792321Y-58782380D01*
X67649464Y-58734761D01*
X67554226Y-58639523D01*
X67506607Y-58544285D01*
X67458988Y-58353809D01*
X67458988Y-58210952D01*
X67506607Y-58020476D01*
X67554226Y-57925238D01*
X67649464Y-57830000D01*
X67792321Y-57782380D01*
X67887559Y-57782380D01*
X68030416Y-57830000D01*
X68078035Y-57877619D01*
X68839940Y-58258571D02*
X68982797Y-58306190D01*
X69030416Y-58353809D01*
X69078035Y-58449047D01*
X69078035Y-58591904D01*
X69030416Y-58687142D01*
X68982797Y-58734761D01*
X68887559Y-58782380D01*
X68506607Y-58782380D01*
X68506607Y-57782380D01*
X68839940Y-57782380D01*
X68935178Y-57830000D01*
X68982797Y-57877619D01*
X69030416Y-57972857D01*
X69030416Y-58068095D01*
X68982797Y-58163333D01*
X68935178Y-58210952D01*
X68839940Y-58258571D01*
X68506607Y-58258571D01*
X70268511Y-58782380D02*
X70268511Y-57782380D01*
X70506607Y-57782380D01*
X70649464Y-57830000D01*
X70744702Y-57925238D01*
X70792321Y-58020476D01*
X70839940Y-58210952D01*
X70839940Y-58353809D01*
X70792321Y-58544285D01*
X70744702Y-58639523D01*
X70649464Y-58734761D01*
X70506607Y-58782380D01*
X70268511Y-58782380D01*
X71649464Y-58734761D02*
X71554226Y-58782380D01*
X71363750Y-58782380D01*
X71268511Y-58734761D01*
X71220892Y-58639523D01*
X71220892Y-58258571D01*
X71268511Y-58163333D01*
X71363750Y-58115714D01*
X71554226Y-58115714D01*
X71649464Y-58163333D01*
X71697083Y-58258571D01*
X71697083Y-58353809D01*
X71220892Y-58449047D01*
X72078035Y-58734761D02*
X72173273Y-58782380D01*
X72363750Y-58782380D01*
X72458988Y-58734761D01*
X72506607Y-58639523D01*
X72506607Y-58591904D01*
X72458988Y-58496666D01*
X72363750Y-58449047D01*
X72220892Y-58449047D01*
X72125654Y-58401428D01*
X72078035Y-58306190D01*
X72078035Y-58258571D01*
X72125654Y-58163333D01*
X72220892Y-58115714D01*
X72363750Y-58115714D01*
X72458988Y-58163333D01*
X72935178Y-58782380D02*
X72935178Y-58115714D01*
X72935178Y-57782380D02*
X72887559Y-57830000D01*
X72935178Y-57877619D01*
X72982797Y-57830000D01*
X72935178Y-57782380D01*
X72935178Y-57877619D01*
X73839940Y-58115714D02*
X73839940Y-58925238D01*
X73792321Y-59020476D01*
X73744702Y-59068095D01*
X73649464Y-59115714D01*
X73506607Y-59115714D01*
X73411369Y-59068095D01*
X73839940Y-58734761D02*
X73744702Y-58782380D01*
X73554226Y-58782380D01*
X73458988Y-58734761D01*
X73411369Y-58687142D01*
X73363750Y-58591904D01*
X73363750Y-58306190D01*
X73411369Y-58210952D01*
X73458988Y-58163333D01*
X73554226Y-58115714D01*
X73744702Y-58115714D01*
X73839940Y-58163333D01*
X74316130Y-58115714D02*
X74316130Y-58782380D01*
X74316130Y-58210952D02*
X74363750Y-58163333D01*
X74458988Y-58115714D01*
X74601845Y-58115714D01*
X74697083Y-58163333D01*
X74744702Y-58258571D01*
X74744702Y-58782380D01*
X75601845Y-58734761D02*
X75506607Y-58782380D01*
X75316130Y-58782380D01*
X75220892Y-58734761D01*
X75173273Y-58639523D01*
X75173273Y-58258571D01*
X75220892Y-58163333D01*
X75316130Y-58115714D01*
X75506607Y-58115714D01*
X75601845Y-58163333D01*
X75649464Y-58258571D01*
X75649464Y-58353809D01*
X75173273Y-58449047D01*
X76506607Y-58782380D02*
X76506607Y-57782380D01*
X76506607Y-58734761D02*
X76411369Y-58782380D01*
X76220892Y-58782380D01*
X76125654Y-58734761D01*
X76078035Y-58687142D01*
X76030416Y-58591904D01*
X76030416Y-58306190D01*
X76078035Y-58210952D01*
X76125654Y-58163333D01*
X76220892Y-58115714D01*
X76411369Y-58115714D01*
X76506607Y-58163333D01*
X77744702Y-58782380D02*
X77744702Y-57782380D01*
X77744702Y-58163333D02*
X77839940Y-58115714D01*
X78030416Y-58115714D01*
X78125654Y-58163333D01*
X78173273Y-58210952D01*
X78220892Y-58306190D01*
X78220892Y-58591904D01*
X78173273Y-58687142D01*
X78125654Y-58734761D01*
X78030416Y-58782380D01*
X77839940Y-58782380D01*
X77744702Y-58734761D01*
X78554226Y-58115714D02*
X78792321Y-58782380D01*
X79030416Y-58115714D02*
X78792321Y-58782380D01*
X78697083Y-59020476D01*
X78649464Y-59068095D01*
X78554226Y-59115714D01*
X80030416Y-58115714D02*
X80411369Y-58115714D01*
X80173273Y-58782380D02*
X80173273Y-57925238D01*
X80220892Y-57830000D01*
X80316130Y-57782380D01*
X80411369Y-57782380D01*
X80887559Y-58782380D02*
X80792321Y-58734761D01*
X80744702Y-58687142D01*
X80697083Y-58591904D01*
X80697083Y-58306190D01*
X80744702Y-58210952D01*
X80792321Y-58163333D01*
X80887559Y-58115714D01*
X81030416Y-58115714D01*
X81125654Y-58163333D01*
X81173273Y-58210952D01*
X81220892Y-58306190D01*
X81220892Y-58591904D01*
X81173273Y-58687142D01*
X81125654Y-58734761D01*
X81030416Y-58782380D01*
X80887559Y-58782380D01*
X81792321Y-58782380D02*
X81697083Y-58734761D01*
X81649464Y-58687142D01*
X81601845Y-58591904D01*
X81601845Y-58306190D01*
X81649464Y-58210952D01*
X81697083Y-58163333D01*
X81792321Y-58115714D01*
X81935178Y-58115714D01*
X82030416Y-58163333D01*
X82078035Y-58210952D01*
X82125654Y-58306190D01*
X82125654Y-58591904D01*
X82078035Y-58687142D01*
X82030416Y-58734761D01*
X81935178Y-58782380D01*
X81792321Y-58782380D01*
X82506607Y-58734761D02*
X82601845Y-58782380D01*
X82792321Y-58782380D01*
X82887559Y-58734761D01*
X82935178Y-58639523D01*
X82935178Y-58591904D01*
X82887559Y-58496666D01*
X82792321Y-58449047D01*
X82649464Y-58449047D01*
X82554226Y-58401428D01*
X82506607Y-58306190D01*
X82506607Y-58258571D01*
X82554226Y-58163333D01*
X82649464Y-58115714D01*
X82792321Y-58115714D01*
X82887559Y-58163333D01*
X83220892Y-58115714D02*
X83601845Y-58115714D01*
X83363749Y-57782380D02*
X83363749Y-58639523D01*
X83411369Y-58734761D01*
X83506607Y-58782380D01*
X83601845Y-58782380D01*
X84363749Y-58782380D02*
X84363749Y-58258571D01*
X84316130Y-58163333D01*
X84220892Y-58115714D01*
X84030416Y-58115714D01*
X83935178Y-58163333D01*
X84363749Y-58734761D02*
X84268511Y-58782380D01*
X84030416Y-58782380D01*
X83935178Y-58734761D01*
X83887559Y-58639523D01*
X83887559Y-58544285D01*
X83935178Y-58449047D01*
X84030416Y-58401428D01*
X84268511Y-58401428D01*
X84363749Y-58353809D01*
X84839940Y-58115714D02*
X84839940Y-58782380D01*
X84839940Y-58210952D02*
X84887559Y-58163333D01*
X84982797Y-58115714D01*
X85125654Y-58115714D01*
X85220892Y-58163333D01*
X85268511Y-58258571D01*
X85268511Y-58782380D01*
D11*
X45984500Y-34980000D02*
X47484500Y-34980000D01*
X45984500Y-40380000D02*
X45984500Y-34980000D01*
X47484500Y-40380000D02*
X45984500Y-40380000D01*
X47484500Y-34980000D02*
X47484500Y-40380000D01*
X47234500Y-38180000D02*
X46234500Y-38180000D01*
X46234500Y-37180000D02*
X46734500Y-38080000D01*
X47234500Y-37180000D02*
X46234500Y-37180000D01*
X46734500Y-38080000D02*
X47234500Y-37180000D01*
X251157500Y-92080000D02*
X252657500Y-92080000D01*
X251157500Y-97480000D02*
X251157500Y-92080000D01*
X252657500Y-97480000D02*
X251157500Y-97480000D01*
X252657500Y-92080000D02*
X252657500Y-97480000D01*
X252407500Y-95280000D02*
X251407500Y-95280000D01*
X251407500Y-94280000D02*
X251907500Y-95180000D01*
X252407500Y-94280000D02*
X251407500Y-94280000D01*
X251907500Y-95180000D02*
X252407500Y-94280000D01*
X92157500Y-92380000D02*
X93657500Y-92380000D01*
X92157500Y-97780000D02*
X92157500Y-92380000D01*
X93657500Y-97780000D02*
X92157500Y-97780000D01*
X93657500Y-92380000D02*
X93657500Y-97780000D01*
X93407500Y-95580000D02*
X92407500Y-95580000D01*
X92407500Y-94580000D02*
X92907500Y-95480000D01*
X93407500Y-94580000D02*
X92407500Y-94580000D01*
X92907500Y-95480000D02*
X93407500Y-94580000D01*
X189333574Y-114967981D02*
X190083574Y-116267019D01*
X184657036Y-117667981D02*
X189333574Y-114967981D01*
X185407036Y-118967019D02*
X184657036Y-117667981D01*
X190083574Y-116267019D02*
X185407036Y-118967019D01*
X187187292Y-117650513D02*
X186687292Y-116784487D01*
X187553318Y-116284487D02*
X187023895Y-117167500D01*
X188053318Y-117150513D02*
X187553318Y-116284487D01*
X187023895Y-117167500D02*
X188053318Y-117150513D01*
X205533574Y-105267981D02*
X206283574Y-106567019D01*
X200857036Y-107967981D02*
X205533574Y-105267981D01*
X201607036Y-109267019D02*
X200857036Y-107967981D01*
X206283574Y-106567019D02*
X201607036Y-109267019D01*
X203387292Y-107950513D02*
X202887292Y-107084487D01*
X203753318Y-106584487D02*
X203223895Y-107467500D01*
X204253318Y-107450513D02*
X203753318Y-106584487D01*
X203223895Y-107467500D02*
X204253318Y-107450513D01*
X231857500Y-93980000D02*
X233357500Y-93980000D01*
X231857500Y-99380000D02*
X231857500Y-93980000D01*
X233357500Y-99380000D02*
X231857500Y-99380000D01*
X233357500Y-93980000D02*
X233357500Y-99380000D01*
X233107500Y-97180000D02*
X232107500Y-97180000D01*
X232107500Y-96180000D02*
X232607500Y-97080000D01*
X233107500Y-96180000D02*
X232107500Y-96180000D01*
X232607500Y-97080000D02*
X233107500Y-96180000D01*
X220207500Y-61605000D02*
X221707500Y-61605000D01*
X220207500Y-67005000D02*
X220207500Y-61605000D01*
X221707500Y-67005000D02*
X220207500Y-67005000D01*
X221707500Y-61605000D02*
X221707500Y-67005000D01*
X221457500Y-64805000D02*
X220457500Y-64805000D01*
X220457500Y-63805000D02*
X220957500Y-64705000D01*
X221457500Y-63805000D02*
X220457500Y-63805000D01*
X220957500Y-64705000D02*
X221457500Y-63805000D01*
X239214500Y-56725000D02*
X240714500Y-56725000D01*
X239214500Y-62125000D02*
X239214500Y-56725000D01*
X240714500Y-62125000D02*
X239214500Y-62125000D01*
X240714500Y-56725000D02*
X240714500Y-62125000D01*
X240464500Y-59925000D02*
X239464500Y-59925000D01*
X239464500Y-58925000D02*
X239964500Y-59825000D01*
X240464500Y-58925000D02*
X239464500Y-58925000D01*
X239964500Y-59825000D02*
X240464500Y-58925000D01*
X258214500Y-51850000D02*
X259714500Y-51850000D01*
X258214500Y-57250000D02*
X258214500Y-51850000D01*
X259714500Y-57250000D02*
X258214500Y-57250000D01*
X259714500Y-51850000D02*
X259714500Y-57250000D01*
X259464500Y-55050000D02*
X258464500Y-55050000D01*
X258464500Y-54050000D02*
X258964500Y-54950000D01*
X259464500Y-54050000D02*
X258464500Y-54050000D01*
X258964500Y-54950000D02*
X259464500Y-54050000D01*
X277214500Y-59225000D02*
X278714500Y-59225000D01*
X277214500Y-64625000D02*
X277214500Y-59225000D01*
X278714500Y-64625000D02*
X277214500Y-64625000D01*
X278714500Y-59225000D02*
X278714500Y-64625000D01*
X278464500Y-62425000D02*
X277464500Y-62425000D01*
X277464500Y-61425000D02*
X277964500Y-62325000D01*
X278464500Y-61425000D02*
X277464500Y-61425000D01*
X277964500Y-62325000D02*
X278464500Y-61425000D01*
X296214500Y-72975000D02*
X297714500Y-72975000D01*
X296214500Y-78375000D02*
X296214500Y-72975000D01*
X297714500Y-78375000D02*
X296214500Y-78375000D01*
X297714500Y-72975000D02*
X297714500Y-78375000D01*
X297464500Y-76175000D02*
X296464500Y-76175000D01*
X296464500Y-75175000D02*
X296964500Y-76075000D01*
X297464500Y-75175000D02*
X296464500Y-75175000D01*
X296964500Y-76075000D02*
X297464500Y-75175000D01*
X315214500Y-72975000D02*
X316714500Y-72975000D01*
X315214500Y-78375000D02*
X315214500Y-72975000D01*
X316714500Y-78375000D02*
X315214500Y-78375000D01*
X316714500Y-72975000D02*
X316714500Y-78375000D01*
X316464500Y-76175000D02*
X315464500Y-76175000D01*
X315464500Y-75175000D02*
X315964500Y-76075000D01*
X316464500Y-75175000D02*
X315464500Y-75175000D01*
X315964500Y-76075000D02*
X316464500Y-75175000D01*
X220207500Y-42605000D02*
X221707500Y-42605000D01*
X220207500Y-48005000D02*
X220207500Y-42605000D01*
X221707500Y-48005000D02*
X220207500Y-48005000D01*
X221707500Y-42605000D02*
X221707500Y-48005000D01*
X221457500Y-45805000D02*
X220457500Y-45805000D01*
X220457500Y-44805000D02*
X220957500Y-45705000D01*
X221457500Y-44805000D02*
X220457500Y-44805000D01*
X220957500Y-45705000D02*
X221457500Y-44805000D01*
X239357500Y-37680000D02*
X240857500Y-37680000D01*
X239357500Y-43080000D02*
X239357500Y-37680000D01*
X240857500Y-43080000D02*
X239357500Y-43080000D01*
X240857500Y-37680000D02*
X240857500Y-43080000D01*
X240607500Y-40880000D02*
X239607500Y-40880000D01*
X239607500Y-39880000D02*
X240107500Y-40780000D01*
X240607500Y-39880000D02*
X239607500Y-39880000D01*
X240107500Y-40780000D02*
X240607500Y-39880000D01*
X258214500Y-32850000D02*
X259714500Y-32850000D01*
X258214500Y-38250000D02*
X258214500Y-32850000D01*
X259714500Y-38250000D02*
X258214500Y-38250000D01*
X259714500Y-32850000D02*
X259714500Y-38250000D01*
X259464500Y-36050000D02*
X258464500Y-36050000D01*
X258464500Y-35050000D02*
X258964500Y-35950000D01*
X259464500Y-35050000D02*
X258464500Y-35050000D01*
X258964500Y-35950000D02*
X259464500Y-35050000D01*
X277214500Y-40225000D02*
X278714500Y-40225000D01*
X277214500Y-45625000D02*
X277214500Y-40225000D01*
X278714500Y-45625000D02*
X277214500Y-45625000D01*
X278714500Y-40225000D02*
X278714500Y-45625000D01*
X278464500Y-43425000D02*
X277464500Y-43425000D01*
X277464500Y-42425000D02*
X277964500Y-43325000D01*
X278464500Y-42425000D02*
X277464500Y-42425000D01*
X277964500Y-43325000D02*
X278464500Y-42425000D01*
X296214500Y-53975000D02*
X297714500Y-53975000D01*
X296214500Y-59375000D02*
X296214500Y-53975000D01*
X297714500Y-59375000D02*
X296214500Y-59375000D01*
X297714500Y-53975000D02*
X297714500Y-59375000D01*
X297464500Y-57175000D02*
X296464500Y-57175000D01*
X296464500Y-56175000D02*
X296964500Y-57075000D01*
X297464500Y-56175000D02*
X296464500Y-56175000D01*
X296964500Y-57075000D02*
X297464500Y-56175000D01*
X315214500Y-53825000D02*
X316714500Y-53825000D01*
X315214500Y-59225000D02*
X315214500Y-53825000D01*
X316714500Y-59225000D02*
X315214500Y-59225000D01*
X316714500Y-53825000D02*
X316714500Y-59225000D01*
X316464500Y-57025000D02*
X315464500Y-57025000D01*
X315464500Y-56025000D02*
X315964500Y-56925000D01*
X316464500Y-56025000D02*
X315464500Y-56025000D01*
X315964500Y-56925000D02*
X316464500Y-56025000D01*
X221807500Y-21420000D02*
X223307500Y-21420000D01*
X221807500Y-26820000D02*
X221807500Y-21420000D01*
X223307500Y-26820000D02*
X221807500Y-26820000D01*
X223307500Y-21420000D02*
X223307500Y-26820000D01*
X223057500Y-24620000D02*
X222057500Y-24620000D01*
X222057500Y-23620000D02*
X222557500Y-24520000D01*
X223057500Y-23620000D02*
X222057500Y-23620000D01*
X222557500Y-24520000D02*
X223057500Y-23620000D01*
X239214500Y-18725000D02*
X240714500Y-18725000D01*
X239214500Y-24125000D02*
X239214500Y-18725000D01*
X240714500Y-24125000D02*
X239214500Y-24125000D01*
X240714500Y-18725000D02*
X240714500Y-24125000D01*
X240464500Y-21925000D02*
X239464500Y-21925000D01*
X239464500Y-20925000D02*
X239964500Y-21825000D01*
X240464500Y-20925000D02*
X239464500Y-20925000D01*
X239964500Y-21825000D02*
X240464500Y-20925000D01*
X258214500Y-13850000D02*
X259714500Y-13850000D01*
X258214500Y-19250000D02*
X258214500Y-13850000D01*
X259714500Y-19250000D02*
X258214500Y-19250000D01*
X259714500Y-13850000D02*
X259714500Y-19250000D01*
X259464500Y-17050000D02*
X258464500Y-17050000D01*
X258464500Y-16050000D02*
X258964500Y-16950000D01*
X259464500Y-16050000D02*
X258464500Y-16050000D01*
X258964500Y-16950000D02*
X259464500Y-16050000D01*
X277214500Y-21225000D02*
X278714500Y-21225000D01*
X277214500Y-26625000D02*
X277214500Y-21225000D01*
X278714500Y-26625000D02*
X277214500Y-26625000D01*
X278714500Y-21225000D02*
X278714500Y-26625000D01*
X278464500Y-24425000D02*
X277464500Y-24425000D01*
X277464500Y-23425000D02*
X277964500Y-24325000D01*
X278464500Y-23425000D02*
X277464500Y-23425000D01*
X277964500Y-24325000D02*
X278464500Y-23425000D01*
X296214500Y-34975000D02*
X297714500Y-34975000D01*
X296214500Y-40375000D02*
X296214500Y-34975000D01*
X297714500Y-40375000D02*
X296214500Y-40375000D01*
X297714500Y-34975000D02*
X297714500Y-40375000D01*
X297464500Y-38175000D02*
X296464500Y-38175000D01*
X296464500Y-37175000D02*
X296964500Y-38075000D01*
X297464500Y-37175000D02*
X296464500Y-37175000D01*
X296964500Y-38075000D02*
X297464500Y-37175000D01*
X315214500Y-34975000D02*
X316714500Y-34975000D01*
X315214500Y-40375000D02*
X315214500Y-34975000D01*
X316714500Y-40375000D02*
X315214500Y-40375000D01*
X316714500Y-34975000D02*
X316714500Y-40375000D01*
X316464500Y-38175000D02*
X315464500Y-38175000D01*
X315464500Y-37175000D02*
X315964500Y-38075000D01*
X316464500Y-37175000D02*
X315464500Y-37175000D01*
X315964500Y-38075000D02*
X316464500Y-37175000D01*
X131882500Y-85030000D02*
X131882500Y-86530000D01*
X126482500Y-85030000D02*
X131882500Y-85030000D01*
X126482500Y-86530000D02*
X126482500Y-85030000D01*
X131882500Y-86530000D02*
X126482500Y-86530000D01*
X128682500Y-86280000D02*
X128682500Y-85280000D01*
X129682500Y-85280000D02*
X128782500Y-85780000D01*
X129682500Y-86280000D02*
X129682500Y-85280000D01*
X128782500Y-85780000D02*
X129682500Y-86280000D01*
X113857500Y-93680000D02*
X115357500Y-93680000D01*
X113857500Y-99080000D02*
X113857500Y-93680000D01*
X115357500Y-99080000D02*
X113857500Y-99080000D01*
X115357500Y-93680000D02*
X115357500Y-99080000D01*
X115107500Y-96880000D02*
X114107500Y-96880000D01*
X114107500Y-95880000D02*
X114607500Y-96780000D01*
X115107500Y-95880000D02*
X114107500Y-95880000D01*
X114607500Y-96780000D02*
X115107500Y-95880000D01*
X111357500Y-93680000D02*
X112857500Y-93680000D01*
X111357500Y-99080000D02*
X111357500Y-93680000D01*
X112857500Y-99080000D02*
X111357500Y-99080000D01*
X112857500Y-93680000D02*
X112857500Y-99080000D01*
X112607500Y-96880000D02*
X111607500Y-96880000D01*
X111607500Y-95880000D02*
X112107500Y-96780000D01*
X112607500Y-95880000D02*
X111607500Y-95880000D01*
X112107500Y-96780000D02*
X112607500Y-95880000D01*
X121957500Y-61605000D02*
X123457500Y-61605000D01*
X121957500Y-67005000D02*
X121957500Y-61605000D01*
X123457500Y-67005000D02*
X121957500Y-67005000D01*
X123457500Y-61605000D02*
X123457500Y-67005000D01*
X123207500Y-64805000D02*
X122207500Y-64805000D01*
X122207500Y-63805000D02*
X122707500Y-64705000D01*
X123207500Y-63805000D02*
X122207500Y-63805000D01*
X122707500Y-64705000D02*
X123207500Y-63805000D01*
X102957500Y-56730000D02*
X104457500Y-56730000D01*
X102957500Y-62130000D02*
X102957500Y-56730000D01*
X104457500Y-62130000D02*
X102957500Y-62130000D01*
X104457500Y-56730000D02*
X104457500Y-62130000D01*
X104207500Y-59930000D02*
X103207500Y-59930000D01*
X103207500Y-58930000D02*
X103707500Y-59830000D01*
X104207500Y-58930000D02*
X103207500Y-58930000D01*
X103707500Y-59830000D02*
X104207500Y-58930000D01*
X83957500Y-51855000D02*
X85457500Y-51855000D01*
X83957500Y-57255000D02*
X83957500Y-51855000D01*
X85457500Y-57255000D02*
X83957500Y-57255000D01*
X85457500Y-51855000D02*
X85457500Y-57255000D01*
X85207500Y-55055000D02*
X84207500Y-55055000D01*
X84207500Y-54055000D02*
X84707500Y-54955000D01*
X85207500Y-54055000D02*
X84207500Y-54055000D01*
X84707500Y-54955000D02*
X85207500Y-54055000D01*
X64957500Y-59230000D02*
X66457500Y-59230000D01*
X64957500Y-64630000D02*
X64957500Y-59230000D01*
X66457500Y-64630000D02*
X64957500Y-64630000D01*
X66457500Y-59230000D02*
X66457500Y-64630000D01*
X66207500Y-62430000D02*
X65207500Y-62430000D01*
X65207500Y-61430000D02*
X65707500Y-62330000D01*
X66207500Y-61430000D02*
X65207500Y-61430000D01*
X65707500Y-62330000D02*
X66207500Y-61430000D01*
X45984500Y-72980000D02*
X47484500Y-72980000D01*
X45984500Y-78380000D02*
X45984500Y-72980000D01*
X47484500Y-78380000D02*
X45984500Y-78380000D01*
X47484500Y-72980000D02*
X47484500Y-78380000D01*
X47234500Y-76180000D02*
X46234500Y-76180000D01*
X46234500Y-75180000D02*
X46734500Y-76080000D01*
X47234500Y-75180000D02*
X46234500Y-75180000D01*
X46734500Y-76080000D02*
X47234500Y-75180000D01*
X26984500Y-72976875D02*
X28484500Y-72976875D01*
X26984500Y-78376875D02*
X26984500Y-72976875D01*
X28484500Y-78376875D02*
X26984500Y-78376875D01*
X28484500Y-72976875D02*
X28484500Y-78376875D01*
X28234500Y-76176875D02*
X27234500Y-76176875D01*
X27234500Y-75176875D02*
X27734500Y-76076875D01*
X28234500Y-75176875D02*
X27234500Y-75176875D01*
X27734500Y-76076875D02*
X28234500Y-75176875D01*
X121957500Y-42605000D02*
X123457500Y-42605000D01*
X121957500Y-48005000D02*
X121957500Y-42605000D01*
X123457500Y-48005000D02*
X121957500Y-48005000D01*
X123457500Y-42605000D02*
X123457500Y-48005000D01*
X123207500Y-45805000D02*
X122207500Y-45805000D01*
X122207500Y-44805000D02*
X122707500Y-45705000D01*
X123207500Y-44805000D02*
X122207500Y-44805000D01*
X122707500Y-45705000D02*
X123207500Y-44805000D01*
X102957500Y-37730000D02*
X104457500Y-37730000D01*
X102957500Y-43130000D02*
X102957500Y-37730000D01*
X104457500Y-43130000D02*
X102957500Y-43130000D01*
X104457500Y-37730000D02*
X104457500Y-43130000D01*
X104207500Y-40930000D02*
X103207500Y-40930000D01*
X103207500Y-39930000D02*
X103707500Y-40830000D01*
X104207500Y-39930000D02*
X103207500Y-39930000D01*
X103707500Y-40830000D02*
X104207500Y-39930000D01*
X83957500Y-32855000D02*
X85457500Y-32855000D01*
X83957500Y-38255000D02*
X83957500Y-32855000D01*
X85457500Y-38255000D02*
X83957500Y-38255000D01*
X85457500Y-32855000D02*
X85457500Y-38255000D01*
X85207500Y-36055000D02*
X84207500Y-36055000D01*
X84207500Y-35055000D02*
X84707500Y-35955000D01*
X85207500Y-35055000D02*
X84207500Y-35055000D01*
X84707500Y-35955000D02*
X85207500Y-35055000D01*
X66107500Y-38430000D02*
X67607500Y-38430000D01*
X66107500Y-43830000D02*
X66107500Y-38430000D01*
X67607500Y-43830000D02*
X66107500Y-43830000D01*
X67607500Y-38430000D02*
X67607500Y-43830000D01*
X67357500Y-41630000D02*
X66357500Y-41630000D01*
X66357500Y-40630000D02*
X66857500Y-41530000D01*
X67357500Y-40630000D02*
X66357500Y-40630000D01*
X66857500Y-41530000D02*
X67357500Y-40630000D01*
X45984500Y-53980000D02*
X47484500Y-53980000D01*
X45984500Y-59380000D02*
X45984500Y-53980000D01*
X47484500Y-59380000D02*
X45984500Y-59380000D01*
X47484500Y-53980000D02*
X47484500Y-59380000D01*
X47234500Y-57180000D02*
X46234500Y-57180000D01*
X46234500Y-56180000D02*
X46734500Y-57080000D01*
X47234500Y-56180000D02*
X46234500Y-56180000D01*
X46734500Y-57080000D02*
X47234500Y-56180000D01*
X26984500Y-53976875D02*
X28484500Y-53976875D01*
X26984500Y-59376875D02*
X26984500Y-53976875D01*
X28484500Y-59376875D02*
X26984500Y-59376875D01*
X28484500Y-53976875D02*
X28484500Y-59376875D01*
X28234500Y-57176875D02*
X27234500Y-57176875D01*
X27234500Y-56176875D02*
X27734500Y-57076875D01*
X28234500Y-56176875D02*
X27234500Y-56176875D01*
X27734500Y-57076875D02*
X28234500Y-56176875D01*
X121957500Y-23605000D02*
X123457500Y-23605000D01*
X121957500Y-29005000D02*
X121957500Y-23605000D01*
X123457500Y-29005000D02*
X121957500Y-29005000D01*
X123457500Y-23605000D02*
X123457500Y-29005000D01*
X123207500Y-26805000D02*
X122207500Y-26805000D01*
X122207500Y-25805000D02*
X122707500Y-26705000D01*
X123207500Y-25805000D02*
X122207500Y-25805000D01*
X122707500Y-26705000D02*
X123207500Y-25805000D01*
X102957500Y-18730000D02*
X104457500Y-18730000D01*
X102957500Y-24130000D02*
X102957500Y-18730000D01*
X104457500Y-24130000D02*
X102957500Y-24130000D01*
X104457500Y-18730000D02*
X104457500Y-24130000D01*
X104207500Y-21930000D02*
X103207500Y-21930000D01*
X103207500Y-20930000D02*
X103707500Y-21830000D01*
X104207500Y-20930000D02*
X103207500Y-20930000D01*
X103707500Y-21830000D02*
X104207500Y-20930000D01*
X83957500Y-13855000D02*
X85457500Y-13855000D01*
X83957500Y-19255000D02*
X83957500Y-13855000D01*
X85457500Y-19255000D02*
X83957500Y-19255000D01*
X85457500Y-13855000D02*
X85457500Y-19255000D01*
X85207500Y-17055000D02*
X84207500Y-17055000D01*
X84207500Y-16055000D02*
X84707500Y-16955000D01*
X85207500Y-16055000D02*
X84207500Y-16055000D01*
X84707500Y-16955000D02*
X85207500Y-16055000D01*
X64957500Y-20980000D02*
X66457500Y-20980000D01*
X64957500Y-26380000D02*
X64957500Y-20980000D01*
X66457500Y-26380000D02*
X64957500Y-26380000D01*
X66457500Y-20980000D02*
X66457500Y-26380000D01*
X66207500Y-24180000D02*
X65207500Y-24180000D01*
X65207500Y-23180000D02*
X65707500Y-24080000D01*
X66207500Y-23180000D02*
X65207500Y-23180000D01*
X65707500Y-24080000D02*
X66207500Y-23180000D01*
X27157500Y-34970000D02*
X28657500Y-34970000D01*
X27157500Y-40370000D02*
X27157500Y-34970000D01*
X28657500Y-40370000D02*
X27157500Y-40370000D01*
X28657500Y-34970000D02*
X28657500Y-40370000D01*
X28407500Y-38170000D02*
X27407500Y-38170000D01*
X27407500Y-37170000D02*
X27907500Y-38070000D01*
X28407500Y-37170000D02*
X27407500Y-37170000D01*
X27907500Y-38070000D02*
X28407500Y-37170000D01*
X143562500Y-48020000D02*
X142702500Y-48020000D01*
X126062500Y-48020000D02*
X126912500Y-48020000D01*
X143562500Y-47170000D02*
X143562500Y-48020000D01*
X126062500Y-47120000D02*
X126062500Y-48020000D01*
X143562500Y-17820000D02*
X142762500Y-17820000D01*
X126062500Y-17820000D02*
X126912500Y-17820000D01*
X143562500Y-17820000D02*
X143562500Y-18670000D01*
X126062500Y-17820000D02*
X126062500Y-18670000D01*
X131062500Y-12220000D02*
X131062500Y-13520000D01*
X131062500Y-13520000D02*
X138562500Y-13520000D01*
X138562500Y-13520000D02*
X138562500Y-12220000D01*
X138562500Y-12220000D02*
X131062500Y-12220000D01*
X134312500Y-12570000D02*
X135312500Y-12570000D01*
X135312500Y-12570000D02*
X134812500Y-13220000D01*
X134812500Y-13220000D02*
X134312500Y-12570000D01*
X134462500Y-12720000D02*
X135162500Y-12720000D01*
X134562500Y-12870000D02*
X135062500Y-12870000D01*
X134662500Y-13020000D02*
X134962500Y-13020000D01*
X202487500Y-47990000D02*
X201627500Y-47990000D01*
X184987500Y-47990000D02*
X185837500Y-47990000D01*
X202487500Y-47140000D02*
X202487500Y-47990000D01*
X184987500Y-47090000D02*
X184987500Y-47990000D01*
X202487500Y-17790000D02*
X201687500Y-17790000D01*
X184987500Y-17790000D02*
X185837500Y-17790000D01*
X202487500Y-17790000D02*
X202487500Y-18640000D01*
X184987500Y-17790000D02*
X184987500Y-18640000D01*
X189987500Y-12190000D02*
X189987500Y-13490000D01*
X189987500Y-13490000D02*
X197487500Y-13490000D01*
X197487500Y-13490000D02*
X197487500Y-12190000D01*
X197487500Y-12190000D02*
X189987500Y-12190000D01*
X193237500Y-12540000D02*
X194237500Y-12540000D01*
X194237500Y-12540000D02*
X193737500Y-13190000D01*
X193737500Y-13190000D02*
X193237500Y-12540000D01*
X193387500Y-12690000D02*
X194087500Y-12690000D01*
X193487500Y-12840000D02*
X193987500Y-12840000D01*
X193587500Y-12990000D02*
X193887500Y-12990000D01*
X187654500Y-56372000D02*
X187404500Y-56372000D01*
X187654500Y-50672000D02*
X187654500Y-56372000D01*
X187654500Y-50672000D02*
X187404500Y-50672000D01*
X184454500Y-50672000D02*
X184704500Y-50672000D01*
X184454500Y-56372000D02*
X184704500Y-56372000D01*
X184454500Y-50672000D02*
X184454500Y-56372000D01*
X144024500Y-56381000D02*
X143774500Y-56381000D01*
X144024500Y-50681000D02*
X144024500Y-56381000D01*
X144024500Y-50681000D02*
X143774500Y-50681000D01*
X140824500Y-50681000D02*
X141074500Y-50681000D01*
X140824500Y-56381000D02*
X141074500Y-56381000D01*
X140824500Y-50681000D02*
X140824500Y-56381000D01*
X188777500Y-55170000D02*
X188777500Y-52870000D01*
X198677500Y-52870000D02*
X198677500Y-55170000D01*
X188777500Y-52870000D02*
X198677500Y-52870000D01*
X188777500Y-55170000D02*
X198677500Y-55170000D01*
X129798500Y-55178000D02*
X129798500Y-52878000D01*
X139698500Y-52878000D02*
X139698500Y-55178000D01*
X129798500Y-52878000D02*
X139698500Y-52878000D01*
X129798500Y-55178000D02*
X139698500Y-55178000D01*
X196187500Y-64170000D02*
X184437500Y-64170000D01*
X196187500Y-58370000D02*
X196187500Y-64170000D01*
X184437500Y-58370000D02*
X196187500Y-58370000D01*
X184437500Y-64170000D02*
X184437500Y-58370000D01*
X132234500Y-58392000D02*
X143984500Y-58392000D01*
X132234500Y-64192000D02*
X132234500Y-58392000D01*
X143984500Y-64192000D02*
X132234500Y-64192000D01*
X143984500Y-58392000D02*
X143984500Y-64192000D01*
D12*
G36*
X272729491Y-79808791D02*
G01*
X272823575Y-79812451D01*
X272893990Y-79821455D01*
X272954301Y-79838181D01*
X273018070Y-79865005D01*
X273072251Y-79891171D01*
X273243298Y-79999513D01*
X273376548Y-80138673D01*
X273473879Y-80311378D01*
X273537168Y-80520354D01*
X273548575Y-80582800D01*
X273555864Y-80653770D01*
X273562403Y-80766525D01*
X273567903Y-80912049D01*
X273572074Y-81081330D01*
X273574627Y-81265353D01*
X273575308Y-81414650D01*
X273575500Y-82081400D01*
X273143700Y-82081400D01*
X273143700Y-81362110D01*
X273143093Y-81133457D01*
X273141100Y-80949758D01*
X273137463Y-80805177D01*
X273131922Y-80693882D01*
X273124219Y-80610037D01*
X273114095Y-80547809D01*
X273106197Y-80516534D01*
X273041437Y-80378307D01*
X272940530Y-80275106D01*
X272805103Y-80207984D01*
X272636780Y-80177999D01*
X272582312Y-80176400D01*
X272419841Y-80186817D01*
X272289862Y-80221694D01*
X272177764Y-80286472D01*
X272097860Y-80356726D01*
X272043673Y-80413731D01*
X272000291Y-80469501D01*
X271966523Y-80530365D01*
X271941179Y-80602652D01*
X271923067Y-80692689D01*
X271910996Y-80806805D01*
X271903777Y-80951327D01*
X271900217Y-81132585D01*
X271899126Y-81356907D01*
X271899100Y-81412910D01*
X271899100Y-82081400D01*
X271467300Y-82081400D01*
X271467300Y-79820800D01*
X271899100Y-79820800D01*
X271899100Y-80078707D01*
X271981364Y-79996442D01*
X272067752Y-79920836D01*
X272158455Y-79867569D01*
X272264478Y-79833282D01*
X272396824Y-79814616D01*
X272566495Y-79808211D01*
X272598174Y-79808100D01*
X272729491Y-79808791D01*
X272729491Y-79808791D01*
G37*
X272729491Y-79808791D02*
X272823575Y-79812451D01*
X272893990Y-79821455D01*
X272954301Y-79838181D01*
X273018070Y-79865005D01*
X273072251Y-79891171D01*
X273243298Y-79999513D01*
X273376548Y-80138673D01*
X273473879Y-80311378D01*
X273537168Y-80520354D01*
X273548575Y-80582800D01*
X273555864Y-80653770D01*
X273562403Y-80766525D01*
X273567903Y-80912049D01*
X273572074Y-81081330D01*
X273574627Y-81265353D01*
X273575308Y-81414650D01*
X273575500Y-82081400D01*
X273143700Y-82081400D01*
X273143700Y-81362110D01*
X273143093Y-81133457D01*
X273141100Y-80949758D01*
X273137463Y-80805177D01*
X273131922Y-80693882D01*
X273124219Y-80610037D01*
X273114095Y-80547809D01*
X273106197Y-80516534D01*
X273041437Y-80378307D01*
X272940530Y-80275106D01*
X272805103Y-80207984D01*
X272636780Y-80177999D01*
X272582312Y-80176400D01*
X272419841Y-80186817D01*
X272289862Y-80221694D01*
X272177764Y-80286472D01*
X272097860Y-80356726D01*
X272043673Y-80413731D01*
X272000291Y-80469501D01*
X271966523Y-80530365D01*
X271941179Y-80602652D01*
X271923067Y-80692689D01*
X271910996Y-80806805D01*
X271903777Y-80951327D01*
X271900217Y-81132585D01*
X271899126Y-81356907D01*
X271899100Y-81412910D01*
X271899100Y-82081400D01*
X271467300Y-82081400D01*
X271467300Y-79820800D01*
X271899100Y-79820800D01*
X271899100Y-80078707D01*
X271981364Y-79996442D01*
X272067752Y-79920836D01*
X272158455Y-79867569D01*
X272264478Y-79833282D01*
X272396824Y-79814616D01*
X272566495Y-79808211D01*
X272598174Y-79808100D01*
X272729491Y-79808791D01*
G36*
X271067237Y-79785436D02*
G01*
X271213300Y-79801961D01*
X271213300Y-80172729D01*
X271079950Y-80159068D01*
X270895851Y-80164139D01*
X270726452Y-80215922D01*
X270577881Y-80311056D01*
X270456266Y-80446179D01*
X270407389Y-80527869D01*
X270324300Y-80688838D01*
X270324300Y-82081400D01*
X269892500Y-82081400D01*
X269892500Y-79818745D01*
X270102050Y-79826122D01*
X270311600Y-79833500D01*
X270337000Y-80055358D01*
X270387769Y-79998946D01*
X270505946Y-79902357D01*
X270657798Y-79831267D01*
X270831042Y-79789536D01*
X271013390Y-79781025D01*
X271067237Y-79785436D01*
X271067237Y-79785436D01*
G37*
X271067237Y-79785436D02*
X271213300Y-79801961D01*
X271213300Y-80172729D01*
X271079950Y-80159068D01*
X270895851Y-80164139D01*
X270726452Y-80215922D01*
X270577881Y-80311056D01*
X270456266Y-80446179D01*
X270407389Y-80527869D01*
X270324300Y-80688838D01*
X270324300Y-82081400D01*
X269892500Y-82081400D01*
X269892500Y-79818745D01*
X270102050Y-79826122D01*
X270311600Y-79833500D01*
X270337000Y-80055358D01*
X270387769Y-79998946D01*
X270505946Y-79902357D01*
X270657798Y-79831267D01*
X270831042Y-79789536D01*
X271013390Y-79781025D01*
X271067237Y-79785436D01*
G36*
X275261530Y-79818406D02*
G01*
X275483894Y-79884705D01*
X275682133Y-79990213D01*
X275852079Y-80130847D01*
X275989559Y-80302524D01*
X276090404Y-80501162D01*
X276150443Y-80722678D01*
X276166300Y-80918336D01*
X276166300Y-81065400D01*
X274261300Y-81065400D01*
X274261300Y-81138498D01*
X274284217Y-81261649D01*
X274347655Y-81389172D01*
X274443643Y-81510298D01*
X274564211Y-81614256D01*
X274653388Y-81668239D01*
X274789242Y-81719647D01*
X274949904Y-81744683D01*
X274962872Y-81745596D01*
X275145129Y-81743127D01*
X275298803Y-81706329D01*
X275436495Y-81630614D01*
X275551193Y-81531419D01*
X275687013Y-81395600D01*
X275890268Y-81395600D01*
X275990811Y-81396246D01*
X276050033Y-81400122D01*
X276077410Y-81410133D01*
X276082419Y-81429182D01*
X276076730Y-81452750D01*
X276038417Y-81538398D01*
X275973499Y-81641086D01*
X275893774Y-81744606D01*
X275811044Y-81832746D01*
X275780857Y-81859173D01*
X275581990Y-81988773D01*
X275359302Y-82078237D01*
X275122596Y-82125509D01*
X274881673Y-82128535D01*
X274670357Y-82092004D01*
X274449245Y-82007879D01*
X274254425Y-81884023D01*
X274090825Y-81725554D01*
X273963374Y-81537590D01*
X273877001Y-81325249D01*
X273857844Y-81248299D01*
X273827308Y-80998242D01*
X273841041Y-80758661D01*
X273853222Y-80709800D01*
X274262557Y-80709800D01*
X274985828Y-80709800D01*
X275198414Y-80709528D01*
X275365499Y-80708521D01*
X275492379Y-80706494D01*
X275584351Y-80703158D01*
X275646712Y-80698229D01*
X275684759Y-80691420D01*
X275703788Y-80682444D01*
X275709097Y-80671014D01*
X275709100Y-80670688D01*
X275688723Y-80588758D01*
X275634025Y-80493173D01*
X275554652Y-80395722D01*
X275460248Y-80308195D01*
X275360461Y-80242383D01*
X275357403Y-80240826D01*
X275218347Y-80193277D01*
X275054233Y-80172014D01*
X274883428Y-80176960D01*
X274724298Y-80208039D01*
X274632560Y-80243844D01*
X274486026Y-80345486D01*
X274367149Y-80486797D01*
X274286765Y-80646127D01*
X274262557Y-80709800D01*
X273853222Y-80709800D01*
X273896867Y-80534735D01*
X273992606Y-80331643D01*
X274126079Y-80154563D01*
X274295108Y-80008672D01*
X274407999Y-79940689D01*
X274602603Y-79856746D01*
X274799926Y-79809901D01*
X275019213Y-79795400D01*
X275261530Y-79818406D01*
X275261530Y-79818406D01*
G37*
X275261530Y-79818406D02*
X275483894Y-79884705D01*
X275682133Y-79990213D01*
X275852079Y-80130847D01*
X275989559Y-80302524D01*
X276090404Y-80501162D01*
X276150443Y-80722678D01*
X276166300Y-80918336D01*
X276166300Y-81065400D01*
X274261300Y-81065400D01*
X274261300Y-81138498D01*
X274284217Y-81261649D01*
X274347655Y-81389172D01*
X274443643Y-81510298D01*
X274564211Y-81614256D01*
X274653388Y-81668239D01*
X274789242Y-81719647D01*
X274949904Y-81744683D01*
X274962872Y-81745596D01*
X275145129Y-81743127D01*
X275298803Y-81706329D01*
X275436495Y-81630614D01*
X275551193Y-81531419D01*
X275687013Y-81395600D01*
X275890268Y-81395600D01*
X275990811Y-81396246D01*
X276050033Y-81400122D01*
X276077410Y-81410133D01*
X276082419Y-81429182D01*
X276076730Y-81452750D01*
X276038417Y-81538398D01*
X275973499Y-81641086D01*
X275893774Y-81744606D01*
X275811044Y-81832746D01*
X275780857Y-81859173D01*
X275581990Y-81988773D01*
X275359302Y-82078237D01*
X275122596Y-82125509D01*
X274881673Y-82128535D01*
X274670357Y-82092004D01*
X274449245Y-82007879D01*
X274254425Y-81884023D01*
X274090825Y-81725554D01*
X273963374Y-81537590D01*
X273877001Y-81325249D01*
X273857844Y-81248299D01*
X273827308Y-80998242D01*
X273841041Y-80758661D01*
X273853222Y-80709800D01*
X274262557Y-80709800D01*
X274985828Y-80709800D01*
X275198414Y-80709528D01*
X275365499Y-80708521D01*
X275492379Y-80706494D01*
X275584351Y-80703158D01*
X275646712Y-80698229D01*
X275684759Y-80691420D01*
X275703788Y-80682444D01*
X275709097Y-80671014D01*
X275709100Y-80670688D01*
X275688723Y-80588758D01*
X275634025Y-80493173D01*
X275554652Y-80395722D01*
X275460248Y-80308195D01*
X275360461Y-80242383D01*
X275357403Y-80240826D01*
X275218347Y-80193277D01*
X275054233Y-80172014D01*
X274883428Y-80176960D01*
X274724298Y-80208039D01*
X274632560Y-80243844D01*
X274486026Y-80345486D01*
X274367149Y-80486797D01*
X274286765Y-80646127D01*
X274262557Y-80709800D01*
X273853222Y-80709800D01*
X273896867Y-80534735D01*
X273992606Y-80331643D01*
X274126079Y-80154563D01*
X274295108Y-80008672D01*
X274407999Y-79940689D01*
X274602603Y-79856746D01*
X274799926Y-79809901D01*
X275019213Y-79795400D01*
X275261530Y-79818406D01*
G36*
X268469986Y-79801840D02*
G01*
X268723440Y-79837111D01*
X268951525Y-79913807D01*
X269151175Y-80029865D01*
X269319325Y-80183222D01*
X269452908Y-80371816D01*
X269517456Y-80506600D01*
X269549018Y-80620705D01*
X269569285Y-80768371D01*
X269578030Y-80933580D01*
X269575025Y-81100313D01*
X269560043Y-81252551D01*
X269532856Y-81374275D01*
X269529905Y-81382900D01*
X269433519Y-81580172D01*
X269294275Y-81756574D01*
X269117679Y-81906769D01*
X268909241Y-82025421D01*
X268834340Y-82056770D01*
X268702321Y-82093019D01*
X268539335Y-82116467D01*
X268363781Y-82126287D01*
X268194060Y-82121650D01*
X268048574Y-82101729D01*
X268015753Y-82093599D01*
X267801853Y-82011401D01*
X267607121Y-81893093D01*
X267440155Y-81745635D01*
X267309556Y-81575986D01*
X267258682Y-81480895D01*
X267220337Y-81378102D01*
X267186151Y-81253876D01*
X267166099Y-81150628D01*
X267158748Y-81009224D01*
X267583074Y-81009224D01*
X267597409Y-81156866D01*
X267617541Y-81238207D01*
X267670794Y-81350941D01*
X267751195Y-81466333D01*
X267845178Y-81567702D01*
X267939174Y-81638365D01*
X267945958Y-81642020D01*
X268142698Y-81718118D01*
X268347689Y-81748463D01*
X268551104Y-81732243D01*
X268663664Y-81701468D01*
X268840944Y-81614347D01*
X268985410Y-81490677D01*
X269092587Y-81334341D01*
X269097020Y-81325466D01*
X269150010Y-81169401D01*
X269171993Y-80992298D01*
X269162639Y-80813017D01*
X269121621Y-80650421D01*
X269109289Y-80620900D01*
X269011958Y-80461906D01*
X268884261Y-80337092D01*
X268733564Y-80246623D01*
X268567236Y-80190666D01*
X268392642Y-80169386D01*
X268217149Y-80182949D01*
X268048124Y-80231522D01*
X267892934Y-80315270D01*
X267758945Y-80434360D01*
X267653965Y-80588101D01*
X267612419Y-80705807D01*
X267588433Y-80852526D01*
X267583074Y-81009224D01*
X267158748Y-81009224D01*
X267153238Y-80903236D01*
X267185650Y-80668693D01*
X267260850Y-80452052D01*
X267376357Y-80258365D01*
X267529687Y-80092687D01*
X267718360Y-79960069D01*
X267762419Y-79936803D01*
X267936705Y-79862053D01*
X268108030Y-79817281D01*
X268293905Y-79799147D01*
X268469986Y-79801840D01*
X268469986Y-79801840D01*
G37*
X268469986Y-79801840D02*
X268723440Y-79837111D01*
X268951525Y-79913807D01*
X269151175Y-80029865D01*
X269319325Y-80183222D01*
X269452908Y-80371816D01*
X269517456Y-80506600D01*
X269549018Y-80620705D01*
X269569285Y-80768371D01*
X269578030Y-80933580D01*
X269575025Y-81100313D01*
X269560043Y-81252551D01*
X269532856Y-81374275D01*
X269529905Y-81382900D01*
X269433519Y-81580172D01*
X269294275Y-81756574D01*
X269117679Y-81906769D01*
X268909241Y-82025421D01*
X268834340Y-82056770D01*
X268702321Y-82093019D01*
X268539335Y-82116467D01*
X268363781Y-82126287D01*
X268194060Y-82121650D01*
X268048574Y-82101729D01*
X268015753Y-82093599D01*
X267801853Y-82011401D01*
X267607121Y-81893093D01*
X267440155Y-81745635D01*
X267309556Y-81575986D01*
X267258682Y-81480895D01*
X267220337Y-81378102D01*
X267186151Y-81253876D01*
X267166099Y-81150628D01*
X267158748Y-81009224D01*
X267583074Y-81009224D01*
X267597409Y-81156866D01*
X267617541Y-81238207D01*
X267670794Y-81350941D01*
X267751195Y-81466333D01*
X267845178Y-81567702D01*
X267939174Y-81638365D01*
X267945958Y-81642020D01*
X268142698Y-81718118D01*
X268347689Y-81748463D01*
X268551104Y-81732243D01*
X268663664Y-81701468D01*
X268840944Y-81614347D01*
X268985410Y-81490677D01*
X269092587Y-81334341D01*
X269097020Y-81325466D01*
X269150010Y-81169401D01*
X269171993Y-80992298D01*
X269162639Y-80813017D01*
X269121621Y-80650421D01*
X269109289Y-80620900D01*
X269011958Y-80461906D01*
X268884261Y-80337092D01*
X268733564Y-80246623D01*
X268567236Y-80190666D01*
X268392642Y-80169386D01*
X268217149Y-80182949D01*
X268048124Y-80231522D01*
X267892934Y-80315270D01*
X267758945Y-80434360D01*
X267653965Y-80588101D01*
X267612419Y-80705807D01*
X267588433Y-80852526D01*
X267583074Y-81009224D01*
X267158748Y-81009224D01*
X267153238Y-80903236D01*
X267185650Y-80668693D01*
X267260850Y-80452052D01*
X267376357Y-80258365D01*
X267529687Y-80092687D01*
X267718360Y-79960069D01*
X267762419Y-79936803D01*
X267936705Y-79862053D01*
X268108030Y-79817281D01*
X268293905Y-79799147D01*
X268469986Y-79801840D01*
G36*
X266087049Y-79815988D02*
G01*
X266201748Y-79842102D01*
X266422850Y-79932639D01*
X266614293Y-80059036D01*
X266771222Y-80216988D01*
X266888782Y-80402188D01*
X266923437Y-80482254D01*
X266957464Y-80575731D01*
X266969083Y-80634761D01*
X266951798Y-80667261D01*
X266899112Y-80681149D01*
X266804529Y-80684343D01*
X266757569Y-80684400D01*
X266543639Y-80684399D01*
X266512733Y-80590754D01*
X266446143Y-80464894D01*
X266339638Y-80353503D01*
X266203463Y-80263012D01*
X266047864Y-80199854D01*
X265883085Y-80170461D01*
X265841199Y-80169142D01*
X265658869Y-80191910D01*
X265488565Y-80256221D01*
X265339016Y-80356089D01*
X265218953Y-80485526D01*
X265137105Y-80638547D01*
X265130907Y-80656267D01*
X265097356Y-80814924D01*
X265091573Y-80990402D01*
X265112259Y-81164327D01*
X265158113Y-81318322D01*
X265181175Y-81366531D01*
X265286904Y-81517138D01*
X265421779Y-81629303D01*
X265569102Y-81700915D01*
X265747789Y-81743926D01*
X265927259Y-81743773D01*
X266099072Y-81703785D01*
X266254790Y-81627291D01*
X266385974Y-81517622D01*
X266484184Y-81378106D01*
X266505767Y-81331389D01*
X266552400Y-81217990D01*
X266761950Y-81217895D01*
X266864668Y-81218561D01*
X266926784Y-81222620D01*
X266958495Y-81232992D01*
X266969997Y-81252594D01*
X266971500Y-81277887D01*
X266955975Y-81352902D01*
X266914424Y-81452781D01*
X266854378Y-81564252D01*
X266783369Y-81674041D01*
X266708929Y-81768876D01*
X266670038Y-81809119D01*
X266490264Y-81944131D01*
X266281407Y-82044811D01*
X266054560Y-82107913D01*
X265820818Y-82130194D01*
X265625300Y-82114664D01*
X265432087Y-82063943D01*
X265244451Y-81980877D01*
X265074760Y-81872860D01*
X264935383Y-81747289D01*
X264868489Y-81662165D01*
X264787160Y-81527841D01*
X264731270Y-81402887D01*
X264696691Y-81272138D01*
X264679293Y-81120430D01*
X264674914Y-80951100D01*
X264676419Y-80810194D01*
X264682121Y-80706188D01*
X264693798Y-80625236D01*
X264713230Y-80553494D01*
X264732851Y-80500197D01*
X264838497Y-80300543D01*
X264984762Y-80124026D01*
X265163876Y-79978316D01*
X265368069Y-79871085D01*
X265371300Y-79869802D01*
X265527283Y-79825914D01*
X265711255Y-79801892D01*
X265904187Y-79798372D01*
X266087049Y-79815988D01*
X266087049Y-79815988D01*
G37*
X266087049Y-79815988D02*
X266201748Y-79842102D01*
X266422850Y-79932639D01*
X266614293Y-80059036D01*
X266771222Y-80216988D01*
X266888782Y-80402188D01*
X266923437Y-80482254D01*
X266957464Y-80575731D01*
X266969083Y-80634761D01*
X266951798Y-80667261D01*
X266899112Y-80681149D01*
X266804529Y-80684343D01*
X266757569Y-80684400D01*
X266543639Y-80684399D01*
X266512733Y-80590754D01*
X266446143Y-80464894D01*
X266339638Y-80353503D01*
X266203463Y-80263012D01*
X266047864Y-80199854D01*
X265883085Y-80170461D01*
X265841199Y-80169142D01*
X265658869Y-80191910D01*
X265488565Y-80256221D01*
X265339016Y-80356089D01*
X265218953Y-80485526D01*
X265137105Y-80638547D01*
X265130907Y-80656267D01*
X265097356Y-80814924D01*
X265091573Y-80990402D01*
X265112259Y-81164327D01*
X265158113Y-81318322D01*
X265181175Y-81366531D01*
X265286904Y-81517138D01*
X265421779Y-81629303D01*
X265569102Y-81700915D01*
X265747789Y-81743926D01*
X265927259Y-81743773D01*
X266099072Y-81703785D01*
X266254790Y-81627291D01*
X266385974Y-81517622D01*
X266484184Y-81378106D01*
X266505767Y-81331389D01*
X266552400Y-81217990D01*
X266761950Y-81217895D01*
X266864668Y-81218561D01*
X266926784Y-81222620D01*
X266958495Y-81232992D01*
X266969997Y-81252594D01*
X266971500Y-81277887D01*
X266955975Y-81352902D01*
X266914424Y-81452781D01*
X266854378Y-81564252D01*
X266783369Y-81674041D01*
X266708929Y-81768876D01*
X266670038Y-81809119D01*
X266490264Y-81944131D01*
X266281407Y-82044811D01*
X266054560Y-82107913D01*
X265820818Y-82130194D01*
X265625300Y-82114664D01*
X265432087Y-82063943D01*
X265244451Y-81980877D01*
X265074760Y-81872860D01*
X264935383Y-81747289D01*
X264868489Y-81662165D01*
X264787160Y-81527841D01*
X264731270Y-81402887D01*
X264696691Y-81272138D01*
X264679293Y-81120430D01*
X264674914Y-80951100D01*
X264676419Y-80810194D01*
X264682121Y-80706188D01*
X264693798Y-80625236D01*
X264713230Y-80553494D01*
X264732851Y-80500197D01*
X264838497Y-80300543D01*
X264984762Y-80124026D01*
X265163876Y-79978316D01*
X265368069Y-79871085D01*
X265371300Y-79869802D01*
X265527283Y-79825914D01*
X265711255Y-79801892D01*
X265904187Y-79798372D01*
X266087049Y-79815988D01*
G36*
X60469491Y-79658791D02*
G01*
X60563575Y-79662451D01*
X60633990Y-79671455D01*
X60694301Y-79688181D01*
X60758070Y-79715005D01*
X60812251Y-79741171D01*
X60983298Y-79849513D01*
X61116548Y-79988673D01*
X61213879Y-80161378D01*
X61277168Y-80370354D01*
X61288575Y-80432800D01*
X61295864Y-80503770D01*
X61302403Y-80616525D01*
X61307903Y-80762049D01*
X61312074Y-80931330D01*
X61314627Y-81115353D01*
X61315308Y-81264650D01*
X61315500Y-81931400D01*
X60883700Y-81931400D01*
X60883700Y-81212110D01*
X60883093Y-80983457D01*
X60881100Y-80799758D01*
X60877463Y-80655177D01*
X60871922Y-80543882D01*
X60864219Y-80460037D01*
X60854095Y-80397809D01*
X60846197Y-80366534D01*
X60781437Y-80228307D01*
X60680530Y-80125106D01*
X60545103Y-80057984D01*
X60376780Y-80027999D01*
X60322312Y-80026400D01*
X60159841Y-80036817D01*
X60029862Y-80071694D01*
X59917764Y-80136472D01*
X59837860Y-80206726D01*
X59783673Y-80263731D01*
X59740291Y-80319501D01*
X59706523Y-80380365D01*
X59681179Y-80452652D01*
X59663067Y-80542689D01*
X59650996Y-80656805D01*
X59643777Y-80801327D01*
X59640217Y-80982585D01*
X59639126Y-81206907D01*
X59639100Y-81262910D01*
X59639100Y-81931400D01*
X59207300Y-81931400D01*
X59207300Y-79670800D01*
X59639100Y-79670800D01*
X59639100Y-79928707D01*
X59721364Y-79846442D01*
X59807752Y-79770836D01*
X59898455Y-79717569D01*
X60004478Y-79683282D01*
X60136824Y-79664616D01*
X60306495Y-79658211D01*
X60338174Y-79658100D01*
X60469491Y-79658791D01*
X60469491Y-79658791D01*
G37*
X60469491Y-79658791D02*
X60563575Y-79662451D01*
X60633990Y-79671455D01*
X60694301Y-79688181D01*
X60758070Y-79715005D01*
X60812251Y-79741171D01*
X60983298Y-79849513D01*
X61116548Y-79988673D01*
X61213879Y-80161378D01*
X61277168Y-80370354D01*
X61288575Y-80432800D01*
X61295864Y-80503770D01*
X61302403Y-80616525D01*
X61307903Y-80762049D01*
X61312074Y-80931330D01*
X61314627Y-81115353D01*
X61315308Y-81264650D01*
X61315500Y-81931400D01*
X60883700Y-81931400D01*
X60883700Y-81212110D01*
X60883093Y-80983457D01*
X60881100Y-80799758D01*
X60877463Y-80655177D01*
X60871922Y-80543882D01*
X60864219Y-80460037D01*
X60854095Y-80397809D01*
X60846197Y-80366534D01*
X60781437Y-80228307D01*
X60680530Y-80125106D01*
X60545103Y-80057984D01*
X60376780Y-80027999D01*
X60322312Y-80026400D01*
X60159841Y-80036817D01*
X60029862Y-80071694D01*
X59917764Y-80136472D01*
X59837860Y-80206726D01*
X59783673Y-80263731D01*
X59740291Y-80319501D01*
X59706523Y-80380365D01*
X59681179Y-80452652D01*
X59663067Y-80542689D01*
X59650996Y-80656805D01*
X59643777Y-80801327D01*
X59640217Y-80982585D01*
X59639126Y-81206907D01*
X59639100Y-81262910D01*
X59639100Y-81931400D01*
X59207300Y-81931400D01*
X59207300Y-79670800D01*
X59639100Y-79670800D01*
X59639100Y-79928707D01*
X59721364Y-79846442D01*
X59807752Y-79770836D01*
X59898455Y-79717569D01*
X60004478Y-79683282D01*
X60136824Y-79664616D01*
X60306495Y-79658211D01*
X60338174Y-79658100D01*
X60469491Y-79658791D01*
G36*
X58807237Y-79635436D02*
G01*
X58953300Y-79651961D01*
X58953300Y-80022729D01*
X58819950Y-80009068D01*
X58635851Y-80014139D01*
X58466452Y-80065922D01*
X58317881Y-80161056D01*
X58196266Y-80296179D01*
X58147389Y-80377869D01*
X58064300Y-80538838D01*
X58064300Y-81931400D01*
X57632500Y-81931400D01*
X57632500Y-79668745D01*
X57842050Y-79676122D01*
X58051600Y-79683500D01*
X58077000Y-79905358D01*
X58127769Y-79848946D01*
X58245946Y-79752357D01*
X58397798Y-79681267D01*
X58571042Y-79639536D01*
X58753390Y-79631025D01*
X58807237Y-79635436D01*
X58807237Y-79635436D01*
G37*
X58807237Y-79635436D02*
X58953300Y-79651961D01*
X58953300Y-80022729D01*
X58819950Y-80009068D01*
X58635851Y-80014139D01*
X58466452Y-80065922D01*
X58317881Y-80161056D01*
X58196266Y-80296179D01*
X58147389Y-80377869D01*
X58064300Y-80538838D01*
X58064300Y-81931400D01*
X57632500Y-81931400D01*
X57632500Y-79668745D01*
X57842050Y-79676122D01*
X58051600Y-79683500D01*
X58077000Y-79905358D01*
X58127769Y-79848946D01*
X58245946Y-79752357D01*
X58397798Y-79681267D01*
X58571042Y-79639536D01*
X58753390Y-79631025D01*
X58807237Y-79635436D01*
G36*
X63001530Y-79668406D02*
G01*
X63223894Y-79734705D01*
X63422133Y-79840213D01*
X63592079Y-79980847D01*
X63729559Y-80152524D01*
X63830404Y-80351162D01*
X63890443Y-80572678D01*
X63906300Y-80768336D01*
X63906300Y-80915400D01*
X62001300Y-80915400D01*
X62001300Y-80988498D01*
X62024217Y-81111649D01*
X62087655Y-81239172D01*
X62183643Y-81360298D01*
X62304211Y-81464256D01*
X62393388Y-81518239D01*
X62529242Y-81569647D01*
X62689904Y-81594683D01*
X62702872Y-81595596D01*
X62885129Y-81593127D01*
X63038803Y-81556329D01*
X63176495Y-81480614D01*
X63291193Y-81381419D01*
X63427013Y-81245600D01*
X63630268Y-81245600D01*
X63730811Y-81246246D01*
X63790033Y-81250122D01*
X63817410Y-81260133D01*
X63822419Y-81279182D01*
X63816730Y-81302750D01*
X63778417Y-81388398D01*
X63713499Y-81491086D01*
X63633774Y-81594606D01*
X63551044Y-81682746D01*
X63520857Y-81709173D01*
X63321990Y-81838773D01*
X63099302Y-81928237D01*
X62862596Y-81975509D01*
X62621673Y-81978535D01*
X62410357Y-81942004D01*
X62189245Y-81857879D01*
X61994425Y-81734023D01*
X61830825Y-81575554D01*
X61703374Y-81387590D01*
X61617001Y-81175249D01*
X61597844Y-81098299D01*
X61567308Y-80848242D01*
X61581041Y-80608661D01*
X61593222Y-80559800D01*
X62002557Y-80559800D01*
X62725828Y-80559800D01*
X62938414Y-80559528D01*
X63105499Y-80558521D01*
X63232379Y-80556494D01*
X63324351Y-80553158D01*
X63386712Y-80548229D01*
X63424759Y-80541420D01*
X63443788Y-80532444D01*
X63449097Y-80521014D01*
X63449100Y-80520688D01*
X63428723Y-80438758D01*
X63374025Y-80343173D01*
X63294652Y-80245722D01*
X63200248Y-80158195D01*
X63100461Y-80092383D01*
X63097403Y-80090826D01*
X62958347Y-80043277D01*
X62794233Y-80022014D01*
X62623428Y-80026960D01*
X62464298Y-80058039D01*
X62372560Y-80093844D01*
X62226026Y-80195486D01*
X62107149Y-80336797D01*
X62026765Y-80496127D01*
X62002557Y-80559800D01*
X61593222Y-80559800D01*
X61636867Y-80384735D01*
X61732606Y-80181643D01*
X61866079Y-80004563D01*
X62035108Y-79858672D01*
X62147999Y-79790689D01*
X62342603Y-79706746D01*
X62539926Y-79659901D01*
X62759213Y-79645400D01*
X63001530Y-79668406D01*
X63001530Y-79668406D01*
G37*
X63001530Y-79668406D02*
X63223894Y-79734705D01*
X63422133Y-79840213D01*
X63592079Y-79980847D01*
X63729559Y-80152524D01*
X63830404Y-80351162D01*
X63890443Y-80572678D01*
X63906300Y-80768336D01*
X63906300Y-80915400D01*
X62001300Y-80915400D01*
X62001300Y-80988498D01*
X62024217Y-81111649D01*
X62087655Y-81239172D01*
X62183643Y-81360298D01*
X62304211Y-81464256D01*
X62393388Y-81518239D01*
X62529242Y-81569647D01*
X62689904Y-81594683D01*
X62702872Y-81595596D01*
X62885129Y-81593127D01*
X63038803Y-81556329D01*
X63176495Y-81480614D01*
X63291193Y-81381419D01*
X63427013Y-81245600D01*
X63630268Y-81245600D01*
X63730811Y-81246246D01*
X63790033Y-81250122D01*
X63817410Y-81260133D01*
X63822419Y-81279182D01*
X63816730Y-81302750D01*
X63778417Y-81388398D01*
X63713499Y-81491086D01*
X63633774Y-81594606D01*
X63551044Y-81682746D01*
X63520857Y-81709173D01*
X63321990Y-81838773D01*
X63099302Y-81928237D01*
X62862596Y-81975509D01*
X62621673Y-81978535D01*
X62410357Y-81942004D01*
X62189245Y-81857879D01*
X61994425Y-81734023D01*
X61830825Y-81575554D01*
X61703374Y-81387590D01*
X61617001Y-81175249D01*
X61597844Y-81098299D01*
X61567308Y-80848242D01*
X61581041Y-80608661D01*
X61593222Y-80559800D01*
X62002557Y-80559800D01*
X62725828Y-80559800D01*
X62938414Y-80559528D01*
X63105499Y-80558521D01*
X63232379Y-80556494D01*
X63324351Y-80553158D01*
X63386712Y-80548229D01*
X63424759Y-80541420D01*
X63443788Y-80532444D01*
X63449097Y-80521014D01*
X63449100Y-80520688D01*
X63428723Y-80438758D01*
X63374025Y-80343173D01*
X63294652Y-80245722D01*
X63200248Y-80158195D01*
X63100461Y-80092383D01*
X63097403Y-80090826D01*
X62958347Y-80043277D01*
X62794233Y-80022014D01*
X62623428Y-80026960D01*
X62464298Y-80058039D01*
X62372560Y-80093844D01*
X62226026Y-80195486D01*
X62107149Y-80336797D01*
X62026765Y-80496127D01*
X62002557Y-80559800D01*
X61593222Y-80559800D01*
X61636867Y-80384735D01*
X61732606Y-80181643D01*
X61866079Y-80004563D01*
X62035108Y-79858672D01*
X62147999Y-79790689D01*
X62342603Y-79706746D01*
X62539926Y-79659901D01*
X62759213Y-79645400D01*
X63001530Y-79668406D01*
G36*
X56209986Y-79651840D02*
G01*
X56463440Y-79687111D01*
X56691525Y-79763807D01*
X56891175Y-79879865D01*
X57059325Y-80033222D01*
X57192908Y-80221816D01*
X57257456Y-80356600D01*
X57289018Y-80470705D01*
X57309285Y-80618371D01*
X57318030Y-80783580D01*
X57315025Y-80950313D01*
X57300043Y-81102551D01*
X57272856Y-81224275D01*
X57269905Y-81232900D01*
X57173519Y-81430172D01*
X57034275Y-81606574D01*
X56857679Y-81756769D01*
X56649241Y-81875421D01*
X56574340Y-81906770D01*
X56442321Y-81943019D01*
X56279335Y-81966467D01*
X56103781Y-81976287D01*
X55934060Y-81971650D01*
X55788574Y-81951729D01*
X55755753Y-81943599D01*
X55541853Y-81861401D01*
X55347121Y-81743093D01*
X55180155Y-81595635D01*
X55049556Y-81425986D01*
X54998682Y-81330895D01*
X54960337Y-81228102D01*
X54926151Y-81103876D01*
X54906099Y-81000628D01*
X54898748Y-80859224D01*
X55323074Y-80859224D01*
X55337409Y-81006866D01*
X55357541Y-81088207D01*
X55410794Y-81200941D01*
X55491195Y-81316333D01*
X55585178Y-81417702D01*
X55679174Y-81488365D01*
X55685958Y-81492020D01*
X55882698Y-81568118D01*
X56087689Y-81598463D01*
X56291104Y-81582243D01*
X56403664Y-81551468D01*
X56580944Y-81464347D01*
X56725410Y-81340677D01*
X56832587Y-81184341D01*
X56837020Y-81175466D01*
X56890010Y-81019401D01*
X56911993Y-80842298D01*
X56902639Y-80663017D01*
X56861621Y-80500421D01*
X56849289Y-80470900D01*
X56751958Y-80311906D01*
X56624261Y-80187092D01*
X56473564Y-80096623D01*
X56307236Y-80040666D01*
X56132642Y-80019386D01*
X55957149Y-80032949D01*
X55788124Y-80081522D01*
X55632934Y-80165270D01*
X55498945Y-80284360D01*
X55393965Y-80438101D01*
X55352419Y-80555807D01*
X55328433Y-80702526D01*
X55323074Y-80859224D01*
X54898748Y-80859224D01*
X54893238Y-80753236D01*
X54925650Y-80518693D01*
X55000850Y-80302052D01*
X55116357Y-80108365D01*
X55269687Y-79942687D01*
X55458360Y-79810069D01*
X55502419Y-79786803D01*
X55676705Y-79712053D01*
X55848030Y-79667281D01*
X56033905Y-79649147D01*
X56209986Y-79651840D01*
X56209986Y-79651840D01*
G37*
X56209986Y-79651840D02*
X56463440Y-79687111D01*
X56691525Y-79763807D01*
X56891175Y-79879865D01*
X57059325Y-80033222D01*
X57192908Y-80221816D01*
X57257456Y-80356600D01*
X57289018Y-80470705D01*
X57309285Y-80618371D01*
X57318030Y-80783580D01*
X57315025Y-80950313D01*
X57300043Y-81102551D01*
X57272856Y-81224275D01*
X57269905Y-81232900D01*
X57173519Y-81430172D01*
X57034275Y-81606574D01*
X56857679Y-81756769D01*
X56649241Y-81875421D01*
X56574340Y-81906770D01*
X56442321Y-81943019D01*
X56279335Y-81966467D01*
X56103781Y-81976287D01*
X55934060Y-81971650D01*
X55788574Y-81951729D01*
X55755753Y-81943599D01*
X55541853Y-81861401D01*
X55347121Y-81743093D01*
X55180155Y-81595635D01*
X55049556Y-81425986D01*
X54998682Y-81330895D01*
X54960337Y-81228102D01*
X54926151Y-81103876D01*
X54906099Y-81000628D01*
X54898748Y-80859224D01*
X55323074Y-80859224D01*
X55337409Y-81006866D01*
X55357541Y-81088207D01*
X55410794Y-81200941D01*
X55491195Y-81316333D01*
X55585178Y-81417702D01*
X55679174Y-81488365D01*
X55685958Y-81492020D01*
X55882698Y-81568118D01*
X56087689Y-81598463D01*
X56291104Y-81582243D01*
X56403664Y-81551468D01*
X56580944Y-81464347D01*
X56725410Y-81340677D01*
X56832587Y-81184341D01*
X56837020Y-81175466D01*
X56890010Y-81019401D01*
X56911993Y-80842298D01*
X56902639Y-80663017D01*
X56861621Y-80500421D01*
X56849289Y-80470900D01*
X56751958Y-80311906D01*
X56624261Y-80187092D01*
X56473564Y-80096623D01*
X56307236Y-80040666D01*
X56132642Y-80019386D01*
X55957149Y-80032949D01*
X55788124Y-80081522D01*
X55632934Y-80165270D01*
X55498945Y-80284360D01*
X55393965Y-80438101D01*
X55352419Y-80555807D01*
X55328433Y-80702526D01*
X55323074Y-80859224D01*
X54898748Y-80859224D01*
X54893238Y-80753236D01*
X54925650Y-80518693D01*
X55000850Y-80302052D01*
X55116357Y-80108365D01*
X55269687Y-79942687D01*
X55458360Y-79810069D01*
X55502419Y-79786803D01*
X55676705Y-79712053D01*
X55848030Y-79667281D01*
X56033905Y-79649147D01*
X56209986Y-79651840D01*
G36*
X53827049Y-79665988D02*
G01*
X53941748Y-79692102D01*
X54162850Y-79782639D01*
X54354293Y-79909036D01*
X54511222Y-80066988D01*
X54628782Y-80252188D01*
X54663437Y-80332254D01*
X54697464Y-80425731D01*
X54709083Y-80484761D01*
X54691798Y-80517261D01*
X54639112Y-80531149D01*
X54544529Y-80534343D01*
X54497569Y-80534400D01*
X54283639Y-80534399D01*
X54252733Y-80440754D01*
X54186143Y-80314894D01*
X54079638Y-80203503D01*
X53943463Y-80113012D01*
X53787864Y-80049854D01*
X53623085Y-80020461D01*
X53581199Y-80019142D01*
X53398869Y-80041910D01*
X53228565Y-80106221D01*
X53079016Y-80206089D01*
X52958953Y-80335526D01*
X52877105Y-80488547D01*
X52870907Y-80506267D01*
X52837356Y-80664924D01*
X52831573Y-80840402D01*
X52852259Y-81014327D01*
X52898113Y-81168322D01*
X52921175Y-81216531D01*
X53026904Y-81367138D01*
X53161779Y-81479303D01*
X53309102Y-81550915D01*
X53487789Y-81593926D01*
X53667259Y-81593773D01*
X53839072Y-81553785D01*
X53994790Y-81477291D01*
X54125974Y-81367622D01*
X54224184Y-81228106D01*
X54245767Y-81181389D01*
X54292400Y-81067990D01*
X54501950Y-81067895D01*
X54604668Y-81068561D01*
X54666784Y-81072620D01*
X54698495Y-81082992D01*
X54709997Y-81102594D01*
X54711500Y-81127887D01*
X54695975Y-81202902D01*
X54654424Y-81302781D01*
X54594378Y-81414252D01*
X54523369Y-81524041D01*
X54448929Y-81618876D01*
X54410038Y-81659119D01*
X54230264Y-81794131D01*
X54021407Y-81894811D01*
X53794560Y-81957913D01*
X53560818Y-81980194D01*
X53365300Y-81964664D01*
X53172087Y-81913943D01*
X52984451Y-81830877D01*
X52814760Y-81722860D01*
X52675383Y-81597289D01*
X52608489Y-81512165D01*
X52527160Y-81377841D01*
X52471270Y-81252887D01*
X52436691Y-81122138D01*
X52419293Y-80970430D01*
X52414914Y-80801100D01*
X52416419Y-80660194D01*
X52422121Y-80556188D01*
X52433798Y-80475236D01*
X52453230Y-80403494D01*
X52472851Y-80350197D01*
X52578497Y-80150543D01*
X52724762Y-79974026D01*
X52903876Y-79828316D01*
X53108069Y-79721085D01*
X53111300Y-79719802D01*
X53267283Y-79675914D01*
X53451255Y-79651892D01*
X53644187Y-79648372D01*
X53827049Y-79665988D01*
X53827049Y-79665988D01*
G37*
X53827049Y-79665988D02*
X53941748Y-79692102D01*
X54162850Y-79782639D01*
X54354293Y-79909036D01*
X54511222Y-80066988D01*
X54628782Y-80252188D01*
X54663437Y-80332254D01*
X54697464Y-80425731D01*
X54709083Y-80484761D01*
X54691798Y-80517261D01*
X54639112Y-80531149D01*
X54544529Y-80534343D01*
X54497569Y-80534400D01*
X54283639Y-80534399D01*
X54252733Y-80440754D01*
X54186143Y-80314894D01*
X54079638Y-80203503D01*
X53943463Y-80113012D01*
X53787864Y-80049854D01*
X53623085Y-80020461D01*
X53581199Y-80019142D01*
X53398869Y-80041910D01*
X53228565Y-80106221D01*
X53079016Y-80206089D01*
X52958953Y-80335526D01*
X52877105Y-80488547D01*
X52870907Y-80506267D01*
X52837356Y-80664924D01*
X52831573Y-80840402D01*
X52852259Y-81014327D01*
X52898113Y-81168322D01*
X52921175Y-81216531D01*
X53026904Y-81367138D01*
X53161779Y-81479303D01*
X53309102Y-81550915D01*
X53487789Y-81593926D01*
X53667259Y-81593773D01*
X53839072Y-81553785D01*
X53994790Y-81477291D01*
X54125974Y-81367622D01*
X54224184Y-81228106D01*
X54245767Y-81181389D01*
X54292400Y-81067990D01*
X54501950Y-81067895D01*
X54604668Y-81068561D01*
X54666784Y-81072620D01*
X54698495Y-81082992D01*
X54709997Y-81102594D01*
X54711500Y-81127887D01*
X54695975Y-81202902D01*
X54654424Y-81302781D01*
X54594378Y-81414252D01*
X54523369Y-81524041D01*
X54448929Y-81618876D01*
X54410038Y-81659119D01*
X54230264Y-81794131D01*
X54021407Y-81894811D01*
X53794560Y-81957913D01*
X53560818Y-81980194D01*
X53365300Y-81964664D01*
X53172087Y-81913943D01*
X52984451Y-81830877D01*
X52814760Y-81722860D01*
X52675383Y-81597289D01*
X52608489Y-81512165D01*
X52527160Y-81377841D01*
X52471270Y-81252887D01*
X52436691Y-81122138D01*
X52419293Y-80970430D01*
X52414914Y-80801100D01*
X52416419Y-80660194D01*
X52422121Y-80556188D01*
X52433798Y-80475236D01*
X52453230Y-80403494D01*
X52472851Y-80350197D01*
X52578497Y-80150543D01*
X52724762Y-79974026D01*
X52903876Y-79828316D01*
X53108069Y-79721085D01*
X53111300Y-79719802D01*
X53267283Y-79675914D01*
X53451255Y-79651892D01*
X53644187Y-79648372D01*
X53827049Y-79665988D01*
D10*
X129214380Y-19281285D02*
X128991047Y-18924142D01*
X128831523Y-19281285D02*
X128831523Y-18531285D01*
X129086761Y-18531285D01*
X129150571Y-18567000D01*
X129182476Y-18602714D01*
X129214380Y-18674142D01*
X129214380Y-18781285D01*
X129182476Y-18852714D01*
X129150571Y-18888428D01*
X129086761Y-18924142D01*
X128831523Y-18924142D01*
X129469619Y-19067000D02*
X129788666Y-19067000D01*
X129405809Y-19281285D02*
X129629142Y-18531285D01*
X129852476Y-19281285D01*
X130012000Y-18531285D02*
X130171523Y-19281285D01*
X130299142Y-18745571D01*
X130426761Y-19281285D01*
X130586285Y-18531285D01*
X139257023Y-26145000D02*
X139193214Y-26109285D01*
X139097500Y-26109285D01*
X139001785Y-26145000D01*
X138937976Y-26216428D01*
X138906071Y-26287857D01*
X138874166Y-26430714D01*
X138874166Y-26537857D01*
X138906071Y-26680714D01*
X138937976Y-26752142D01*
X139001785Y-26823571D01*
X139097500Y-26859285D01*
X139161309Y-26859285D01*
X139257023Y-26823571D01*
X139288928Y-26787857D01*
X139288928Y-26537857D01*
X139161309Y-26537857D01*
X139576071Y-26859285D02*
X139576071Y-26109285D01*
X139958928Y-26859285D01*
X139958928Y-26109285D01*
X140277976Y-26859285D02*
X140277976Y-26109285D01*
X140437500Y-26109285D01*
X140533214Y-26145000D01*
X140597023Y-26216428D01*
X140628928Y-26287857D01*
X140660833Y-26430714D01*
X140660833Y-26537857D01*
X140628928Y-26680714D01*
X140597023Y-26752142D01*
X140533214Y-26823571D01*
X140437500Y-26859285D01*
X140277976Y-26859285D01*
X129310095Y-24424785D02*
X129086761Y-24067642D01*
X128927238Y-24424785D02*
X128927238Y-23674785D01*
X129182476Y-23674785D01*
X129246285Y-23710500D01*
X129278190Y-23746214D01*
X129310095Y-23817642D01*
X129310095Y-23924785D01*
X129278190Y-23996214D01*
X129246285Y-24031928D01*
X129182476Y-24067642D01*
X128927238Y-24067642D01*
X129565333Y-24389071D02*
X129661047Y-24424785D01*
X129820571Y-24424785D01*
X129884380Y-24389071D01*
X129916285Y-24353357D01*
X129948190Y-24281928D01*
X129948190Y-24210500D01*
X129916285Y-24139071D01*
X129884380Y-24103357D01*
X129820571Y-24067642D01*
X129692952Y-24031928D01*
X129629142Y-23996214D01*
X129597238Y-23960500D01*
X129565333Y-23889071D01*
X129565333Y-23817642D01*
X129597238Y-23746214D01*
X129629142Y-23710500D01*
X129692952Y-23674785D01*
X129852476Y-23674785D01*
X129948190Y-23710500D01*
X130139619Y-23674785D02*
X130522476Y-23674785D01*
X130331047Y-24424785D02*
X130331047Y-23674785D01*
X128744166Y-26094285D02*
X128967500Y-26844285D01*
X129190833Y-26094285D01*
X129797023Y-26772857D02*
X129765119Y-26808571D01*
X129669404Y-26844285D01*
X129605595Y-26844285D01*
X129509880Y-26808571D01*
X129446071Y-26737142D01*
X129414166Y-26665714D01*
X129382261Y-26522857D01*
X129382261Y-26415714D01*
X129414166Y-26272857D01*
X129446071Y-26201428D01*
X129509880Y-26130000D01*
X129605595Y-26094285D01*
X129669404Y-26094285D01*
X129765119Y-26130000D01*
X129797023Y-26165714D01*
X130467023Y-26772857D02*
X130435119Y-26808571D01*
X130339404Y-26844285D01*
X130275595Y-26844285D01*
X130179880Y-26808571D01*
X130116071Y-26737142D01*
X130084166Y-26665714D01*
X130052261Y-26522857D01*
X130052261Y-26415714D01*
X130084166Y-26272857D01*
X130116071Y-26201428D01*
X130179880Y-26130000D01*
X130275595Y-26094285D01*
X130339404Y-26094285D01*
X130435119Y-26130000D01*
X130467023Y-26165714D01*
X128981785Y-29295000D02*
X129300833Y-29295000D01*
X128917976Y-29509285D02*
X129141309Y-28759285D01*
X129364642Y-29509285D01*
X129524166Y-28759285D02*
X129938928Y-28759285D01*
X129715595Y-29045000D01*
X129811309Y-29045000D01*
X129875119Y-29080714D01*
X129907023Y-29116428D01*
X129938928Y-29187857D01*
X129938928Y-29366428D01*
X129907023Y-29437857D01*
X129875119Y-29473571D01*
X129811309Y-29509285D01*
X129619880Y-29509285D01*
X129556071Y-29473571D01*
X129524166Y-29437857D01*
X130704642Y-28723571D02*
X130130357Y-29687857D01*
X131151309Y-29116428D02*
X130927976Y-29116428D01*
X130927976Y-29509285D02*
X130927976Y-28759285D01*
X131247023Y-28759285D01*
X131789404Y-29009285D02*
X131789404Y-29509285D01*
X131629880Y-28723571D02*
X131470357Y-29259285D01*
X131885119Y-29259285D01*
X128981785Y-31795000D02*
X129300833Y-31795000D01*
X128917976Y-32009285D02*
X129141309Y-31259285D01*
X129364642Y-32009285D01*
X129556071Y-31330714D02*
X129587976Y-31295000D01*
X129651785Y-31259285D01*
X129811309Y-31259285D01*
X129875119Y-31295000D01*
X129907023Y-31330714D01*
X129938928Y-31402142D01*
X129938928Y-31473571D01*
X129907023Y-31580714D01*
X129524166Y-32009285D01*
X129938928Y-32009285D01*
X130704642Y-31223571D02*
X130130357Y-32187857D01*
X131151309Y-31616428D02*
X130927976Y-31616428D01*
X130927976Y-32009285D02*
X130927976Y-31259285D01*
X131247023Y-31259285D01*
X131821309Y-31259285D02*
X131502261Y-31259285D01*
X131470357Y-31616428D01*
X131502261Y-31580714D01*
X131566071Y-31545000D01*
X131725595Y-31545000D01*
X131789404Y-31580714D01*
X131821309Y-31616428D01*
X131853214Y-31687857D01*
X131853214Y-31866428D01*
X131821309Y-31937857D01*
X131789404Y-31973571D01*
X131725595Y-32009285D01*
X131566071Y-32009285D01*
X131502261Y-31973571D01*
X131470357Y-31937857D01*
X128981785Y-34295000D02*
X129300833Y-34295000D01*
X128917976Y-34509285D02*
X129141309Y-33759285D01*
X129364642Y-34509285D01*
X129938928Y-34509285D02*
X129556071Y-34509285D01*
X129747500Y-34509285D02*
X129747500Y-33759285D01*
X129683690Y-33866428D01*
X129619880Y-33937857D01*
X129556071Y-33973571D01*
X130704642Y-33723571D02*
X130130357Y-34687857D01*
X131151309Y-34116428D02*
X130927976Y-34116428D01*
X130927976Y-34509285D02*
X130927976Y-33759285D01*
X131247023Y-33759285D01*
X131789404Y-33759285D02*
X131661785Y-33759285D01*
X131597976Y-33795000D01*
X131566071Y-33830714D01*
X131502261Y-33937857D01*
X131470357Y-34080714D01*
X131470357Y-34366428D01*
X131502261Y-34437857D01*
X131534166Y-34473571D01*
X131597976Y-34509285D01*
X131725595Y-34509285D01*
X131789404Y-34473571D01*
X131821309Y-34437857D01*
X131853214Y-34366428D01*
X131853214Y-34187857D01*
X131821309Y-34116428D01*
X131789404Y-34080714D01*
X131725595Y-34045000D01*
X131597976Y-34045000D01*
X131534166Y-34080714D01*
X131502261Y-34116428D01*
X131470357Y-34187857D01*
X128981785Y-36845000D02*
X129300833Y-36845000D01*
X128917976Y-37059285D02*
X129141309Y-36309285D01*
X129364642Y-37059285D01*
X129715595Y-36309285D02*
X129779404Y-36309285D01*
X129843214Y-36345000D01*
X129875119Y-36380714D01*
X129907023Y-36452142D01*
X129938928Y-36595000D01*
X129938928Y-36773571D01*
X129907023Y-36916428D01*
X129875119Y-36987857D01*
X129843214Y-37023571D01*
X129779404Y-37059285D01*
X129715595Y-37059285D01*
X129651785Y-37023571D01*
X129619880Y-36987857D01*
X129587976Y-36916428D01*
X129556071Y-36773571D01*
X129556071Y-36595000D01*
X129587976Y-36452142D01*
X129619880Y-36380714D01*
X129651785Y-36345000D01*
X129715595Y-36309285D01*
X130704642Y-36273571D02*
X130130357Y-37237857D01*
X131151309Y-36666428D02*
X130927976Y-36666428D01*
X130927976Y-37059285D02*
X130927976Y-36309285D01*
X131247023Y-36309285D01*
X131438452Y-36309285D02*
X131885119Y-36309285D01*
X131597976Y-37059285D01*
X129284880Y-39609285D02*
X128902023Y-39609285D01*
X129093452Y-39609285D02*
X129093452Y-38859285D01*
X129029642Y-38966428D01*
X128965833Y-39037857D01*
X128902023Y-39073571D01*
X129891071Y-38859285D02*
X129572023Y-38859285D01*
X129540119Y-39216428D01*
X129572023Y-39180714D01*
X129635833Y-39145000D01*
X129795357Y-39145000D01*
X129859166Y-39180714D01*
X129891071Y-39216428D01*
X129922976Y-39287857D01*
X129922976Y-39466428D01*
X129891071Y-39537857D01*
X129859166Y-39573571D01*
X129795357Y-39609285D01*
X129635833Y-39609285D01*
X129572023Y-39573571D01*
X129540119Y-39537857D01*
X130688690Y-38823571D02*
X130114404Y-39787857D01*
X131135357Y-39216428D02*
X131231071Y-39252142D01*
X131262976Y-39287857D01*
X131294880Y-39359285D01*
X131294880Y-39466428D01*
X131262976Y-39537857D01*
X131231071Y-39573571D01*
X131167261Y-39609285D01*
X130912023Y-39609285D01*
X130912023Y-38859285D01*
X131135357Y-38859285D01*
X131199166Y-38895000D01*
X131231071Y-38930714D01*
X131262976Y-39002142D01*
X131262976Y-39073571D01*
X131231071Y-39145000D01*
X131199166Y-39180714D01*
X131135357Y-39216428D01*
X130912023Y-39216428D01*
X131932976Y-39609285D02*
X131550119Y-39609285D01*
X131741547Y-39609285D02*
X131741547Y-38859285D01*
X131677738Y-38966428D01*
X131613928Y-39037857D01*
X131550119Y-39073571D01*
X129284880Y-42159285D02*
X128902023Y-42159285D01*
X129093452Y-42159285D02*
X129093452Y-41409285D01*
X129029642Y-41516428D01*
X128965833Y-41587857D01*
X128902023Y-41623571D01*
X129859166Y-41659285D02*
X129859166Y-42159285D01*
X129699642Y-41373571D02*
X129540119Y-41909285D01*
X129954880Y-41909285D01*
X130688690Y-41373571D02*
X130114404Y-42337857D01*
X131135357Y-41766428D02*
X131231071Y-41802142D01*
X131262976Y-41837857D01*
X131294880Y-41909285D01*
X131294880Y-42016428D01*
X131262976Y-42087857D01*
X131231071Y-42123571D01*
X131167261Y-42159285D01*
X130912023Y-42159285D01*
X130912023Y-41409285D01*
X131135357Y-41409285D01*
X131199166Y-41445000D01*
X131231071Y-41480714D01*
X131262976Y-41552142D01*
X131262976Y-41623571D01*
X131231071Y-41695000D01*
X131199166Y-41730714D01*
X131135357Y-41766428D01*
X130912023Y-41766428D01*
X131518214Y-41409285D02*
X131932976Y-41409285D01*
X131709642Y-41695000D01*
X131805357Y-41695000D01*
X131869166Y-41730714D01*
X131901071Y-41766428D01*
X131932976Y-41837857D01*
X131932976Y-42016428D01*
X131901071Y-42087857D01*
X131869166Y-42123571D01*
X131805357Y-42159285D01*
X131613928Y-42159285D01*
X131550119Y-42123571D01*
X131518214Y-42087857D01*
X129284880Y-47209285D02*
X128902023Y-47209285D01*
X129093452Y-47209285D02*
X129093452Y-46459285D01*
X129029642Y-46566428D01*
X128965833Y-46637857D01*
X128902023Y-46673571D01*
X129699642Y-46459285D02*
X129763452Y-46459285D01*
X129827261Y-46495000D01*
X129859166Y-46530714D01*
X129891071Y-46602142D01*
X129922976Y-46745000D01*
X129922976Y-46923571D01*
X129891071Y-47066428D01*
X129859166Y-47137857D01*
X129827261Y-47173571D01*
X129763452Y-47209285D01*
X129699642Y-47209285D01*
X129635833Y-47173571D01*
X129603928Y-47137857D01*
X129572023Y-47066428D01*
X129540119Y-46923571D01*
X129540119Y-46745000D01*
X129572023Y-46602142D01*
X129603928Y-46530714D01*
X129635833Y-46495000D01*
X129699642Y-46459285D01*
X130688690Y-46423571D02*
X130114404Y-47387857D01*
X131135357Y-46816428D02*
X131231071Y-46852142D01*
X131262976Y-46887857D01*
X131294880Y-46959285D01*
X131294880Y-47066428D01*
X131262976Y-47137857D01*
X131231071Y-47173571D01*
X131167261Y-47209285D01*
X130912023Y-47209285D01*
X130912023Y-46459285D01*
X131135357Y-46459285D01*
X131199166Y-46495000D01*
X131231071Y-46530714D01*
X131262976Y-46602142D01*
X131262976Y-46673571D01*
X131231071Y-46745000D01*
X131199166Y-46780714D01*
X131135357Y-46816428D01*
X130912023Y-46816428D01*
X131869166Y-46459285D02*
X131741547Y-46459285D01*
X131677738Y-46495000D01*
X131645833Y-46530714D01*
X131582023Y-46637857D01*
X131550119Y-46780714D01*
X131550119Y-47066428D01*
X131582023Y-47137857D01*
X131613928Y-47173571D01*
X131677738Y-47209285D01*
X131805357Y-47209285D01*
X131869166Y-47173571D01*
X131901071Y-47137857D01*
X131932976Y-47066428D01*
X131932976Y-46887857D01*
X131901071Y-46816428D01*
X131869166Y-46780714D01*
X131805357Y-46745000D01*
X131677738Y-46745000D01*
X131613928Y-46780714D01*
X131582023Y-46816428D01*
X131550119Y-46887857D01*
X129284880Y-44709285D02*
X128902023Y-44709285D01*
X129093452Y-44709285D02*
X129093452Y-43959285D01*
X129029642Y-44066428D01*
X128965833Y-44137857D01*
X128902023Y-44173571D01*
X129859166Y-43959285D02*
X129731547Y-43959285D01*
X129667738Y-43995000D01*
X129635833Y-44030714D01*
X129572023Y-44137857D01*
X129540119Y-44280714D01*
X129540119Y-44566428D01*
X129572023Y-44637857D01*
X129603928Y-44673571D01*
X129667738Y-44709285D01*
X129795357Y-44709285D01*
X129859166Y-44673571D01*
X129891071Y-44637857D01*
X129922976Y-44566428D01*
X129922976Y-44387857D01*
X129891071Y-44316428D01*
X129859166Y-44280714D01*
X129795357Y-44245000D01*
X129667738Y-44245000D01*
X129603928Y-44280714D01*
X129572023Y-44316428D01*
X129540119Y-44387857D01*
X130688690Y-43923571D02*
X130114404Y-44887857D01*
X131135357Y-44316428D02*
X131231071Y-44352142D01*
X131262976Y-44387857D01*
X131294880Y-44459285D01*
X131294880Y-44566428D01*
X131262976Y-44637857D01*
X131231071Y-44673571D01*
X131167261Y-44709285D01*
X130912023Y-44709285D01*
X130912023Y-43959285D01*
X131135357Y-43959285D01*
X131199166Y-43995000D01*
X131231071Y-44030714D01*
X131262976Y-44102142D01*
X131262976Y-44173571D01*
X131231071Y-44245000D01*
X131199166Y-44280714D01*
X131135357Y-44316428D01*
X130912023Y-44316428D01*
X131550119Y-44030714D02*
X131582023Y-43995000D01*
X131645833Y-43959285D01*
X131805357Y-43959285D01*
X131869166Y-43995000D01*
X131901071Y-44030714D01*
X131932976Y-44102142D01*
X131932976Y-44173571D01*
X131901071Y-44280714D01*
X131518214Y-44709285D01*
X131932976Y-44709285D01*
X138384880Y-41616428D02*
X138608214Y-41616428D01*
X138703928Y-42009285D02*
X138384880Y-42009285D01*
X138384880Y-41259285D01*
X138703928Y-41259285D01*
X139278214Y-41259285D02*
X139150595Y-41259285D01*
X139086785Y-41295000D01*
X139054880Y-41330714D01*
X138991071Y-41437857D01*
X138959166Y-41580714D01*
X138959166Y-41866428D01*
X138991071Y-41937857D01*
X139022976Y-41973571D01*
X139086785Y-42009285D01*
X139214404Y-42009285D01*
X139278214Y-41973571D01*
X139310119Y-41937857D01*
X139342023Y-41866428D01*
X139342023Y-41687857D01*
X139310119Y-41616428D01*
X139278214Y-41580714D01*
X139214404Y-41545000D01*
X139086785Y-41545000D01*
X139022976Y-41580714D01*
X138991071Y-41616428D01*
X138959166Y-41687857D01*
X140107738Y-41223571D02*
X139533452Y-42187857D01*
X140267261Y-41259285D02*
X140713928Y-41259285D01*
X140426785Y-42009285D01*
X138352976Y-39459285D02*
X138352976Y-38709285D01*
X138512500Y-38709285D01*
X138608214Y-38745000D01*
X138672023Y-38816428D01*
X138703928Y-38887857D01*
X138735833Y-39030714D01*
X138735833Y-39137857D01*
X138703928Y-39280714D01*
X138672023Y-39352142D01*
X138608214Y-39423571D01*
X138512500Y-39459285D01*
X138352976Y-39459285D01*
X138959166Y-38709285D02*
X139405833Y-38709285D01*
X139118690Y-39459285D01*
X140139642Y-38673571D02*
X139565357Y-39637857D01*
X140650119Y-38709285D02*
X140522500Y-38709285D01*
X140458690Y-38745000D01*
X140426785Y-38780714D01*
X140362976Y-38887857D01*
X140331071Y-39030714D01*
X140331071Y-39316428D01*
X140362976Y-39387857D01*
X140394880Y-39423571D01*
X140458690Y-39459285D01*
X140586309Y-39459285D01*
X140650119Y-39423571D01*
X140682023Y-39387857D01*
X140713928Y-39316428D01*
X140713928Y-39137857D01*
X140682023Y-39066428D01*
X140650119Y-39030714D01*
X140586309Y-38995000D01*
X140458690Y-38995000D01*
X140394880Y-39030714D01*
X140362976Y-39066428D01*
X140331071Y-39137857D01*
X139257023Y-23695000D02*
X139193214Y-23659285D01*
X139097500Y-23659285D01*
X139001785Y-23695000D01*
X138937976Y-23766428D01*
X138906071Y-23837857D01*
X138874166Y-23980714D01*
X138874166Y-24087857D01*
X138906071Y-24230714D01*
X138937976Y-24302142D01*
X139001785Y-24373571D01*
X139097500Y-24409285D01*
X139161309Y-24409285D01*
X139257023Y-24373571D01*
X139288928Y-24337857D01*
X139288928Y-24087857D01*
X139161309Y-24087857D01*
X139576071Y-24409285D02*
X139576071Y-23659285D01*
X139958928Y-24409285D01*
X139958928Y-23659285D01*
X140277976Y-24409285D02*
X140277976Y-23659285D01*
X140437500Y-23659285D01*
X140533214Y-23695000D01*
X140597023Y-23766428D01*
X140628928Y-23837857D01*
X140660833Y-23980714D01*
X140660833Y-24087857D01*
X140628928Y-24230714D01*
X140597023Y-24302142D01*
X140533214Y-24373571D01*
X140437500Y-24409285D01*
X140277976Y-24409285D01*
X139257023Y-26145000D02*
X139193214Y-26109285D01*
X139097500Y-26109285D01*
X139001785Y-26145000D01*
X138937976Y-26216428D01*
X138906071Y-26287857D01*
X138874166Y-26430714D01*
X138874166Y-26537857D01*
X138906071Y-26680714D01*
X138937976Y-26752142D01*
X139001785Y-26823571D01*
X139097500Y-26859285D01*
X139161309Y-26859285D01*
X139257023Y-26823571D01*
X139288928Y-26787857D01*
X139288928Y-26537857D01*
X139161309Y-26537857D01*
X139576071Y-26859285D02*
X139576071Y-26109285D01*
X139958928Y-26859285D01*
X139958928Y-26109285D01*
X140277976Y-26859285D02*
X140277976Y-26109285D01*
X140437500Y-26109285D01*
X140533214Y-26145000D01*
X140597023Y-26216428D01*
X140628928Y-26287857D01*
X140660833Y-26430714D01*
X140660833Y-26537857D01*
X140628928Y-26680714D01*
X140597023Y-26752142D01*
X140533214Y-26823571D01*
X140437500Y-26859285D01*
X140277976Y-26859285D01*
X137228690Y-19309285D02*
X137228690Y-18559285D01*
X137388214Y-18559285D01*
X137483928Y-18595000D01*
X137547738Y-18666428D01*
X137579642Y-18737857D01*
X137611547Y-18880714D01*
X137611547Y-18987857D01*
X137579642Y-19130714D01*
X137547738Y-19202142D01*
X137483928Y-19273571D01*
X137388214Y-19309285D01*
X137228690Y-19309285D01*
X137834880Y-18559285D02*
X138249642Y-18559285D01*
X138026309Y-18845000D01*
X138122023Y-18845000D01*
X138185833Y-18880714D01*
X138217738Y-18916428D01*
X138249642Y-18987857D01*
X138249642Y-19166428D01*
X138217738Y-19237857D01*
X138185833Y-19273571D01*
X138122023Y-19309285D01*
X137930595Y-19309285D01*
X137866785Y-19273571D01*
X137834880Y-19237857D01*
X139015357Y-18523571D02*
X138441071Y-19487857D01*
X139142976Y-18559285D02*
X139525833Y-18559285D01*
X139334404Y-19309285D02*
X139334404Y-18559285D01*
X139685357Y-18559285D02*
X140132023Y-19309285D01*
X140132023Y-18559285D02*
X139685357Y-19309285D01*
X140514880Y-18559285D02*
X140578690Y-18559285D01*
X140642500Y-18595000D01*
X140674404Y-18630714D01*
X140706309Y-18702142D01*
X140738214Y-18845000D01*
X140738214Y-19023571D01*
X140706309Y-19166428D01*
X140674404Y-19237857D01*
X140642500Y-19273571D01*
X140578690Y-19309285D01*
X140514880Y-19309285D01*
X140451071Y-19273571D01*
X140419166Y-19237857D01*
X140387261Y-19166428D01*
X140355357Y-19023571D01*
X140355357Y-18845000D01*
X140387261Y-18702142D01*
X140419166Y-18630714D01*
X140451071Y-18595000D01*
X140514880Y-18559285D01*
X138352976Y-34359285D02*
X138352976Y-33609285D01*
X138512500Y-33609285D01*
X138608214Y-33645000D01*
X138672023Y-33716428D01*
X138703928Y-33787857D01*
X138735833Y-33930714D01*
X138735833Y-34037857D01*
X138703928Y-34180714D01*
X138672023Y-34252142D01*
X138608214Y-34323571D01*
X138512500Y-34359285D01*
X138352976Y-34359285D01*
X139310119Y-33859285D02*
X139310119Y-34359285D01*
X139150595Y-33573571D02*
X138991071Y-34109285D01*
X139405833Y-34109285D01*
X140139642Y-33573571D02*
X139565357Y-34537857D01*
X140650119Y-33859285D02*
X140650119Y-34359285D01*
X140490595Y-33573571D02*
X140331071Y-34109285D01*
X140745833Y-34109285D01*
X135778928Y-29323571D02*
X135874642Y-29359285D01*
X136034166Y-29359285D01*
X136097976Y-29323571D01*
X136129880Y-29287857D01*
X136161785Y-29216428D01*
X136161785Y-29145000D01*
X136129880Y-29073571D01*
X136097976Y-29037857D01*
X136034166Y-29002142D01*
X135906547Y-28966428D01*
X135842738Y-28930714D01*
X135810833Y-28895000D01*
X135778928Y-28823571D01*
X135778928Y-28752142D01*
X135810833Y-28680714D01*
X135842738Y-28645000D01*
X135906547Y-28609285D01*
X136066071Y-28609285D01*
X136161785Y-28645000D01*
X136448928Y-29359285D02*
X136448928Y-28609285D01*
X136608452Y-28609285D01*
X136704166Y-28645000D01*
X136767976Y-28716428D01*
X136799880Y-28787857D01*
X136831785Y-28930714D01*
X136831785Y-29037857D01*
X136799880Y-29180714D01*
X136767976Y-29252142D01*
X136704166Y-29323571D01*
X136608452Y-29359285D01*
X136448928Y-29359285D01*
X137087023Y-29145000D02*
X137406071Y-29145000D01*
X137023214Y-29359285D02*
X137246547Y-28609285D01*
X137469880Y-29359285D01*
X138171785Y-28573571D02*
X137597500Y-29537857D01*
X138395119Y-29359285D02*
X138395119Y-28609285D01*
X138554642Y-28609285D01*
X138650357Y-28645000D01*
X138714166Y-28716428D01*
X138746071Y-28787857D01*
X138777976Y-28930714D01*
X138777976Y-29037857D01*
X138746071Y-29180714D01*
X138714166Y-29252142D01*
X138650357Y-29323571D01*
X138554642Y-29359285D01*
X138395119Y-29359285D01*
X139416071Y-29359285D02*
X139033214Y-29359285D01*
X139224642Y-29359285D02*
X139224642Y-28609285D01*
X139160833Y-28716428D01*
X139097023Y-28787857D01*
X139033214Y-28823571D01*
X140181785Y-28573571D02*
X139607500Y-29537857D01*
X140373214Y-28680714D02*
X140405119Y-28645000D01*
X140468928Y-28609285D01*
X140628452Y-28609285D01*
X140692261Y-28645000D01*
X140724166Y-28680714D01*
X140756071Y-28752142D01*
X140756071Y-28823571D01*
X140724166Y-28930714D01*
X140341309Y-29359285D01*
X140756071Y-29359285D01*
X135794880Y-31823571D02*
X135890595Y-31859285D01*
X136050119Y-31859285D01*
X136113928Y-31823571D01*
X136145833Y-31787857D01*
X136177738Y-31716428D01*
X136177738Y-31645000D01*
X136145833Y-31573571D01*
X136113928Y-31537857D01*
X136050119Y-31502142D01*
X135922500Y-31466428D01*
X135858690Y-31430714D01*
X135826785Y-31395000D01*
X135794880Y-31323571D01*
X135794880Y-31252142D01*
X135826785Y-31180714D01*
X135858690Y-31145000D01*
X135922500Y-31109285D01*
X136082023Y-31109285D01*
X136177738Y-31145000D01*
X136847738Y-31787857D02*
X136815833Y-31823571D01*
X136720119Y-31859285D01*
X136656309Y-31859285D01*
X136560595Y-31823571D01*
X136496785Y-31752142D01*
X136464880Y-31680714D01*
X136432976Y-31537857D01*
X136432976Y-31430714D01*
X136464880Y-31287857D01*
X136496785Y-31216428D01*
X136560595Y-31145000D01*
X136656309Y-31109285D01*
X136720119Y-31109285D01*
X136815833Y-31145000D01*
X136847738Y-31180714D01*
X137453928Y-31859285D02*
X137134880Y-31859285D01*
X137134880Y-31109285D01*
X138155833Y-31073571D02*
X137581547Y-32037857D01*
X138379166Y-31859285D02*
X138379166Y-31109285D01*
X138538690Y-31109285D01*
X138634404Y-31145000D01*
X138698214Y-31216428D01*
X138730119Y-31287857D01*
X138762023Y-31430714D01*
X138762023Y-31537857D01*
X138730119Y-31680714D01*
X138698214Y-31752142D01*
X138634404Y-31823571D01*
X138538690Y-31859285D01*
X138379166Y-31859285D01*
X139176785Y-31109285D02*
X139240595Y-31109285D01*
X139304404Y-31145000D01*
X139336309Y-31180714D01*
X139368214Y-31252142D01*
X139400119Y-31395000D01*
X139400119Y-31573571D01*
X139368214Y-31716428D01*
X139336309Y-31787857D01*
X139304404Y-31823571D01*
X139240595Y-31859285D01*
X139176785Y-31859285D01*
X139112976Y-31823571D01*
X139081071Y-31787857D01*
X139049166Y-31716428D01*
X139017261Y-31573571D01*
X139017261Y-31395000D01*
X139049166Y-31252142D01*
X139081071Y-31180714D01*
X139112976Y-31145000D01*
X139176785Y-31109285D01*
X140165833Y-31073571D02*
X139591547Y-32037857D01*
X140325357Y-31109285D02*
X140740119Y-31109285D01*
X140516785Y-31395000D01*
X140612500Y-31395000D01*
X140676309Y-31430714D01*
X140708214Y-31466428D01*
X140740119Y-31537857D01*
X140740119Y-31716428D01*
X140708214Y-31787857D01*
X140676309Y-31823571D01*
X140612500Y-31859285D01*
X140421071Y-31859285D01*
X140357261Y-31823571D01*
X140325357Y-31787857D01*
X138735833Y-36837857D02*
X138703928Y-36873571D01*
X138608214Y-36909285D01*
X138544404Y-36909285D01*
X138448690Y-36873571D01*
X138384880Y-36802142D01*
X138352976Y-36730714D01*
X138321071Y-36587857D01*
X138321071Y-36480714D01*
X138352976Y-36337857D01*
X138384880Y-36266428D01*
X138448690Y-36195000D01*
X138544404Y-36159285D01*
X138608214Y-36159285D01*
X138703928Y-36195000D01*
X138735833Y-36230714D01*
X139310119Y-36159285D02*
X139182500Y-36159285D01*
X139118690Y-36195000D01*
X139086785Y-36230714D01*
X139022976Y-36337857D01*
X138991071Y-36480714D01*
X138991071Y-36766428D01*
X139022976Y-36837857D01*
X139054880Y-36873571D01*
X139118690Y-36909285D01*
X139246309Y-36909285D01*
X139310119Y-36873571D01*
X139342023Y-36837857D01*
X139373928Y-36766428D01*
X139373928Y-36587857D01*
X139342023Y-36516428D01*
X139310119Y-36480714D01*
X139246309Y-36445000D01*
X139118690Y-36445000D01*
X139054880Y-36480714D01*
X139022976Y-36516428D01*
X138991071Y-36587857D01*
X140139642Y-36123571D02*
X139565357Y-37087857D01*
X140682023Y-36159285D02*
X140362976Y-36159285D01*
X140331071Y-36516428D01*
X140362976Y-36480714D01*
X140426785Y-36445000D01*
X140586309Y-36445000D01*
X140650119Y-36480714D01*
X140682023Y-36516428D01*
X140713928Y-36587857D01*
X140713928Y-36766428D01*
X140682023Y-36837857D01*
X140650119Y-36873571D01*
X140586309Y-36909285D01*
X140426785Y-36909285D01*
X140362976Y-36873571D01*
X140331071Y-36837857D01*
X138576309Y-46666428D02*
X138672023Y-46702142D01*
X138703928Y-46737857D01*
X138735833Y-46809285D01*
X138735833Y-46916428D01*
X138703928Y-46987857D01*
X138672023Y-47023571D01*
X138608214Y-47059285D01*
X138352976Y-47059285D01*
X138352976Y-46309285D01*
X138576309Y-46309285D01*
X138640119Y-46345000D01*
X138672023Y-46380714D01*
X138703928Y-46452142D01*
X138703928Y-46523571D01*
X138672023Y-46595000D01*
X138640119Y-46630714D01*
X138576309Y-46666428D01*
X138352976Y-46666428D01*
X139342023Y-46309285D02*
X139022976Y-46309285D01*
X138991071Y-46666428D01*
X139022976Y-46630714D01*
X139086785Y-46595000D01*
X139246309Y-46595000D01*
X139310119Y-46630714D01*
X139342023Y-46666428D01*
X139373928Y-46737857D01*
X139373928Y-46916428D01*
X139342023Y-46987857D01*
X139310119Y-47023571D01*
X139246309Y-47059285D01*
X139086785Y-47059285D01*
X139022976Y-47023571D01*
X138991071Y-46987857D01*
X140139642Y-46273571D02*
X139565357Y-47237857D01*
X140394880Y-47059285D02*
X140522500Y-47059285D01*
X140586309Y-47023571D01*
X140618214Y-46987857D01*
X140682023Y-46880714D01*
X140713928Y-46737857D01*
X140713928Y-46452142D01*
X140682023Y-46380714D01*
X140650119Y-46345000D01*
X140586309Y-46309285D01*
X140458690Y-46309285D01*
X140394880Y-46345000D01*
X140362976Y-46380714D01*
X140331071Y-46452142D01*
X140331071Y-46630714D01*
X140362976Y-46702142D01*
X140394880Y-46737857D01*
X140458690Y-46773571D01*
X140586309Y-46773571D01*
X140650119Y-46737857D01*
X140682023Y-46702142D01*
X140713928Y-46630714D01*
X137148928Y-21859285D02*
X137148928Y-21109285D01*
X137308452Y-21109285D01*
X137404166Y-21145000D01*
X137467976Y-21216428D01*
X137499880Y-21287857D01*
X137531785Y-21430714D01*
X137531785Y-21537857D01*
X137499880Y-21680714D01*
X137467976Y-21752142D01*
X137404166Y-21823571D01*
X137308452Y-21859285D01*
X137148928Y-21859285D01*
X137787023Y-21180714D02*
X137818928Y-21145000D01*
X137882738Y-21109285D01*
X138042261Y-21109285D01*
X138106071Y-21145000D01*
X138137976Y-21180714D01*
X138169880Y-21252142D01*
X138169880Y-21323571D01*
X138137976Y-21430714D01*
X137755119Y-21859285D01*
X138169880Y-21859285D01*
X138935595Y-21073571D02*
X138361309Y-22037857D01*
X139541785Y-21859285D02*
X139318452Y-21502142D01*
X139158928Y-21859285D02*
X139158928Y-21109285D01*
X139414166Y-21109285D01*
X139477976Y-21145000D01*
X139509880Y-21180714D01*
X139541785Y-21252142D01*
X139541785Y-21359285D01*
X139509880Y-21430714D01*
X139477976Y-21466428D01*
X139414166Y-21502142D01*
X139158928Y-21502142D01*
X139765119Y-21109285D02*
X140211785Y-21859285D01*
X140211785Y-21109285D02*
X139765119Y-21859285D01*
X140817976Y-21859285D02*
X140435119Y-21859285D01*
X140626547Y-21859285D02*
X140626547Y-21109285D01*
X140562738Y-21216428D01*
X140498928Y-21287857D01*
X140435119Y-21323571D01*
X138576309Y-44166428D02*
X138672023Y-44202142D01*
X138703928Y-44237857D01*
X138735833Y-44309285D01*
X138735833Y-44416428D01*
X138703928Y-44487857D01*
X138672023Y-44523571D01*
X138608214Y-44559285D01*
X138352976Y-44559285D01*
X138352976Y-43809285D01*
X138576309Y-43809285D01*
X138640119Y-43845000D01*
X138672023Y-43880714D01*
X138703928Y-43952142D01*
X138703928Y-44023571D01*
X138672023Y-44095000D01*
X138640119Y-44130714D01*
X138576309Y-44166428D01*
X138352976Y-44166428D01*
X139310119Y-44059285D02*
X139310119Y-44559285D01*
X139150595Y-43773571D02*
X138991071Y-44309285D01*
X139405833Y-44309285D01*
X140139642Y-43773571D02*
X139565357Y-44737857D01*
X140458690Y-44130714D02*
X140394880Y-44095000D01*
X140362976Y-44059285D01*
X140331071Y-43987857D01*
X140331071Y-43952142D01*
X140362976Y-43880714D01*
X140394880Y-43845000D01*
X140458690Y-43809285D01*
X140586309Y-43809285D01*
X140650119Y-43845000D01*
X140682023Y-43880714D01*
X140713928Y-43952142D01*
X140713928Y-43987857D01*
X140682023Y-44059285D01*
X140650119Y-44095000D01*
X140586309Y-44130714D01*
X140458690Y-44130714D01*
X140394880Y-44166428D01*
X140362976Y-44202142D01*
X140331071Y-44273571D01*
X140331071Y-44416428D01*
X140362976Y-44487857D01*
X140394880Y-44523571D01*
X140458690Y-44559285D01*
X140586309Y-44559285D01*
X140650119Y-44523571D01*
X140682023Y-44487857D01*
X140713928Y-44416428D01*
X140713928Y-44273571D01*
X140682023Y-44202142D01*
X140650119Y-44166428D01*
X140586309Y-44130714D01*
X132577023Y-14809285D02*
X132577023Y-14059285D01*
X132800357Y-14595000D01*
X133023690Y-14059285D01*
X133023690Y-14809285D01*
X133342738Y-14809285D02*
X133342738Y-14309285D01*
X133342738Y-14059285D02*
X133310833Y-14095000D01*
X133342738Y-14130714D01*
X133374642Y-14095000D01*
X133342738Y-14059285D01*
X133342738Y-14130714D01*
X133948928Y-14773571D02*
X133885119Y-14809285D01*
X133757500Y-14809285D01*
X133693690Y-14773571D01*
X133661785Y-14737857D01*
X133629880Y-14666428D01*
X133629880Y-14452142D01*
X133661785Y-14380714D01*
X133693690Y-14345000D01*
X133757500Y-14309285D01*
X133885119Y-14309285D01*
X133948928Y-14345000D01*
X134236071Y-14809285D02*
X134236071Y-14309285D01*
X134236071Y-14452142D02*
X134267976Y-14380714D01*
X134299880Y-14345000D01*
X134363690Y-14309285D01*
X134427500Y-14309285D01*
X134746547Y-14809285D02*
X134682738Y-14773571D01*
X134650833Y-14737857D01*
X134618928Y-14666428D01*
X134618928Y-14452142D01*
X134650833Y-14380714D01*
X134682738Y-14345000D01*
X134746547Y-14309285D01*
X134842261Y-14309285D01*
X134906071Y-14345000D01*
X134937976Y-14380714D01*
X134969880Y-14452142D01*
X134969880Y-14666428D01*
X134937976Y-14737857D01*
X134906071Y-14773571D01*
X134842261Y-14809285D01*
X134746547Y-14809285D01*
X135257023Y-14059285D02*
X135257023Y-14666428D01*
X135288928Y-14737857D01*
X135320833Y-14773571D01*
X135384642Y-14809285D01*
X135512261Y-14809285D01*
X135576071Y-14773571D01*
X135607976Y-14737857D01*
X135639880Y-14666428D01*
X135639880Y-14059285D01*
X135927023Y-14773571D02*
X136022738Y-14809285D01*
X136182261Y-14809285D01*
X136246071Y-14773571D01*
X136277976Y-14737857D01*
X136309880Y-14666428D01*
X136309880Y-14595000D01*
X136277976Y-14523571D01*
X136246071Y-14487857D01*
X136182261Y-14452142D01*
X136054642Y-14416428D01*
X135990833Y-14380714D01*
X135958928Y-14345000D01*
X135927023Y-14273571D01*
X135927023Y-14202142D01*
X135958928Y-14130714D01*
X135990833Y-14095000D01*
X136054642Y-14059285D01*
X136214166Y-14059285D01*
X136309880Y-14095000D01*
X136820357Y-14416428D02*
X136916071Y-14452142D01*
X136947976Y-14487857D01*
X136979880Y-14559285D01*
X136979880Y-14666428D01*
X136947976Y-14737857D01*
X136916071Y-14773571D01*
X136852261Y-14809285D01*
X136597023Y-14809285D01*
X136597023Y-14059285D01*
X136820357Y-14059285D01*
X136884166Y-14095000D01*
X136916071Y-14130714D01*
X136947976Y-14202142D01*
X136947976Y-14273571D01*
X136916071Y-14345000D01*
X136884166Y-14380714D01*
X136820357Y-14416428D01*
X136597023Y-14416428D01*
X132577023Y-14809285D02*
X132577023Y-14059285D01*
X132800357Y-14595000D01*
X133023690Y-14059285D01*
X133023690Y-14809285D01*
X133342738Y-14809285D02*
X133342738Y-14309285D01*
X133342738Y-14059285D02*
X133310833Y-14095000D01*
X133342738Y-14130714D01*
X133374642Y-14095000D01*
X133342738Y-14059285D01*
X133342738Y-14130714D01*
X133948928Y-14773571D02*
X133885119Y-14809285D01*
X133757500Y-14809285D01*
X133693690Y-14773571D01*
X133661785Y-14737857D01*
X133629880Y-14666428D01*
X133629880Y-14452142D01*
X133661785Y-14380714D01*
X133693690Y-14345000D01*
X133757500Y-14309285D01*
X133885119Y-14309285D01*
X133948928Y-14345000D01*
X134236071Y-14809285D02*
X134236071Y-14309285D01*
X134236071Y-14452142D02*
X134267976Y-14380714D01*
X134299880Y-14345000D01*
X134363690Y-14309285D01*
X134427500Y-14309285D01*
X134746547Y-14809285D02*
X134682738Y-14773571D01*
X134650833Y-14737857D01*
X134618928Y-14666428D01*
X134618928Y-14452142D01*
X134650833Y-14380714D01*
X134682738Y-14345000D01*
X134746547Y-14309285D01*
X134842261Y-14309285D01*
X134906071Y-14345000D01*
X134937976Y-14380714D01*
X134969880Y-14452142D01*
X134969880Y-14666428D01*
X134937976Y-14737857D01*
X134906071Y-14773571D01*
X134842261Y-14809285D01*
X134746547Y-14809285D01*
X135257023Y-14059285D02*
X135257023Y-14666428D01*
X135288928Y-14737857D01*
X135320833Y-14773571D01*
X135384642Y-14809285D01*
X135512261Y-14809285D01*
X135576071Y-14773571D01*
X135607976Y-14737857D01*
X135639880Y-14666428D01*
X135639880Y-14059285D01*
X135927023Y-14773571D02*
X136022738Y-14809285D01*
X136182261Y-14809285D01*
X136246071Y-14773571D01*
X136277976Y-14737857D01*
X136309880Y-14666428D01*
X136309880Y-14595000D01*
X136277976Y-14523571D01*
X136246071Y-14487857D01*
X136182261Y-14452142D01*
X136054642Y-14416428D01*
X135990833Y-14380714D01*
X135958928Y-14345000D01*
X135927023Y-14273571D01*
X135927023Y-14202142D01*
X135958928Y-14130714D01*
X135990833Y-14095000D01*
X136054642Y-14059285D01*
X136214166Y-14059285D01*
X136309880Y-14095000D01*
X136820357Y-14416428D02*
X136916071Y-14452142D01*
X136947976Y-14487857D01*
X136979880Y-14559285D01*
X136979880Y-14666428D01*
X136947976Y-14737857D01*
X136916071Y-14773571D01*
X136852261Y-14809285D01*
X136597023Y-14809285D01*
X136597023Y-14059285D01*
X136820357Y-14059285D01*
X136884166Y-14095000D01*
X136916071Y-14130714D01*
X136947976Y-14202142D01*
X136947976Y-14273571D01*
X136916071Y-14345000D01*
X136884166Y-14380714D01*
X136820357Y-14416428D01*
X136597023Y-14416428D01*
X129187023Y-21105000D02*
X129123214Y-21069285D01*
X129027500Y-21069285D01*
X128931785Y-21105000D01*
X128867976Y-21176428D01*
X128836071Y-21247857D01*
X128804166Y-21390714D01*
X128804166Y-21497857D01*
X128836071Y-21640714D01*
X128867976Y-21712142D01*
X128931785Y-21783571D01*
X129027500Y-21819285D01*
X129091309Y-21819285D01*
X129187023Y-21783571D01*
X129218928Y-21747857D01*
X129218928Y-21497857D01*
X129091309Y-21497857D01*
X129506071Y-21819285D02*
X129506071Y-21069285D01*
X129888928Y-21819285D01*
X129888928Y-21069285D01*
X130207976Y-21819285D02*
X130207976Y-21069285D01*
X130367500Y-21069285D01*
X130463214Y-21105000D01*
X130527023Y-21176428D01*
X130558928Y-21247857D01*
X130590833Y-21390714D01*
X130590833Y-21497857D01*
X130558928Y-21640714D01*
X130527023Y-21712142D01*
X130463214Y-21783571D01*
X130367500Y-21819285D01*
X130207976Y-21819285D01*
X187939380Y-19451285D02*
X187716047Y-19094142D01*
X187556523Y-19451285D02*
X187556523Y-18701285D01*
X187811761Y-18701285D01*
X187875571Y-18737000D01*
X187907476Y-18772714D01*
X187939380Y-18844142D01*
X187939380Y-18951285D01*
X187907476Y-19022714D01*
X187875571Y-19058428D01*
X187811761Y-19094142D01*
X187556523Y-19094142D01*
X188194619Y-19237000D02*
X188513666Y-19237000D01*
X188130809Y-19451285D02*
X188354142Y-18701285D01*
X188577476Y-19451285D01*
X188737000Y-18701285D02*
X188896523Y-19451285D01*
X189024142Y-18915571D01*
X189151761Y-19451285D01*
X189311285Y-18701285D01*
X198182023Y-26115000D02*
X198118214Y-26079285D01*
X198022500Y-26079285D01*
X197926785Y-26115000D01*
X197862976Y-26186428D01*
X197831071Y-26257857D01*
X197799166Y-26400714D01*
X197799166Y-26507857D01*
X197831071Y-26650714D01*
X197862976Y-26722142D01*
X197926785Y-26793571D01*
X198022500Y-26829285D01*
X198086309Y-26829285D01*
X198182023Y-26793571D01*
X198213928Y-26757857D01*
X198213928Y-26507857D01*
X198086309Y-26507857D01*
X198501071Y-26829285D02*
X198501071Y-26079285D01*
X198883928Y-26829285D01*
X198883928Y-26079285D01*
X199202976Y-26829285D02*
X199202976Y-26079285D01*
X199362500Y-26079285D01*
X199458214Y-26115000D01*
X199522023Y-26186428D01*
X199553928Y-26257857D01*
X199585833Y-26400714D01*
X199585833Y-26507857D01*
X199553928Y-26650714D01*
X199522023Y-26722142D01*
X199458214Y-26793571D01*
X199362500Y-26829285D01*
X199202976Y-26829285D01*
X188035095Y-24594785D02*
X187811761Y-24237642D01*
X187652238Y-24594785D02*
X187652238Y-23844785D01*
X187907476Y-23844785D01*
X187971285Y-23880500D01*
X188003190Y-23916214D01*
X188035095Y-23987642D01*
X188035095Y-24094785D01*
X188003190Y-24166214D01*
X187971285Y-24201928D01*
X187907476Y-24237642D01*
X187652238Y-24237642D01*
X188290333Y-24559071D02*
X188386047Y-24594785D01*
X188545571Y-24594785D01*
X188609380Y-24559071D01*
X188641285Y-24523357D01*
X188673190Y-24451928D01*
X188673190Y-24380500D01*
X188641285Y-24309071D01*
X188609380Y-24273357D01*
X188545571Y-24237642D01*
X188417952Y-24201928D01*
X188354142Y-24166214D01*
X188322238Y-24130500D01*
X188290333Y-24059071D01*
X188290333Y-23987642D01*
X188322238Y-23916214D01*
X188354142Y-23880500D01*
X188417952Y-23844785D01*
X188577476Y-23844785D01*
X188673190Y-23880500D01*
X188864619Y-23844785D02*
X189247476Y-23844785D01*
X189056047Y-24594785D02*
X189056047Y-23844785D01*
X187508666Y-26321285D02*
X187732000Y-27071285D01*
X187955333Y-26321285D01*
X188561523Y-26999857D02*
X188529619Y-27035571D01*
X188433904Y-27071285D01*
X188370095Y-27071285D01*
X188274380Y-27035571D01*
X188210571Y-26964142D01*
X188178666Y-26892714D01*
X188146761Y-26749857D01*
X188146761Y-26642714D01*
X188178666Y-26499857D01*
X188210571Y-26428428D01*
X188274380Y-26357000D01*
X188370095Y-26321285D01*
X188433904Y-26321285D01*
X188529619Y-26357000D01*
X188561523Y-26392714D01*
X189231523Y-26999857D02*
X189199619Y-27035571D01*
X189103904Y-27071285D01*
X189040095Y-27071285D01*
X188944380Y-27035571D01*
X188880571Y-26964142D01*
X188848666Y-26892714D01*
X188816761Y-26749857D01*
X188816761Y-26642714D01*
X188848666Y-26499857D01*
X188880571Y-26428428D01*
X188944380Y-26357000D01*
X189040095Y-26321285D01*
X189103904Y-26321285D01*
X189199619Y-26357000D01*
X189231523Y-26392714D01*
X187906785Y-29265000D02*
X188225833Y-29265000D01*
X187842976Y-29479285D02*
X188066309Y-28729285D01*
X188289642Y-29479285D01*
X188449166Y-28729285D02*
X188863928Y-28729285D01*
X188640595Y-29015000D01*
X188736309Y-29015000D01*
X188800119Y-29050714D01*
X188832023Y-29086428D01*
X188863928Y-29157857D01*
X188863928Y-29336428D01*
X188832023Y-29407857D01*
X188800119Y-29443571D01*
X188736309Y-29479285D01*
X188544880Y-29479285D01*
X188481071Y-29443571D01*
X188449166Y-29407857D01*
X189629642Y-28693571D02*
X189055357Y-29657857D01*
X190076309Y-29086428D02*
X189852976Y-29086428D01*
X189852976Y-29479285D02*
X189852976Y-28729285D01*
X190172023Y-28729285D01*
X190714404Y-28979285D02*
X190714404Y-29479285D01*
X190554880Y-28693571D02*
X190395357Y-29229285D01*
X190810119Y-29229285D01*
X187906785Y-31765000D02*
X188225833Y-31765000D01*
X187842976Y-31979285D02*
X188066309Y-31229285D01*
X188289642Y-31979285D01*
X188481071Y-31300714D02*
X188512976Y-31265000D01*
X188576785Y-31229285D01*
X188736309Y-31229285D01*
X188800119Y-31265000D01*
X188832023Y-31300714D01*
X188863928Y-31372142D01*
X188863928Y-31443571D01*
X188832023Y-31550714D01*
X188449166Y-31979285D01*
X188863928Y-31979285D01*
X189629642Y-31193571D02*
X189055357Y-32157857D01*
X190076309Y-31586428D02*
X189852976Y-31586428D01*
X189852976Y-31979285D02*
X189852976Y-31229285D01*
X190172023Y-31229285D01*
X190746309Y-31229285D02*
X190427261Y-31229285D01*
X190395357Y-31586428D01*
X190427261Y-31550714D01*
X190491071Y-31515000D01*
X190650595Y-31515000D01*
X190714404Y-31550714D01*
X190746309Y-31586428D01*
X190778214Y-31657857D01*
X190778214Y-31836428D01*
X190746309Y-31907857D01*
X190714404Y-31943571D01*
X190650595Y-31979285D01*
X190491071Y-31979285D01*
X190427261Y-31943571D01*
X190395357Y-31907857D01*
X187906785Y-34265000D02*
X188225833Y-34265000D01*
X187842976Y-34479285D02*
X188066309Y-33729285D01*
X188289642Y-34479285D01*
X188863928Y-34479285D02*
X188481071Y-34479285D01*
X188672500Y-34479285D02*
X188672500Y-33729285D01*
X188608690Y-33836428D01*
X188544880Y-33907857D01*
X188481071Y-33943571D01*
X189629642Y-33693571D02*
X189055357Y-34657857D01*
X190076309Y-34086428D02*
X189852976Y-34086428D01*
X189852976Y-34479285D02*
X189852976Y-33729285D01*
X190172023Y-33729285D01*
X190714404Y-33729285D02*
X190586785Y-33729285D01*
X190522976Y-33765000D01*
X190491071Y-33800714D01*
X190427261Y-33907857D01*
X190395357Y-34050714D01*
X190395357Y-34336428D01*
X190427261Y-34407857D01*
X190459166Y-34443571D01*
X190522976Y-34479285D01*
X190650595Y-34479285D01*
X190714404Y-34443571D01*
X190746309Y-34407857D01*
X190778214Y-34336428D01*
X190778214Y-34157857D01*
X190746309Y-34086428D01*
X190714404Y-34050714D01*
X190650595Y-34015000D01*
X190522976Y-34015000D01*
X190459166Y-34050714D01*
X190427261Y-34086428D01*
X190395357Y-34157857D01*
X187906785Y-36815000D02*
X188225833Y-36815000D01*
X187842976Y-37029285D02*
X188066309Y-36279285D01*
X188289642Y-37029285D01*
X188640595Y-36279285D02*
X188704404Y-36279285D01*
X188768214Y-36315000D01*
X188800119Y-36350714D01*
X188832023Y-36422142D01*
X188863928Y-36565000D01*
X188863928Y-36743571D01*
X188832023Y-36886428D01*
X188800119Y-36957857D01*
X188768214Y-36993571D01*
X188704404Y-37029285D01*
X188640595Y-37029285D01*
X188576785Y-36993571D01*
X188544880Y-36957857D01*
X188512976Y-36886428D01*
X188481071Y-36743571D01*
X188481071Y-36565000D01*
X188512976Y-36422142D01*
X188544880Y-36350714D01*
X188576785Y-36315000D01*
X188640595Y-36279285D01*
X189629642Y-36243571D02*
X189055357Y-37207857D01*
X190076309Y-36636428D02*
X189852976Y-36636428D01*
X189852976Y-37029285D02*
X189852976Y-36279285D01*
X190172023Y-36279285D01*
X190363452Y-36279285D02*
X190810119Y-36279285D01*
X190522976Y-37029285D01*
X188209880Y-39579285D02*
X187827023Y-39579285D01*
X188018452Y-39579285D02*
X188018452Y-38829285D01*
X187954642Y-38936428D01*
X187890833Y-39007857D01*
X187827023Y-39043571D01*
X188816071Y-38829285D02*
X188497023Y-38829285D01*
X188465119Y-39186428D01*
X188497023Y-39150714D01*
X188560833Y-39115000D01*
X188720357Y-39115000D01*
X188784166Y-39150714D01*
X188816071Y-39186428D01*
X188847976Y-39257857D01*
X188847976Y-39436428D01*
X188816071Y-39507857D01*
X188784166Y-39543571D01*
X188720357Y-39579285D01*
X188560833Y-39579285D01*
X188497023Y-39543571D01*
X188465119Y-39507857D01*
X189613690Y-38793571D02*
X189039404Y-39757857D01*
X190060357Y-39186428D02*
X190156071Y-39222142D01*
X190187976Y-39257857D01*
X190219880Y-39329285D01*
X190219880Y-39436428D01*
X190187976Y-39507857D01*
X190156071Y-39543571D01*
X190092261Y-39579285D01*
X189837023Y-39579285D01*
X189837023Y-38829285D01*
X190060357Y-38829285D01*
X190124166Y-38865000D01*
X190156071Y-38900714D01*
X190187976Y-38972142D01*
X190187976Y-39043571D01*
X190156071Y-39115000D01*
X190124166Y-39150714D01*
X190060357Y-39186428D01*
X189837023Y-39186428D01*
X190857976Y-39579285D02*
X190475119Y-39579285D01*
X190666547Y-39579285D02*
X190666547Y-38829285D01*
X190602738Y-38936428D01*
X190538928Y-39007857D01*
X190475119Y-39043571D01*
X188209880Y-42129285D02*
X187827023Y-42129285D01*
X188018452Y-42129285D02*
X188018452Y-41379285D01*
X187954642Y-41486428D01*
X187890833Y-41557857D01*
X187827023Y-41593571D01*
X188784166Y-41629285D02*
X188784166Y-42129285D01*
X188624642Y-41343571D02*
X188465119Y-41879285D01*
X188879880Y-41879285D01*
X189613690Y-41343571D02*
X189039404Y-42307857D01*
X190060357Y-41736428D02*
X190156071Y-41772142D01*
X190187976Y-41807857D01*
X190219880Y-41879285D01*
X190219880Y-41986428D01*
X190187976Y-42057857D01*
X190156071Y-42093571D01*
X190092261Y-42129285D01*
X189837023Y-42129285D01*
X189837023Y-41379285D01*
X190060357Y-41379285D01*
X190124166Y-41415000D01*
X190156071Y-41450714D01*
X190187976Y-41522142D01*
X190187976Y-41593571D01*
X190156071Y-41665000D01*
X190124166Y-41700714D01*
X190060357Y-41736428D01*
X189837023Y-41736428D01*
X190443214Y-41379285D02*
X190857976Y-41379285D01*
X190634642Y-41665000D01*
X190730357Y-41665000D01*
X190794166Y-41700714D01*
X190826071Y-41736428D01*
X190857976Y-41807857D01*
X190857976Y-41986428D01*
X190826071Y-42057857D01*
X190794166Y-42093571D01*
X190730357Y-42129285D01*
X190538928Y-42129285D01*
X190475119Y-42093571D01*
X190443214Y-42057857D01*
X188209880Y-47179285D02*
X187827023Y-47179285D01*
X188018452Y-47179285D02*
X188018452Y-46429285D01*
X187954642Y-46536428D01*
X187890833Y-46607857D01*
X187827023Y-46643571D01*
X188624642Y-46429285D02*
X188688452Y-46429285D01*
X188752261Y-46465000D01*
X188784166Y-46500714D01*
X188816071Y-46572142D01*
X188847976Y-46715000D01*
X188847976Y-46893571D01*
X188816071Y-47036428D01*
X188784166Y-47107857D01*
X188752261Y-47143571D01*
X188688452Y-47179285D01*
X188624642Y-47179285D01*
X188560833Y-47143571D01*
X188528928Y-47107857D01*
X188497023Y-47036428D01*
X188465119Y-46893571D01*
X188465119Y-46715000D01*
X188497023Y-46572142D01*
X188528928Y-46500714D01*
X188560833Y-46465000D01*
X188624642Y-46429285D01*
X189613690Y-46393571D02*
X189039404Y-47357857D01*
X190060357Y-46786428D02*
X190156071Y-46822142D01*
X190187976Y-46857857D01*
X190219880Y-46929285D01*
X190219880Y-47036428D01*
X190187976Y-47107857D01*
X190156071Y-47143571D01*
X190092261Y-47179285D01*
X189837023Y-47179285D01*
X189837023Y-46429285D01*
X190060357Y-46429285D01*
X190124166Y-46465000D01*
X190156071Y-46500714D01*
X190187976Y-46572142D01*
X190187976Y-46643571D01*
X190156071Y-46715000D01*
X190124166Y-46750714D01*
X190060357Y-46786428D01*
X189837023Y-46786428D01*
X190794166Y-46429285D02*
X190666547Y-46429285D01*
X190602738Y-46465000D01*
X190570833Y-46500714D01*
X190507023Y-46607857D01*
X190475119Y-46750714D01*
X190475119Y-47036428D01*
X190507023Y-47107857D01*
X190538928Y-47143571D01*
X190602738Y-47179285D01*
X190730357Y-47179285D01*
X190794166Y-47143571D01*
X190826071Y-47107857D01*
X190857976Y-47036428D01*
X190857976Y-46857857D01*
X190826071Y-46786428D01*
X190794166Y-46750714D01*
X190730357Y-46715000D01*
X190602738Y-46715000D01*
X190538928Y-46750714D01*
X190507023Y-46786428D01*
X190475119Y-46857857D01*
X188209880Y-44679285D02*
X187827023Y-44679285D01*
X188018452Y-44679285D02*
X188018452Y-43929285D01*
X187954642Y-44036428D01*
X187890833Y-44107857D01*
X187827023Y-44143571D01*
X188784166Y-43929285D02*
X188656547Y-43929285D01*
X188592738Y-43965000D01*
X188560833Y-44000714D01*
X188497023Y-44107857D01*
X188465119Y-44250714D01*
X188465119Y-44536428D01*
X188497023Y-44607857D01*
X188528928Y-44643571D01*
X188592738Y-44679285D01*
X188720357Y-44679285D01*
X188784166Y-44643571D01*
X188816071Y-44607857D01*
X188847976Y-44536428D01*
X188847976Y-44357857D01*
X188816071Y-44286428D01*
X188784166Y-44250714D01*
X188720357Y-44215000D01*
X188592738Y-44215000D01*
X188528928Y-44250714D01*
X188497023Y-44286428D01*
X188465119Y-44357857D01*
X189613690Y-43893571D02*
X189039404Y-44857857D01*
X190060357Y-44286428D02*
X190156071Y-44322142D01*
X190187976Y-44357857D01*
X190219880Y-44429285D01*
X190219880Y-44536428D01*
X190187976Y-44607857D01*
X190156071Y-44643571D01*
X190092261Y-44679285D01*
X189837023Y-44679285D01*
X189837023Y-43929285D01*
X190060357Y-43929285D01*
X190124166Y-43965000D01*
X190156071Y-44000714D01*
X190187976Y-44072142D01*
X190187976Y-44143571D01*
X190156071Y-44215000D01*
X190124166Y-44250714D01*
X190060357Y-44286428D01*
X189837023Y-44286428D01*
X190475119Y-44000714D02*
X190507023Y-43965000D01*
X190570833Y-43929285D01*
X190730357Y-43929285D01*
X190794166Y-43965000D01*
X190826071Y-44000714D01*
X190857976Y-44072142D01*
X190857976Y-44143571D01*
X190826071Y-44250714D01*
X190443214Y-44679285D01*
X190857976Y-44679285D01*
X197309880Y-41586428D02*
X197533214Y-41586428D01*
X197628928Y-41979285D02*
X197309880Y-41979285D01*
X197309880Y-41229285D01*
X197628928Y-41229285D01*
X198203214Y-41229285D02*
X198075595Y-41229285D01*
X198011785Y-41265000D01*
X197979880Y-41300714D01*
X197916071Y-41407857D01*
X197884166Y-41550714D01*
X197884166Y-41836428D01*
X197916071Y-41907857D01*
X197947976Y-41943571D01*
X198011785Y-41979285D01*
X198139404Y-41979285D01*
X198203214Y-41943571D01*
X198235119Y-41907857D01*
X198267023Y-41836428D01*
X198267023Y-41657857D01*
X198235119Y-41586428D01*
X198203214Y-41550714D01*
X198139404Y-41515000D01*
X198011785Y-41515000D01*
X197947976Y-41550714D01*
X197916071Y-41586428D01*
X197884166Y-41657857D01*
X199032738Y-41193571D02*
X198458452Y-42157857D01*
X199192261Y-41229285D02*
X199638928Y-41229285D01*
X199351785Y-41979285D01*
X197277976Y-39429285D02*
X197277976Y-38679285D01*
X197437500Y-38679285D01*
X197533214Y-38715000D01*
X197597023Y-38786428D01*
X197628928Y-38857857D01*
X197660833Y-39000714D01*
X197660833Y-39107857D01*
X197628928Y-39250714D01*
X197597023Y-39322142D01*
X197533214Y-39393571D01*
X197437500Y-39429285D01*
X197277976Y-39429285D01*
X197884166Y-38679285D02*
X198330833Y-38679285D01*
X198043690Y-39429285D01*
X199064642Y-38643571D02*
X198490357Y-39607857D01*
X199575119Y-38679285D02*
X199447500Y-38679285D01*
X199383690Y-38715000D01*
X199351785Y-38750714D01*
X199287976Y-38857857D01*
X199256071Y-39000714D01*
X199256071Y-39286428D01*
X199287976Y-39357857D01*
X199319880Y-39393571D01*
X199383690Y-39429285D01*
X199511309Y-39429285D01*
X199575119Y-39393571D01*
X199607023Y-39357857D01*
X199638928Y-39286428D01*
X199638928Y-39107857D01*
X199607023Y-39036428D01*
X199575119Y-39000714D01*
X199511309Y-38965000D01*
X199383690Y-38965000D01*
X199319880Y-39000714D01*
X199287976Y-39036428D01*
X199256071Y-39107857D01*
X198182023Y-23665000D02*
X198118214Y-23629285D01*
X198022500Y-23629285D01*
X197926785Y-23665000D01*
X197862976Y-23736428D01*
X197831071Y-23807857D01*
X197799166Y-23950714D01*
X197799166Y-24057857D01*
X197831071Y-24200714D01*
X197862976Y-24272142D01*
X197926785Y-24343571D01*
X198022500Y-24379285D01*
X198086309Y-24379285D01*
X198182023Y-24343571D01*
X198213928Y-24307857D01*
X198213928Y-24057857D01*
X198086309Y-24057857D01*
X198501071Y-24379285D02*
X198501071Y-23629285D01*
X198883928Y-24379285D01*
X198883928Y-23629285D01*
X199202976Y-24379285D02*
X199202976Y-23629285D01*
X199362500Y-23629285D01*
X199458214Y-23665000D01*
X199522023Y-23736428D01*
X199553928Y-23807857D01*
X199585833Y-23950714D01*
X199585833Y-24057857D01*
X199553928Y-24200714D01*
X199522023Y-24272142D01*
X199458214Y-24343571D01*
X199362500Y-24379285D01*
X199202976Y-24379285D01*
X198182023Y-26115000D02*
X198118214Y-26079285D01*
X198022500Y-26079285D01*
X197926785Y-26115000D01*
X197862976Y-26186428D01*
X197831071Y-26257857D01*
X197799166Y-26400714D01*
X197799166Y-26507857D01*
X197831071Y-26650714D01*
X197862976Y-26722142D01*
X197926785Y-26793571D01*
X198022500Y-26829285D01*
X198086309Y-26829285D01*
X198182023Y-26793571D01*
X198213928Y-26757857D01*
X198213928Y-26507857D01*
X198086309Y-26507857D01*
X198501071Y-26829285D02*
X198501071Y-26079285D01*
X198883928Y-26829285D01*
X198883928Y-26079285D01*
X199202976Y-26829285D02*
X199202976Y-26079285D01*
X199362500Y-26079285D01*
X199458214Y-26115000D01*
X199522023Y-26186428D01*
X199553928Y-26257857D01*
X199585833Y-26400714D01*
X199585833Y-26507857D01*
X199553928Y-26650714D01*
X199522023Y-26722142D01*
X199458214Y-26793571D01*
X199362500Y-26829285D01*
X199202976Y-26829285D01*
X196153690Y-19279285D02*
X196153690Y-18529285D01*
X196313214Y-18529285D01*
X196408928Y-18565000D01*
X196472738Y-18636428D01*
X196504642Y-18707857D01*
X196536547Y-18850714D01*
X196536547Y-18957857D01*
X196504642Y-19100714D01*
X196472738Y-19172142D01*
X196408928Y-19243571D01*
X196313214Y-19279285D01*
X196153690Y-19279285D01*
X196759880Y-18529285D02*
X197174642Y-18529285D01*
X196951309Y-18815000D01*
X197047023Y-18815000D01*
X197110833Y-18850714D01*
X197142738Y-18886428D01*
X197174642Y-18957857D01*
X197174642Y-19136428D01*
X197142738Y-19207857D01*
X197110833Y-19243571D01*
X197047023Y-19279285D01*
X196855595Y-19279285D01*
X196791785Y-19243571D01*
X196759880Y-19207857D01*
X197940357Y-18493571D02*
X197366071Y-19457857D01*
X198067976Y-18529285D02*
X198450833Y-18529285D01*
X198259404Y-19279285D02*
X198259404Y-18529285D01*
X198610357Y-18529285D02*
X199057023Y-19279285D01*
X199057023Y-18529285D02*
X198610357Y-19279285D01*
X199439880Y-18529285D02*
X199503690Y-18529285D01*
X199567500Y-18565000D01*
X199599404Y-18600714D01*
X199631309Y-18672142D01*
X199663214Y-18815000D01*
X199663214Y-18993571D01*
X199631309Y-19136428D01*
X199599404Y-19207857D01*
X199567500Y-19243571D01*
X199503690Y-19279285D01*
X199439880Y-19279285D01*
X199376071Y-19243571D01*
X199344166Y-19207857D01*
X199312261Y-19136428D01*
X199280357Y-18993571D01*
X199280357Y-18815000D01*
X199312261Y-18672142D01*
X199344166Y-18600714D01*
X199376071Y-18565000D01*
X199439880Y-18529285D01*
X197277976Y-34329285D02*
X197277976Y-33579285D01*
X197437500Y-33579285D01*
X197533214Y-33615000D01*
X197597023Y-33686428D01*
X197628928Y-33757857D01*
X197660833Y-33900714D01*
X197660833Y-34007857D01*
X197628928Y-34150714D01*
X197597023Y-34222142D01*
X197533214Y-34293571D01*
X197437500Y-34329285D01*
X197277976Y-34329285D01*
X198235119Y-33829285D02*
X198235119Y-34329285D01*
X198075595Y-33543571D02*
X197916071Y-34079285D01*
X198330833Y-34079285D01*
X199064642Y-33543571D02*
X198490357Y-34507857D01*
X199575119Y-33829285D02*
X199575119Y-34329285D01*
X199415595Y-33543571D02*
X199256071Y-34079285D01*
X199670833Y-34079285D01*
X194703928Y-29293571D02*
X194799642Y-29329285D01*
X194959166Y-29329285D01*
X195022976Y-29293571D01*
X195054880Y-29257857D01*
X195086785Y-29186428D01*
X195086785Y-29115000D01*
X195054880Y-29043571D01*
X195022976Y-29007857D01*
X194959166Y-28972142D01*
X194831547Y-28936428D01*
X194767738Y-28900714D01*
X194735833Y-28865000D01*
X194703928Y-28793571D01*
X194703928Y-28722142D01*
X194735833Y-28650714D01*
X194767738Y-28615000D01*
X194831547Y-28579285D01*
X194991071Y-28579285D01*
X195086785Y-28615000D01*
X195373928Y-29329285D02*
X195373928Y-28579285D01*
X195533452Y-28579285D01*
X195629166Y-28615000D01*
X195692976Y-28686428D01*
X195724880Y-28757857D01*
X195756785Y-28900714D01*
X195756785Y-29007857D01*
X195724880Y-29150714D01*
X195692976Y-29222142D01*
X195629166Y-29293571D01*
X195533452Y-29329285D01*
X195373928Y-29329285D01*
X196012023Y-29115000D02*
X196331071Y-29115000D01*
X195948214Y-29329285D02*
X196171547Y-28579285D01*
X196394880Y-29329285D01*
X197096785Y-28543571D02*
X196522500Y-29507857D01*
X197320119Y-29329285D02*
X197320119Y-28579285D01*
X197479642Y-28579285D01*
X197575357Y-28615000D01*
X197639166Y-28686428D01*
X197671071Y-28757857D01*
X197702976Y-28900714D01*
X197702976Y-29007857D01*
X197671071Y-29150714D01*
X197639166Y-29222142D01*
X197575357Y-29293571D01*
X197479642Y-29329285D01*
X197320119Y-29329285D01*
X198341071Y-29329285D02*
X197958214Y-29329285D01*
X198149642Y-29329285D02*
X198149642Y-28579285D01*
X198085833Y-28686428D01*
X198022023Y-28757857D01*
X197958214Y-28793571D01*
X199106785Y-28543571D02*
X198532500Y-29507857D01*
X199298214Y-28650714D02*
X199330119Y-28615000D01*
X199393928Y-28579285D01*
X199553452Y-28579285D01*
X199617261Y-28615000D01*
X199649166Y-28650714D01*
X199681071Y-28722142D01*
X199681071Y-28793571D01*
X199649166Y-28900714D01*
X199266309Y-29329285D01*
X199681071Y-29329285D01*
X194719880Y-31793571D02*
X194815595Y-31829285D01*
X194975119Y-31829285D01*
X195038928Y-31793571D01*
X195070833Y-31757857D01*
X195102738Y-31686428D01*
X195102738Y-31615000D01*
X195070833Y-31543571D01*
X195038928Y-31507857D01*
X194975119Y-31472142D01*
X194847500Y-31436428D01*
X194783690Y-31400714D01*
X194751785Y-31365000D01*
X194719880Y-31293571D01*
X194719880Y-31222142D01*
X194751785Y-31150714D01*
X194783690Y-31115000D01*
X194847500Y-31079285D01*
X195007023Y-31079285D01*
X195102738Y-31115000D01*
X195772738Y-31757857D02*
X195740833Y-31793571D01*
X195645119Y-31829285D01*
X195581309Y-31829285D01*
X195485595Y-31793571D01*
X195421785Y-31722142D01*
X195389880Y-31650714D01*
X195357976Y-31507857D01*
X195357976Y-31400714D01*
X195389880Y-31257857D01*
X195421785Y-31186428D01*
X195485595Y-31115000D01*
X195581309Y-31079285D01*
X195645119Y-31079285D01*
X195740833Y-31115000D01*
X195772738Y-31150714D01*
X196378928Y-31829285D02*
X196059880Y-31829285D01*
X196059880Y-31079285D01*
X197080833Y-31043571D02*
X196506547Y-32007857D01*
X197304166Y-31829285D02*
X197304166Y-31079285D01*
X197463690Y-31079285D01*
X197559404Y-31115000D01*
X197623214Y-31186428D01*
X197655119Y-31257857D01*
X197687023Y-31400714D01*
X197687023Y-31507857D01*
X197655119Y-31650714D01*
X197623214Y-31722142D01*
X197559404Y-31793571D01*
X197463690Y-31829285D01*
X197304166Y-31829285D01*
X198101785Y-31079285D02*
X198165595Y-31079285D01*
X198229404Y-31115000D01*
X198261309Y-31150714D01*
X198293214Y-31222142D01*
X198325119Y-31365000D01*
X198325119Y-31543571D01*
X198293214Y-31686428D01*
X198261309Y-31757857D01*
X198229404Y-31793571D01*
X198165595Y-31829285D01*
X198101785Y-31829285D01*
X198037976Y-31793571D01*
X198006071Y-31757857D01*
X197974166Y-31686428D01*
X197942261Y-31543571D01*
X197942261Y-31365000D01*
X197974166Y-31222142D01*
X198006071Y-31150714D01*
X198037976Y-31115000D01*
X198101785Y-31079285D01*
X199090833Y-31043571D02*
X198516547Y-32007857D01*
X199250357Y-31079285D02*
X199665119Y-31079285D01*
X199441785Y-31365000D01*
X199537500Y-31365000D01*
X199601309Y-31400714D01*
X199633214Y-31436428D01*
X199665119Y-31507857D01*
X199665119Y-31686428D01*
X199633214Y-31757857D01*
X199601309Y-31793571D01*
X199537500Y-31829285D01*
X199346071Y-31829285D01*
X199282261Y-31793571D01*
X199250357Y-31757857D01*
X197660833Y-36807857D02*
X197628928Y-36843571D01*
X197533214Y-36879285D01*
X197469404Y-36879285D01*
X197373690Y-36843571D01*
X197309880Y-36772142D01*
X197277976Y-36700714D01*
X197246071Y-36557857D01*
X197246071Y-36450714D01*
X197277976Y-36307857D01*
X197309880Y-36236428D01*
X197373690Y-36165000D01*
X197469404Y-36129285D01*
X197533214Y-36129285D01*
X197628928Y-36165000D01*
X197660833Y-36200714D01*
X198235119Y-36129285D02*
X198107500Y-36129285D01*
X198043690Y-36165000D01*
X198011785Y-36200714D01*
X197947976Y-36307857D01*
X197916071Y-36450714D01*
X197916071Y-36736428D01*
X197947976Y-36807857D01*
X197979880Y-36843571D01*
X198043690Y-36879285D01*
X198171309Y-36879285D01*
X198235119Y-36843571D01*
X198267023Y-36807857D01*
X198298928Y-36736428D01*
X198298928Y-36557857D01*
X198267023Y-36486428D01*
X198235119Y-36450714D01*
X198171309Y-36415000D01*
X198043690Y-36415000D01*
X197979880Y-36450714D01*
X197947976Y-36486428D01*
X197916071Y-36557857D01*
X199064642Y-36093571D02*
X198490357Y-37057857D01*
X199607023Y-36129285D02*
X199287976Y-36129285D01*
X199256071Y-36486428D01*
X199287976Y-36450714D01*
X199351785Y-36415000D01*
X199511309Y-36415000D01*
X199575119Y-36450714D01*
X199607023Y-36486428D01*
X199638928Y-36557857D01*
X199638928Y-36736428D01*
X199607023Y-36807857D01*
X199575119Y-36843571D01*
X199511309Y-36879285D01*
X199351785Y-36879285D01*
X199287976Y-36843571D01*
X199256071Y-36807857D01*
X197501309Y-46636428D02*
X197597023Y-46672142D01*
X197628928Y-46707857D01*
X197660833Y-46779285D01*
X197660833Y-46886428D01*
X197628928Y-46957857D01*
X197597023Y-46993571D01*
X197533214Y-47029285D01*
X197277976Y-47029285D01*
X197277976Y-46279285D01*
X197501309Y-46279285D01*
X197565119Y-46315000D01*
X197597023Y-46350714D01*
X197628928Y-46422142D01*
X197628928Y-46493571D01*
X197597023Y-46565000D01*
X197565119Y-46600714D01*
X197501309Y-46636428D01*
X197277976Y-46636428D01*
X198267023Y-46279285D02*
X197947976Y-46279285D01*
X197916071Y-46636428D01*
X197947976Y-46600714D01*
X198011785Y-46565000D01*
X198171309Y-46565000D01*
X198235119Y-46600714D01*
X198267023Y-46636428D01*
X198298928Y-46707857D01*
X198298928Y-46886428D01*
X198267023Y-46957857D01*
X198235119Y-46993571D01*
X198171309Y-47029285D01*
X198011785Y-47029285D01*
X197947976Y-46993571D01*
X197916071Y-46957857D01*
X199064642Y-46243571D02*
X198490357Y-47207857D01*
X199319880Y-47029285D02*
X199447500Y-47029285D01*
X199511309Y-46993571D01*
X199543214Y-46957857D01*
X199607023Y-46850714D01*
X199638928Y-46707857D01*
X199638928Y-46422142D01*
X199607023Y-46350714D01*
X199575119Y-46315000D01*
X199511309Y-46279285D01*
X199383690Y-46279285D01*
X199319880Y-46315000D01*
X199287976Y-46350714D01*
X199256071Y-46422142D01*
X199256071Y-46600714D01*
X199287976Y-46672142D01*
X199319880Y-46707857D01*
X199383690Y-46743571D01*
X199511309Y-46743571D01*
X199575119Y-46707857D01*
X199607023Y-46672142D01*
X199638928Y-46600714D01*
X196073928Y-21829285D02*
X196073928Y-21079285D01*
X196233452Y-21079285D01*
X196329166Y-21115000D01*
X196392976Y-21186428D01*
X196424880Y-21257857D01*
X196456785Y-21400714D01*
X196456785Y-21507857D01*
X196424880Y-21650714D01*
X196392976Y-21722142D01*
X196329166Y-21793571D01*
X196233452Y-21829285D01*
X196073928Y-21829285D01*
X196712023Y-21150714D02*
X196743928Y-21115000D01*
X196807738Y-21079285D01*
X196967261Y-21079285D01*
X197031071Y-21115000D01*
X197062976Y-21150714D01*
X197094880Y-21222142D01*
X197094880Y-21293571D01*
X197062976Y-21400714D01*
X196680119Y-21829285D01*
X197094880Y-21829285D01*
X197860595Y-21043571D02*
X197286309Y-22007857D01*
X198466785Y-21829285D02*
X198243452Y-21472142D01*
X198083928Y-21829285D02*
X198083928Y-21079285D01*
X198339166Y-21079285D01*
X198402976Y-21115000D01*
X198434880Y-21150714D01*
X198466785Y-21222142D01*
X198466785Y-21329285D01*
X198434880Y-21400714D01*
X198402976Y-21436428D01*
X198339166Y-21472142D01*
X198083928Y-21472142D01*
X198690119Y-21079285D02*
X199136785Y-21829285D01*
X199136785Y-21079285D02*
X198690119Y-21829285D01*
X199742976Y-21829285D02*
X199360119Y-21829285D01*
X199551547Y-21829285D02*
X199551547Y-21079285D01*
X199487738Y-21186428D01*
X199423928Y-21257857D01*
X199360119Y-21293571D01*
X197501309Y-44136428D02*
X197597023Y-44172142D01*
X197628928Y-44207857D01*
X197660833Y-44279285D01*
X197660833Y-44386428D01*
X197628928Y-44457857D01*
X197597023Y-44493571D01*
X197533214Y-44529285D01*
X197277976Y-44529285D01*
X197277976Y-43779285D01*
X197501309Y-43779285D01*
X197565119Y-43815000D01*
X197597023Y-43850714D01*
X197628928Y-43922142D01*
X197628928Y-43993571D01*
X197597023Y-44065000D01*
X197565119Y-44100714D01*
X197501309Y-44136428D01*
X197277976Y-44136428D01*
X198235119Y-44029285D02*
X198235119Y-44529285D01*
X198075595Y-43743571D02*
X197916071Y-44279285D01*
X198330833Y-44279285D01*
X199064642Y-43743571D02*
X198490357Y-44707857D01*
X199383690Y-44100714D02*
X199319880Y-44065000D01*
X199287976Y-44029285D01*
X199256071Y-43957857D01*
X199256071Y-43922142D01*
X199287976Y-43850714D01*
X199319880Y-43815000D01*
X199383690Y-43779285D01*
X199511309Y-43779285D01*
X199575119Y-43815000D01*
X199607023Y-43850714D01*
X199638928Y-43922142D01*
X199638928Y-43957857D01*
X199607023Y-44029285D01*
X199575119Y-44065000D01*
X199511309Y-44100714D01*
X199383690Y-44100714D01*
X199319880Y-44136428D01*
X199287976Y-44172142D01*
X199256071Y-44243571D01*
X199256071Y-44386428D01*
X199287976Y-44457857D01*
X199319880Y-44493571D01*
X199383690Y-44529285D01*
X199511309Y-44529285D01*
X199575119Y-44493571D01*
X199607023Y-44457857D01*
X199638928Y-44386428D01*
X199638928Y-44243571D01*
X199607023Y-44172142D01*
X199575119Y-44136428D01*
X199511309Y-44100714D01*
X191502023Y-14779285D02*
X191502023Y-14029285D01*
X191725357Y-14565000D01*
X191948690Y-14029285D01*
X191948690Y-14779285D01*
X192267738Y-14779285D02*
X192267738Y-14279285D01*
X192267738Y-14029285D02*
X192235833Y-14065000D01*
X192267738Y-14100714D01*
X192299642Y-14065000D01*
X192267738Y-14029285D01*
X192267738Y-14100714D01*
X192873928Y-14743571D02*
X192810119Y-14779285D01*
X192682500Y-14779285D01*
X192618690Y-14743571D01*
X192586785Y-14707857D01*
X192554880Y-14636428D01*
X192554880Y-14422142D01*
X192586785Y-14350714D01*
X192618690Y-14315000D01*
X192682500Y-14279285D01*
X192810119Y-14279285D01*
X192873928Y-14315000D01*
X193161071Y-14779285D02*
X193161071Y-14279285D01*
X193161071Y-14422142D02*
X193192976Y-14350714D01*
X193224880Y-14315000D01*
X193288690Y-14279285D01*
X193352500Y-14279285D01*
X193671547Y-14779285D02*
X193607738Y-14743571D01*
X193575833Y-14707857D01*
X193543928Y-14636428D01*
X193543928Y-14422142D01*
X193575833Y-14350714D01*
X193607738Y-14315000D01*
X193671547Y-14279285D01*
X193767261Y-14279285D01*
X193831071Y-14315000D01*
X193862976Y-14350714D01*
X193894880Y-14422142D01*
X193894880Y-14636428D01*
X193862976Y-14707857D01*
X193831071Y-14743571D01*
X193767261Y-14779285D01*
X193671547Y-14779285D01*
X194182023Y-14029285D02*
X194182023Y-14636428D01*
X194213928Y-14707857D01*
X194245833Y-14743571D01*
X194309642Y-14779285D01*
X194437261Y-14779285D01*
X194501071Y-14743571D01*
X194532976Y-14707857D01*
X194564880Y-14636428D01*
X194564880Y-14029285D01*
X194852023Y-14743571D02*
X194947738Y-14779285D01*
X195107261Y-14779285D01*
X195171071Y-14743571D01*
X195202976Y-14707857D01*
X195234880Y-14636428D01*
X195234880Y-14565000D01*
X195202976Y-14493571D01*
X195171071Y-14457857D01*
X195107261Y-14422142D01*
X194979642Y-14386428D01*
X194915833Y-14350714D01*
X194883928Y-14315000D01*
X194852023Y-14243571D01*
X194852023Y-14172142D01*
X194883928Y-14100714D01*
X194915833Y-14065000D01*
X194979642Y-14029285D01*
X195139166Y-14029285D01*
X195234880Y-14065000D01*
X195745357Y-14386428D02*
X195841071Y-14422142D01*
X195872976Y-14457857D01*
X195904880Y-14529285D01*
X195904880Y-14636428D01*
X195872976Y-14707857D01*
X195841071Y-14743571D01*
X195777261Y-14779285D01*
X195522023Y-14779285D01*
X195522023Y-14029285D01*
X195745357Y-14029285D01*
X195809166Y-14065000D01*
X195841071Y-14100714D01*
X195872976Y-14172142D01*
X195872976Y-14243571D01*
X195841071Y-14315000D01*
X195809166Y-14350714D01*
X195745357Y-14386428D01*
X195522023Y-14386428D01*
X191502023Y-14779285D02*
X191502023Y-14029285D01*
X191725357Y-14565000D01*
X191948690Y-14029285D01*
X191948690Y-14779285D01*
X192267738Y-14779285D02*
X192267738Y-14279285D01*
X192267738Y-14029285D02*
X192235833Y-14065000D01*
X192267738Y-14100714D01*
X192299642Y-14065000D01*
X192267738Y-14029285D01*
X192267738Y-14100714D01*
X192873928Y-14743571D02*
X192810119Y-14779285D01*
X192682500Y-14779285D01*
X192618690Y-14743571D01*
X192586785Y-14707857D01*
X192554880Y-14636428D01*
X192554880Y-14422142D01*
X192586785Y-14350714D01*
X192618690Y-14315000D01*
X192682500Y-14279285D01*
X192810119Y-14279285D01*
X192873928Y-14315000D01*
X193161071Y-14779285D02*
X193161071Y-14279285D01*
X193161071Y-14422142D02*
X193192976Y-14350714D01*
X193224880Y-14315000D01*
X193288690Y-14279285D01*
X193352500Y-14279285D01*
X193671547Y-14779285D02*
X193607738Y-14743571D01*
X193575833Y-14707857D01*
X193543928Y-14636428D01*
X193543928Y-14422142D01*
X193575833Y-14350714D01*
X193607738Y-14315000D01*
X193671547Y-14279285D01*
X193767261Y-14279285D01*
X193831071Y-14315000D01*
X193862976Y-14350714D01*
X193894880Y-14422142D01*
X193894880Y-14636428D01*
X193862976Y-14707857D01*
X193831071Y-14743571D01*
X193767261Y-14779285D01*
X193671547Y-14779285D01*
X194182023Y-14029285D02*
X194182023Y-14636428D01*
X194213928Y-14707857D01*
X194245833Y-14743571D01*
X194309642Y-14779285D01*
X194437261Y-14779285D01*
X194501071Y-14743571D01*
X194532976Y-14707857D01*
X194564880Y-14636428D01*
X194564880Y-14029285D01*
X194852023Y-14743571D02*
X194947738Y-14779285D01*
X195107261Y-14779285D01*
X195171071Y-14743571D01*
X195202976Y-14707857D01*
X195234880Y-14636428D01*
X195234880Y-14565000D01*
X195202976Y-14493571D01*
X195171071Y-14457857D01*
X195107261Y-14422142D01*
X194979642Y-14386428D01*
X194915833Y-14350714D01*
X194883928Y-14315000D01*
X194852023Y-14243571D01*
X194852023Y-14172142D01*
X194883928Y-14100714D01*
X194915833Y-14065000D01*
X194979642Y-14029285D01*
X195139166Y-14029285D01*
X195234880Y-14065000D01*
X195745357Y-14386428D02*
X195841071Y-14422142D01*
X195872976Y-14457857D01*
X195904880Y-14529285D01*
X195904880Y-14636428D01*
X195872976Y-14707857D01*
X195841071Y-14743571D01*
X195777261Y-14779285D01*
X195522023Y-14779285D01*
X195522023Y-14029285D01*
X195745357Y-14029285D01*
X195809166Y-14065000D01*
X195841071Y-14100714D01*
X195872976Y-14172142D01*
X195872976Y-14243571D01*
X195841071Y-14315000D01*
X195809166Y-14350714D01*
X195745357Y-14386428D01*
X195522023Y-14386428D01*
X188007023Y-21075000D02*
X187943214Y-21039285D01*
X187847500Y-21039285D01*
X187751785Y-21075000D01*
X187687976Y-21146428D01*
X187656071Y-21217857D01*
X187624166Y-21360714D01*
X187624166Y-21467857D01*
X187656071Y-21610714D01*
X187687976Y-21682142D01*
X187751785Y-21753571D01*
X187847500Y-21789285D01*
X187911309Y-21789285D01*
X188007023Y-21753571D01*
X188038928Y-21717857D01*
X188038928Y-21467857D01*
X187911309Y-21467857D01*
X188326071Y-21789285D02*
X188326071Y-21039285D01*
X188708928Y-21789285D01*
X188708928Y-21039285D01*
X189027976Y-21789285D02*
X189027976Y-21039285D01*
X189187500Y-21039285D01*
X189283214Y-21075000D01*
X189347023Y-21146428D01*
X189378928Y-21217857D01*
X189410833Y-21360714D01*
X189410833Y-21467857D01*
X189378928Y-21610714D01*
X189347023Y-21682142D01*
X189283214Y-21753571D01*
X189187500Y-21789285D01*
X189027976Y-21789285D01*
D11*
X186506880Y-54974380D02*
X186030690Y-55307714D01*
X186506880Y-55545809D02*
X185506880Y-55545809D01*
X185506880Y-55164857D01*
X185554500Y-55069619D01*
X185602119Y-55022000D01*
X185697357Y-54974380D01*
X185840214Y-54974380D01*
X185935452Y-55022000D01*
X185983071Y-55069619D01*
X186030690Y-55164857D01*
X186030690Y-55545809D01*
X185983071Y-54545809D02*
X185983071Y-54212476D01*
X186506880Y-54069619D02*
X186506880Y-54545809D01*
X185506880Y-54545809D01*
X185506880Y-54069619D01*
X186459261Y-53688666D02*
X186506880Y-53545809D01*
X186506880Y-53307714D01*
X186459261Y-53212476D01*
X186411642Y-53164857D01*
X186316404Y-53117238D01*
X186221166Y-53117238D01*
X186125928Y-53164857D01*
X186078309Y-53212476D01*
X186030690Y-53307714D01*
X185983071Y-53498190D01*
X185935452Y-53593428D01*
X185887833Y-53641047D01*
X185792595Y-53688666D01*
X185697357Y-53688666D01*
X185602119Y-53641047D01*
X185554500Y-53593428D01*
X185506880Y-53498190D01*
X185506880Y-53260095D01*
X185554500Y-53117238D01*
X185983071Y-52688666D02*
X185983071Y-52355333D01*
X186506880Y-52212476D02*
X186506880Y-52688666D01*
X185506880Y-52688666D01*
X185506880Y-52212476D01*
X185506880Y-51926761D02*
X185506880Y-51355333D01*
X186506880Y-51641047D02*
X185506880Y-51641047D01*
X142876880Y-54983380D02*
X142400690Y-55316714D01*
X142876880Y-55554809D02*
X141876880Y-55554809D01*
X141876880Y-55173857D01*
X141924500Y-55078619D01*
X141972119Y-55031000D01*
X142067357Y-54983380D01*
X142210214Y-54983380D01*
X142305452Y-55031000D01*
X142353071Y-55078619D01*
X142400690Y-55173857D01*
X142400690Y-55554809D01*
X142353071Y-54554809D02*
X142353071Y-54221476D01*
X142876880Y-54078619D02*
X142876880Y-54554809D01*
X141876880Y-54554809D01*
X141876880Y-54078619D01*
X142829261Y-53697666D02*
X142876880Y-53554809D01*
X142876880Y-53316714D01*
X142829261Y-53221476D01*
X142781642Y-53173857D01*
X142686404Y-53126238D01*
X142591166Y-53126238D01*
X142495928Y-53173857D01*
X142448309Y-53221476D01*
X142400690Y-53316714D01*
X142353071Y-53507190D01*
X142305452Y-53602428D01*
X142257833Y-53650047D01*
X142162595Y-53697666D01*
X142067357Y-53697666D01*
X141972119Y-53650047D01*
X141924500Y-53602428D01*
X141876880Y-53507190D01*
X141876880Y-53269095D01*
X141924500Y-53126238D01*
X142353071Y-52697666D02*
X142353071Y-52364333D01*
X142876880Y-52221476D02*
X142876880Y-52697666D01*
X141876880Y-52697666D01*
X141876880Y-52221476D01*
X141876880Y-51935761D02*
X141876880Y-51364333D01*
X142876880Y-51650047D02*
X141876880Y-51650047D01*
X192225119Y-51282380D02*
X192415595Y-51282380D01*
X192510833Y-51330000D01*
X192606071Y-51425238D01*
X192653690Y-51615714D01*
X192653690Y-51949047D01*
X192606071Y-52139523D01*
X192510833Y-52234761D01*
X192415595Y-52282380D01*
X192225119Y-52282380D01*
X192129880Y-52234761D01*
X192034642Y-52139523D01*
X191987023Y-51949047D01*
X191987023Y-51615714D01*
X192034642Y-51425238D01*
X192129880Y-51330000D01*
X192225119Y-51282380D01*
X193558452Y-52282380D02*
X193082261Y-52282380D01*
X193082261Y-51282380D01*
X193891785Y-51758571D02*
X194225119Y-51758571D01*
X194367976Y-52282380D02*
X193891785Y-52282380D01*
X193891785Y-51282380D01*
X194367976Y-51282380D01*
X194796547Y-52282380D02*
X194796547Y-51282380D01*
X195034642Y-51282380D01*
X195177500Y-51330000D01*
X195272738Y-51425238D01*
X195320357Y-51520476D01*
X195367976Y-51710952D01*
X195367976Y-51853809D01*
X195320357Y-52044285D01*
X195272738Y-52139523D01*
X195177500Y-52234761D01*
X195034642Y-52282380D01*
X194796547Y-52282380D01*
X133402119Y-51196380D02*
X133592595Y-51196380D01*
X133687833Y-51244000D01*
X133783071Y-51339238D01*
X133830690Y-51529714D01*
X133830690Y-51863047D01*
X133783071Y-52053523D01*
X133687833Y-52148761D01*
X133592595Y-52196380D01*
X133402119Y-52196380D01*
X133306880Y-52148761D01*
X133211642Y-52053523D01*
X133164023Y-51863047D01*
X133164023Y-51529714D01*
X133211642Y-51339238D01*
X133306880Y-51244000D01*
X133402119Y-51196380D01*
X134735452Y-52196380D02*
X134259261Y-52196380D01*
X134259261Y-51196380D01*
X135068785Y-51672571D02*
X135402119Y-51672571D01*
X135544976Y-52196380D02*
X135068785Y-52196380D01*
X135068785Y-51196380D01*
X135544976Y-51196380D01*
X135973547Y-52196380D02*
X135973547Y-51196380D01*
X136211642Y-51196380D01*
X136354500Y-51244000D01*
X136449738Y-51339238D01*
X136497357Y-51434476D01*
X136544976Y-51624952D01*
X136544976Y-51767809D01*
X136497357Y-51958285D01*
X136449738Y-52053523D01*
X136354500Y-52148761D01*
X136211642Y-52196380D01*
X135973547Y-52196380D01*
X190189880Y-63781904D02*
X190189880Y-63210476D01*
X191189880Y-63496190D02*
X190189880Y-63496190D01*
X191189880Y-62305714D02*
X190713690Y-62639047D01*
X191189880Y-62877142D02*
X190189880Y-62877142D01*
X190189880Y-62496190D01*
X190237500Y-62400952D01*
X190285119Y-62353333D01*
X190380357Y-62305714D01*
X190523214Y-62305714D01*
X190618452Y-62353333D01*
X190666071Y-62400952D01*
X190713690Y-62496190D01*
X190713690Y-62877142D01*
X191189880Y-61305714D02*
X190713690Y-61639047D01*
X191189880Y-61877142D02*
X190189880Y-61877142D01*
X190189880Y-61496190D01*
X190237500Y-61400952D01*
X190285119Y-61353333D01*
X190380357Y-61305714D01*
X190523214Y-61305714D01*
X190618452Y-61353333D01*
X190666071Y-61400952D01*
X190713690Y-61496190D01*
X190713690Y-61877142D01*
X191142261Y-60924761D02*
X191189880Y-60781904D01*
X191189880Y-60543809D01*
X191142261Y-60448571D01*
X191094642Y-60400952D01*
X190999404Y-60353333D01*
X190904166Y-60353333D01*
X190808928Y-60400952D01*
X190761309Y-60448571D01*
X190713690Y-60543809D01*
X190666071Y-60734285D01*
X190618452Y-60829523D01*
X190570833Y-60877142D01*
X190475595Y-60924761D01*
X190380357Y-60924761D01*
X190285119Y-60877142D01*
X190237500Y-60829523D01*
X190189880Y-60734285D01*
X190189880Y-60496190D01*
X190237500Y-60353333D01*
X137136880Y-62303904D02*
X137136880Y-61732476D01*
X138136880Y-62018190D02*
X137136880Y-62018190D01*
X138136880Y-60827714D02*
X137660690Y-61161047D01*
X138136880Y-61399142D02*
X137136880Y-61399142D01*
X137136880Y-61018190D01*
X137184500Y-60922952D01*
X137232119Y-60875333D01*
X137327357Y-60827714D01*
X137470214Y-60827714D01*
X137565452Y-60875333D01*
X137613071Y-60922952D01*
X137660690Y-61018190D01*
X137660690Y-61399142D01*
X138136880Y-59827714D02*
X137660690Y-60161047D01*
X138136880Y-60399142D02*
X137136880Y-60399142D01*
X137136880Y-60018190D01*
X137184500Y-59922952D01*
X137232119Y-59875333D01*
X137327357Y-59827714D01*
X137470214Y-59827714D01*
X137565452Y-59875333D01*
X137613071Y-59922952D01*
X137660690Y-60018190D01*
X137660690Y-60399142D01*
X138089261Y-59446761D02*
X138136880Y-59303904D01*
X138136880Y-59065809D01*
X138089261Y-58970571D01*
X138041642Y-58922952D01*
X137946404Y-58875333D01*
X137851166Y-58875333D01*
X137755928Y-58922952D01*
X137708309Y-58970571D01*
X137660690Y-59065809D01*
X137613071Y-59256285D01*
X137565452Y-59351523D01*
X137517833Y-59399142D01*
X137422595Y-59446761D01*
X137327357Y-59446761D01*
X137232119Y-59399142D01*
X137184500Y-59351523D01*
X137136880Y-59256285D01*
X137136880Y-59018190D01*
X137184500Y-58875333D01*
M02*
