G04 #@! TF.GenerationSoftware,KiCad,Pcbnew,(5.1.4-0-10_14)*
G04 #@! TF.CreationDate,2021-06-12T19:28:26+03:00*
G04 #@! TF.ProjectId,corne-cherry,636f726e-652d-4636-9865-7272792e6b69,3.0.1*
G04 #@! TF.SameCoordinates,Original*
G04 #@! TF.FileFunction,Soldermask,Top*
G04 #@! TF.FilePolarity,Negative*
%FSLAX46Y46*%
G04 Gerber Fmt 4.6, Leading zero omitted, Abs format (unit mm)*
G04 Created by KiCad (PCBNEW (5.1.4-0-10_14)) date 2021-06-12 19:28:26*
%MOMM*%
%LPD*%
G04 APERTURE LIST*
%ADD10C,1.797000*%
%ADD11R,1.797000X1.797000*%
%ADD12R,1.350000X1.700000*%
%ADD13C,3.400000*%
%ADD14C,2.300000*%
%ADD15C,4.500000*%
%ADD16C,0.100000*%
%ADD17C,1.350000*%
%ADD18R,1.700000X1.350000*%
%ADD19R,2.400000X2.400000*%
%ADD20C,2.400000*%
%ADD21R,3.600000X2.400000*%
%ADD22C,1.900000*%
%ADD23C,2.600000*%
%ADD24C,4.700000*%
%ADD25C,1.600000*%
%ADD26C,0.700000*%
G04 APERTURE END LIST*
D10*
X46734500Y-33870000D03*
D11*
X46734500Y-41490000D03*
D12*
X46734500Y-39455000D03*
X46734500Y-35905000D03*
D13*
X117647500Y-57325000D03*
X111297500Y-59865000D03*
D14*
X110027500Y-62405000D03*
X120187500Y-62405000D03*
D15*
X115107500Y-62405000D03*
D13*
X143228091Y-103915295D03*
X142252795Y-110684557D03*
D14*
X143817500Y-113054409D03*
X148897500Y-104255591D03*
D15*
X146357500Y-108655000D03*
D13*
X188033909Y-108309705D03*
X182659205Y-104080443D03*
D14*
X179824500Y-104250591D03*
X184904500Y-113049409D03*
D15*
X182364500Y-108650000D03*
D13*
X246307500Y-88100000D03*
X239957500Y-90640000D03*
D14*
X238687500Y-93180000D03*
X248847500Y-93180000D03*
D15*
X243767500Y-93180000D03*
D10*
X251907500Y-90970000D03*
D11*
X251907500Y-98590000D03*
D12*
X251907500Y-96555000D03*
X251907500Y-93005000D03*
D10*
X92907500Y-91270000D03*
D11*
X92907500Y-98890000D03*
D12*
X92907500Y-96855000D03*
X92907500Y-93305000D03*
D10*
X190669862Y-115062500D03*
X184070748Y-118872500D03*
D16*
G36*
X183741874Y-120099874D02*
G01*
X182843374Y-118543626D01*
X184399622Y-117645126D01*
X185298122Y-119201374D01*
X183741874Y-120099874D01*
X183741874Y-120099874D01*
G37*
D17*
X185833110Y-117855000D03*
D16*
G36*
X185434488Y-118864567D02*
G01*
X184759488Y-117695433D01*
X186231732Y-116845433D01*
X186906732Y-118014567D01*
X185434488Y-118864567D01*
X185434488Y-118864567D01*
G37*
D17*
X188907500Y-116080000D03*
D16*
G36*
X188508878Y-117089567D02*
G01*
X187833878Y-115920433D01*
X189306122Y-115070433D01*
X189981122Y-116239567D01*
X188508878Y-117089567D01*
X188508878Y-117089567D01*
G37*
D10*
X206869862Y-105362500D03*
X200270748Y-109172500D03*
D16*
G36*
X199941874Y-110399874D02*
G01*
X199043374Y-108843626D01*
X200599622Y-107945126D01*
X201498122Y-109501374D01*
X199941874Y-110399874D01*
X199941874Y-110399874D01*
G37*
D17*
X202033110Y-108155000D03*
D16*
G36*
X201634488Y-109164567D02*
G01*
X200959488Y-107995433D01*
X202431732Y-107145433D01*
X203106732Y-108314567D01*
X201634488Y-109164567D01*
X201634488Y-109164567D01*
G37*
D17*
X205107500Y-106380000D03*
D16*
G36*
X204708878Y-107389567D02*
G01*
X204033878Y-106220433D01*
X205506122Y-105370433D01*
X206181122Y-106539567D01*
X204708878Y-107389567D01*
X204708878Y-107389567D01*
G37*
D10*
X232607500Y-92870000D03*
D11*
X232607500Y-100490000D03*
D12*
X232607500Y-98455000D03*
X232607500Y-94905000D03*
D10*
X220957500Y-60495000D03*
D11*
X220957500Y-68115000D03*
D12*
X220957500Y-66080000D03*
X220957500Y-62530000D03*
D10*
X239964500Y-55615000D03*
D11*
X239964500Y-63235000D03*
D12*
X239964500Y-61200000D03*
X239964500Y-57650000D03*
D10*
X258964500Y-50740000D03*
D11*
X258964500Y-58360000D03*
D12*
X258964500Y-56325000D03*
X258964500Y-52775000D03*
D10*
X277964500Y-58115000D03*
D11*
X277964500Y-65735000D03*
D12*
X277964500Y-63700000D03*
X277964500Y-60150000D03*
D10*
X296964500Y-71865000D03*
D11*
X296964500Y-79485000D03*
D12*
X296964500Y-77450000D03*
X296964500Y-73900000D03*
D10*
X315964500Y-71865000D03*
D11*
X315964500Y-79485000D03*
D12*
X315964500Y-77450000D03*
X315964500Y-73900000D03*
D10*
X220957500Y-41495000D03*
D11*
X220957500Y-49115000D03*
D12*
X220957500Y-47080000D03*
X220957500Y-43530000D03*
D10*
X240107500Y-36570000D03*
D11*
X240107500Y-44190000D03*
D12*
X240107500Y-42155000D03*
X240107500Y-38605000D03*
D10*
X258964500Y-31740000D03*
D11*
X258964500Y-39360000D03*
D12*
X258964500Y-37325000D03*
X258964500Y-33775000D03*
D10*
X277964500Y-39115000D03*
D11*
X277964500Y-46735000D03*
D12*
X277964500Y-44700000D03*
X277964500Y-41150000D03*
D10*
X296964500Y-52865000D03*
D11*
X296964500Y-60485000D03*
D12*
X296964500Y-58450000D03*
X296964500Y-54900000D03*
D10*
X315964500Y-52715000D03*
D11*
X315964500Y-60335000D03*
D12*
X315964500Y-58300000D03*
X315964500Y-54750000D03*
D10*
X222557500Y-20310000D03*
D11*
X222557500Y-27930000D03*
D12*
X222557500Y-25895000D03*
X222557500Y-22345000D03*
D10*
X239964500Y-17615000D03*
D11*
X239964500Y-25235000D03*
D12*
X239964500Y-23200000D03*
X239964500Y-19650000D03*
D10*
X258964500Y-12740000D03*
D11*
X258964500Y-20360000D03*
D12*
X258964500Y-18325000D03*
X258964500Y-14775000D03*
D10*
X277964500Y-20115000D03*
D11*
X277964500Y-27735000D03*
D12*
X277964500Y-25700000D03*
X277964500Y-22150000D03*
D10*
X296964500Y-33865000D03*
D11*
X296964500Y-41485000D03*
D12*
X296964500Y-39450000D03*
X296964500Y-35900000D03*
D10*
X315964500Y-33865000D03*
D11*
X315964500Y-41485000D03*
D12*
X315964500Y-39450000D03*
X315964500Y-35900000D03*
D10*
X132992500Y-85780000D03*
D11*
X125372500Y-85780000D03*
D18*
X127407500Y-85780000D03*
X130957500Y-85780000D03*
D10*
X114607500Y-92570000D03*
D11*
X114607500Y-100190000D03*
D12*
X114607500Y-98155000D03*
X114607500Y-94605000D03*
D10*
X112107500Y-92570000D03*
D11*
X112107500Y-100190000D03*
D12*
X112107500Y-98155000D03*
X112107500Y-94605000D03*
D10*
X122707500Y-60495000D03*
D11*
X122707500Y-68115000D03*
D12*
X122707500Y-66080000D03*
X122707500Y-62530000D03*
D10*
X103707500Y-55620000D03*
D11*
X103707500Y-63240000D03*
D12*
X103707500Y-61205000D03*
X103707500Y-57655000D03*
D10*
X84707500Y-50745000D03*
D11*
X84707500Y-58365000D03*
D12*
X84707500Y-56330000D03*
X84707500Y-52780000D03*
D10*
X65707500Y-58120000D03*
D11*
X65707500Y-65740000D03*
D12*
X65707500Y-63705000D03*
X65707500Y-60155000D03*
D10*
X46734500Y-71870000D03*
D11*
X46734500Y-79490000D03*
D12*
X46734500Y-77455000D03*
X46734500Y-73905000D03*
D10*
X27734500Y-71866875D03*
D11*
X27734500Y-79486875D03*
D12*
X27734500Y-77451875D03*
X27734500Y-73901875D03*
D10*
X122707500Y-41495000D03*
D11*
X122707500Y-49115000D03*
D12*
X122707500Y-47080000D03*
X122707500Y-43530000D03*
D10*
X103707500Y-36620000D03*
D11*
X103707500Y-44240000D03*
D12*
X103707500Y-42205000D03*
X103707500Y-38655000D03*
D10*
X84707500Y-31745000D03*
D11*
X84707500Y-39365000D03*
D12*
X84707500Y-37330000D03*
X84707500Y-33780000D03*
D10*
X66857500Y-37320000D03*
D11*
X66857500Y-44940000D03*
D12*
X66857500Y-42905000D03*
X66857500Y-39355000D03*
D10*
X46734500Y-52870000D03*
D11*
X46734500Y-60490000D03*
D12*
X46734500Y-58455000D03*
X46734500Y-54905000D03*
D10*
X27734500Y-52866875D03*
D11*
X27734500Y-60486875D03*
D12*
X27734500Y-58451875D03*
X27734500Y-54901875D03*
D10*
X122707500Y-22495000D03*
D11*
X122707500Y-30115000D03*
D12*
X122707500Y-28080000D03*
X122707500Y-24530000D03*
D10*
X103707500Y-17620000D03*
D11*
X103707500Y-25240000D03*
D12*
X103707500Y-23205000D03*
X103707500Y-19655000D03*
D10*
X84707500Y-12745000D03*
D11*
X84707500Y-20365000D03*
D12*
X84707500Y-18330000D03*
X84707500Y-14780000D03*
D10*
X65707500Y-19870000D03*
D11*
X65707500Y-27490000D03*
D12*
X65707500Y-25455000D03*
X65707500Y-21905000D03*
D10*
X27907500Y-33860000D03*
D11*
X27907500Y-41480000D03*
D12*
X27907500Y-39445000D03*
X27907500Y-35895000D03*
D13*
X117647500Y-19325000D03*
X111297500Y-21865000D03*
D14*
X110027500Y-24405000D03*
X120187500Y-24405000D03*
D15*
X115107500Y-24405000D03*
D13*
X204733909Y-98559705D03*
X199359205Y-94330443D03*
D14*
X196524500Y-94500591D03*
X201604500Y-103299409D03*
D15*
X199064500Y-98900000D03*
D13*
X126478091Y-94165295D03*
X125502795Y-100934557D03*
D14*
X127067500Y-103304409D03*
X132147500Y-94505591D03*
D15*
X129607500Y-98905000D03*
D19*
X186107500Y-76780000D03*
D20*
X186107500Y-74280000D03*
X186107500Y-71780000D03*
D21*
X193607500Y-79880000D03*
X193607500Y-68680000D03*
D22*
X200607500Y-76780000D03*
X200607500Y-71780000D03*
D13*
X87247500Y-88100000D03*
X80897500Y-90640000D03*
D14*
X79627500Y-93180000D03*
X89787500Y-93180000D03*
D15*
X84707500Y-93180000D03*
D23*
X200600500Y-61264000D03*
D24*
X298849500Y-64265500D03*
X220607500Y-33680000D03*
X299007500Y-46780000D03*
X255705500Y-81530500D03*
D23*
X186168500Y-84785000D03*
D24*
X209139500Y-93145000D03*
D23*
X142301500Y-84775000D03*
X127869500Y-61254000D03*
D24*
X119330500Y-93135000D03*
X72764500Y-81520500D03*
X105557500Y-30280000D03*
X29607500Y-65380000D03*
X29657500Y-46180000D03*
D25*
X192787500Y-61270000D03*
X185787500Y-61270000D03*
X135634500Y-61292000D03*
X142634500Y-61292000D03*
D13*
X215904500Y-38320000D03*
X209554500Y-40860000D03*
D14*
X208284500Y-43400000D03*
X218444500Y-43400000D03*
D15*
X213364500Y-43400000D03*
D13*
X215904500Y-57320000D03*
X209554500Y-59860000D03*
D14*
X208284500Y-62400000D03*
X218444500Y-62400000D03*
D15*
X213364500Y-62400000D03*
D13*
X22647500Y-68700000D03*
X16297500Y-71240000D03*
D14*
X15027500Y-73780000D03*
X25187500Y-73780000D03*
D15*
X20107500Y-73780000D03*
D13*
X291904500Y-68695000D03*
X285554500Y-71235000D03*
D14*
X284284500Y-73775000D03*
X294444500Y-73775000D03*
D15*
X289364500Y-73775000D03*
D13*
X253904500Y-47570000D03*
X247554500Y-50110000D03*
D14*
X246284500Y-52650000D03*
X256444500Y-52650000D03*
D15*
X251364500Y-52650000D03*
D13*
X41647500Y-68700000D03*
X35297500Y-71240000D03*
D14*
X34027500Y-73780000D03*
X44187500Y-73780000D03*
D15*
X39107500Y-73780000D03*
D13*
X22647500Y-49700000D03*
X16297500Y-52240000D03*
D14*
X15027500Y-54780000D03*
X25187500Y-54780000D03*
D15*
X20107500Y-54780000D03*
D13*
X41647500Y-49700000D03*
X35297500Y-52240000D03*
D14*
X34027500Y-54780000D03*
X44187500Y-54780000D03*
D15*
X39107500Y-54780000D03*
D13*
X22647500Y-30700000D03*
X16297500Y-33240000D03*
D14*
X15027500Y-35780000D03*
X25187500Y-35780000D03*
D15*
X20107500Y-35780000D03*
D13*
X41647500Y-30700000D03*
X35297500Y-33240000D03*
D14*
X34027500Y-35780000D03*
X44187500Y-35780000D03*
D15*
X39107500Y-35780000D03*
D13*
X60647500Y-16950000D03*
X54297500Y-19490000D03*
D14*
X53027500Y-22030000D03*
X63187500Y-22030000D03*
D15*
X58107500Y-22030000D03*
D13*
X79647500Y-9575000D03*
X73297500Y-12115000D03*
D14*
X72027500Y-14655000D03*
X82187500Y-14655000D03*
D15*
X77107500Y-14655000D03*
D13*
X98647500Y-14450000D03*
X92297500Y-16990000D03*
D14*
X91027500Y-19530000D03*
X101187500Y-19530000D03*
D15*
X96107500Y-19530000D03*
D13*
X60647500Y-35950000D03*
X54297500Y-38490000D03*
D14*
X53027500Y-41030000D03*
X63187500Y-41030000D03*
D15*
X58107500Y-41030000D03*
D13*
X79647500Y-28575000D03*
X73297500Y-31115000D03*
D14*
X72027500Y-33655000D03*
X82187500Y-33655000D03*
D15*
X77107500Y-33655000D03*
D13*
X98647500Y-33450000D03*
X92297500Y-35990000D03*
D14*
X91027500Y-38530000D03*
X101187500Y-38530000D03*
D15*
X96107500Y-38530000D03*
D13*
X117647500Y-38325000D03*
X111297500Y-40865000D03*
D14*
X110027500Y-43405000D03*
X120187500Y-43405000D03*
D15*
X115107500Y-43405000D03*
D13*
X60647500Y-54950000D03*
X54297500Y-57490000D03*
D14*
X53027500Y-60030000D03*
X63187500Y-60030000D03*
D15*
X58107500Y-60030000D03*
D13*
X79647500Y-47575000D03*
X73297500Y-50115000D03*
D14*
X72027500Y-52655000D03*
X82187500Y-52655000D03*
D15*
X77107500Y-52655000D03*
D13*
X98647500Y-52450000D03*
X92297500Y-54990000D03*
D14*
X91027500Y-57530000D03*
X101187500Y-57530000D03*
D15*
X96107500Y-57530000D03*
D13*
X106347500Y-89375000D03*
X99997500Y-91915000D03*
D14*
X98727500Y-94455000D03*
X108887500Y-94455000D03*
D15*
X103807500Y-94455000D03*
D13*
X310904500Y-30695000D03*
X304554500Y-33235000D03*
D14*
X303284500Y-35775000D03*
X313444500Y-35775000D03*
D15*
X308364500Y-35775000D03*
D13*
X291904500Y-30695000D03*
X285554500Y-33235000D03*
D14*
X284284500Y-35775000D03*
X294444500Y-35775000D03*
D15*
X289364500Y-35775000D03*
D13*
X272904500Y-16945000D03*
X266554500Y-19485000D03*
D14*
X265284500Y-22025000D03*
X275444500Y-22025000D03*
D15*
X270364500Y-22025000D03*
D13*
X253904500Y-9570000D03*
X247554500Y-12110000D03*
D14*
X246284500Y-14650000D03*
X256444500Y-14650000D03*
D15*
X251364500Y-14650000D03*
D13*
X234904500Y-14445000D03*
X228554500Y-16985000D03*
D14*
X227284500Y-19525000D03*
X237444500Y-19525000D03*
D15*
X232364500Y-19525000D03*
D13*
X215897500Y-19325000D03*
X209547500Y-21865000D03*
D14*
X208277500Y-24405000D03*
X218437500Y-24405000D03*
D15*
X213357500Y-24405000D03*
D13*
X310904500Y-49695000D03*
X304554500Y-52235000D03*
D14*
X303284500Y-54775000D03*
X313444500Y-54775000D03*
D15*
X308364500Y-54775000D03*
D13*
X291904500Y-49695000D03*
X285554500Y-52235000D03*
D14*
X284284500Y-54775000D03*
X294444500Y-54775000D03*
D15*
X289364500Y-54775000D03*
D13*
X272904500Y-35945000D03*
X266554500Y-38485000D03*
D14*
X265284500Y-41025000D03*
X275444500Y-41025000D03*
D15*
X270364500Y-41025000D03*
D13*
X253904500Y-28570000D03*
X247554500Y-31110000D03*
D14*
X246284500Y-33650000D03*
X256444500Y-33650000D03*
D15*
X251364500Y-33650000D03*
D13*
X234904500Y-33445000D03*
X228554500Y-35985000D03*
D14*
X227284500Y-38525000D03*
X237444500Y-38525000D03*
D15*
X232364500Y-38525000D03*
D13*
X310904500Y-68695000D03*
X304554500Y-71235000D03*
D14*
X303284500Y-73775000D03*
X313444500Y-73775000D03*
D15*
X308364500Y-73775000D03*
D13*
X272904500Y-54945000D03*
X266554500Y-57485000D03*
D14*
X265284500Y-60025000D03*
X275444500Y-60025000D03*
D15*
X270364500Y-60025000D03*
D13*
X234904500Y-52445000D03*
X228554500Y-54985000D03*
D14*
X227284500Y-57525000D03*
X237444500Y-57525000D03*
D15*
X232364500Y-57525000D03*
D13*
X227204500Y-89570000D03*
X220854500Y-92110000D03*
D14*
X219584500Y-94650000D03*
X229744500Y-94650000D03*
D15*
X224664500Y-94650000D03*
D26*
X270607500Y-12870000D03*
X270013750Y-12870000D03*
X269420000Y-12870000D03*
X268826250Y-12870000D03*
X268232500Y-12870000D03*
X272388750Y-12870000D03*
X271201250Y-12870000D03*
X272982500Y-12870000D03*
X271795000Y-12870000D03*
X232487500Y-10285000D03*
X231893750Y-10285000D03*
X231300000Y-10285000D03*
X230706250Y-10285000D03*
X230112500Y-10285000D03*
X234268750Y-10285000D03*
X233081250Y-10285000D03*
X234862500Y-10285000D03*
X233675000Y-10285000D03*
X270491500Y-83193000D03*
X269897750Y-83193000D03*
X269304000Y-83193000D03*
X268710250Y-83193000D03*
X268116500Y-83193000D03*
X272272750Y-83193000D03*
X271085250Y-83193000D03*
X272866500Y-83193000D03*
X271679000Y-83193000D03*
X308405500Y-83183000D03*
X307811750Y-83183000D03*
X307218000Y-83183000D03*
X306624250Y-83183000D03*
X306030500Y-83183000D03*
X310186750Y-83183000D03*
X308999250Y-83183000D03*
X310780500Y-83183000D03*
X309593000Y-83183000D03*
X56936000Y-83178000D03*
X55748500Y-83178000D03*
X57529750Y-83178000D03*
X56342250Y-83178000D03*
X60498500Y-83178000D03*
X59904750Y-83178000D03*
X59311000Y-83178000D03*
X58717250Y-83178000D03*
X58123500Y-83178000D03*
X18975000Y-83176000D03*
X17787500Y-83176000D03*
X19568750Y-83176000D03*
X18381250Y-83176000D03*
X22537500Y-83176000D03*
X21943750Y-83176000D03*
X21350000Y-83176000D03*
X20756250Y-83176000D03*
X20162500Y-83176000D03*
X95170000Y-10373000D03*
X93982500Y-10373000D03*
X95763750Y-10373000D03*
X94576250Y-10373000D03*
X98732500Y-10373000D03*
X98138750Y-10373000D03*
X97545000Y-10373000D03*
X96951250Y-10373000D03*
X96357500Y-10373000D03*
X57299250Y-12869000D03*
X56111750Y-12869000D03*
X57893000Y-12869000D03*
X56705500Y-12869000D03*
X60861750Y-12869000D03*
X60268000Y-12869000D03*
X59674250Y-12869000D03*
X59080500Y-12869000D03*
X58486750Y-12869000D03*
M02*
